<?xml version="1.0" encoding="UTF-8"?>
<!--Generator: Apple Native CoreSVG 129-->
<!DOCTYPE svg
PUBLIC "-//W3C//DTD SVG 1.1//EN"
       "http://www.w3.org/Graphics/SVG/1.1/DTD/svg11.dtd">
<svg version="1.1" xmlns="http://www.w3.org/2000/svg" xmlns:xlink="http://www.w3.org/1999/xlink" width="3300" height="2200">
 <!--glyph: "uni1000DC.medium", point size: 100.000000, font version: "Version 16.0d9e1", template writer version: "8"-->
 <g id="Notes">
  <rect height="2200" id="artboard" style="fill:white;opacity:1" width="3300" x="0" y="0"/>
  <line id="" style="fill:none;stroke:black;opacity:1;stroke-width:0.5;" x1="263" x2="3036" y1="292" y2="292"/>
  <text style="stroke:none;fill:black;font-family:-apple-system,&quot;SF Pro Display&quot;,&quot;SF Pro Text&quot;,Helvetica,sans-serif;font-weight:bold;" transform="matrix(1 0 0 1 263 322)">Weight/Scale Variations</text>
  <text style="stroke:none;fill:black;font-family:-apple-system,&quot;SF Pro Display&quot;,&quot;SF Pro Text&quot;,Helvetica,sans-serif;text-anchor:middle;" transform="matrix(1 0 0 1 559.711 322)">Ultralight</text>
  <text style="stroke:none;fill:black;font-family:-apple-system,&quot;SF Pro Display&quot;,&quot;SF Pro Text&quot;,Helvetica,sans-serif;text-anchor:middle;" transform="matrix(1 0 0 1 856.422 322)">Thin</text>
  <text style="stroke:none;fill:black;font-family:-apple-system,&quot;SF Pro Display&quot;,&quot;SF Pro Text&quot;,Helvetica,sans-serif;text-anchor:middle;" transform="matrix(1 0 0 1 1153.13 322)">Light</text>
  <text style="stroke:none;fill:black;font-family:-apple-system,&quot;SF Pro Display&quot;,&quot;SF Pro Text&quot;,Helvetica,sans-serif;text-anchor:middle;" transform="matrix(1 0 0 1 1449.84 322)">Regular</text>
  <text style="stroke:none;fill:black;font-family:-apple-system,&quot;SF Pro Display&quot;,&quot;SF Pro Text&quot;,Helvetica,sans-serif;text-anchor:middle;" transform="matrix(1 0 0 1 1746.56 322)">Medium</text>
  <text style="stroke:none;fill:black;font-family:-apple-system,&quot;SF Pro Display&quot;,&quot;SF Pro Text&quot;,Helvetica,sans-serif;text-anchor:middle;" transform="matrix(1 0 0 1 2043.27 322)">Semibold</text>
  <text style="stroke:none;fill:black;font-family:-apple-system,&quot;SF Pro Display&quot;,&quot;SF Pro Text&quot;,Helvetica,sans-serif;text-anchor:middle;" transform="matrix(1 0 0 1 2339.98 322)">Bold</text>
  <text style="stroke:none;fill:black;font-family:-apple-system,&quot;SF Pro Display&quot;,&quot;SF Pro Text&quot;,Helvetica,sans-serif;text-anchor:middle;" transform="matrix(1 0 0 1 2636.69 322)">Heavy</text>
  <text style="stroke:none;fill:black;font-family:-apple-system,&quot;SF Pro Display&quot;,&quot;SF Pro Text&quot;,Helvetica,sans-serif;text-anchor:middle;" transform="matrix(1 0 0 1 2933.4 322)">Black</text>
  <line id="" style="fill:none;stroke:black;opacity:1;stroke-width:0.5;" x1="263" x2="3036" y1="1903" y2="1903"/>
  <g id="" transform="matrix(1 0 0 1 263 1933)">
   <path d="M 9.24805 0.830078 C 13.5547 0.830078 17.1387 -2.74414 17.1387 -7.05078 C 17.1387 -11.3574 13.5449 -14.9316 9.23828 -14.9316 C 4.94141 -14.9316 1.36719 -11.3574 1.36719 -7.05078 C 1.36719 -2.74414 4.95117 0.830078 9.24805 0.830078 Z M 9.24805 -0.654297 C 5.70312 -0.654297 2.87109 -3.49609 2.87109 -7.05078 C 2.87109 -10.6055 5.69336 -13.4473 9.23828 -13.4473 C 12.793 -13.4473 15.6348 -10.6055 15.6445 -7.05078 C 15.6543 -3.49609 12.8027 -0.654297 9.24805 -0.654297 Z M 9.22852 -3.62305 C 9.69727 -3.62305 9.9707 -3.93555 9.9707 -4.45312 L 9.9707 -6.31836 L 12.002 -6.31836 C 12.5 -6.31836 12.832 -6.57227 12.832 -7.04102 C 12.832 -7.51953 12.5195 -7.7832 12.002 -7.7832 L 9.9707 -7.7832 L 9.9707 -9.81445 C 9.9707 -10.332 9.69727 -10.6543 9.22852 -10.6543 C 8.75977 -10.6543 8.50586 -10.3125 8.50586 -9.81445 L 8.50586 -7.7832 L 6.49414 -7.7832 C 5.97656 -7.7832 5.64453 -7.51953 5.64453 -7.04102 C 5.64453 -6.57227 5.99609 -6.31836 6.49414 -6.31836 L 8.50586 -6.31836 L 8.50586 -4.45312 C 8.50586 -3.95508 8.75977 -3.62305 9.22852 -3.62305 Z"/>
  </g>
  <g id="" transform="matrix(1 0 0 1 281.506 1933)">
   <path d="M 11.709 2.91016 C 17.1582 2.91016 21.6699 -1.61133 21.6699 -7.05078 C 21.6699 -12.5 17.1484 -17.0117 11.6992 -17.0117 C 6.25977 -17.0117 1.74805 -12.5 1.74805 -7.05078 C 1.74805 -1.61133 6.26953 2.91016 11.709 2.91016 Z M 11.709 1.25 C 7.09961 1.25 3.41797 -2.44141 3.41797 -7.05078 C 3.41797 -11.6602 7.08984 -15.3516 11.6992 -15.3516 C 16.3086 -15.3516 20 -11.6602 20.0098 -7.05078 C 20.0195 -2.44141 16.3184 1.25 11.709 1.25 Z M 11.6797 -2.66602 C 12.207 -2.66602 12.5098 -3.01758 12.5098 -3.59375 L 12.5098 -6.23047 L 15.3223 -6.23047 C 15.8691 -6.23047 16.25 -6.51367 16.25 -7.03125 C 16.25 -7.55859 15.8887 -7.86133 15.3223 -7.86133 L 12.5098 -7.86133 L 12.5098 -10.6836 C 12.5098 -11.25 12.207 -11.6113 11.6797 -11.6113 C 11.1621 -11.6113 10.8789 -11.2305 10.8789 -10.6836 L 10.8789 -7.86133 L 8.07617 -7.86133 C 7.50977 -7.86133 7.13867 -7.55859 7.13867 -7.03125 C 7.13867 -6.51367 7.5293 -6.23047 8.07617 -6.23047 L 10.8789 -6.23047 L 10.8789 -3.59375 C 10.8789 -3.03711 11.1621 -2.66602 11.6797 -2.66602 Z"/>
  </g>
  <g id="" transform="matrix(1 0 0 1 304.924 1933)">
   <path d="M 14.9707 5.66406 C 21.9336 5.66406 27.6953 -0.0976562 27.6953 -7.05078 C 27.6953 -14.0137 21.9238 -19.7754 14.9609 -19.7754 C 8.00781 -19.7754 2.25586 -14.0137 2.25586 -7.05078 C 2.25586 -0.0976562 8.01758 5.66406 14.9707 5.66406 Z M 14.9707 3.84766 C 8.93555 3.84766 4.08203 -1.01562 4.08203 -7.05078 C 4.08203 -13.0957 8.92578 -17.9492 14.9609 -17.9492 C 21.0059 -17.9492 25.8594 -13.0957 25.8691 -7.05078 C 25.8789 -1.01562 21.0156 3.84766 14.9707 3.84766 Z M 14.9414 -1.38672 C 15.5176 -1.38672 15.8594 -1.77734 15.8594 -2.38281 L 15.8594 -6.13281 L 19.7754 -6.13281 C 20.3711 -6.13281 20.7812 -6.46484 20.7812 -7.02148 C 20.7812 -7.59766 20.3906 -7.93945 19.7754 -7.93945 L 15.8594 -7.93945 L 15.8594 -11.8652 C 15.8594 -12.4805 15.5176 -12.8711 14.9414 -12.8711 C 14.375 -12.8711 14.0527 -12.4609 14.0527 -11.8652 L 14.0527 -7.93945 L 10.1465 -7.93945 C 9.53125 -7.93945 9.13086 -7.59766 9.13086 -7.02148 C 9.13086 -6.46484 9.55078 -6.13281 10.1465 -6.13281 L 14.0527 -6.13281 L 14.0527 -2.38281 C 14.0527 -1.79688 14.375 -1.38672 14.9414 -1.38672 Z"/>
  </g>
  <text style="stroke:none;fill:black;font-family:-apple-system,&quot;SF Pro Display&quot;,&quot;SF Pro Text&quot;,Helvetica,sans-serif;font-weight:bold;" transform="matrix(1 0 0 1 263 1953)">Design Variations</text>
  <text style="stroke:none;fill:black;font-family:-apple-system,&quot;SF Pro Display&quot;,&quot;SF Pro Text&quot;,Helvetica,sans-serif;" transform="matrix(1 0 0 1 263 1971)">Symbols are supported in up to nine weights and three scales.</text>
  <text style="stroke:none;fill:black;font-family:-apple-system,&quot;SF Pro Display&quot;,&quot;SF Pro Text&quot;,Helvetica,sans-serif;" transform="matrix(1 0 0 1 263 1989)">For optimal layout with text and other symbols, vertically align</text>
  <text style="stroke:none;fill:black;font-family:-apple-system,&quot;SF Pro Display&quot;,&quot;SF Pro Text&quot;,Helvetica,sans-serif;" transform="matrix(1 0 0 1 263 2007)">symbols with the adjacent text.</text>
  <line id="" style="fill:none;stroke:#00AEEF;stroke-width:0.5;opacity:1.0;" x1="776" x2="776" y1="1919" y2="1933"/>
  <g id="" transform="matrix(1 0 0 1 776 1933)">
   <path d="M 3.31055 0.126953 C 3.82812 0.126953 4.08203 -0.0683594 4.26758 -0.605469 L 5.52734 -4.0625 L 11.2891 -4.0625 L 12.5488 -0.605469 C 12.7344 -0.0683594 12.9883 0.126953 13.4961 0.126953 C 14.0137 0.126953 14.3457 -0.185547 14.3457 -0.673828 C 14.3457 -0.839844 14.3164 -0.986328 14.2383 -1.20117 L 9.6582 -13.3887 C 9.43359 -13.9941 9.0332 -14.2871 8.4082 -14.2871 C 7.80273 -14.2871 7.39258 -13.9941 7.17773 -13.3984 L 2.59766 -1.19141 C 2.51953 -0.976562 2.49023 -0.830078 2.49023 -0.664062 C 2.49023 -0.175781 2.80273 0.126953 3.31055 0.126953 Z M 6.00586 -5.53711 L 8.37891 -12.1094 L 8.42773 -12.1094 L 10.8008 -5.53711 Z"/>
  </g>
  <line id="" style="fill:none;stroke:#00AEEF;stroke-width:0.5;opacity:1.0;" x1="792.836" x2="792.836" y1="1919" y2="1933"/>
  <text style="stroke:none;fill:black;font-family:-apple-system,&quot;SF Pro Display&quot;,&quot;SF Pro Text&quot;,Helvetica,sans-serif;font-weight:bold;" transform="matrix(1 0 0 1 776 1953)">Margins</text>
  <text style="stroke:none;fill:black;font-family:-apple-system,&quot;SF Pro Display&quot;,&quot;SF Pro Text&quot;,Helvetica,sans-serif;" transform="matrix(1 0 0 1 776 1971)">Leading and trailing margins on the left and right side of each symbol</text>
  <text style="stroke:none;fill:black;font-family:-apple-system,&quot;SF Pro Display&quot;,&quot;SF Pro Text&quot;,Helvetica,sans-serif;" transform="matrix(1 0 0 1 776 1989)">can be adjusted by modifying the x-location of the margin guidelines.</text>
  <text style="stroke:none;fill:black;font-family:-apple-system,&quot;SF Pro Display&quot;,&quot;SF Pro Text&quot;,Helvetica,sans-serif;" transform="matrix(1 0 0 1 776 2007)">Modifications are automatically applied proportionally to all</text>
  <text style="stroke:none;fill:black;font-family:-apple-system,&quot;SF Pro Display&quot;,&quot;SF Pro Text&quot;,Helvetica,sans-serif;" transform="matrix(1 0 0 1 776 2025)">scales and weights.</text>
  <g id="" transform="matrix(1 0 0 1 1289 1933)">
   <path d="M 2.8418 1.86523 L 4.54102 3.57422 C 5.40039 4.44336 6.38672 4.38477 7.31445 3.35938 L 17.4902 -7.85156 C 17.7539 -7.76367 18.0273 -7.7832 18.3398 -7.8418 L 19.4043 -8.03711 L 20.0684 -7.36328 L 20.0293 -6.80664 C 19.9902 -6.30859 20.1172 -5.92773 20.6055 -5.44922 L 21.3672 -4.70703 C 21.8457 -4.22852 22.4609 -4.19922 22.9297 -4.66797 L 25.8398 -7.58789 C 26.3086 -8.05664 26.2891 -8.65234 25.8105 -9.13086 L 25.0391 -9.89258 C 24.5605 -10.3711 24.1895 -10.5273 23.7109 -10.4883 L 23.1348 -10.4395 L 22.4902 -11.0742 L 22.7344 -12.1973 C 22.8613 -12.7637 22.7051 -13.2031 22.1191 -13.7891 L 19.9219 -15.9766 C 16.582 -19.2969 12.1484 -19.2188 9.25781 -16.3281 C 8.83789 -15.918 8.80859 -15.3418 9.04297 -14.9512 C 9.27734 -14.5898 9.73633 -14.3555 10.3809 -14.5215 C 11.8457 -14.8633 13.3691 -14.9219 14.7949 -13.9844 L 14.209 -12.5293 C 14.0137 -12.0508 13.9844 -11.6504 14.1113 -11.2891 L 3.04688 -0.898438 C 2.06055 0.0195312 1.98242 0.996094 2.8418 1.86523 Z M 10.752 -15.957 C 13.1836 -17.7344 16.4746 -17.4316 18.7012 -15.2051 L 21.1328 -12.793 C 21.3672 -12.5586 21.4062 -12.373 21.3379 -12.0312 L 21.0156 -10.5469 L 22.5195 -9.0625 L 23.5059 -9.12109 C 23.7598 -9.13086 23.8379 -9.11133 24.0332 -8.91602 L 24.6094 -8.33984 L 22.168 -5.89844 L 21.5918 -6.47461 C 21.3965 -6.66992 21.3672 -6.74805 21.377 -7.01172 L 21.4453 -7.98828 L 19.9512 -9.47266 L 18.4277 -9.21875 C 18.1055 -9.15039 17.959 -9.17969 17.7148 -9.41406 L 15.7129 -11.416 C 15.459 -11.6504 15.4297 -11.8164 15.5859 -12.1875 L 16.4648 -14.2773 C 14.9023 -15.7324 12.8711 -16.3574 10.8398 -15.7617 C 10.6836 -15.7227 10.625 -15.8496 10.752 -15.957 Z M 5.27344 2.30469 L 4.10156 1.14258 C 3.63281 0.683594 3.74023 0.341797 4.14062 -0.0195312 L 14.9512 -10.1953 L 16.416 -8.71094 L 6.42578 2.27539 C 6.07422 2.67578 5.74219 2.77344 5.27344 2.30469 Z"/>
  </g>
  <text style="stroke:none;fill:black;font-family:-apple-system,&quot;SF Pro Display&quot;,&quot;SF Pro Text&quot;,Helvetica,sans-serif;font-weight:bold;" transform="matrix(1 0 0 1 1289 1953)">Exporting</text>
  <text style="stroke:none;fill:black;font-family:-apple-system,&quot;SF Pro Display&quot;,&quot;SF Pro Text&quot;,Helvetica,sans-serif;" transform="matrix(1 0 0 1 1289 1971)">Symbols should be outlined when exporting to ensure the</text>
  <text style="stroke:none;fill:black;font-family:-apple-system,&quot;SF Pro Display&quot;,&quot;SF Pro Text&quot;,Helvetica,sans-serif;" transform="matrix(1 0 0 1 1289 1989)">design is preserved when submitting to Xcode.</text>
  <text id="template-version" style="stroke:none;fill:black;font-family:-apple-system,&quot;SF Pro Display&quot;,&quot;SF Pro Text&quot;,Helvetica,sans-serif;text-anchor:end;" transform="matrix(1 0 0 1 3036 1933)">Template v.2.0</text>
  <text style="stroke:none;fill:black;font-family:-apple-system,&quot;SF Pro Display&quot;,&quot;SF Pro Text&quot;,Helvetica,sans-serif;text-anchor:end;" transform="matrix(1 0 0 1 3036 1951)">Requires Xcode 12 or greater</text>
  <text style="stroke:none;fill:black;font-family:-apple-system,&quot;SF Pro Display&quot;,&quot;SF Pro Text&quot;,Helvetica,sans-serif;text-anchor:end;" transform="matrix(1 0 0 1 3036 1969)">Generated from plus.square</text>
  <text style="stroke:none;fill:black;font-family:-apple-system,&quot;SF Pro Display&quot;,&quot;SF Pro Text&quot;,Helvetica,sans-serif;text-anchor:end;" transform="matrix(1 0 0 1 3036 1987)">Typeset at 100 points</text>
  <text style="stroke:none;fill:black;font-family:-apple-system,&quot;SF Pro Display&quot;,&quot;SF Pro Text&quot;,Helvetica,sans-serif;" transform="matrix(1 0 0 1 263 726)">Small</text>
  <text style="stroke:none;fill:black;font-family:-apple-system,&quot;SF Pro Display&quot;,&quot;SF Pro Text&quot;,Helvetica,sans-serif;" transform="matrix(1 0 0 1 263 1156)">Medium</text>
  <text style="stroke:none;fill:black;font-family:-apple-system,&quot;SF Pro Display&quot;,&quot;SF Pro Text&quot;,Helvetica,sans-serif;" transform="matrix(1 0 0 1 263 1586)">Large</text>
 </g>
 <g id="Guides">
  <g id="H-reference" style="fill:#27AAE1;stroke:none;" transform="matrix(1 0 0 1 339 696)">
   <path d="M 0.976562 0 L 3.66211 0 L 12.9883 -24.4629 L 45.7031 -24.4629 L 55.0781 0 L 57.7148 0 L 30.6152 -70.459 L 28.125 -70.459 Z M 29.2969 -67.1387 L 29.3945 -67.1387 L 44.873 -26.709 L 13.8672 -26.709 Z"/>
  </g>
  <line id="Baseline-S" style="fill:none;stroke:#27AAE1;opacity:1;stroke-width:0.5;" x1="263" x2="3036" y1="696" y2="696"/>
  <line id="Capline-S" style="fill:none;stroke:#27AAE1;opacity:1;stroke-width:0.5;" x1="263" x2="3036" y1="625.541" y2="625.541"/>
  <g id="H-reference" style="fill:#27AAE1;stroke:none;" transform="matrix(1 0 0 1 339 1126)">
   <path d="M 0.976562 0 L 3.66211 0 L 12.9883 -24.4629 L 45.7031 -24.4629 L 55.0781 0 L 57.7148 0 L 30.6152 -70.459 L 28.125 -70.459 Z M 29.2969 -67.1387 L 29.3945 -67.1387 L 44.873 -26.709 L 13.8672 -26.709 Z"/>
  </g>
  <line id="Baseline-M" style="fill:none;stroke:#27AAE1;opacity:1;stroke-width:0.5;" x1="263" x2="3036" y1="1126" y2="1126"/>
  <line id="Capline-M" style="fill:none;stroke:#27AAE1;opacity:1;stroke-width:0.5;" x1="263" x2="3036" y1="1055.54" y2="1055.54"/>
  <g id="H-reference" style="fill:#27AAE1;stroke:none;" transform="matrix(1 0 0 1 339 1556)">
   <path d="M 0.976562 0 L 3.66211 0 L 12.9883 -24.4629 L 45.7031 -24.4629 L 55.0781 0 L 57.7148 0 L 30.6152 -70.459 L 28.125 -70.459 Z M 29.2969 -67.1387 L 29.3945 -67.1387 L 44.873 -26.709 L 13.8672 -26.709 Z"/>
  </g>
  <line id="Baseline-L" style="fill:none;stroke:#27AAE1;opacity:1;stroke-width:0.5;" x1="263" x2="3036" y1="1556" y2="1556"/>
  <line id="Capline-L" style="fill:none;stroke:#27AAE1;opacity:1;stroke-width:0.5;" x1="263" x2="3036" y1="1485.54" y2="1485.54"/>
  <line id="left-margin" style="fill:none;stroke:#00AEEF;stroke-width:0.5;opacity:1.0;" x1="1392.45" x2="1392.45" y1="1030.79" y2="1150.12"/>
  <line id="right-margin" style="fill:none;stroke:#00AEEF;stroke-width:0.5;opacity:1.0;" x1="1507.24" x2="1507.24" y1="1030.79" y2="1150.12"/>
 </g>
 <g id="Symbols">
  <g id="Black-L" transform="matrix(1 0 0 1 2855.62 1556)">
   <path d="M 39.9902 26.5137 L 115.576 26.5137 C 130.811 26.5137 139.502 17.8711 139.502 2.68555 L 139.502 -73.0957 C 139.502 -88.2812 130.811 -96.875 115.576 -96.875 L 39.9902 -96.875 C 24.7559 -96.875 16.0645 -88.2812 16.0645 -73.0957 L 16.0645 2.68555 C 16.0645 17.8711 24.7559 26.5137 39.9902 26.5137 Z M 42.6758 6.29883 C 38.4766 6.29883 36.3281 4.39453 36.3281 -0.146484 L 36.3281 -70.2148 C 36.3281 -74.7559 38.4766 -76.6602 42.6758 -76.6602 L 112.842 -76.6602 C 117.09 -76.6602 119.238 -74.7559 119.238 -70.2148 L 119.238 -0.146484 C 119.238 4.39453 117.09 6.29883 112.842 6.29883 Z M 77.7832 -7.22656 C 82.5684 -7.22656 85.9863 -10.6445 85.9863 -15.4297 L 85.9863 -26.9531 L 98.5352 -26.9531 C 103.223 -26.9531 106.738 -30.3711 106.738 -35.1074 C 106.738 -39.9414 103.271 -43.3594 98.5352 -43.3594 L 85.9863 -43.3594 L 85.9863 -55.2734 C 85.9863 -60.0586 82.5684 -63.5254 77.7832 -63.5254 C 72.998 -63.5254 69.6289 -60.0098 69.6289 -55.2734 L 69.6289 -43.3594 L 57.1289 -43.3594 C 52.3438 -43.3594 48.877 -39.9414 48.877 -35.1074 C 48.877 -30.3711 52.3926 -26.9531 57.1289 -26.9531 L 69.6289 -26.9531 L 69.6289 -15.4297 C 69.6289 -10.6934 72.998 -7.22656 77.7832 -7.22656 Z"/>
  </g>
  <g id="Heavy-L" transform="matrix(1 0 0 1 2559.93 1556)">
   <path d="M 38.8184 25.4883 L 114.697 25.4883 C 129.346 25.4883 137.451 17.4316 137.451 2.88086 L 137.451 -73.2422 C 137.451 -87.793 129.346 -95.8496 114.697 -95.8496 L 38.8184 -95.8496 C 24.2188 -95.8496 16.0645 -87.793 16.0645 -73.2422 L 16.0645 2.88086 C 16.0645 17.4316 24.2188 25.4883 38.8184 25.4883 Z M 40.918 8.00781 C 36.084 8.00781 33.5938 5.71289 33.5938 0.585938 L 33.5938 -70.9473 C 33.5938 -76.0742 36.084 -78.3691 40.918 -78.3691 L 112.549 -78.3691 C 117.383 -78.3691 119.922 -76.0742 119.922 -70.9473 L 119.922 0.585938 C 119.922 5.71289 117.383 8.00781 112.549 8.00781 Z M 76.7578 -7.17773 C 81.0547 -7.17773 84.1309 -10.2539 84.1309 -14.5996 L 84.1309 -27.832 L 98.291 -27.832 C 102.588 -27.832 105.762 -30.8105 105.762 -35.1562 C 105.762 -39.502 102.686 -42.4805 98.291 -42.4805 L 84.1309 -42.4805 L 84.1309 -56.25 C 84.1309 -60.6445 81.0547 -63.7207 76.7578 -63.7207 C 72.4121 -63.7207 69.4336 -60.5957 69.4336 -56.25 L 69.4336 -42.4805 L 55.3223 -42.4805 C 50.9277 -42.4805 47.8027 -39.502 47.8027 -35.1562 C 47.8027 -30.8105 50.9766 -27.832 55.3223 -27.832 L 69.4336 -27.832 L 69.4336 -14.5996 C 69.4336 -10.3027 72.4121 -7.17773 76.7578 -7.17773 Z"/>
  </g>
  <g id="Bold-L" transform="matrix(1 0 0 1 2264.37 1556)">
   <path d="M 37.5 24.3652 L 113.721 24.3652 C 127.637 24.3652 135.156 16.8945 135.156 3.07617 L 135.156 -73.3887 C 135.156 -87.207 127.637 -94.7266 113.721 -94.7266 L 37.5 -94.7266 C 23.6328 -94.7266 16.0645 -87.2559 16.0645 -73.3887 L 16.0645 3.07617 C 16.0645 16.8945 23.6328 24.3652 37.5 24.3652 Z M 38.9648 9.91211 C 33.4473 9.91211 30.5176 7.17773 30.5176 1.41602 L 30.5176 -71.7285 C 30.5176 -77.5391 33.4473 -80.2734 38.9648 -80.2734 L 112.256 -80.2734 C 117.725 -80.2734 120.703 -77.5391 120.703 -71.7285 L 120.703 1.41602 C 120.703 7.17773 117.725 9.91211 112.256 9.91211 Z M 75.5859 -7.08008 C 79.3945 -7.08008 81.9824 -9.81445 81.9824 -13.7207 L 81.9824 -28.8574 L 98.0469 -28.8574 C 101.855 -28.8574 104.639 -31.3477 104.639 -35.1562 C 104.639 -39.0137 101.953 -41.5527 98.0469 -41.5527 L 81.9824 -41.5527 L 81.9824 -57.3242 C 81.9824 -61.2793 79.3945 -63.9648 75.5859 -63.9648 C 71.7773 -63.9648 69.2871 -61.1816 69.2871 -57.3242 L 69.2871 -41.5527 L 53.2715 -41.5527 C 49.3164 -41.5527 46.582 -39.0137 46.582 -35.1562 C 46.582 -31.3477 49.4141 -28.8574 53.2715 -28.8574 L 69.2871 -28.8574 L 69.2871 -13.7207 C 69.2871 -9.86328 71.7773 -7.08008 75.5859 -7.08008 Z"/>
  </g>
  <g id="Semibold-L" transform="matrix(1 0 0 1 1968.44 1556)">
   <path d="M 36.6211 23.584 L 113.037 23.584 C 126.514 23.584 133.594 16.5039 133.594 3.17383 L 133.594 -73.5352 C 133.594 -86.8164 126.514 -93.9453 113.037 -93.9453 L 36.6211 -93.9453 C 23.1934 -93.9453 16.0645 -86.8652 16.0645 -73.5352 L 16.0645 3.17383 C 16.0645 16.5527 23.1934 23.584 36.6211 23.584 Z M 37.5977 11.2793 C 31.6406 11.2793 28.418 8.20312 28.418 1.95312 L 28.418 -72.3145 C 28.418 -78.5156 31.6406 -81.5918 37.5977 -81.5918 L 112.061 -81.5918 C 117.969 -81.5918 121.24 -78.5156 121.24 -72.3145 L 121.24 1.95312 C 121.24 8.20312 117.969 11.2793 112.061 11.2793 Z M 74.7559 -7.08008 C 78.2715 -7.08008 80.5176 -9.47266 80.5176 -13.0859 L 80.5176 -29.541 L 97.8516 -29.541 C 101.367 -29.541 103.906 -31.7383 103.906 -35.1562 C 103.906 -38.6719 101.465 -40.8691 97.8516 -40.8691 L 80.5176 -40.8691 L 80.5176 -58.1055 C 80.5176 -61.7188 78.2715 -64.1602 74.7559 -64.1602 C 71.3379 -64.1602 69.1406 -61.6211 69.1406 -58.1055 L 69.1406 -40.8691 L 51.8555 -40.8691 C 48.2422 -40.8691 45.752 -38.6719 45.752 -35.1562 C 45.752 -31.7383 48.3398 -29.541 51.8555 -29.541 L 69.1406 -29.541 L 69.1406 -13.0859 C 69.1406 -9.57031 71.3379 -7.08008 74.7559 -7.08008 Z"/>
  </g>
  <g id="Medium-L" transform="matrix(1 0 0 1 1672.31 1556)">
   <path d="M 35.9375 22.998 L 112.5 22.998 C 125.635 22.998 132.422 16.2109 132.422 3.27148 L 132.422 -73.6328 C 132.422 -86.5234 125.635 -93.3105 112.5 -93.3105 L 35.9375 -93.3105 C 22.9004 -93.3105 16.0645 -86.5723 16.0645 -73.6328 L 16.0645 3.27148 C 16.0645 16.2598 22.9004 22.998 35.9375 22.998 Z M 36.5723 12.2559 C 30.2246 12.2559 26.8066 8.98438 26.8066 2.39258 L 26.8066 -72.7051 C 26.8066 -79.2969 30.2246 -82.6172 36.5723 -82.6172 L 111.865 -82.6172 C 118.115 -82.6172 121.68 -79.2969 121.68 -72.7051 L 121.68 2.39258 C 121.68 8.98438 118.115 12.2559 111.865 12.2559 Z M 74.1699 -7.03125 C 77.3926 -7.03125 79.3945 -9.22852 79.3945 -12.5977 L 79.3945 -30.0293 L 97.7051 -30.0293 C 101.025 -30.0293 103.32 -32.0312 103.32 -35.1562 C 103.32 -38.3789 101.123 -40.3809 97.7051 -40.3809 L 79.3945 -40.3809 L 79.3945 -58.6426 C 79.3945 -62.0605 77.3926 -64.2578 74.1699 -64.2578 C 70.9961 -64.2578 69.0918 -61.9629 69.0918 -58.6426 L 69.0918 -40.3809 L 50.7812 -40.3809 C 47.4121 -40.3809 45.1172 -38.3789 45.1172 -35.1562 C 45.1172 -32.0312 47.5098 -30.0293 50.7812 -30.0293 L 69.0918 -30.0293 L 69.0918 -12.5977 C 69.0918 -9.32617 70.9961 -7.03125 74.1699 -7.03125 Z"/>
  </g>
  <g id="Regular-L" transform="matrix(1 0 0 1 1376.38 1556)">
   <path d="M 35.0586 22.2168 L 111.816 22.2168 C 124.463 22.2168 130.859 15.8691 130.859 3.41797 L 130.859 -73.7305 C 130.859 -86.1816 124.463 -92.5293 111.816 -92.5293 L 35.0586 -92.5293 C 22.4609 -92.5293 16.0645 -86.2305 16.0645 -73.7305 L 16.0645 3.41797 C 16.0645 15.918 22.4609 22.2168 35.0586 22.2168 Z M 35.2539 13.5742 C 28.418 13.5742 24.707 9.96094 24.707 2.97852 L 24.707 -73.291 C 24.707 -80.2734 28.418 -83.8867 35.2539 -83.8867 L 111.67 -83.8867 C 118.359 -83.8867 122.217 -80.2734 122.217 -73.291 L 122.217 2.97852 C 122.217 9.96094 118.359 13.5742 111.67 13.5742 Z M 73.3887 -6.98242 C 76.2695 -6.98242 77.9785 -8.93555 77.9785 -12.0117 L 77.9785 -30.7129 L 97.5586 -30.7129 C 100.537 -30.7129 102.588 -32.373 102.588 -35.1562 C 102.588 -38.0371 100.635 -39.7461 97.5586 -39.7461 L 77.9785 -39.7461 L 77.9785 -59.375 C 77.9785 -62.5 76.2695 -64.4531 73.3887 -64.4531 C 70.5566 -64.4531 68.9453 -62.4023 68.9453 -59.375 L 68.9453 -39.7461 L 49.4141 -39.7461 C 46.3379 -39.7461 44.2871 -38.0371 44.2871 -35.1562 C 44.2871 -32.373 46.4355 -30.7129 49.4141 -30.7129 L 68.9453 -30.7129 L 68.9453 -12.0117 C 68.9453 -9.0332 70.5566 -6.98242 73.3887 -6.98242 Z"/>
  </g>
  <g id="Light-L" transform="matrix(1 0 0 1 1080.5 1556)">
   <path d="M 34.0332 21.4355 L 111.23 21.4355 C 123.096 21.4355 129.199 15.2344 129.199 3.56445 L 129.199 -73.8281 C 129.199 -85.5469 123.096 -91.6992 111.23 -91.6992 L 34.0332 -91.6992 C 22.168 -91.6992 16.0645 -85.6445 16.0645 -73.8281 L 16.0645 3.56445 C 16.0645 15.3809 22.168 21.4355 34.0332 21.4355 Z M 34.1797 14.7949 C 26.709 14.7949 22.7051 10.8398 22.7051 3.22266 L 22.7051 -73.4863 C 22.7051 -81.1523 26.709 -85.0586 34.1797 -85.0586 L 111.035 -85.0586 C 118.359 -85.0586 122.559 -81.1523 122.559 -73.4863 L 122.559 3.22266 C 122.559 10.8398 118.359 14.7949 111.035 14.7949 Z M 72.5586 -6.93359 C 74.7559 -6.93359 76.0742 -8.44727 76.0742 -10.6934 L 76.0742 -31.7871 L 97.6562 -31.7871 C 99.8535 -31.7871 101.465 -33.1055 101.465 -35.1562 C 101.465 -37.3047 99.9512 -38.6719 97.6562 -38.6719 L 76.0742 -38.6719 L 76.0742 -60.3027 C 76.0742 -62.5977 74.7559 -64.0625 72.5586 -64.0625 C 70.459 -64.0625 69.1895 -62.5488 69.1895 -60.3027 L 69.1895 -38.6719 L 47.6074 -38.6719 C 45.3125 -38.6719 43.7988 -37.3047 43.7988 -35.1562 C 43.7988 -33.1055 45.459 -31.7871 47.6074 -31.7871 L 69.1895 -31.7871 L 69.1895 -10.6934 C 69.1895 -8.49609 70.459 -6.93359 72.5586 -6.93359 Z"/>
  </g>
  <g id="Thin-L" transform="matrix(1 0 0 1 784.889 1556)">
   <path d="M 32.666 20.3613 L 110.352 20.3613 C 121.24 20.3613 127.002 14.4531 127.002 3.75977 L 127.002 -73.9746 C 127.002 -84.7168 121.24 -90.5762 110.352 -90.5762 L 32.666 -90.5762 C 21.7773 -90.5762 16.0645 -84.8633 16.0645 -73.9746 L 16.0645 3.75977 C 16.0645 14.6484 21.7773 20.3613 32.666 20.3613 Z M 32.8125 16.4062 C 24.4141 16.4062 19.9707 12.0117 19.9707 3.56445 L 19.9707 -73.7793 C 19.9707 -82.2754 24.4141 -86.6699 32.8125 -86.6699 L 110.205 -86.6699 C 118.359 -86.6699 123.047 -82.2754 123.047 -73.7793 L 123.047 3.56445 C 123.047 12.0117 118.359 16.4062 110.205 16.4062 Z M 71.4844 -6.88477 C 72.7539 -6.88477 73.584 -7.76367 73.584 -8.93555 L 73.584 -33.1543 L 97.8516 -33.1543 C 98.9746 -33.1543 99.9512 -34.0332 99.9512 -35.1074 C 99.9512 -36.3281 99.0723 -37.2559 97.8516 -37.2559 L 73.584 -37.2559 L 73.584 -61.4746 C 73.584 -62.7441 72.7539 -63.623 71.4844 -63.623 C 70.3125 -63.623 69.4824 -62.7441 69.4824 -61.4746 L 69.4824 -37.2559 L 45.2637 -37.2559 C 43.9941 -37.2559 43.1152 -36.3281 43.1152 -35.1074 C 43.1152 -34.0332 44.0918 -33.1543 45.2637 -33.1543 L 69.4824 -33.1543 L 69.4824 -8.93555 C 69.4824 -7.8125 70.3125 -6.88477 71.4844 -6.88477 Z"/>
  </g>
  <g id="Ultralight-L" transform="matrix(1 0 0 1 488.739 1556)">
   <path d="M 31.9824 19.7754 L 109.961 19.7754 C 120.312 19.7754 125.879 14.0625 125.879 3.85742 L 125.879 -74.0723 C 125.879 -84.2773 120.312 -89.9902 109.961 -89.9902 L 31.9824 -89.9902 C 21.582 -89.9902 16.0645 -84.4727 16.0645 -74.0723 L 16.0645 3.85742 C 16.0645 14.2578 21.582 19.7754 31.9824 19.7754 Z M 32.1289 17.2363 C 23.1934 17.2363 18.6035 12.6465 18.6035 3.75977 L 18.6035 -73.9258 C 18.6035 -82.8125 23.1934 -87.4512 32.1289 -87.4512 L 109.766 -87.4512 C 118.359 -87.4512 123.291 -82.8125 123.291 -73.9258 L 123.291 3.75977 C 123.291 12.6465 118.359 17.2363 109.766 17.2363 Z M 70.8984 -6.88477 C 71.7285 -6.88477 72.3145 -7.42188 72.3145 -8.05664 L 72.3145 -33.8379 L 97.9004 -33.8379 C 98.5352 -33.8379 99.1699 -34.5215 99.1699 -35.1074 C 99.1699 -35.8398 98.6328 -36.5234 97.9004 -36.5234 L 72.3145 -36.5234 L 72.3145 -62.1094 C 72.3145 -62.793 71.7285 -63.3789 70.8984 -63.3789 C 70.2637 -63.3789 69.6289 -62.8418 69.6289 -62.1094 L 69.6289 -36.5234 L 44.043 -36.5234 C 43.3594 -36.5234 42.7734 -35.8398 42.7734 -35.1074 C 42.7734 -34.5215 43.4082 -33.8379 44.043 -33.8379 L 69.6289 -33.8379 L 69.6289 -8.05664 C 69.6289 -7.42188 70.2637 -6.88477 70.8984 -6.88477 Z"/>
  </g>
  <g id="Black-M" transform="matrix(1 0 0 1 2872.19 1126)">
   <path d="M 31.9824 13.5742 L 90.4297 13.5742 C 102.686 13.5742 109.961 6.29883 109.961 -5.95703 L 109.961 -64.4043 C 109.961 -76.6602 102.686 -83.9355 90.4297 -83.9355 L 31.9824 -83.9355 C 19.7266 -83.9355 12.4512 -76.6602 12.4512 -64.4043 L 12.4512 -5.95703 C 12.4512 6.29883 19.7266 13.5742 31.9824 13.5742 Z M 34.9121 -4.73633 C 32.0801 -4.73633 30.7617 -5.81055 30.7617 -8.88672 L 30.7617 -61.4746 C 30.7617 -64.5508 32.0801 -65.6738 34.9121 -65.6738 L 87.5 -65.6738 C 90.332 -65.6738 91.6504 -64.5508 91.6504 -61.4746 L 91.6504 -8.88672 C 91.6504 -5.81055 90.332 -4.73633 87.5 -4.73633 Z M 61.2305 -13.5742 C 65.1855 -13.5742 68.2129 -16.4551 68.2129 -20.2637 L 68.2129 -28.1738 L 76.709 -28.1738 C 80.5176 -28.1738 83.3984 -31.2012 83.3984 -35.1562 C 83.3984 -39.0625 80.5176 -42.0898 76.709 -42.0898 L 68.2129 -42.0898 L 68.2129 -49.9512 C 68.2129 -53.7598 65.1855 -56.6406 61.2305 -56.6406 C 57.2754 -56.6406 54.248 -53.7598 54.248 -49.9512 L 54.248 -42.0898 L 45.752 -42.0898 C 41.9434 -42.0898 39.0625 -39.0625 39.0625 -35.1562 C 39.0625 -31.2012 41.9434 -28.1738 45.752 -28.1738 L 54.248 -28.1738 L 54.248 -20.2637 C 54.248 -16.4551 57.2754 -13.5742 61.2305 -13.5742 Z"/>
  </g>
  <g id="Heavy-M" transform="matrix(1 0 0 1 2576.39 1126)">
   <path d="M 31.0059 12.6465 L 89.6484 12.6465 C 101.416 12.6465 108.154 5.9082 108.154 -5.81055 L 108.154 -64.5508 C 108.154 -76.2695 101.416 -83.0566 89.6484 -83.0566 L 31.0059 -83.0566 C 19.2383 -83.0566 12.4512 -76.3184 12.4512 -64.5508 L 12.4512 -5.81055 C 12.4512 5.9082 19.2383 12.6465 31.0059 12.6465 Z M 33.252 -3.17383 C 29.9316 -3.17383 28.2715 -4.63867 28.2715 -8.1543 L 28.2715 -62.207 C 28.2715 -65.7715 29.9316 -67.2363 33.252 -67.2363 L 87.3535 -67.2363 C 90.6738 -67.2363 92.334 -65.7715 92.334 -62.207 L 92.334 -8.1543 C 92.334 -4.63867 90.6738 -3.17383 87.3535 -3.17383 Z M 60.3027 -13.5254 C 63.9648 -13.5254 66.6016 -16.1621 66.6016 -19.7266 L 66.6016 -28.8574 L 76.416 -28.8574 C 79.9805 -28.8574 82.6172 -31.543 82.6172 -35.1562 C 82.6172 -38.7695 80.0293 -41.4551 76.416 -41.4551 L 66.6016 -41.4551 L 66.6016 -50.7812 C 66.6016 -54.3457 63.9648 -56.9824 60.3027 -56.9824 C 56.6895 -56.9824 54.0527 -54.3457 54.0527 -50.7812 L 54.0527 -41.4551 L 44.2383 -41.4551 C 40.6738 -41.4551 38.0371 -38.7695 38.0371 -35.1562 C 38.0371 -31.543 40.6738 -28.8574 44.2383 -28.8574 L 54.0527 -28.8574 L 54.0527 -19.7266 C 54.0527 -16.1621 56.6895 -13.5254 60.3027 -13.5254 Z"/>
  </g>
  <g id="Bold-M" transform="matrix(1 0 0 1 2280.68 1126)">
   <path d="M 29.8828 11.6699 L 88.7207 11.6699 C 99.9512 11.6699 106.152 5.46875 106.152 -5.66406 L 106.152 -64.6973 C 106.152 -75.8789 99.9512 -82.0312 88.7207 -82.0312 L 29.8828 -82.0312 C 18.6523 -82.0312 12.4512 -75.8789 12.4512 -64.6973 L 12.4512 -5.66406 C 12.4512 5.51758 18.6523 11.6699 29.8828 11.6699 Z M 31.3965 -1.41602 C 27.5391 -1.41602 25.5371 -3.27148 25.5371 -7.32422 L 25.5371 -63.0371 C 25.5371 -67.1387 27.5391 -68.9453 31.3965 -68.9453 L 87.207 -68.9453 C 91.0156 -68.9453 93.0664 -67.1387 93.0664 -63.0371 L 93.0664 -7.32422 C 93.0664 -3.27148 91.0156 -1.41602 87.207 -1.41602 Z M 59.2773 -13.4766 C 62.5488 -13.4766 64.8438 -15.8203 64.8438 -19.1406 L 64.8438 -29.6387 L 76.123 -29.6387 C 79.3945 -29.6387 81.7871 -31.8848 81.7871 -35.1562 C 81.7871 -38.4766 79.4434 -40.7227 76.123 -40.7227 L 64.8438 -40.7227 L 64.8438 -51.709 C 64.8438 -55.0293 62.5488 -57.373 59.2773 -57.373 C 56.0059 -57.373 53.8086 -54.9805 53.8086 -51.709 L 53.8086 -40.7227 L 42.5293 -40.7227 C 39.209 -40.7227 36.8652 -38.4766 36.8652 -35.1562 C 36.8652 -31.8848 39.2578 -29.6387 42.5293 -29.6387 L 53.8086 -29.6387 L 53.8086 -19.1406 C 53.8086 -15.8691 56.0059 -13.4766 59.2773 -13.4766 Z"/>
  </g>
  <g id="Semibold-M" transform="matrix(1 0 0 1 1984.65 1126)">
   <path d="M 29.1016 10.9863 L 88.0859 10.9863 C 98.9746 10.9863 104.785 5.17578 104.785 -5.56641 L 104.785 -64.8438 C 104.785 -75.5859 98.9746 -81.3477 88.0859 -81.3477 L 29.1016 -81.3477 C 18.2617 -81.3477 12.4512 -75.5859 12.4512 -64.8438 L 12.4512 -5.56641 C 12.4512 5.22461 18.2617 10.9863 29.1016 10.9863 Z M 30.127 -0.195312 C 25.8789 -0.195312 23.6328 -2.34375 23.6328 -6.78711 L 23.6328 -63.623 C 23.6328 -68.0664 25.8789 -70.166 30.127 -70.166 L 87.1094 -70.166 C 91.2598 -70.166 93.6035 -68.0664 93.6035 -63.623 L 93.6035 -6.78711 C 93.6035 -2.34375 91.2598 -0.195312 87.1094 -0.195312 Z M 58.5938 -13.4277 C 61.6211 -13.4277 63.623 -15.5762 63.623 -18.7012 L 63.623 -30.2246 L 75.9277 -30.2246 C 79.0039 -30.2246 81.2012 -32.1777 81.2012 -35.1562 C 81.2012 -38.2324 79.0527 -40.2344 75.9277 -40.2344 L 63.623 -40.2344 L 63.623 -52.3438 C 63.623 -55.4688 61.6211 -57.6172 58.5938 -57.6172 C 55.5664 -57.6172 53.6133 -55.4199 53.6133 -52.3438 L 53.6133 -40.2344 L 41.3574 -40.2344 C 38.2324 -40.2344 36.0352 -38.2324 36.0352 -35.1562 C 36.0352 -32.1777 38.2812 -30.2246 41.3574 -30.2246 L 53.6133 -30.2246 L 53.6133 -18.7012 C 53.6133 -15.625 55.5664 -13.4277 58.5938 -13.4277 Z"/>
  </g>
  <g id="Medium-M" transform="matrix(1 0 0 1 1688.47 1126)">
   <path d="M 28.5156 10.4492 L 87.6465 10.4492 C 98.2422 10.4492 103.711 4.98047 103.711 -5.46875 L 103.711 -64.8926 C 103.711 -75.3418 98.2422 -80.8105 87.6465 -80.8105 L 28.5156 -80.8105 C 17.9688 -80.8105 12.4512 -75.3906 12.4512 -64.8926 L 12.4512 -5.46875 C 12.4512 4.98047 17.9688 10.4492 28.5156 10.4492 Z M 29.1504 0.732422 C 24.6582 0.732422 22.168 -1.61133 22.168 -6.34766 L 22.168 -64.0137 C 22.168 -68.75 24.6582 -71.0938 29.1504 -71.0938 L 87.0117 -71.0938 C 91.4551 -71.0938 93.9941 -68.75 93.9941 -64.0137 L 93.9941 -6.34766 C 93.9941 -1.61133 91.4551 0.732422 87.0117 0.732422 Z M 58.0566 -13.3789 C 60.8887 -13.3789 62.6953 -15.3809 62.6953 -18.4082 L 62.6953 -30.6152 L 75.7324 -30.6152 C 78.6621 -30.6152 80.7617 -32.373 80.7617 -35.1562 C 80.7617 -38.0371 78.7598 -39.8438 75.7324 -39.8438 L 62.6953 -39.8438 L 62.6953 -52.832 C 62.6953 -55.8105 60.8887 -57.8125 58.0566 -57.8125 C 55.2246 -57.8125 53.4668 -55.7617 53.4668 -52.832 L 53.4668 -39.8438 L 40.4785 -39.8438 C 37.4512 -39.8438 35.4492 -38.0371 35.4492 -35.1562 C 35.4492 -32.373 37.5488 -30.6152 40.4785 -30.6152 L 53.4668 -30.6152 L 53.4668 -18.4082 C 53.4668 -15.4785 55.2246 -13.3789 58.0566 -13.3789 Z"/>
  </g>
  <g id="Regular-M" transform="matrix(1 0 0 1 1392.45 1126)">
   <path d="M 27.7832 9.76562 L 87.0117 9.76562 C 97.2656 9.76562 102.344 4.6875 102.344 -5.37109 L 102.344 -64.9902 C 102.344 -75.0488 97.2656 -80.127 87.0117 -80.127 L 27.7832 -80.127 C 17.5781 -80.127 12.4512 -75.0977 12.4512 -64.9902 L 12.4512 -5.37109 C 12.4512 4.73633 17.5781 9.76562 27.7832 9.76562 Z M 27.8809 1.9043 C 22.998 1.9043 20.3125 -0.683594 20.3125 -5.76172 L 20.3125 -64.5996 C 20.3125 -69.6777 22.998 -72.2656 27.8809 -72.2656 L 86.9141 -72.2656 C 91.748 -72.2656 94.4824 -69.6777 94.4824 -64.5996 L 94.4824 -5.76172 C 94.4824 -0.683594 91.748 1.9043 86.9141 1.9043 Z M 57.3242 -13.3789 C 59.9609 -13.3789 61.4746 -15.1367 61.4746 -17.9688 L 61.4746 -31.1523 L 75.5371 -31.1523 C 78.2715 -31.1523 80.1758 -32.6172 80.1758 -35.2051 C 80.1758 -37.8418 78.3691 -39.3555 75.5371 -39.3555 L 61.4746 -39.3555 L 61.4746 -53.418 C 61.4746 -56.2988 59.9609 -58.0566 57.3242 -58.0566 C 54.7363 -58.0566 53.3203 -56.2012 53.3203 -53.418 L 53.3203 -39.3555 L 39.3066 -39.3555 C 36.4746 -39.3555 34.6191 -37.8418 34.6191 -35.2051 C 34.6191 -32.6172 36.5723 -31.1523 39.3066 -31.1523 L 53.3203 -31.1523 L 53.3203 -17.9688 C 53.3203 -15.2344 54.7363 -13.3789 57.3242 -13.3789 Z"/>
  </g>
  <g id="Light-M" transform="matrix(1 0 0 1 1096.47 1126)">
   <path d="M 26.8555 9.0332 L 86.4746 9.0332 C 95.9961 9.0332 100.879 4.15039 100.879 -5.22461 L 100.879 -65.0879 C 100.879 -74.5117 95.9961 -79.3945 86.4746 -79.3945 L 26.8555 -79.3945 C 17.334 -79.3945 12.4512 -74.5605 12.4512 -65.0879 L 12.4512 -5.22461 C 12.4512 4.19922 17.334 9.0332 26.8555 9.0332 Z M 26.9531 2.97852 C 21.4844 2.97852 18.5059 0.0976562 18.5059 -5.56641 L 18.5059 -64.7949 C 18.5059 -70.4102 21.4844 -73.3398 26.9531 -73.3398 L 86.3281 -73.3398 C 91.748 -73.3398 94.8242 -70.4102 94.8242 -64.7949 L 94.8242 -5.56641 C 94.8242 0.0976562 91.748 2.97852 86.3281 2.97852 Z M 56.5918 -13.3301 C 58.5938 -13.3301 59.8145 -14.6973 59.8145 -16.7969 L 59.8145 -32.0801 L 75.6348 -32.0801 C 77.6855 -32.0801 79.1504 -33.252 79.1504 -35.1562 C 79.1504 -37.1582 77.7832 -38.3789 75.6348 -38.3789 L 59.8145 -38.3789 L 59.8145 -54.248 C 59.8145 -56.3965 58.5938 -57.7637 56.5918 -57.7637 C 54.6387 -57.7637 53.5156 -56.2988 53.5156 -54.248 L 53.5156 -38.3789 L 37.6953 -38.3789 C 35.5957 -38.3789 34.1797 -37.1582 34.1797 -35.1562 C 34.1797 -33.252 35.6934 -32.0801 37.6953 -32.0801 L 53.5156 -32.0801 L 53.5156 -16.7969 C 53.5156 -14.7461 54.6387 -13.3301 56.5918 -13.3301 Z"/>
  </g>
  <g id="Thin-M" transform="matrix(1 0 0 1 800.758 1126)">
   <path d="M 25.6348 8.05664 L 85.7422 8.05664 C 94.3848 8.05664 98.877 3.4668 98.877 -5.0293 L 98.877 -65.2344 C 98.877 -73.7305 94.3848 -78.3691 85.7422 -78.3691 L 25.6348 -78.3691 C 16.9922 -78.3691 12.4512 -73.877 12.4512 -65.2344 L 12.4512 -5.0293 C 12.4512 3.56445 16.9922 8.05664 25.6348 8.05664 Z M 25.7324 4.44336 C 19.3848 4.44336 16.0645 1.12305 16.0645 -5.22461 L 16.0645 -65.0391 C 16.0645 -71.4355 19.3848 -74.7559 25.7324 -74.7559 L 85.5957 -74.7559 C 91.748 -74.7559 95.2637 -71.4355 95.2637 -65.0391 L 95.2637 -5.22461 C 95.2637 1.12305 91.748 4.44336 85.5957 4.44336 Z M 55.6152 -13.2812 C 56.7871 -13.2812 57.5684 -14.1113 57.5684 -15.2344 L 57.5684 -33.3008 L 75.7812 -33.3008 C 76.9043 -33.3008 77.7832 -34.1309 77.7832 -35.1562 C 77.7832 -36.2793 76.9531 -37.1094 75.7812 -37.1094 L 57.5684 -37.1094 L 57.5684 -55.3223 C 57.5684 -56.4941 56.7871 -57.3242 55.6152 -57.3242 C 54.541 -57.3242 53.7598 -56.4941 53.7598 -55.3223 L 53.7598 -37.1094 L 35.5957 -37.1094 C 34.375 -37.1094 33.5449 -36.2793 33.5449 -35.1562 C 33.5449 -34.1309 34.4727 -33.3008 35.5957 -33.3008 L 53.7598 -33.3008 L 53.7598 -15.2344 C 53.7598 -14.1113 54.541 -13.2812 55.6152 -13.2812 Z"/>
  </g>
  <g id="Ultralight-M" transform="matrix(1 0 0 1 504.535 1126)">
   <path d="M 25 7.56836 L 85.3516 7.56836 C 93.5059 7.56836 97.9004 3.125 97.9004 -4.98047 L 97.9004 -65.2832 C 97.9004 -73.3887 93.5059 -77.832 85.3516 -77.832 L 25 -77.832 C 16.7969 -77.832 12.4512 -73.4863 12.4512 -65.2832 L 12.4512 -4.98047 C 12.4512 3.22266 16.7969 7.56836 25 7.56836 Z M 25.0977 5.17578 C 18.3594 5.17578 14.8438 1.66016 14.8438 -5.07812 L 14.8438 -65.1855 C 14.8438 -71.9727 18.3594 -75.4395 25.0977 -75.4395 L 85.2051 -75.4395 C 91.748 -75.4395 95.5078 -71.9727 95.5078 -65.1855 L 95.5078 -5.07812 C 95.5078 1.66016 91.748 5.17578 85.2051 5.17578 Z M 55.127 -13.2812 C 55.9082 -13.2812 56.4453 -13.8184 56.4453 -14.4531 L 56.4453 -33.9355 L 75.8301 -33.9355 C 76.5137 -33.9355 77.0996 -34.5703 77.0996 -35.1562 C 77.0996 -35.8398 76.5625 -36.4746 75.8301 -36.4746 L 56.4453 -36.4746 L 56.4453 -55.8594 C 56.4453 -56.5918 55.9082 -57.1289 55.127 -57.1289 C 54.4434 -57.1289 53.9062 -56.5918 53.9062 -55.8594 L 53.9062 -36.4746 L 34.5215 -36.4746 C 33.7891 -36.4746 33.252 -35.8398 33.252 -35.1562 C 33.252 -34.5703 33.8379 -33.9355 34.5215 -33.9355 L 53.9062 -33.9355 L 53.9062 -14.4531 C 53.9062 -13.8184 54.4434 -13.2812 55.127 -13.2812 Z"/>
  </g>
  <g id="Black-S" transform="matrix(1 0 0 1 2885.5 696)">
   <path d="M 25 2.92969 L 70.8008 2.92969 C 80.3711 2.92969 86.0352 -2.73438 86.0352 -12.3047 L 86.0352 -58.1055 C 86.0352 -67.6758 80.3711 -73.3398 70.8008 -73.3398 L 25 -73.3398 C 15.4297 -73.3398 9.76562 -67.6758 9.76562 -58.1055 L 9.76562 -12.3047 C 9.76562 -2.73438 15.4297 2.92969 25 2.92969 Z M 27.2461 -11.2305 C 25 -11.2305 23.9258 -12.1094 23.9258 -14.5508 L 23.9258 -55.8594 C 23.9258 -58.3008 25 -59.1797 27.2461 -59.1797 L 68.5547 -59.1797 C 70.8008 -59.1797 71.875 -58.3008 71.875 -55.8594 L 71.875 -14.5508 C 71.875 -12.1094 70.8008 -11.2305 68.5547 -11.2305 Z M 47.9004 -18.2617 C 50.9766 -18.2617 53.3203 -20.5078 53.3203 -23.4863 L 53.3203 -29.7363 L 60.0586 -29.7363 C 63.0371 -29.7363 65.2832 -32.0801 65.2832 -35.1562 C 65.2832 -38.2324 63.0371 -40.5762 60.0586 -40.5762 L 53.3203 -40.5762 L 53.3203 -46.8262 C 53.3203 -49.8047 50.9766 -52.0508 47.9004 -52.0508 C 44.8242 -52.0508 42.4805 -49.8047 42.4805 -46.8262 L 42.4805 -40.5762 L 35.7422 -40.5762 C 32.7637 -40.5762 30.5176 -38.2324 30.5176 -35.1562 C 30.5176 -32.0801 32.7637 -29.7363 35.7422 -29.7363 L 42.4805 -29.7363 L 42.4805 -23.4863 C 42.4805 -20.5078 44.8242 -18.2617 47.9004 -18.2617 Z"/>
  </g>
  <g id="Heavy-S" transform="matrix(1 0 0 1 2589.4 696)">
   <path d="M 24.3652 2.34375 L 70.2637 2.34375 C 79.541 2.34375 84.8145 -2.97852 84.8145 -12.207 L 84.8145 -58.2031 C 84.8145 -67.4316 79.541 -72.7539 70.2637 -72.7539 L 24.3652 -72.7539 C 15.0879 -72.7539 9.76562 -67.4316 9.76562 -58.2031 L 9.76562 -12.207 C 9.76562 -2.97852 15.0879 2.34375 24.3652 2.34375 Z M 26.0742 -10.1562 C 23.5352 -10.1562 22.2656 -11.2793 22.2656 -14.0137 L 22.2656 -56.3965 C 22.2656 -59.1309 23.5352 -60.2539 26.0742 -60.2539 L 68.5059 -60.2539 C 71.0449 -60.2539 72.3633 -59.1309 72.3633 -56.3965 L 72.3633 -14.0137 C 72.3633 -11.2793 71.0449 -10.1562 68.5059 -10.1562 Z M 47.2656 -18.2129 C 50.1953 -18.2129 52.2949 -20.3125 52.2949 -23.1934 L 52.2949 -30.1758 L 59.8633 -30.1758 C 62.6953 -30.1758 64.7949 -32.2754 64.7949 -35.1562 C 64.7949 -38.0859 62.7441 -40.1855 59.8633 -40.1855 L 52.2949 -40.1855 L 52.2949 -47.3633 C 52.2949 -50.2441 50.1953 -52.3438 47.2656 -52.3438 C 44.3848 -52.3438 42.2852 -50.2441 42.2852 -47.3633 L 42.2852 -40.1855 L 34.7656 -40.1855 C 31.8848 -40.1855 29.7852 -38.0859 29.7852 -35.1562 C 29.7852 -32.2754 31.8848 -30.1758 34.7656 -30.1758 L 42.2852 -30.1758 L 42.2852 -23.1934 C 42.2852 -20.3613 44.3848 -18.2129 47.2656 -18.2129 Z"/>
  </g>
  <g id="Bold-S" transform="matrix(1 0 0 1 2293.35 696)">
   <path d="M 23.6328 1.66016 L 69.6289 1.66016 C 78.6133 1.66016 83.4961 -3.22266 83.4961 -12.1094 L 83.4961 -58.3008 C 83.4961 -67.1875 78.6133 -72.0703 69.6289 -72.0703 L 23.6328 -72.0703 C 14.6973 -72.0703 9.76562 -67.1875 9.76562 -58.3008 L 9.76562 -12.1094 C 9.76562 -3.22266 14.6973 1.66016 23.6328 1.66016 Z M 24.8047 -8.93555 C 21.9238 -8.93555 20.3613 -10.3516 20.3613 -13.4277 L 20.3613 -56.9824 C 20.3613 -60.0586 21.9238 -61.4746 24.8047 -61.4746 L 68.457 -61.4746 C 71.3379 -61.4746 72.9004 -60.0586 72.9004 -56.9824 L 72.9004 -13.4277 C 72.9004 -10.3516 71.3379 -8.93555 68.457 -8.93555 Z M 46.582 -18.1641 C 49.3164 -18.1641 51.1719 -20.1172 51.1719 -22.9004 L 51.1719 -30.6641 L 59.6191 -30.6641 C 62.3535 -30.6641 64.3066 -32.4707 64.3066 -35.1562 C 64.3066 -37.8906 62.4023 -39.7461 59.6191 -39.7461 L 51.1719 -39.7461 L 51.1719 -47.9492 C 51.1719 -50.7324 49.3164 -52.6855 46.582 -52.6855 C 43.8965 -52.6855 42.0898 -50.6836 42.0898 -47.9492 L 42.0898 -39.7461 L 33.6426 -39.7461 C 30.9082 -39.7461 28.9551 -37.8906 28.9551 -35.1562 C 28.9551 -32.4707 30.957 -30.6641 33.6426 -30.6641 L 42.0898 -30.6641 L 42.0898 -22.9004 C 42.0898 -20.166 43.8965 -18.1641 46.582 -18.1641 Z"/>
  </g>
  <g id="Semibold-S" transform="matrix(1 0 0 1 1997.1 696)">
   <path d="M 23.0957 1.17188 L 69.1895 1.17188 C 77.9297 1.17188 82.5684 -3.36914 82.5684 -12.0117 L 82.5684 -58.3984 C 82.5684 -67.041 77.9297 -71.582 69.1895 -71.582 L 23.0957 -71.582 C 14.4043 -71.582 9.76562 -67.041 9.76562 -58.3984 L 9.76562 -12.0117 C 9.76562 -3.36914 14.4043 1.17188 23.0957 1.17188 Z M 23.877 -8.10547 C 20.752 -8.10547 19.0918 -9.7168 19.0918 -12.9883 L 19.0918 -57.4219 C 19.0918 -60.6934 20.752 -62.3047 23.877 -62.3047 L 68.4082 -62.3047 C 71.5332 -62.3047 73.2422 -60.6934 73.2422 -57.4219 L 73.2422 -12.9883 C 73.2422 -9.7168 71.5332 -8.10547 68.4082 -8.10547 Z M 46.1426 -18.1641 C 48.6816 -18.1641 50.3906 -19.9707 50.3906 -22.6562 L 50.3906 -31.0059 L 59.4238 -31.0059 C 62.0605 -31.0059 63.9648 -32.6172 63.9648 -35.2051 C 63.9648 -37.793 62.1582 -39.4531 59.4238 -39.4531 L 50.3906 -39.4531 L 50.3906 -48.3887 C 50.3906 -51.0742 48.6816 -52.8809 46.1426 -52.8809 C 43.5547 -52.8809 41.9434 -51.0254 41.9434 -48.3887 L 41.9434 -39.4531 L 32.9102 -39.4531 C 30.2246 -39.4531 28.3691 -37.793 28.3691 -35.2051 C 28.3691 -32.6172 30.2734 -31.0059 32.9102 -31.0059 L 41.9434 -31.0059 L 41.9434 -22.6562 C 41.9434 -20.0195 43.5547 -18.1641 46.1426 -18.1641 Z"/>
  </g>
  <g id="Medium-S" transform="matrix(1 0 0 1 1700.75 696)">
   <path d="M 22.7051 0.830078 L 68.8965 0.830078 C 77.4414 0.830078 81.8359 -3.51562 81.8359 -11.9629 L 81.8359 -58.4473 C 81.8359 -66.8945 77.4414 -71.2402 68.8965 -71.2402 L 22.7051 -71.2402 C 14.209 -71.2402 9.76562 -66.8945 9.76562 -58.4473 L 9.76562 -11.9629 C 9.76562 -3.51562 14.209 0.830078 22.7051 0.830078 Z M 23.1934 -7.4707 C 19.9219 -7.4707 18.0664 -9.22852 18.0664 -12.6953 L 18.0664 -57.7148 C 18.0664 -61.1816 19.9219 -62.9395 23.1934 -62.9395 L 68.4082 -62.9395 C 71.6797 -62.9395 73.5352 -61.1816 73.5352 -57.7148 L 73.5352 -12.6953 C 73.5352 -9.22852 71.6797 -7.4707 68.4082 -7.4707 Z M 45.752 -18.1152 C 48.2422 -18.1152 49.7559 -19.873 49.7559 -22.5098 L 49.7559 -31.25 L 59.3262 -31.25 C 61.8652 -31.25 63.6719 -32.7148 63.6719 -35.2051 C 63.6719 -37.6953 61.9629 -39.209 59.3262 -39.209 L 49.7559 -39.209 L 49.7559 -48.6816 C 49.7559 -51.3184 48.2422 -53.0762 45.752 -53.0762 C 43.3105 -53.0762 41.8457 -51.2695 41.8457 -48.6816 L 41.8457 -39.209 L 32.3242 -39.209 C 29.6875 -39.209 27.9297 -37.6953 27.9297 -35.2051 C 27.9297 -32.7148 29.7852 -31.25 32.3242 -31.25 L 41.8457 -31.25 L 41.8457 -22.5098 C 41.8457 -19.9219 43.3105 -18.1152 45.752 -18.1152 Z"/>
  </g>
  <g id="Regular-S" transform="matrix(1 0 0 1 1404.51 696)">
   <path d="M 22.2168 0.390625 L 68.457 0.390625 C 76.8066 0.390625 80.9082 -3.71094 80.9082 -11.9141 L 80.9082 -58.4961 C 80.9082 -66.6992 76.8066 -70.8008 68.457 -70.8008 L 22.2168 -70.8008 C 13.916 -70.8008 9.76562 -66.6992 9.76562 -58.4961 L 9.76562 -11.9141 C 9.76562 -3.71094 13.916 0.390625 22.2168 0.390625 Z M 22.3145 -6.68945 C 18.7988 -6.68945 16.7969 -8.54492 16.7969 -12.2559 L 16.7969 -58.1543 C 16.7969 -61.8164 18.7988 -63.7207 22.3145 -63.7207 L 68.3594 -63.7207 C 71.875 -63.7207 73.877 -61.8164 73.877 -58.1543 L 73.877 -12.2559 C 73.877 -8.54492 71.875 -6.68945 68.3594 -6.68945 Z M 45.3125 -18.1152 C 47.6562 -18.1152 49.0234 -19.7266 49.0234 -22.2656 L 49.0234 -31.5918 L 59.1309 -31.5918 C 61.6211 -31.5918 63.3301 -32.8613 63.3301 -35.2051 C 63.3301 -37.5977 61.7188 -38.916 59.1309 -38.916 L 49.0234 -38.916 L 49.0234 -49.1211 C 49.0234 -51.6602 47.6562 -53.2715 45.3125 -53.2715 C 42.9688 -53.2715 41.6992 -51.5625 41.6992 -49.1211 L 41.6992 -38.916 L 31.5918 -38.916 C 29.0039 -38.916 27.3438 -37.5977 27.3438 -35.2051 C 27.3438 -32.8613 29.1016 -31.5918 31.5918 -31.5918 L 41.6992 -31.5918 L 41.6992 -22.2656 C 41.6992 -19.7754 42.9688 -18.1152 45.3125 -18.1152 Z"/>
  </g>
  <g id="Light-S" transform="matrix(1 0 0 1 1108.46 696)">
   <path d="M 21.3867 -0.292969 L 67.9688 -0.292969 C 75.7324 -0.292969 79.5898 -4.15039 79.5898 -11.7676 L 79.5898 -58.5938 C 79.5898 -66.2109 75.7324 -70.1172 67.9688 -70.1172 L 21.3867 -70.1172 C 13.6719 -70.1172 9.76562 -66.2598 9.76562 -58.5938 L 9.76562 -11.7676 C 9.76562 -4.15039 13.6719 -0.292969 21.3867 -0.292969 Z M 21.4844 -5.71289 C 17.4316 -5.71289 15.1855 -7.86133 15.1855 -12.0605 L 15.1855 -58.3008 C 15.1855 -62.5 17.4316 -64.6973 21.4844 -64.6973 L 67.8711 -64.6973 C 71.875 -64.6973 74.1699 -62.5 74.1699 -58.3008 L 74.1699 -12.0605 C 74.1699 -7.86133 71.875 -5.71289 67.8711 -5.71289 Z M 44.6289 -18.0664 C 46.4355 -18.0664 47.5098 -19.2871 47.5098 -21.2402 L 47.5098 -32.4219 L 59.2285 -32.4219 C 61.084 -32.4219 62.4023 -33.4473 62.4023 -35.2051 C 62.4023 -37.0117 61.1816 -38.0859 59.2285 -38.0859 L 47.5098 -38.0859 L 47.5098 -49.8047 C 47.5098 -51.7578 46.4355 -52.9785 44.6289 -52.9785 C 42.8711 -52.9785 41.8457 -51.709 41.8457 -49.8047 L 41.8457 -38.0859 L 30.1758 -38.0859 C 28.2227 -38.0859 26.9531 -37.0117 26.9531 -35.2051 C 26.9531 -33.4473 28.2715 -32.4219 30.1758 -32.4219 L 41.8457 -32.4219 L 41.8457 -21.2402 C 41.8457 -19.3848 42.8711 -18.0664 44.6289 -18.0664 Z"/>
  </g>
  <g id="Thin-S" transform="matrix(1 0 0 1 812.599 696)">
   <path d="M 20.3125 -1.12305 L 67.334 -1.12305 C 74.2676 -1.12305 77.8809 -4.78516 77.8809 -11.6211 L 77.8809 -58.6914 C 77.8809 -65.5762 74.2676 -69.2383 67.334 -69.2383 L 20.3125 -69.2383 C 13.3789 -69.2383 9.76562 -65.625 9.76562 -58.6914 L 9.76562 -11.6211 C 9.76562 -4.6875 13.3789 -1.12305 20.3125 -1.12305 Z M 20.4102 -4.44336 C 15.625 -4.44336 13.0859 -6.93359 13.0859 -11.8164 L 13.0859 -58.5449 C 13.0859 -63.3789 15.625 -65.918 20.4102 -65.918 L 67.2363 -65.918 C 71.875 -65.918 74.5605 -63.3789 74.5605 -58.5449 L 74.5605 -11.8164 C 74.5605 -6.93359 71.875 -4.44336 67.2363 -4.44336 Z M 43.75 -18.0664 C 44.8242 -18.0664 45.5078 -18.7988 45.5078 -19.873 L 45.5078 -33.4961 L 59.3262 -33.4961 C 60.4004 -33.4961 61.1816 -34.1797 61.1816 -35.1562 C 61.1816 -36.2305 60.4492 -36.9629 59.3262 -36.9629 L 45.5078 -36.9629 L 45.5078 -50.7812 C 45.5078 -51.8555 44.8242 -52.6367 43.75 -52.6367 C 42.7246 -52.6367 42.0898 -51.8555 42.0898 -50.7812 L 42.0898 -36.9629 L 28.2715 -36.9629 C 27.1484 -36.9629 26.416 -36.2305 26.416 -35.1562 C 26.416 -34.1797 27.1973 -33.4961 28.2715 -33.4961 L 42.0898 -33.4961 L 42.0898 -19.873 C 42.0898 -18.7988 42.7246 -18.0664 43.75 -18.0664 Z"/>
  </g>
  <g id="Ultralight-S" transform="matrix(1 0 0 1 516.352 696)">
   <path d="M 19.7754 -1.5625 L 66.9922 -1.5625 C 73.5352 -1.5625 76.9531 -5.12695 76.9531 -11.5234 L 76.9531 -58.7891 C 76.9531 -65.2344 73.5352 -68.75 66.9922 -68.75 L 19.7754 -68.75 C 13.2324 -68.75 9.76562 -65.2832 9.76562 -58.7891 L 9.76562 -11.5234 C 9.76562 -5.0293 13.2324 -1.5625 19.7754 -1.5625 Z M 19.873 -3.75977 C 14.6484 -3.75977 11.9629 -6.44531 11.9629 -11.6699 L 11.9629 -58.6426 C 11.9629 -63.8672 14.6484 -66.5527 19.873 -66.5527 L 66.8945 -66.5527 C 71.875 -66.5527 74.7559 -63.8672 74.7559 -58.6426 L 74.7559 -11.6699 C 74.7559 -6.44531 71.875 -3.75977 66.8945 -3.75977 Z M 43.3105 -18.0176 C 43.9941 -18.0176 44.4824 -18.5059 44.4824 -19.1406 L 44.4824 -34.0332 L 59.375 -34.0332 C 60.0098 -34.0332 60.5957 -34.5703 60.5957 -35.1562 C 60.5957 -35.8398 60.0586 -36.377 59.375 -36.377 L 44.4824 -36.377 L 44.4824 -51.2695 C 44.4824 -51.9531 43.9941 -52.4414 43.3105 -52.4414 C 42.6758 -52.4414 42.1875 -51.9531 42.1875 -51.2695 L 42.1875 -36.377 L 27.2949 -36.377 C 26.6113 -36.377 26.123 -35.8398 26.123 -35.1562 C 26.123 -34.5703 26.6602 -34.0332 27.2949 -34.0332 L 42.1875 -34.0332 L 42.1875 -19.1406 C 42.1875 -18.5059 42.6758 -18.0176 43.3105 -18.0176 Z"/>
  </g>
 </g>
</svg>
