<?xml version="1.0" encoding="UTF-8"?>
<!--Generator: Apple Native CoreSVG 129-->
<!DOCTYPE svg
PUBLIC "-//W3C//DTD SVG 1.1//EN"
       "http://www.w3.org/Graphics/SVG/1.1/DTD/svg11.dtd">
<svg version="1.1" xmlns="http://www.w3.org/2000/svg" xmlns:xlink="http://www.w3.org/1999/xlink" width="3300" height="2200">
 <!--glyph: "uni100062.medium", point size: 100.000000, font version: "Version 16.0d9e1", template writer version: "8"-->
 <g id="Notes">
  <rect height="2200" id="artboard" style="fill:white;opacity:1" width="3300" x="0" y="0"/>
  <line id="" style="fill:none;stroke:black;opacity:1;stroke-width:0.5;" x1="263" x2="3036" y1="292" y2="292"/>
  <text style="stroke:none;fill:black;font-family:-apple-system,&quot;SF Pro Display&quot;,&quot;SF Pro Text&quot;,Helvetica,sans-serif;font-weight:bold;" transform="matrix(1 0 0 1 263 322)">Weight/Scale Variations</text>
  <text style="stroke:none;fill:black;font-family:-apple-system,&quot;SF Pro Display&quot;,&quot;SF Pro Text&quot;,Helvetica,sans-serif;text-anchor:middle;" transform="matrix(1 0 0 1 559.711 322)">Ultralight</text>
  <text style="stroke:none;fill:black;font-family:-apple-system,&quot;SF Pro Display&quot;,&quot;SF Pro Text&quot;,Helvetica,sans-serif;text-anchor:middle;" transform="matrix(1 0 0 1 856.422 322)">Thin</text>
  <text style="stroke:none;fill:black;font-family:-apple-system,&quot;SF Pro Display&quot;,&quot;SF Pro Text&quot;,Helvetica,sans-serif;text-anchor:middle;" transform="matrix(1 0 0 1 1153.13 322)">Light</text>
  <text style="stroke:none;fill:black;font-family:-apple-system,&quot;SF Pro Display&quot;,&quot;SF Pro Text&quot;,Helvetica,sans-serif;text-anchor:middle;" transform="matrix(1 0 0 1 1449.84 322)">Regular</text>
  <text style="stroke:none;fill:black;font-family:-apple-system,&quot;SF Pro Display&quot;,&quot;SF Pro Text&quot;,Helvetica,sans-serif;text-anchor:middle;" transform="matrix(1 0 0 1 1746.56 322)">Medium</text>
  <text style="stroke:none;fill:black;font-family:-apple-system,&quot;SF Pro Display&quot;,&quot;SF Pro Text&quot;,Helvetica,sans-serif;text-anchor:middle;" transform="matrix(1 0 0 1 2043.27 322)">Semibold</text>
  <text style="stroke:none;fill:black;font-family:-apple-system,&quot;SF Pro Display&quot;,&quot;SF Pro Text&quot;,Helvetica,sans-serif;text-anchor:middle;" transform="matrix(1 0 0 1 2339.98 322)">Bold</text>
  <text style="stroke:none;fill:black;font-family:-apple-system,&quot;SF Pro Display&quot;,&quot;SF Pro Text&quot;,Helvetica,sans-serif;text-anchor:middle;" transform="matrix(1 0 0 1 2636.69 322)">Heavy</text>
  <text style="stroke:none;fill:black;font-family:-apple-system,&quot;SF Pro Display&quot;,&quot;SF Pro Text&quot;,Helvetica,sans-serif;text-anchor:middle;" transform="matrix(1 0 0 1 2933.4 322)">Black</text>
  <line id="" style="fill:none;stroke:black;opacity:1;stroke-width:0.5;" x1="263" x2="3036" y1="1903" y2="1903"/>
  <g id="" transform="matrix(1 0 0 1 263 1933)">
   <path d="M 9.24805 0.830078 C 13.5547 0.830078 17.1387 -2.74414 17.1387 -7.05078 C 17.1387 -11.3574 13.5449 -14.9316 9.23828 -14.9316 C 4.94141 -14.9316 1.36719 -11.3574 1.36719 -7.05078 C 1.36719 -2.74414 4.95117 0.830078 9.24805 0.830078 Z M 9.24805 -0.654297 C 5.70312 -0.654297 2.87109 -3.49609 2.87109 -7.05078 C 2.87109 -10.6055 5.69336 -13.4473 9.23828 -13.4473 C 12.793 -13.4473 15.6348 -10.6055 15.6445 -7.05078 C 15.6543 -3.49609 12.8027 -0.654297 9.24805 -0.654297 Z M 9.22852 -3.62305 C 9.69727 -3.62305 9.9707 -3.93555 9.9707 -4.45312 L 9.9707 -6.31836 L 12.002 -6.31836 C 12.5 -6.31836 12.832 -6.57227 12.832 -7.04102 C 12.832 -7.51953 12.5195 -7.7832 12.002 -7.7832 L 9.9707 -7.7832 L 9.9707 -9.81445 C 9.9707 -10.332 9.69727 -10.6543 9.22852 -10.6543 C 8.75977 -10.6543 8.50586 -10.3125 8.50586 -9.81445 L 8.50586 -7.7832 L 6.49414 -7.7832 C 5.97656 -7.7832 5.64453 -7.51953 5.64453 -7.04102 C 5.64453 -6.57227 5.99609 -6.31836 6.49414 -6.31836 L 8.50586 -6.31836 L 8.50586 -4.45312 C 8.50586 -3.95508 8.75977 -3.62305 9.22852 -3.62305 Z"/>
  </g>
  <g id="" transform="matrix(1 0 0 1 281.506 1933)">
   <path d="M 11.709 2.91016 C 17.1582 2.91016 21.6699 -1.61133 21.6699 -7.05078 C 21.6699 -12.5 17.1484 -17.0117 11.6992 -17.0117 C 6.25977 -17.0117 1.74805 -12.5 1.74805 -7.05078 C 1.74805 -1.61133 6.26953 2.91016 11.709 2.91016 Z M 11.709 1.25 C 7.09961 1.25 3.41797 -2.44141 3.41797 -7.05078 C 3.41797 -11.6602 7.08984 -15.3516 11.6992 -15.3516 C 16.3086 -15.3516 20 -11.6602 20.0098 -7.05078 C 20.0195 -2.44141 16.3184 1.25 11.709 1.25 Z M 11.6797 -2.66602 C 12.207 -2.66602 12.5098 -3.01758 12.5098 -3.59375 L 12.5098 -6.23047 L 15.3223 -6.23047 C 15.8691 -6.23047 16.25 -6.51367 16.25 -7.03125 C 16.25 -7.55859 15.8887 -7.86133 15.3223 -7.86133 L 12.5098 -7.86133 L 12.5098 -10.6836 C 12.5098 -11.25 12.207 -11.6113 11.6797 -11.6113 C 11.1621 -11.6113 10.8789 -11.2305 10.8789 -10.6836 L 10.8789 -7.86133 L 8.07617 -7.86133 C 7.50977 -7.86133 7.13867 -7.55859 7.13867 -7.03125 C 7.13867 -6.51367 7.5293 -6.23047 8.07617 -6.23047 L 10.8789 -6.23047 L 10.8789 -3.59375 C 10.8789 -3.03711 11.1621 -2.66602 11.6797 -2.66602 Z"/>
  </g>
  <g id="" transform="matrix(1 0 0 1 304.924 1933)">
   <path d="M 14.9707 5.66406 C 21.9336 5.66406 27.6953 -0.0976562 27.6953 -7.05078 C 27.6953 -14.0137 21.9238 -19.7754 14.9609 -19.7754 C 8.00781 -19.7754 2.25586 -14.0137 2.25586 -7.05078 C 2.25586 -0.0976562 8.01758 5.66406 14.9707 5.66406 Z M 14.9707 3.84766 C 8.93555 3.84766 4.08203 -1.01562 4.08203 -7.05078 C 4.08203 -13.0957 8.92578 -17.9492 14.9609 -17.9492 C 21.0059 -17.9492 25.8594 -13.0957 25.8691 -7.05078 C 25.8789 -1.01562 21.0156 3.84766 14.9707 3.84766 Z M 14.9414 -1.38672 C 15.5176 -1.38672 15.8594 -1.77734 15.8594 -2.38281 L 15.8594 -6.13281 L 19.7754 -6.13281 C 20.3711 -6.13281 20.7812 -6.46484 20.7812 -7.02148 C 20.7812 -7.59766 20.3906 -7.93945 19.7754 -7.93945 L 15.8594 -7.93945 L 15.8594 -11.8652 C 15.8594 -12.4805 15.5176 -12.8711 14.9414 -12.8711 C 14.375 -12.8711 14.0527 -12.4609 14.0527 -11.8652 L 14.0527 -7.93945 L 10.1465 -7.93945 C 9.53125 -7.93945 9.13086 -7.59766 9.13086 -7.02148 C 9.13086 -6.46484 9.55078 -6.13281 10.1465 -6.13281 L 14.0527 -6.13281 L 14.0527 -2.38281 C 14.0527 -1.79688 14.375 -1.38672 14.9414 -1.38672 Z"/>
  </g>
  <text style="stroke:none;fill:black;font-family:-apple-system,&quot;SF Pro Display&quot;,&quot;SF Pro Text&quot;,Helvetica,sans-serif;font-weight:bold;" transform="matrix(1 0 0 1 263 1953)">Design Variations</text>
  <text style="stroke:none;fill:black;font-family:-apple-system,&quot;SF Pro Display&quot;,&quot;SF Pro Text&quot;,Helvetica,sans-serif;" transform="matrix(1 0 0 1 263 1971)">Symbols are supported in up to nine weights and three scales.</text>
  <text style="stroke:none;fill:black;font-family:-apple-system,&quot;SF Pro Display&quot;,&quot;SF Pro Text&quot;,Helvetica,sans-serif;" transform="matrix(1 0 0 1 263 1989)">For optimal layout with text and other symbols, vertically align</text>
  <text style="stroke:none;fill:black;font-family:-apple-system,&quot;SF Pro Display&quot;,&quot;SF Pro Text&quot;,Helvetica,sans-serif;" transform="matrix(1 0 0 1 263 2007)">symbols with the adjacent text.</text>
  <line id="" style="fill:none;stroke:#00AEEF;stroke-width:0.5;opacity:1.0;" x1="776" x2="776" y1="1919" y2="1933"/>
  <g id="" transform="matrix(1 0 0 1 776 1933)">
   <path d="M 3.31055 0.126953 C 3.82812 0.126953 4.08203 -0.0683594 4.26758 -0.605469 L 5.52734 -4.0625 L 11.2891 -4.0625 L 12.5488 -0.605469 C 12.7344 -0.0683594 12.9883 0.126953 13.4961 0.126953 C 14.0137 0.126953 14.3457 -0.185547 14.3457 -0.673828 C 14.3457 -0.839844 14.3164 -0.986328 14.2383 -1.20117 L 9.6582 -13.3887 C 9.43359 -13.9941 9.0332 -14.2871 8.4082 -14.2871 C 7.80273 -14.2871 7.39258 -13.9941 7.17773 -13.3984 L 2.59766 -1.19141 C 2.51953 -0.976562 2.49023 -0.830078 2.49023 -0.664062 C 2.49023 -0.175781 2.80273 0.126953 3.31055 0.126953 Z M 6.00586 -5.53711 L 8.37891 -12.1094 L 8.42773 -12.1094 L 10.8008 -5.53711 Z"/>
  </g>
  <line id="" style="fill:none;stroke:#00AEEF;stroke-width:0.5;opacity:1.0;" x1="792.836" x2="792.836" y1="1919" y2="1933"/>
  <text style="stroke:none;fill:black;font-family:-apple-system,&quot;SF Pro Display&quot;,&quot;SF Pro Text&quot;,Helvetica,sans-serif;font-weight:bold;" transform="matrix(1 0 0 1 776 1953)">Margins</text>
  <text style="stroke:none;fill:black;font-family:-apple-system,&quot;SF Pro Display&quot;,&quot;SF Pro Text&quot;,Helvetica,sans-serif;" transform="matrix(1 0 0 1 776 1971)">Leading and trailing margins on the left and right side of each symbol</text>
  <text style="stroke:none;fill:black;font-family:-apple-system,&quot;SF Pro Display&quot;,&quot;SF Pro Text&quot;,Helvetica,sans-serif;" transform="matrix(1 0 0 1 776 1989)">can be adjusted by modifying the x-location of the margin guidelines.</text>
  <text style="stroke:none;fill:black;font-family:-apple-system,&quot;SF Pro Display&quot;,&quot;SF Pro Text&quot;,Helvetica,sans-serif;" transform="matrix(1 0 0 1 776 2007)">Modifications are automatically applied proportionally to all</text>
  <text style="stroke:none;fill:black;font-family:-apple-system,&quot;SF Pro Display&quot;,&quot;SF Pro Text&quot;,Helvetica,sans-serif;" transform="matrix(1 0 0 1 776 2025)">scales and weights.</text>
  <g id="" transform="matrix(1 0 0 1 1289 1933)">
   <path d="M 2.8418 1.86523 L 4.54102 3.57422 C 5.40039 4.44336 6.38672 4.38477 7.31445 3.35938 L 17.4902 -7.85156 C 17.7539 -7.76367 18.0273 -7.7832 18.3398 -7.8418 L 19.4043 -8.03711 L 20.0684 -7.36328 L 20.0293 -6.80664 C 19.9902 -6.30859 20.1172 -5.92773 20.6055 -5.44922 L 21.3672 -4.70703 C 21.8457 -4.22852 22.4609 -4.19922 22.9297 -4.66797 L 25.8398 -7.58789 C 26.3086 -8.05664 26.2891 -8.65234 25.8105 -9.13086 L 25.0391 -9.89258 C 24.5605 -10.3711 24.1895 -10.5273 23.7109 -10.4883 L 23.1348 -10.4395 L 22.4902 -11.0742 L 22.7344 -12.1973 C 22.8613 -12.7637 22.7051 -13.2031 22.1191 -13.7891 L 19.9219 -15.9766 C 16.582 -19.2969 12.1484 -19.2188 9.25781 -16.3281 C 8.83789 -15.918 8.80859 -15.3418 9.04297 -14.9512 C 9.27734 -14.5898 9.73633 -14.3555 10.3809 -14.5215 C 11.8457 -14.8633 13.3691 -14.9219 14.7949 -13.9844 L 14.209 -12.5293 C 14.0137 -12.0508 13.9844 -11.6504 14.1113 -11.2891 L 3.04688 -0.898438 C 2.06055 0.0195312 1.98242 0.996094 2.8418 1.86523 Z M 10.752 -15.957 C 13.1836 -17.7344 16.4746 -17.4316 18.7012 -15.2051 L 21.1328 -12.793 C 21.3672 -12.5586 21.4062 -12.373 21.3379 -12.0312 L 21.0156 -10.5469 L 22.5195 -9.0625 L 23.5059 -9.12109 C 23.7598 -9.13086 23.8379 -9.11133 24.0332 -8.91602 L 24.6094 -8.33984 L 22.168 -5.89844 L 21.5918 -6.47461 C 21.3965 -6.66992 21.3672 -6.74805 21.377 -7.01172 L 21.4453 -7.98828 L 19.9512 -9.47266 L 18.4277 -9.21875 C 18.1055 -9.15039 17.959 -9.17969 17.7148 -9.41406 L 15.7129 -11.416 C 15.459 -11.6504 15.4297 -11.8164 15.5859 -12.1875 L 16.4648 -14.2773 C 14.9023 -15.7324 12.8711 -16.3574 10.8398 -15.7617 C 10.6836 -15.7227 10.625 -15.8496 10.752 -15.957 Z M 5.27344 2.30469 L 4.10156 1.14258 C 3.63281 0.683594 3.74023 0.341797 4.14062 -0.0195312 L 14.9512 -10.1953 L 16.416 -8.71094 L 6.42578 2.27539 C 6.07422 2.67578 5.74219 2.77344 5.27344 2.30469 Z"/>
  </g>
  <text style="stroke:none;fill:black;font-family:-apple-system,&quot;SF Pro Display&quot;,&quot;SF Pro Text&quot;,Helvetica,sans-serif;font-weight:bold;" transform="matrix(1 0 0 1 1289 1953)">Exporting</text>
  <text style="stroke:none;fill:black;font-family:-apple-system,&quot;SF Pro Display&quot;,&quot;SF Pro Text&quot;,Helvetica,sans-serif;" transform="matrix(1 0 0 1 1289 1971)">Symbols should be outlined when exporting to ensure the</text>
  <text style="stroke:none;fill:black;font-family:-apple-system,&quot;SF Pro Display&quot;,&quot;SF Pro Text&quot;,Helvetica,sans-serif;" transform="matrix(1 0 0 1 1289 1989)">design is preserved when submitting to Xcode.</text>
  <text id="template-version" style="stroke:none;fill:black;font-family:-apple-system,&quot;SF Pro Display&quot;,&quot;SF Pro Text&quot;,Helvetica,sans-serif;text-anchor:end;" transform="matrix(1 0 0 1 3036 1933)">Template v.2.0</text>
  <text style="stroke:none;fill:black;font-family:-apple-system,&quot;SF Pro Display&quot;,&quot;SF Pro Text&quot;,Helvetica,sans-serif;text-anchor:end;" transform="matrix(1 0 0 1 3036 1951)">Requires Xcode 12 or greater</text>
  <text style="stroke:none;fill:black;font-family:-apple-system,&quot;SF Pro Display&quot;,&quot;SF Pro Text&quot;,Helvetica,sans-serif;text-anchor:end;" transform="matrix(1 0 0 1 3036 1969)">Generated from checkmark.circle</text>
  <text style="stroke:none;fill:black;font-family:-apple-system,&quot;SF Pro Display&quot;,&quot;SF Pro Text&quot;,Helvetica,sans-serif;text-anchor:end;" transform="matrix(1 0 0 1 3036 1987)">Typeset at 100 points</text>
  <text style="stroke:none;fill:black;font-family:-apple-system,&quot;SF Pro Display&quot;,&quot;SF Pro Text&quot;,Helvetica,sans-serif;" transform="matrix(1 0 0 1 263 726)">Small</text>
  <text style="stroke:none;fill:black;font-family:-apple-system,&quot;SF Pro Display&quot;,&quot;SF Pro Text&quot;,Helvetica,sans-serif;" transform="matrix(1 0 0 1 263 1156)">Medium</text>
  <text style="stroke:none;fill:black;font-family:-apple-system,&quot;SF Pro Display&quot;,&quot;SF Pro Text&quot;,Helvetica,sans-serif;" transform="matrix(1 0 0 1 263 1586)">Large</text>
 </g>
 <g id="Guides">
  <g id="H-reference" style="fill:#27AAE1;stroke:none;" transform="matrix(1 0 0 1 339 696)">
   <path d="M 0.976562 0 L 3.66211 0 L 12.9883 -24.4629 L 45.7031 -24.4629 L 55.0781 0 L 57.7148 0 L 30.6152 -70.459 L 28.125 -70.459 Z M 29.2969 -67.1387 L 29.3945 -67.1387 L 44.873 -26.709 L 13.8672 -26.709 Z"/>
  </g>
  <line id="Baseline-S" style="fill:none;stroke:#27AAE1;opacity:1;stroke-width:0.5;" x1="263" x2="3036" y1="696" y2="696"/>
  <line id="Capline-S" style="fill:none;stroke:#27AAE1;opacity:1;stroke-width:0.5;" x1="263" x2="3036" y1="625.541" y2="625.541"/>
  <g id="H-reference" style="fill:#27AAE1;stroke:none;" transform="matrix(1 0 0 1 339 1126)">
   <path d="M 0.976562 0 L 3.66211 0 L 12.9883 -24.4629 L 45.7031 -24.4629 L 55.0781 0 L 57.7148 0 L 30.6152 -70.459 L 28.125 -70.459 Z M 29.2969 -67.1387 L 29.3945 -67.1387 L 44.873 -26.709 L 13.8672 -26.709 Z"/>
  </g>
  <line id="Baseline-M" style="fill:none;stroke:#27AAE1;opacity:1;stroke-width:0.5;" x1="263" x2="3036" y1="1126" y2="1126"/>
  <line id="Capline-M" style="fill:none;stroke:#27AAE1;opacity:1;stroke-width:0.5;" x1="263" x2="3036" y1="1055.54" y2="1055.54"/>
  <g id="H-reference" style="fill:#27AAE1;stroke:none;" transform="matrix(1 0 0 1 339 1556)">
   <path d="M 0.976562 0 L 3.66211 0 L 12.9883 -24.4629 L 45.7031 -24.4629 L 55.0781 0 L 57.7148 0 L 30.6152 -70.459 L 28.125 -70.459 Z M 29.2969 -67.1387 L 29.3945 -67.1387 L 44.873 -26.709 L 13.8672 -26.709 Z"/>
  </g>
  <line id="Baseline-L" style="fill:none;stroke:#27AAE1;opacity:1;stroke-width:0.5;" x1="263" x2="3036" y1="1556" y2="1556"/>
  <line id="Capline-L" style="fill:none;stroke:#27AAE1;opacity:1;stroke-width:0.5;" x1="263" x2="3036" y1="1485.54" y2="1485.54"/>
  <line id="left-margin" style="fill:none;stroke:#00AEEF;stroke-width:0.5;opacity:1.0;" x1="1391.3" x2="1391.3" y1="1030.79" y2="1150.12"/>
  <line id="right-margin" style="fill:none;stroke:#00AEEF;stroke-width:0.5;opacity:1.0;" x1="1508.39" x2="1508.39" y1="1030.79" y2="1150.12"/>
 </g>
 <g id="Symbols">
  <g id="Black-L" transform="matrix(1 0 0 1 2854.05 1556)">
   <path d="M 79.3457 32.8613 C 116.748 32.8613 147.412 2.19727 147.412 -35.2051 C 147.412 -72.6074 116.748 -103.271 79.2969 -103.271 C 41.8945 -103.271 11.2793 -72.6074 11.2793 -35.2051 C 11.2793 2.19727 41.9434 32.8613 79.3457 32.8613 Z M 79.3457 12.4023 C 52.9785 12.4023 31.7383 -8.83789 31.7383 -35.2051 C 31.7383 -61.5723 52.9297 -82.8125 79.2969 -82.8125 C 105.664 -82.8125 126.953 -61.5723 126.953 -35.2051 C 127.002 -8.83789 105.713 12.4023 79.3457 12.4023 Z M 72.8516 -5.17578 C 75.8301 -5.17578 78.5156 -6.73828 80.2246 -9.27734 L 107.178 -49.707 C 108.35 -51.4648 108.984 -53.2715 108.984 -54.8828 C 108.984 -59.1797 105.176 -62.2559 100.977 -62.2559 C 98.1934 -62.2559 95.9961 -60.791 94.0918 -57.8613 L 72.7539 -24.0723 L 63.7695 -34.8145 C 62.0605 -36.8164 60.2051 -37.793 57.7637 -37.793 C 53.4668 -37.793 49.9512 -34.375 49.9512 -30.127 C 49.9512 -28.0762 50.5859 -26.4648 52.1973 -24.5117 L 65.2832 -9.13086 C 67.3828 -6.64062 69.7754 -5.17578 72.8516 -5.17578 Z"/>
  </g>
  <g id="Heavy-L" transform="matrix(1 0 0 1 2558.39 1556)">
   <path d="M 78.2715 31.7871 C 115.088 31.7871 145.312 1.5625 145.312 -35.2051 C 145.312 -72.0215 115.039 -102.246 78.2715 -102.246 C 41.4551 -102.246 11.2793 -72.0215 11.2793 -35.2051 C 11.2793 1.5625 41.5039 31.7871 78.2715 31.7871 Z M 78.2715 14.0137 C 51.0254 14.0137 29.0527 -7.95898 29.0527 -35.2051 C 29.0527 -62.5 50.9766 -84.4727 78.2715 -84.4727 C 105.518 -84.4727 127.49 -62.5 127.539 -35.2051 C 127.539 -7.95898 105.566 14.0137 78.2715 14.0137 Z M 71.7285 -5.22461 C 74.4141 -5.22461 76.8066 -6.5918 78.3691 -8.93555 L 106.006 -50.8789 C 107.031 -52.4414 107.666 -54.1016 107.666 -55.6641 C 107.666 -59.5215 104.297 -62.207 100.537 -62.207 C 98.0957 -62.207 96.0938 -60.8887 94.3848 -58.252 L 71.582 -22.0703 L 61.4746 -34.375 C 59.8633 -36.2793 58.1543 -37.1582 55.957 -37.1582 C 52.1484 -37.1582 48.9746 -34.1309 48.9746 -30.2734 C 48.9746 -28.4668 49.6094 -26.9531 51.0254 -25.2441 L 64.8438 -8.78906 C 66.748 -6.49414 68.9453 -5.22461 71.7285 -5.22461 Z"/>
  </g>
  <g id="Bold-L" transform="matrix(1 0 0 1 2262.88 1556)">
   <path d="M 77.0996 30.5664 C 113.232 30.5664 142.92 0.878906 142.92 -35.2539 C 142.92 -71.3379 113.184 -101.074 77.0508 -101.074 C 40.9668 -101.074 11.2793 -71.3379 11.2793 -35.2539 C 11.2793 0.878906 41.0156 30.5664 77.0996 30.5664 Z M 77.0996 15.8203 C 48.8281 15.8203 26.0742 -6.98242 26.0742 -35.2539 C 26.0742 -63.5254 48.7793 -86.2793 77.0508 -86.2793 C 105.371 -86.2793 128.125 -63.5254 128.174 -35.2539 C 128.174 -6.98242 105.371 15.8203 77.0996 15.8203 Z M 70.4102 -5.22461 C 72.8027 -5.22461 74.8535 -6.44531 76.2695 -8.54492 L 104.736 -52.1973 C 105.615 -53.5645 106.25 -55.0781 106.25 -56.4941 C 106.25 -59.8145 103.271 -62.1582 100.049 -62.1582 C 97.9492 -62.1582 96.1914 -61.0352 94.7266 -58.7402 L 70.2637 -19.9219 L 58.8867 -33.8867 C 57.4219 -35.7422 55.8594 -36.4746 53.9062 -36.4746 C 50.5859 -36.4746 47.9004 -33.8379 47.9004 -30.4688 C 47.9004 -28.9062 48.4863 -27.4902 49.6582 -26.0254 L 64.3555 -8.44727 C 66.0645 -6.34766 67.9688 -5.22461 70.4102 -5.22461 Z"/>
  </g>
  <g id="Semibold-L" transform="matrix(1 0 0 1 1966.97 1556)">
   <path d="M 76.2695 29.7363 C 111.914 29.7363 141.309 0.390625 141.309 -35.2539 C 141.309 -70.8984 111.865 -100.244 76.2695 -100.244 C 40.625 -100.244 11.2793 -70.8984 11.2793 -35.2539 C 11.2793 0.390625 40.6738 29.7363 76.2695 29.7363 Z M 76.2695 17.041 C 47.3145 17.041 24.0234 -6.25 24.0234 -35.2539 C 24.0234 -64.209 47.2656 -87.5488 76.2695 -87.5488 C 105.225 -87.5488 128.564 -64.209 128.613 -35.2539 C 128.662 -6.25 105.273 17.041 76.2695 17.041 Z M 69.5312 -5.27344 C 71.6797 -5.27344 73.5352 -6.34766 74.8535 -8.25195 L 103.809 -53.125 C 104.59 -54.3457 105.273 -55.7617 105.273 -57.0801 C 105.273 -60.0586 102.588 -62.1582 99.7559 -62.1582 C 97.9004 -62.1582 96.2402 -61.084 94.9707 -59.082 L 69.3359 -18.4082 L 57.1289 -33.5449 C 55.7129 -35.3516 54.2969 -35.9863 52.4902 -35.9863 C 49.5605 -35.9863 47.168 -33.6426 47.168 -30.6152 C 47.168 -29.1992 47.7051 -27.8809 48.7305 -26.5625 L 64.0137 -8.20312 C 65.625 -6.20117 67.334 -5.27344 69.5312 -5.27344 Z"/>
  </g>
  <g id="Medium-L" transform="matrix(1 0 0 1 1670.87 1556)">
   <path d="M 75.6836 29.1504 C 110.938 29.1504 140.088 0 140.088 -35.2539 C 140.088 -70.5078 110.889 -99.6582 75.6348 -99.6582 C 40.3809 -99.6582 11.2793 -70.5078 11.2793 -35.2539 C 11.2793 0 40.3809 29.1504 75.6836 29.1504 Z M 75.6836 18.0176 C 46.1426 18.0176 22.4609 -5.76172 22.4609 -35.2539 C 22.4609 -64.7461 46.1426 -88.5254 75.6348 -88.5254 C 105.127 -88.5254 128.906 -64.7461 128.906 -35.2539 C 128.955 -5.76172 105.176 18.0176 75.6836 18.0176 Z M 68.8477 -5.27344 C 70.8496 -5.27344 72.5586 -6.25 73.7305 -8.05664 L 103.125 -53.8086 C 103.857 -54.9316 104.492 -56.25 104.492 -57.5195 C 104.492 -60.2539 102.051 -62.1094 99.4629 -62.1094 C 97.8027 -62.1094 96.3379 -61.1328 95.166 -59.3262 L 68.6523 -17.2363 L 55.7617 -33.3008 C 54.4434 -35.0586 53.0762 -35.5957 51.416 -35.5957 C 48.7305 -35.5957 46.582 -33.4473 46.582 -30.7129 C 46.582 -29.3945 47.1191 -28.125 48.0469 -26.9531 L 63.7695 -8.00781 C 65.2344 -6.15234 66.8457 -5.27344 68.8477 -5.27344 Z"/>
  </g>
  <g id="Regular-L" transform="matrix(1 0 0 1 1374.97 1556)">
   <path d="M 74.8535 28.3203 C 109.668 28.3203 138.477 -0.488281 138.477 -35.2539 C 138.477 -70.0684 109.619 -98.877 74.8047 -98.877 C 40.0391 -98.877 11.2793 -70.0684 11.2793 -35.2539 C 11.2793 -0.488281 40.0879 28.3203 74.8535 28.3203 Z M 74.8535 19.2383 C 44.6777 19.2383 20.4102 -5.07812 20.4102 -35.2539 C 20.4102 -65.4785 44.6289 -89.7461 74.8047 -89.7461 C 105.029 -89.7461 129.297 -65.4785 129.346 -35.2539 C 129.395 -5.07812 105.078 19.2383 74.8535 19.2383 Z M 67.9688 -5.27344 C 69.7754 -5.27344 71.2402 -6.15234 72.3145 -7.76367 L 102.246 -54.6875 C 102.881 -55.7129 103.516 -56.9336 103.516 -58.1055 C 103.516 -60.498 101.367 -62.0605 99.1699 -62.0605 C 97.7539 -62.0605 96.3867 -61.2305 95.4102 -59.668 L 67.7734 -15.7715 L 54.0039 -33.0078 C 52.7344 -34.668 51.5137 -35.1562 50.0488 -35.1562 C 47.7051 -35.1562 45.8496 -33.252 45.8496 -30.8594 C 45.8496 -29.6875 46.3379 -28.5156 47.1191 -27.4902 L 63.4277 -7.76367 C 64.7949 -6.00586 66.1621 -5.27344 67.9688 -5.27344 Z"/>
  </g>
  <g id="Light-L" transform="matrix(1 0 0 1 1079.18 1556)">
   <path d="M 73.9258 27.3926 C 108.301 27.3926 136.621 -0.927734 136.621 -35.2539 C 136.621 -69.6289 108.252 -97.9492 73.9258 -97.9492 C 39.5508 -97.9492 11.2793 -69.6289 11.2793 -35.2539 C 11.2793 -0.927734 39.5996 27.3926 73.9258 27.3926 Z M 73.9258 20.5078 C 43.1152 20.5078 18.2129 -4.44336 18.2129 -35.2539 C 18.2129 -66.1133 43.0664 -91.0156 73.9258 -91.0156 C 104.736 -91.0156 129.688 -66.1133 129.736 -35.2539 C 129.736 -4.44336 104.785 20.5078 73.9258 20.5078 Z M 67.1387 -5.27344 C 68.5059 -5.27344 69.5801 -5.9082 70.459 -7.12891 L 101.953 -56.2012 C 102.393 -56.9824 102.881 -57.9102 102.881 -58.7891 C 102.881 -60.5469 101.221 -61.8652 99.5117 -61.8652 C 98.4375 -61.8652 97.3633 -61.1816 96.582 -60.0098 L 66.9434 -13.4277 L 51.3672 -32.2266 C 50.4395 -33.4473 49.5117 -33.8867 48.3398 -33.8867 C 46.582 -33.8867 45.1172 -32.4707 45.1172 -30.5664 C 45.1172 -29.6875 45.5078 -28.7598 46.0938 -27.9297 L 63.6719 -7.12891 C 64.6973 -5.81055 65.7227 -5.27344 67.1387 -5.27344 Z"/>
  </g>
  <g id="Thin-L" transform="matrix(1 0 0 1 783.693 1556)">
   <path d="M 72.7051 26.1719 C 106.494 26.1719 134.18 -1.51367 134.18 -35.2539 C 134.18 -69.043 106.494 -96.7285 72.7051 -96.7285 C 38.9648 -96.7285 11.2793 -69.043 11.2793 -35.2539 C 11.2793 -1.51367 38.9648 26.1719 72.7051 26.1719 Z M 72.7051 22.168 C 41.0156 22.168 15.2832 -3.56445 15.2832 -35.2539 C 15.2832 -66.9922 41.0156 -92.7246 72.7051 -92.7246 C 104.395 -92.7246 130.176 -66.9922 130.176 -35.2539 C 130.176 -3.56445 104.443 22.168 72.7051 22.168 Z M 66.0156 -5.22461 C 66.7969 -5.22461 67.4316 -5.61523 67.9688 -6.25 L 101.514 -58.2031 C 101.758 -58.6426 102.002 -59.2285 102.002 -59.668 C 102.002 -60.6445 100.977 -61.5723 100 -61.5723 C 99.3164 -61.5723 98.6816 -61.084 98.1934 -60.498 L 65.918 -10.3516 L 47.9004 -31.25 C 47.3633 -31.8848 46.8262 -32.1777 46.0449 -32.1777 C 45.0684 -32.1777 44.0918 -31.3965 44.0918 -30.2246 C 44.0918 -29.6387 44.3848 -29.0527 44.7754 -28.5156 L 64.0137 -6.25 C 64.5996 -5.51758 65.1367 -5.22461 66.0156 -5.22461 Z"/>
  </g>
  <g id="Ultralight-L" transform="matrix(1 0 0 1 487.616 1556)">
   <path d="M 72.1191 25.5371 C 105.566 25.5371 132.91 -1.80664 132.91 -35.2539 C 132.91 -68.75 105.566 -96.0938 72.1191 -96.0938 C 38.623 -96.0938 11.2793 -68.75 11.2793 -35.2539 C 11.2793 -1.80664 38.623 25.5371 72.1191 25.5371 Z M 72.1191 23.0469 C 39.9414 23.0469 13.7695 -3.125 13.7695 -35.2539 C 13.7695 -67.4316 39.9414 -93.6035 72.1191 -93.6035 C 104.248 -93.6035 130.42 -67.4316 130.42 -35.2539 C 130.42 -3.125 104.248 23.0469 72.1191 23.0469 Z M 65.4297 -5.17578 C 65.9668 -5.17578 66.3086 -5.41992 66.6992 -5.76172 L 101.318 -59.2285 C 101.416 -59.4727 101.514 -59.8633 101.514 -60.1074 C 101.514 -60.6934 100.879 -61.4258 100.244 -61.4258 C 99.8047 -61.4258 99.3164 -61.084 99.0234 -60.6934 L 65.3809 -8.78906 L 46.1426 -30.7617 C 45.8008 -31.1035 45.4102 -31.2988 44.873 -31.2988 C 44.2871 -31.2988 43.6035 -30.8105 43.6035 -30.0293 C 43.6035 -29.6387 43.7988 -29.248 44.0918 -28.8086 L 64.209 -5.76172 C 64.5508 -5.37109 64.8438 -5.17578 65.4297 -5.17578 Z"/>
  </g>
  <g id="Black-M" transform="matrix(1 0 0 1 2870.97 1126)">
   <path d="M 62.4023 18.457 C 91.9922 18.457 116.113 -5.61523 116.113 -35.2051 C 116.113 -64.7949 91.9922 -88.8672 62.4023 -88.8672 C 32.8125 -88.8672 8.74023 -64.7949 8.74023 -35.2051 C 8.74023 -5.61523 32.8125 18.457 62.4023 18.457 Z M 62.4023 0.195312 C 42.8711 0.195312 27.002 -15.625 27.002 -35.2051 C 27.002 -54.7363 42.8711 -70.6055 62.4023 -70.6055 C 81.9824 -70.6055 97.8027 -54.7363 97.8027 -35.2051 C 97.8027 -15.625 81.9824 0.195312 62.4023 0.195312 Z M 57.5684 -11.8652 C 60.0098 -11.8652 62.2559 -13.1836 63.7207 -15.2832 L 84.4727 -45.6543 C 85.4492 -47.1191 85.8398 -48.5352 85.8398 -49.8047 C 85.8398 -53.418 82.6172 -56.1523 79.0527 -56.1523 C 76.6113 -56.1523 74.7559 -54.8828 73.1445 -52.3438 L 57.5684 -27.9785 L 51.123 -35.1074 C 49.8535 -36.5234 48.3398 -37.4023 46.3379 -37.4023 C 42.6758 -37.4023 39.5996 -34.5215 39.5996 -30.8594 C 39.5996 -29.1504 40.0879 -27.9297 41.5527 -26.2207 L 51.3184 -15.0879 C 52.9785 -13.1348 54.9805 -11.8652 57.5684 -11.8652 Z"/>
  </g>
  <g id="Heavy-M" transform="matrix(1 0 0 1 2575.19 1126)">
   <path d="M 61.5234 17.5293 C 90.5273 17.5293 114.258 -6.20117 114.258 -35.2051 C 114.258 -64.2578 90.5273 -87.9883 61.4746 -87.9883 C 32.4707 -87.9883 8.74023 -64.2578 8.74023 -35.2051 C 8.74023 -6.20117 32.4707 17.5293 61.5234 17.5293 Z M 61.5234 1.61133 C 41.1133 1.61133 24.6582 -14.8438 24.6582 -35.2051 C 24.6582 -55.6152 41.1133 -72.0703 61.4746 -72.0703 C 81.8848 -72.0703 98.3398 -55.6152 98.3398 -35.2051 C 98.3398 -14.8438 81.8848 1.61133 61.5234 1.61133 Z M 56.543 -11.9141 C 58.7891 -11.9141 60.8398 -13.1348 62.1582 -15.0391 L 83.252 -46.582 C 84.1797 -47.9004 84.6191 -49.2188 84.6191 -50.4395 C 84.6191 -53.7598 81.6895 -56.1523 78.4668 -56.1523 C 76.3184 -56.1523 74.6094 -55.0293 73.1445 -52.7344 L 56.4941 -26.416 L 49.3164 -34.8145 C 48.0469 -36.2793 46.6309 -37.0605 44.7754 -37.0605 C 41.5039 -37.0605 38.7695 -34.4238 38.7695 -31.1523 C 38.7695 -29.5898 39.209 -28.3691 40.4785 -26.8555 L 50.7812 -14.8926 C 52.3438 -13.0371 54.1992 -11.9141 56.543 -11.9141 Z"/>
  </g>
  <g id="Bold-M" transform="matrix(1 0 0 1 2279.5 1126)">
   <path d="M 60.498 16.5039 C 88.8672 16.5039 112.207 -6.83594 112.207 -35.2051 C 112.207 -63.623 88.8672 -86.9629 60.4492 -86.9629 C 32.0312 -86.9629 8.74023 -63.623 8.74023 -35.2051 C 8.74023 -6.83594 32.0801 16.5039 60.498 16.5039 Z M 60.498 3.22266 C 39.1602 3.22266 22.0703 -13.916 22.0703 -35.2051 C 22.0703 -56.543 39.1602 -73.6816 60.4492 -73.6816 C 81.7383 -73.6816 98.9258 -56.543 98.9258 -35.2051 C 98.9746 -13.916 81.7871 3.22266 60.498 3.22266 Z M 55.3711 -11.9629 C 57.4219 -11.9629 59.2285 -13.0371 60.4004 -14.7949 L 81.9336 -47.5586 C 82.7148 -48.7305 83.2031 -50 83.2031 -51.1719 C 83.2031 -54.1016 80.6641 -56.1523 77.832 -56.1523 C 75.9766 -56.1523 74.4629 -55.127 73.1934 -53.1738 L 55.2734 -24.707 L 47.2656 -34.5215 C 45.9961 -35.9863 44.7266 -36.6211 43.0664 -36.6211 C 40.1367 -36.6211 37.793 -34.3262 37.793 -31.4453 C 37.793 -30.0781 38.2812 -28.9062 39.3066 -27.5879 L 50.1465 -14.6973 C 51.6113 -12.9395 53.2715 -11.9629 55.3711 -11.9629 Z"/>
  </g>
  <g id="Semibold-M" transform="matrix(1 0 0 1 1983.5 1126)">
   <path d="M 59.7656 15.8203 C 87.7441 15.8203 110.791 -7.27539 110.791 -35.2539 C 110.791 -63.2324 87.6953 -86.2793 59.7656 -86.2793 C 31.7871 -86.2793 8.74023 -63.2324 8.74023 -35.2539 C 8.74023 -7.27539 31.7871 15.8203 59.7656 15.8203 Z M 59.7656 4.3457 C 37.8418 4.3457 20.2637 -13.3301 20.2637 -35.2539 C 20.2637 -57.1777 37.793 -74.8047 59.7656 -74.8047 C 81.6895 -74.8047 99.3164 -57.1777 99.3652 -35.2539 C 99.3652 -13.3301 81.6895 4.3457 59.7656 4.3457 Z M 54.5898 -12.0117 C 56.4453 -12.0117 58.1055 -12.9395 59.2285 -14.6484 L 81.0547 -48.2422 C 81.7383 -49.3652 82.2754 -50.5371 82.2754 -51.709 C 82.2754 -54.3457 79.9316 -56.1523 77.3926 -56.1523 C 75.7812 -56.1523 74.3652 -55.2246 73.2422 -53.4668 L 54.4434 -23.5352 L 45.8008 -34.2773 C 44.6289 -35.791 43.4082 -36.377 41.8457 -36.377 C 39.2578 -36.377 37.1582 -34.2773 37.1582 -31.6406 C 37.1582 -30.3711 37.5977 -29.248 38.5254 -28.125 L 49.7559 -14.5508 C 51.123 -12.8418 52.6367 -12.0117 54.5898 -12.0117 Z"/>
  </g>
  <g id="Medium-M" transform="matrix(1 0 0 1 1687.3 1126)">
   <path d="M 59.2285 15.2344 C 86.9141 15.2344 109.766 -7.61719 109.766 -35.2539 C 109.766 -62.8906 86.8652 -85.7422 59.1797 -85.7422 C 31.543 -85.7422 8.74023 -62.8906 8.74023 -35.2539 C 8.74023 -7.61719 31.5918 15.2344 59.2285 15.2344 Z M 59.2285 5.17578 C 36.8164 5.17578 18.8965 -12.8418 18.8965 -35.2539 C 18.8965 -57.666 36.8164 -75.6348 59.1797 -75.6348 C 81.5918 -75.6348 99.6094 -57.666 99.6582 -35.2539 C 99.707 -12.8418 81.6406 5.17578 59.2285 5.17578 Z M 53.9551 -12.0117 C 55.7617 -12.0117 57.2754 -12.8906 58.3008 -14.502 L 80.3223 -48.7793 C 81.0059 -49.8047 81.543 -50.9766 81.543 -52.0508 C 81.543 -54.541 79.3945 -56.1523 77.0508 -56.1523 C 75.5859 -56.1523 74.2676 -55.3223 73.2422 -53.6621 L 53.8086 -22.6562 L 44.7266 -34.1309 C 43.5547 -35.6445 42.3828 -36.1328 40.9668 -36.1328 C 38.5254 -36.1328 36.6211 -34.2285 36.6211 -31.7871 C 36.6211 -30.6152 37.0605 -29.541 37.8906 -28.4668 L 49.4141 -14.4531 C 50.7324 -12.793 52.1484 -12.0117 53.9551 -12.0117 Z"/>
  </g>
  <g id="Regular-M" transform="matrix(1 0 0 1 1391.3 1126)">
   <path d="M 58.5449 14.5508 C 85.791 14.5508 108.35 -8.05664 108.35 -35.2539 C 108.35 -62.5 85.7422 -85.0586 58.4961 -85.0586 C 31.2988 -85.0586 8.74023 -62.5 8.74023 -35.2539 C 8.74023 -8.05664 31.3477 14.5508 58.5449 14.5508 Z M 58.5449 6.25 C 35.498 6.25 17.0898 -12.207 17.0898 -35.2539 C 17.0898 -58.3008 35.4492 -76.7578 58.4961 -76.7578 C 81.543 -76.7578 100 -58.3008 100.049 -35.2539 C 100.098 -12.207 81.5918 6.25 58.5449 6.25 Z M 53.1738 -12.0605 C 54.7852 -12.0605 56.1523 -12.8418 57.1289 -14.3555 L 79.4434 -49.4629 C 79.9805 -50.3906 80.6152 -51.5137 80.6152 -52.5879 C 80.6152 -54.7363 78.6621 -56.1523 76.6113 -56.1523 C 75.3906 -56.1523 74.1699 -55.4199 73.2422 -53.9551 L 52.9785 -21.4844 L 43.3594 -33.8867 C 42.1875 -35.4492 41.1133 -35.8887 39.7461 -35.8887 C 37.6465 -35.8887 35.9863 -34.1797 35.9863 -31.9824 C 35.9863 -30.957 36.4258 -29.8828 37.1094 -28.9551 L 49.0234 -14.3555 C 50.2441 -12.7441 51.5625 -12.0605 53.1738 -12.0605 Z"/>
  </g>
  <g id="Light-M" transform="matrix(1 0 0 1 1095.42 1126)">
   <path d="M 57.7148 13.7207 C 84.5215 13.7207 106.689 -8.44727 106.689 -35.2539 C 106.689 -62.1094 84.5215 -84.2285 57.666 -84.2285 C 30.8594 -84.2285 8.74023 -62.1094 8.74023 -35.2539 C 8.74023 -8.44727 30.9082 13.7207 57.7148 13.7207 Z M 57.7148 7.37305 C 34.082 7.37305 15.0879 -11.6699 15.0879 -35.2539 C 15.0879 -58.8867 34.082 -77.9297 57.666 -77.9297 C 81.2988 -77.9297 100.342 -58.8867 100.391 -35.2539 C 100.391 -11.6699 81.3477 7.37305 57.7148 7.37305 Z M 52.4414 -12.0117 C 53.6621 -12.0117 54.6875 -12.5977 55.4199 -13.7207 L 79.1504 -50.8301 C 79.5898 -51.5137 80.0293 -52.3926 80.0293 -53.1738 C 80.0293 -54.834 78.5156 -55.957 76.9531 -55.957 C 75.9766 -55.957 75.0488 -55.3711 74.3164 -54.2969 L 52.2461 -19.3848 L 41.0156 -33.252 C 40.1367 -34.375 39.2578 -34.7656 38.2324 -34.7656 C 36.6211 -34.7656 35.3027 -33.4473 35.3027 -31.7383 C 35.3027 -30.9082 35.6445 -30.127 36.1816 -29.3945 L 49.2188 -13.7207 C 50.1953 -12.5488 51.1719 -12.0117 52.4414 -12.0117 Z"/>
  </g>
  <g id="Thin-M" transform="matrix(1 0 0 1 799.806 1126)">
   <path d="M 56.6406 12.5977 C 82.9102 12.5977 104.492 -8.98438 104.492 -35.2539 C 104.492 -61.5723 82.9102 -83.1543 56.5918 -83.1543 C 30.3223 -83.1543 8.74023 -61.5723 8.74023 -35.2539 C 8.74023 -8.98438 30.3223 12.5977 56.6406 12.5977 Z M 56.6406 8.88672 C 32.2266 8.88672 12.4512 -10.8887 12.4512 -35.2539 C 12.4512 -59.6191 32.2266 -79.4434 56.5918 -79.4434 C 81.0059 -79.4434 100.781 -59.6191 100.781 -35.2539 C 100.781 -10.8887 81.0059 8.88672 56.6406 8.88672 Z M 51.416 -11.9629 C 52.1484 -11.9629 52.7344 -12.3535 53.2227 -12.9395 L 78.7598 -52.6367 C 79.0039 -53.0273 79.248 -53.5156 79.248 -53.9551 C 79.248 -54.9316 78.3203 -55.7129 77.3926 -55.7129 C 76.8066 -55.7129 76.1719 -55.2734 75.7324 -54.6875 L 51.3184 -16.6016 L 37.8906 -32.373 C 37.4023 -33.0078 36.8652 -33.252 36.1816 -33.252 C 35.2539 -33.252 34.4238 -32.4707 34.4238 -31.4453 C 34.4238 -30.9082 34.668 -30.3711 35.0098 -29.8828 L 49.5605 -12.9395 C 50.0977 -12.2559 50.6348 -11.9629 51.416 -11.9629 Z"/>
  </g>
  <g id="Ultralight-M" transform="matrix(1 0 0 1 503.656 1126)">
   <path d="M 56.0547 12.0605 C 82.0801 12.0605 103.369 -9.22852 103.369 -35.2539 C 103.369 -61.2793 82.0801 -82.5684 56.0547 -82.5684 C 30.0293 -82.5684 8.74023 -61.2793 8.74023 -35.2539 C 8.74023 -9.22852 30.0293 12.0605 56.0547 12.0605 Z M 56.0547 9.66797 C 31.2988 9.66797 11.1328 -10.498 11.1328 -35.2539 C 11.1328 -60.0586 31.2988 -80.1758 56.0547 -80.1758 C 80.8594 -80.1758 100.977 -60.0586 100.977 -35.2539 C 100.977 -10.498 80.8594 9.66797 56.0547 9.66797 Z M 50.8789 -11.9629 C 51.3672 -11.9629 51.709 -12.207 52.0996 -12.5488 L 78.6133 -53.5156 C 78.7109 -53.7598 78.8086 -54.1504 78.8086 -54.3457 C 78.8086 -54.9805 78.2227 -55.5664 77.6367 -55.5664 C 77.1973 -55.5664 76.8066 -55.2734 76.4648 -54.9316 L 50.8301 -15.1855 L 36.2793 -31.9336 C 35.9863 -32.2754 35.6445 -32.4707 35.1562 -32.4707 C 34.5703 -32.4707 33.9355 -31.9824 33.9355 -31.25 C 33.9355 -30.9082 34.1309 -30.5176 34.375 -30.1758 L 49.707 -12.5488 C 50.0488 -12.1094 50.3418 -11.9629 50.8789 -11.9629 Z"/>
  </g>
  <g id="Black-S" transform="matrix(1 0 0 1 2884.57 696)">
   <path d="M 48.8281 6.78711 C 71.9727 6.78711 90.8203 -12.0605 90.8203 -35.2051 C 90.8203 -58.3496 71.9727 -77.1973 48.8281 -77.1973 C 25.6836 -77.1973 6.83594 -58.3496 6.83594 -35.2051 C 6.83594 -12.0605 25.6836 6.78711 48.8281 6.78711 Z M 48.8281 -7.37305 C 33.4473 -7.37305 20.9961 -19.8242 20.9961 -35.2051 C 20.9961 -50.5859 33.4473 -63.0371 48.8281 -63.0371 C 64.209 -63.0371 76.6602 -50.5859 76.6602 -35.2051 C 76.6602 -19.8242 64.209 -7.37305 48.8281 -7.37305 Z M 45.0195 -16.9434 C 46.9238 -16.9434 48.6816 -17.9688 49.8047 -19.5801 L 66.0645 -43.457 C 66.8457 -44.5801 67.1387 -45.7031 67.1387 -46.6797 C 67.1387 -49.5117 64.6484 -51.6113 61.8652 -51.6113 C 59.9609 -51.6113 58.5449 -50.6348 57.2754 -48.6816 L 45.0195 -29.4434 L 39.9414 -35.1074 C 38.916 -36.2305 37.7441 -36.9141 36.1816 -36.9141 C 33.3496 -36.9141 30.957 -34.668 30.957 -31.8359 C 30.957 -30.5176 31.3477 -29.541 32.4707 -28.2227 L 40.1367 -19.4336 C 41.4551 -17.9199 43.0176 -16.9434 45.0195 -16.9434 Z"/>
  </g>
  <g id="Heavy-S" transform="matrix(1 0 0 1 2588.47 696)">
   <path d="M 48.2422 6.15234 C 70.9961 6.15234 89.5996 -12.4512 89.5996 -35.2051 C 89.5996 -57.959 70.9961 -76.6113 48.1934 -76.6113 C 25.4395 -76.6113 6.83594 -57.959 6.83594 -35.2051 C 6.83594 -12.4512 25.4395 6.15234 48.2422 6.15234 Z M 48.2422 -6.39648 C 32.2754 -6.39648 19.4336 -19.2871 19.4336 -35.2051 C 19.4336 -51.1719 32.2754 -64.0137 48.1934 -64.0137 C 64.1602 -64.0137 77.002 -51.1719 77.0508 -35.2051 C 77.0508 -19.2871 64.1602 -6.39648 48.2422 -6.39648 Z M 44.3359 -16.9922 C 46.0938 -16.9922 47.7539 -17.9199 48.7793 -19.4824 L 65.1855 -43.9941 C 65.918 -45.0684 66.2598 -46.1426 66.2598 -47.1191 C 66.2598 -49.7559 63.9648 -51.6602 61.377 -51.6602 C 59.668 -51.6602 58.3496 -50.7324 57.1777 -48.9258 L 44.2871 -28.5156 L 38.8184 -34.9609 C 37.7441 -36.1328 36.6211 -36.7676 35.1562 -36.7676 C 32.5684 -36.7676 30.3711 -34.668 30.3711 -32.0801 C 30.3711 -30.8594 30.7617 -29.8828 31.7871 -28.6621 L 39.6973 -19.3848 C 40.9668 -17.8711 42.4316 -16.9922 44.3359 -16.9922 Z"/>
  </g>
  <g id="Bold-S" transform="matrix(1 0 0 1 2292.44 696)">
   <path d="M 47.5586 5.46875 C 69.873 5.46875 88.2324 -12.8906 88.2324 -35.2539 C 88.2324 -57.5684 69.873 -75.9277 47.5098 -75.9277 C 25.1953 -75.9277 6.83594 -57.5684 6.83594 -35.2539 C 6.83594 -12.8906 25.1953 5.46875 47.5586 5.46875 Z M 47.5586 -5.32227 C 30.957 -5.32227 17.6758 -18.6523 17.6758 -35.2539 C 17.6758 -51.8066 30.957 -65.1367 47.5098 -65.1367 C 64.1113 -65.1367 77.4414 -51.8066 77.4414 -35.2539 C 77.4414 -18.6523 64.1113 -5.32227 47.5586 -5.32227 Z M 43.5059 -16.9922 C 45.2148 -16.9922 46.6797 -17.8711 47.6562 -19.3848 L 64.209 -44.5801 C 64.8438 -45.5566 65.2832 -46.6309 65.2832 -47.6074 C 65.2832 -50 63.1836 -51.6602 60.8887 -51.6602 C 59.3262 -51.6602 58.1055 -50.8301 57.0801 -49.2188 L 43.4082 -27.4414 L 37.5 -34.8145 C 36.4746 -36.084 35.4004 -36.6211 34.0332 -36.6211 C 31.6406 -36.6211 29.7363 -34.7168 29.7363 -32.3242 C 29.7363 -31.2012 30.127 -30.2246 31.0059 -29.1992 L 39.209 -19.2871 C 40.4297 -17.8223 41.7969 -16.9922 43.5059 -16.9922 Z"/>
  </g>
  <g id="Semibold-S" transform="matrix(1 0 0 1 1996.2 696)">
   <path d="M 47.0703 4.98047 C 69.0918 4.98047 87.3047 -13.1836 87.3047 -35.2539 C 87.3047 -57.2754 69.0918 -75.4883 47.0215 -75.4883 C 25 -75.4883 6.83594 -57.2754 6.83594 -35.2539 C 6.83594 -13.1836 25.0488 4.98047 47.0703 4.98047 Z M 47.0703 -4.58984 C 30.0781 -4.58984 16.4551 -18.2129 16.4551 -35.2539 C 16.4551 -52.2461 30.0293 -65.8691 47.0215 -65.8691 C 64.0625 -65.8691 77.6855 -52.2461 77.7344 -35.2539 C 77.7344 -18.2129 64.0625 -4.58984 47.0703 -4.58984 Z M 42.9688 -17.041 C 44.5801 -17.041 45.9473 -17.8223 46.875 -19.2871 L 63.5254 -45.0195 C 64.1602 -45.9473 64.5996 -46.9727 64.5996 -47.9492 C 64.5996 -50.1953 62.6465 -51.709 60.498 -51.709 C 59.1309 -51.709 57.959 -50.9277 56.9824 -49.4141 L 42.8223 -26.709 L 36.6211 -34.7168 C 35.5957 -36.0352 34.5703 -36.4746 33.252 -36.4746 C 31.0547 -36.4746 29.2969 -34.7168 29.2969 -32.5195 C 29.2969 -31.4453 29.6875 -30.5176 30.4199 -29.541 L 38.8672 -19.2383 C 40.0391 -17.7734 41.3574 -17.041 42.9688 -17.041 Z"/>
  </g>
  <g id="Medium-S" transform="matrix(1 0 0 1 1699.83 696)">
   <path d="M 46.7285 4.63867 C 68.5547 4.63867 86.6211 -13.4277 86.6211 -35.2539 C 86.6211 -57.0801 68.5059 -75.1465 46.6797 -75.1465 C 24.8535 -75.1465 6.83594 -57.0801 6.83594 -35.2539 C 6.83594 -13.4277 24.9023 4.63867 46.7285 4.63867 Z M 46.7285 -4.00391 C 29.3945 -4.00391 15.5273 -17.9199 15.5273 -35.2539 C 15.5273 -52.5879 29.3457 -66.4551 46.6797 -66.4551 C 64.0137 -66.4551 77.8809 -52.5879 77.9297 -35.2539 C 77.9785 -17.9199 64.0625 -4.00391 46.7285 -4.00391 Z M 42.5781 -17.041 C 44.0918 -17.041 45.4102 -17.8223 46.2891 -19.2383 L 63.0371 -45.3125 C 63.5742 -46.1914 64.1113 -47.2168 64.1113 -48.1934 C 64.1113 -50.3418 62.207 -51.709 60.2051 -51.709 C 58.9355 -51.709 57.8125 -50.9766 56.9336 -49.5605 L 42.3828 -26.1719 L 35.9375 -34.6191 C 34.9121 -35.9863 33.8867 -36.4258 32.666 -36.4258 C 30.5664 -36.4258 28.9551 -34.7168 28.9551 -32.666 C 28.9551 -31.6406 29.3457 -30.7129 30.0293 -29.7852 L 38.623 -19.1895 C 39.7461 -17.7246 41.0156 -17.041 42.5781 -17.041 Z"/>
  </g>
  <g id="Regular-S" transform="matrix(1 0 0 1 1403.58 696)">
   <path d="M 46.2402 4.15039 C 67.7734 4.15039 85.6934 -13.7207 85.6934 -35.2539 C 85.6934 -56.7871 67.7246 -74.6582 46.1914 -74.6582 C 24.707 -74.6582 6.83594 -56.7871 6.83594 -35.2539 C 6.83594 -13.7207 24.7559 4.15039 46.2402 4.15039 Z M 46.2402 -3.27148 C 28.5156 -3.27148 14.3555 -17.4805 14.3555 -35.2539 C 14.3555 -53.0273 28.4668 -67.2363 46.1914 -67.2363 C 63.9648 -67.2363 78.1738 -53.0273 78.2227 -35.2539 C 78.2715 -17.4805 64.0137 -3.27148 46.2402 -3.27148 Z M 42.041 -17.0898 C 43.457 -17.0898 44.6777 -17.7734 45.5566 -19.1406 L 62.3535 -45.7031 C 62.8906 -46.582 63.4277 -47.5586 63.4277 -48.5352 C 63.4277 -50.4883 61.7188 -51.709 59.8633 -51.709 C 58.7402 -51.709 57.666 -51.0742 56.8359 -49.7559 L 41.8457 -25.4395 L 35.1074 -34.5215 C 34.0332 -35.9375 33.0566 -36.2793 31.8848 -36.2793 C 29.9805 -36.2793 28.5156 -34.7656 28.5156 -32.8125 C 28.5156 -31.8848 28.9062 -30.957 29.4922 -30.127 L 38.2812 -19.1406 C 39.4043 -17.6758 40.5762 -17.0898 42.041 -17.0898 Z"/>
  </g>
  <g id="Light-S" transform="matrix(1 0 0 1 1107.6 696)">
   <path d="M 45.5078 3.41797 C 66.6992 3.41797 84.2285 -14.0625 84.2285 -35.2539 C 84.2285 -56.4453 66.6504 -73.9258 45.5078 -73.9258 C 24.3164 -73.9258 6.83594 -56.4453 6.83594 -35.2539 C 6.83594 -14.0625 24.3652 3.41797 45.5078 3.41797 Z M 45.5078 -2.29492 C 27.2461 -2.29492 12.5977 -16.9922 12.5977 -35.2539 C 12.5977 -53.5156 27.1973 -68.2129 45.5078 -68.2129 C 63.7695 -68.2129 78.4668 -53.5156 78.5156 -35.2539 C 78.5156 -16.9922 63.8184 -2.29492 45.5078 -2.29492 Z M 41.3574 -17.041 C 42.4805 -17.041 43.4082 -17.5781 44.043 -18.6035 L 62.1094 -46.9238 C 62.5 -47.5586 62.8906 -48.3398 62.8906 -49.0723 C 62.8906 -50.5371 61.5723 -51.5625 60.1562 -51.5625 C 59.2773 -51.5625 58.4473 -51.0254 57.8125 -50.0488 L 41.2109 -23.6328 L 33.0078 -33.9355 C 32.2266 -34.9609 31.4453 -35.3027 30.5176 -35.3027 C 29.0527 -35.3027 27.9297 -34.082 27.9297 -32.6172 C 27.9297 -31.8848 28.2227 -31.1523 28.7109 -30.4688 L 38.4766 -18.6035 C 39.3555 -17.5293 40.2344 -17.041 41.3574 -17.041 Z"/>
  </g>
  <g id="Thin-S" transform="matrix(1 0 0 1 811.867 696)">
   <path d="M 44.5801 2.49023 C 65.2832 2.49023 82.2754 -14.5508 82.2754 -35.2539 C 82.2754 -55.957 65.2344 -72.998 44.5312 -72.998 C 23.8281 -72.998 6.83594 -55.957 6.83594 -35.2539 C 6.83594 -14.5508 23.877 2.49023 44.5801 2.49023 Z M 44.5801 -0.927734 C 25.5859 -0.927734 10.2539 -16.3086 10.2539 -35.2539 C 10.2539 -54.1992 25.5859 -69.5801 44.5312 -69.5801 C 63.5254 -69.5801 78.8574 -54.1992 78.8574 -35.2539 C 78.8574 -16.3086 63.5254 -0.927734 44.5801 -0.927734 Z M 40.4785 -17.041 C 41.1133 -17.041 41.6504 -17.334 42.0898 -17.9199 L 61.7676 -48.4863 C 62.0117 -48.877 62.207 -49.3652 62.207 -49.7559 C 62.207 -50.6348 61.377 -51.3184 60.5469 -51.3184 C 60.0098 -51.3184 59.4727 -50.9766 59.082 -50.3906 L 40.3809 -21.1914 L 30.2734 -33.1543 C 29.7852 -33.7402 29.3457 -33.9355 28.7109 -33.9355 C 27.8809 -33.9355 27.0996 -33.252 27.0996 -32.3242 C 27.0996 -31.8359 27.3438 -31.3965 27.6367 -30.957 L 38.7207 -17.9199 C 39.2578 -17.2852 39.7461 -17.041 40.4785 -17.041 Z"/>
  </g>
  <g id="Ultralight-S" transform="matrix(1 0 0 1 515.644 696)">
   <path d="M 44.043 1.95312 C 64.502 1.95312 81.2988 -14.7949 81.2988 -35.2539 C 81.2988 -55.7129 64.502 -72.4609 44.043 -72.4609 C 23.584 -72.4609 6.83594 -55.7129 6.83594 -35.2539 C 6.83594 -14.7949 23.584 1.95312 44.043 1.95312 Z M 44.043 -0.244141 C 24.7559 -0.244141 9.08203 -15.9668 9.08203 -35.2539 C 9.08203 -54.541 24.7559 -70.2637 44.043 -70.2637 C 63.3789 -70.2637 79.0527 -54.541 79.0527 -35.2539 C 79.0527 -15.9668 63.3789 -0.244141 44.043 -0.244141 Z M 39.9902 -16.9922 C 40.4297 -16.9922 40.7715 -17.2363 41.1133 -17.5781 L 61.6211 -49.3164 C 61.7188 -49.5605 61.8652 -49.9023 61.8652 -50.0977 C 61.8652 -50.6836 61.2793 -51.2207 60.7422 -51.2207 C 60.3516 -51.2207 60.0098 -50.9277 59.7168 -50.5859 L 39.9414 -19.9219 L 28.8574 -32.7637 C 28.5645 -33.1055 28.2227 -33.252 27.7832 -33.252 C 27.2461 -33.252 26.709 -32.8125 26.709 -32.1777 C 26.709 -31.8359 26.8555 -31.4941 27.0996 -31.2012 L 38.8672 -17.5781 C 39.209 -17.1875 39.502 -16.9922 39.9902 -16.9922 Z"/>
  </g>
 </g>
</svg>
