<?xml version="1.0" encoding="UTF-8"?>
<!--Generator: Apple Native CoreSVG 129-->
<!DOCTYPE svg
PUBLIC "-//W3C//DTD SVG 1.1//EN"
       "http://www.w3.org/Graphics/SVG/1.1/DTD/svg11.dtd">
<svg version="1.1" xmlns="http://www.w3.org/2000/svg" xmlns:xlink="http://www.w3.org/1999/xlink" width="3300" height="2200">
 <!--glyph: "uni100407.medium", point size: 100.000000, font version: "Version 16.0d9e1", template writer version: "8"-->
 <g id="Notes">
  <rect height="2200" id="artboard" style="fill:white;opacity:1" width="3300" x="0" y="0"/>
  <line id="" style="fill:none;stroke:black;opacity:1;stroke-width:0.5;" x1="263" x2="3036" y1="292" y2="292"/>
  <text style="stroke:none;fill:black;font-family:-apple-system,&quot;SF Pro Display&quot;,&quot;SF Pro Text&quot;,Helvetica,sans-serif;font-weight:bold;" transform="matrix(1 0 0 1 263 322)">Weight/Scale Variations</text>
  <text style="stroke:none;fill:black;font-family:-apple-system,&quot;SF Pro Display&quot;,&quot;SF Pro Text&quot;,Helvetica,sans-serif;text-anchor:middle;" transform="matrix(1 0 0 1 559.711 322)">Ultralight</text>
  <text style="stroke:none;fill:black;font-family:-apple-system,&quot;SF Pro Display&quot;,&quot;SF Pro Text&quot;,Helvetica,sans-serif;text-anchor:middle;" transform="matrix(1 0 0 1 856.422 322)">Thin</text>
  <text style="stroke:none;fill:black;font-family:-apple-system,&quot;SF Pro Display&quot;,&quot;SF Pro Text&quot;,Helvetica,sans-serif;text-anchor:middle;" transform="matrix(1 0 0 1 1153.13 322)">Light</text>
  <text style="stroke:none;fill:black;font-family:-apple-system,&quot;SF Pro Display&quot;,&quot;SF Pro Text&quot;,Helvetica,sans-serif;text-anchor:middle;" transform="matrix(1 0 0 1 1449.84 322)">Regular</text>
  <text style="stroke:none;fill:black;font-family:-apple-system,&quot;SF Pro Display&quot;,&quot;SF Pro Text&quot;,Helvetica,sans-serif;text-anchor:middle;" transform="matrix(1 0 0 1 1746.56 322)">Medium</text>
  <text style="stroke:none;fill:black;font-family:-apple-system,&quot;SF Pro Display&quot;,&quot;SF Pro Text&quot;,Helvetica,sans-serif;text-anchor:middle;" transform="matrix(1 0 0 1 2043.27 322)">Semibold</text>
  <text style="stroke:none;fill:black;font-family:-apple-system,&quot;SF Pro Display&quot;,&quot;SF Pro Text&quot;,Helvetica,sans-serif;text-anchor:middle;" transform="matrix(1 0 0 1 2339.98 322)">Bold</text>
  <text style="stroke:none;fill:black;font-family:-apple-system,&quot;SF Pro Display&quot;,&quot;SF Pro Text&quot;,Helvetica,sans-serif;text-anchor:middle;" transform="matrix(1 0 0 1 2636.69 322)">Heavy</text>
  <text style="stroke:none;fill:black;font-family:-apple-system,&quot;SF Pro Display&quot;,&quot;SF Pro Text&quot;,Helvetica,sans-serif;text-anchor:middle;" transform="matrix(1 0 0 1 2933.4 322)">Black</text>
  <line id="" style="fill:none;stroke:black;opacity:1;stroke-width:0.5;" x1="263" x2="3036" y1="1903" y2="1903"/>
  <g id="" transform="matrix(1 0 0 1 263 1933)">
   <path d="M 9.24805 0.830078 C 13.5547 0.830078 17.1387 -2.74414 17.1387 -7.05078 C 17.1387 -11.3574 13.5449 -14.9316 9.23828 -14.9316 C 4.94141 -14.9316 1.36719 -11.3574 1.36719 -7.05078 C 1.36719 -2.74414 4.95117 0.830078 9.24805 0.830078 Z M 9.24805 -0.654297 C 5.70312 -0.654297 2.87109 -3.49609 2.87109 -7.05078 C 2.87109 -10.6055 5.69336 -13.4473 9.23828 -13.4473 C 12.793 -13.4473 15.6348 -10.6055 15.6445 -7.05078 C 15.6543 -3.49609 12.8027 -0.654297 9.24805 -0.654297 Z M 9.22852 -3.62305 C 9.69727 -3.62305 9.9707 -3.93555 9.9707 -4.45312 L 9.9707 -6.31836 L 12.002 -6.31836 C 12.5 -6.31836 12.832 -6.57227 12.832 -7.04102 C 12.832 -7.51953 12.5195 -7.7832 12.002 -7.7832 L 9.9707 -7.7832 L 9.9707 -9.81445 C 9.9707 -10.332 9.69727 -10.6543 9.22852 -10.6543 C 8.75977 -10.6543 8.50586 -10.3125 8.50586 -9.81445 L 8.50586 -7.7832 L 6.49414 -7.7832 C 5.97656 -7.7832 5.64453 -7.51953 5.64453 -7.04102 C 5.64453 -6.57227 5.99609 -6.31836 6.49414 -6.31836 L 8.50586 -6.31836 L 8.50586 -4.45312 C 8.50586 -3.95508 8.75977 -3.62305 9.22852 -3.62305 Z"/>
  </g>
  <g id="" transform="matrix(1 0 0 1 281.506 1933)">
   <path d="M 11.709 2.91016 C 17.1582 2.91016 21.6699 -1.61133 21.6699 -7.05078 C 21.6699 -12.5 17.1484 -17.0117 11.6992 -17.0117 C 6.25977 -17.0117 1.74805 -12.5 1.74805 -7.05078 C 1.74805 -1.61133 6.26953 2.91016 11.709 2.91016 Z M 11.709 1.25 C 7.09961 1.25 3.41797 -2.44141 3.41797 -7.05078 C 3.41797 -11.6602 7.08984 -15.3516 11.6992 -15.3516 C 16.3086 -15.3516 20 -11.6602 20.0098 -7.05078 C 20.0195 -2.44141 16.3184 1.25 11.709 1.25 Z M 11.6797 -2.66602 C 12.207 -2.66602 12.5098 -3.01758 12.5098 -3.59375 L 12.5098 -6.23047 L 15.3223 -6.23047 C 15.8691 -6.23047 16.25 -6.51367 16.25 -7.03125 C 16.25 -7.55859 15.8887 -7.86133 15.3223 -7.86133 L 12.5098 -7.86133 L 12.5098 -10.6836 C 12.5098 -11.25 12.207 -11.6113 11.6797 -11.6113 C 11.1621 -11.6113 10.8789 -11.2305 10.8789 -10.6836 L 10.8789 -7.86133 L 8.07617 -7.86133 C 7.50977 -7.86133 7.13867 -7.55859 7.13867 -7.03125 C 7.13867 -6.51367 7.5293 -6.23047 8.07617 -6.23047 L 10.8789 -6.23047 L 10.8789 -3.59375 C 10.8789 -3.03711 11.1621 -2.66602 11.6797 -2.66602 Z"/>
  </g>
  <g id="" transform="matrix(1 0 0 1 304.924 1933)">
   <path d="M 14.9707 5.66406 C 21.9336 5.66406 27.6953 -0.0976562 27.6953 -7.05078 C 27.6953 -14.0137 21.9238 -19.7754 14.9609 -19.7754 C 8.00781 -19.7754 2.25586 -14.0137 2.25586 -7.05078 C 2.25586 -0.0976562 8.01758 5.66406 14.9707 5.66406 Z M 14.9707 3.84766 C 8.93555 3.84766 4.08203 -1.01562 4.08203 -7.05078 C 4.08203 -13.0957 8.92578 -17.9492 14.9609 -17.9492 C 21.0059 -17.9492 25.8594 -13.0957 25.8691 -7.05078 C 25.8789 -1.01562 21.0156 3.84766 14.9707 3.84766 Z M 14.9414 -1.38672 C 15.5176 -1.38672 15.8594 -1.77734 15.8594 -2.38281 L 15.8594 -6.13281 L 19.7754 -6.13281 C 20.3711 -6.13281 20.7812 -6.46484 20.7812 -7.02148 C 20.7812 -7.59766 20.3906 -7.93945 19.7754 -7.93945 L 15.8594 -7.93945 L 15.8594 -11.8652 C 15.8594 -12.4805 15.5176 -12.8711 14.9414 -12.8711 C 14.375 -12.8711 14.0527 -12.4609 14.0527 -11.8652 L 14.0527 -7.93945 L 10.1465 -7.93945 C 9.53125 -7.93945 9.13086 -7.59766 9.13086 -7.02148 C 9.13086 -6.46484 9.55078 -6.13281 10.1465 -6.13281 L 14.0527 -6.13281 L 14.0527 -2.38281 C 14.0527 -1.79688 14.375 -1.38672 14.9414 -1.38672 Z"/>
  </g>
  <text style="stroke:none;fill:black;font-family:-apple-system,&quot;SF Pro Display&quot;,&quot;SF Pro Text&quot;,Helvetica,sans-serif;font-weight:bold;" transform="matrix(1 0 0 1 263 1953)">Design Variations</text>
  <text style="stroke:none;fill:black;font-family:-apple-system,&quot;SF Pro Display&quot;,&quot;SF Pro Text&quot;,Helvetica,sans-serif;" transform="matrix(1 0 0 1 263 1971)">Symbols are supported in up to nine weights and three scales.</text>
  <text style="stroke:none;fill:black;font-family:-apple-system,&quot;SF Pro Display&quot;,&quot;SF Pro Text&quot;,Helvetica,sans-serif;" transform="matrix(1 0 0 1 263 1989)">For optimal layout with text and other symbols, vertically align</text>
  <text style="stroke:none;fill:black;font-family:-apple-system,&quot;SF Pro Display&quot;,&quot;SF Pro Text&quot;,Helvetica,sans-serif;" transform="matrix(1 0 0 1 263 2007)">symbols with the adjacent text.</text>
  <line id="" style="fill:none;stroke:#00AEEF;stroke-width:0.5;opacity:1.0;" x1="776" x2="776" y1="1919" y2="1933"/>
  <g id="" transform="matrix(1 0 0 1 776 1933)">
   <path d="M 3.31055 0.126953 C 3.82812 0.126953 4.08203 -0.0683594 4.26758 -0.605469 L 5.52734 -4.0625 L 11.2891 -4.0625 L 12.5488 -0.605469 C 12.7344 -0.0683594 12.9883 0.126953 13.4961 0.126953 C 14.0137 0.126953 14.3457 -0.185547 14.3457 -0.673828 C 14.3457 -0.839844 14.3164 -0.986328 14.2383 -1.20117 L 9.6582 -13.3887 C 9.43359 -13.9941 9.0332 -14.2871 8.4082 -14.2871 C 7.80273 -14.2871 7.39258 -13.9941 7.17773 -13.3984 L 2.59766 -1.19141 C 2.51953 -0.976562 2.49023 -0.830078 2.49023 -0.664062 C 2.49023 -0.175781 2.80273 0.126953 3.31055 0.126953 Z M 6.00586 -5.53711 L 8.37891 -12.1094 L 8.42773 -12.1094 L 10.8008 -5.53711 Z"/>
  </g>
  <line id="" style="fill:none;stroke:#00AEEF;stroke-width:0.5;opacity:1.0;" x1="792.836" x2="792.836" y1="1919" y2="1933"/>
  <text style="stroke:none;fill:black;font-family:-apple-system,&quot;SF Pro Display&quot;,&quot;SF Pro Text&quot;,Helvetica,sans-serif;font-weight:bold;" transform="matrix(1 0 0 1 776 1953)">Margins</text>
  <text style="stroke:none;fill:black;font-family:-apple-system,&quot;SF Pro Display&quot;,&quot;SF Pro Text&quot;,Helvetica,sans-serif;" transform="matrix(1 0 0 1 776 1971)">Leading and trailing margins on the left and right side of each symbol</text>
  <text style="stroke:none;fill:black;font-family:-apple-system,&quot;SF Pro Display&quot;,&quot;SF Pro Text&quot;,Helvetica,sans-serif;" transform="matrix(1 0 0 1 776 1989)">can be adjusted by modifying the x-location of the margin guidelines.</text>
  <text style="stroke:none;fill:black;font-family:-apple-system,&quot;SF Pro Display&quot;,&quot;SF Pro Text&quot;,Helvetica,sans-serif;" transform="matrix(1 0 0 1 776 2007)">Modifications are automatically applied proportionally to all</text>
  <text style="stroke:none;fill:black;font-family:-apple-system,&quot;SF Pro Display&quot;,&quot;SF Pro Text&quot;,Helvetica,sans-serif;" transform="matrix(1 0 0 1 776 2025)">scales and weights.</text>
  <g id="" transform="matrix(1 0 0 1 1289 1933)">
   <path d="M 2.8418 1.86523 L 4.54102 3.57422 C 5.40039 4.44336 6.38672 4.38477 7.31445 3.35938 L 17.4902 -7.85156 C 17.7539 -7.76367 18.0273 -7.7832 18.3398 -7.8418 L 19.4043 -8.03711 L 20.0684 -7.36328 L 20.0293 -6.80664 C 19.9902 -6.30859 20.1172 -5.92773 20.6055 -5.44922 L 21.3672 -4.70703 C 21.8457 -4.22852 22.4609 -4.19922 22.9297 -4.66797 L 25.8398 -7.58789 C 26.3086 -8.05664 26.2891 -8.65234 25.8105 -9.13086 L 25.0391 -9.89258 C 24.5605 -10.3711 24.1895 -10.5273 23.7109 -10.4883 L 23.1348 -10.4395 L 22.4902 -11.0742 L 22.7344 -12.1973 C 22.8613 -12.7637 22.7051 -13.2031 22.1191 -13.7891 L 19.9219 -15.9766 C 16.582 -19.2969 12.1484 -19.2188 9.25781 -16.3281 C 8.83789 -15.918 8.80859 -15.3418 9.04297 -14.9512 C 9.27734 -14.5898 9.73633 -14.3555 10.3809 -14.5215 C 11.8457 -14.8633 13.3691 -14.9219 14.7949 -13.9844 L 14.209 -12.5293 C 14.0137 -12.0508 13.9844 -11.6504 14.1113 -11.2891 L 3.04688 -0.898438 C 2.06055 0.0195312 1.98242 0.996094 2.8418 1.86523 Z M 10.752 -15.957 C 13.1836 -17.7344 16.4746 -17.4316 18.7012 -15.2051 L 21.1328 -12.793 C 21.3672 -12.5586 21.4062 -12.373 21.3379 -12.0312 L 21.0156 -10.5469 L 22.5195 -9.0625 L 23.5059 -9.12109 C 23.7598 -9.13086 23.8379 -9.11133 24.0332 -8.91602 L 24.6094 -8.33984 L 22.168 -5.89844 L 21.5918 -6.47461 C 21.3965 -6.66992 21.3672 -6.74805 21.377 -7.01172 L 21.4453 -7.98828 L 19.9512 -9.47266 L 18.4277 -9.21875 C 18.1055 -9.15039 17.959 -9.17969 17.7148 -9.41406 L 15.7129 -11.416 C 15.459 -11.6504 15.4297 -11.8164 15.5859 -12.1875 L 16.4648 -14.2773 C 14.9023 -15.7324 12.8711 -16.3574 10.8398 -15.7617 C 10.6836 -15.7227 10.625 -15.8496 10.752 -15.957 Z M 5.27344 2.30469 L 4.10156 1.14258 C 3.63281 0.683594 3.74023 0.341797 4.14062 -0.0195312 L 14.9512 -10.1953 L 16.416 -8.71094 L 6.42578 2.27539 C 6.07422 2.67578 5.74219 2.77344 5.27344 2.30469 Z"/>
  </g>
  <text style="stroke:none;fill:black;font-family:-apple-system,&quot;SF Pro Display&quot;,&quot;SF Pro Text&quot;,Helvetica,sans-serif;font-weight:bold;" transform="matrix(1 0 0 1 1289 1953)">Exporting</text>
  <text style="stroke:none;fill:black;font-family:-apple-system,&quot;SF Pro Display&quot;,&quot;SF Pro Text&quot;,Helvetica,sans-serif;" transform="matrix(1 0 0 1 1289 1971)">Symbols should be outlined when exporting to ensure the</text>
  <text style="stroke:none;fill:black;font-family:-apple-system,&quot;SF Pro Display&quot;,&quot;SF Pro Text&quot;,Helvetica,sans-serif;" transform="matrix(1 0 0 1 1289 1989)">design is preserved when submitting to Xcode.</text>
  <text id="template-version" style="stroke:none;fill:black;font-family:-apple-system,&quot;SF Pro Display&quot;,&quot;SF Pro Text&quot;,Helvetica,sans-serif;text-anchor:end;" transform="matrix(1 0 0 1 3036 1933)">Template v.2.0</text>
  <text style="stroke:none;fill:black;font-family:-apple-system,&quot;SF Pro Display&quot;,&quot;SF Pro Text&quot;,Helvetica,sans-serif;text-anchor:end;" transform="matrix(1 0 0 1 3036 1951)">Requires Xcode 12 or greater</text>
  <text style="stroke:none;fill:black;font-family:-apple-system,&quot;SF Pro Display&quot;,&quot;SF Pro Text&quot;,Helvetica,sans-serif;text-anchor:end;" transform="matrix(1 0 0 1 3036 1969)">Generated from plus.square.on.square</text>
  <text style="stroke:none;fill:black;font-family:-apple-system,&quot;SF Pro Display&quot;,&quot;SF Pro Text&quot;,Helvetica,sans-serif;text-anchor:end;" transform="matrix(1 0 0 1 3036 1987)">Typeset at 100 points</text>
  <text style="stroke:none;fill:black;font-family:-apple-system,&quot;SF Pro Display&quot;,&quot;SF Pro Text&quot;,Helvetica,sans-serif;" transform="matrix(1 0 0 1 263 726)">Small</text>
  <text style="stroke:none;fill:black;font-family:-apple-system,&quot;SF Pro Display&quot;,&quot;SF Pro Text&quot;,Helvetica,sans-serif;" transform="matrix(1 0 0 1 263 1156)">Medium</text>
  <text style="stroke:none;fill:black;font-family:-apple-system,&quot;SF Pro Display&quot;,&quot;SF Pro Text&quot;,Helvetica,sans-serif;" transform="matrix(1 0 0 1 263 1586)">Large</text>
 </g>
 <g id="Guides">
  <g id="H-reference" style="fill:#27AAE1;stroke:none;" transform="matrix(1 0 0 1 339 696)">
   <path d="M 0.976562 0 L 3.66211 0 L 12.9883 -24.4629 L 45.7031 -24.4629 L 55.0781 0 L 57.7148 0 L 30.6152 -70.459 L 28.125 -70.459 Z M 29.2969 -67.1387 L 29.3945 -67.1387 L 44.873 -26.709 L 13.8672 -26.709 Z"/>
  </g>
  <line id="Baseline-S" style="fill:none;stroke:#27AAE1;opacity:1;stroke-width:0.5;" x1="263" x2="3036" y1="696" y2="696"/>
  <line id="Capline-S" style="fill:none;stroke:#27AAE1;opacity:1;stroke-width:0.5;" x1="263" x2="3036" y1="625.541" y2="625.541"/>
  <g id="H-reference" style="fill:#27AAE1;stroke:none;" transform="matrix(1 0 0 1 339 1126)">
   <path d="M 0.976562 0 L 3.66211 0 L 12.9883 -24.4629 L 45.7031 -24.4629 L 55.0781 0 L 57.7148 0 L 30.6152 -70.459 L 28.125 -70.459 Z M 29.2969 -67.1387 L 29.3945 -67.1387 L 44.873 -26.709 L 13.8672 -26.709 Z"/>
  </g>
  <line id="Baseline-M" style="fill:none;stroke:#27AAE1;opacity:1;stroke-width:0.5;" x1="263" x2="3036" y1="1126" y2="1126"/>
  <line id="Capline-M" style="fill:none;stroke:#27AAE1;opacity:1;stroke-width:0.5;" x1="263" x2="3036" y1="1055.54" y2="1055.54"/>
  <g id="H-reference" style="fill:#27AAE1;stroke:none;" transform="matrix(1 0 0 1 339 1556)">
   <path d="M 0.976562 0 L 3.66211 0 L 12.9883 -24.4629 L 45.7031 -24.4629 L 55.0781 0 L 57.7148 0 L 30.6152 -70.459 L 28.125 -70.459 Z M 29.2969 -67.1387 L 29.3945 -67.1387 L 44.873 -26.709 L 13.8672 -26.709 Z"/>
  </g>
  <line id="Baseline-L" style="fill:none;stroke:#27AAE1;opacity:1;stroke-width:0.5;" x1="263" x2="3036" y1="1556" y2="1556"/>
  <line id="Capline-L" style="fill:none;stroke:#27AAE1;opacity:1;stroke-width:0.5;" x1="263" x2="3036" y1="1485.54" y2="1485.54"/>
  <line id="left-margin" style="fill:none;stroke:#00AEEF;stroke-width:0.5;opacity:1.0;" x1="1385.73" x2="1385.73" y1="1030.79" y2="1150.12"/>
  <line id="right-margin" style="fill:none;stroke:#00AEEF;stroke-width:0.5;opacity:1.0;" x1="1513.96" x2="1513.96" y1="1030.79" y2="1150.12"/>
 </g>
 <g id="Symbols">
  <g id="Black-L" transform="matrix(1 0 0 1 2843.58 1556)">
   <path d="M 39.9902 5.07812 L 50.1465 5.07812 L 50.1465 14.1602 C 50.1465 29.3457 58.7891 37.9883 74.0234 37.9883 L 139.697 37.9883 C 154.932 37.9883 163.574 29.3457 163.574 14.1602 L 163.574 -51.6602 C 163.574 -66.8457 154.932 -75.4883 139.697 -75.4883 L 129.541 -75.4883 L 129.541 -84.5703 C 129.541 -99.7559 120.85 -108.35 105.615 -108.35 L 39.9902 -108.35 C 24.707 -108.35 16.0645 -99.7559 16.0645 -84.5703 L 16.0645 -18.7012 C 16.0645 -3.51562 24.707 5.07812 39.9902 5.07812 Z M 42.6758 -15.1367 C 38.4766 -15.1367 36.3281 -17.041 36.3281 -21.582 L 36.3281 -81.6895 C 36.3281 -86.2305 38.4766 -88.1348 42.6758 -88.1348 L 102.881 -88.1348 C 107.129 -88.1348 109.277 -86.2305 109.277 -81.6895 L 109.277 -75.4883 L 74.0234 -75.4883 C 58.7891 -75.4883 50.1465 -66.8457 50.1465 -51.6602 L 50.1465 -15.1367 Z M 76.7578 17.7734 C 72.5098 17.7734 70.3613 15.8691 70.3613 11.3281 L 70.3613 -48.7793 C 70.3613 -53.3691 72.5098 -55.2246 76.7578 -55.2246 L 136.963 -55.2246 C 141.211 -55.2246 143.359 -53.3691 143.359 -48.7793 L 143.359 11.3281 C 143.359 15.8691 141.211 17.7734 136.963 17.7734 Z M 106.885 9.32617 C 111.67 9.32617 115.088 5.85938 115.088 1.12305 L 115.088 -10.4004 L 127.588 -10.4004 C 132.324 -10.4004 135.791 -13.8184 135.791 -18.6035 C 135.791 -23.3887 132.373 -26.8066 127.588 -26.8066 L 115.088 -26.8066 L 115.088 -38.7695 C 115.088 -43.5547 111.67 -46.9727 106.885 -46.9727 C 102.1 -46.9727 98.6816 -43.5059 98.6816 -38.7695 L 98.6816 -26.8066 L 86.2305 -26.8066 C 81.4453 -26.8066 77.9785 -23.3887 77.9785 -18.6035 C 77.9785 -13.8184 81.4941 -10.4004 86.2305 -10.4004 L 98.6816 -10.4004 L 98.6816 1.12305 C 98.6816 5.81055 102.1 9.32617 106.885 9.32617 Z"/>
  </g>
  <g id="Heavy-L" transform="matrix(1 0 0 1 2548.7 1556)">
   <path d="M 38.8184 4.24805 L 49.3164 4.24805 L 49.3164 13.3789 C 49.3164 27.9297 57.4219 35.9863 72.0703 35.9863 L 137.158 35.9863 C 151.758 35.9863 159.912 27.8809 159.912 13.3789 L 159.912 -51.9531 C 159.912 -66.5039 151.758 -74.6094 137.158 -74.6094 L 126.66 -74.6094 L 126.66 -83.7402 C 126.66 -98.2422 118.506 -106.348 103.906 -106.348 L 38.8184 -106.348 C 24.1699 -106.348 16.0645 -98.291 16.0645 -83.7402 L 16.0645 -18.4082 C 16.0645 -3.85742 24.1699 4.24805 38.8184 4.24805 Z M 40.918 -13.2812 C 36.084 -13.2812 33.5938 -15.5762 33.5938 -20.7031 L 33.5938 -81.4453 C 33.5938 -86.5723 36.084 -88.8672 40.918 -88.8672 L 101.807 -88.8672 C 106.592 -88.8672 109.131 -86.5723 109.131 -81.4453 L 109.131 -74.6094 L 72.0703 -74.6094 C 57.4219 -74.6094 49.3164 -66.5039 49.3164 -51.9531 L 49.3164 -13.2812 Z M 74.1699 18.5059 C 69.3359 18.5059 66.7969 16.2109 66.7969 11.084 L 66.7969 -49.6582 C 66.7969 -54.7852 69.3359 -57.0801 74.1699 -57.0801 L 135.01 -57.0801 C 139.844 -57.0801 142.383 -54.7852 142.383 -49.6582 L 142.383 11.084 C 142.383 16.2109 139.844 18.5059 135.01 18.5059 Z M 104.59 8.78906 C 108.936 8.78906 111.963 5.71289 111.963 1.36719 L 111.963 -11.8652 L 126.123 -11.8652 C 130.42 -11.8652 133.594 -14.8438 133.594 -19.1895 C 133.594 -23.5352 130.518 -26.5137 126.123 -26.5137 L 111.963 -26.5137 L 111.963 -40.2832 C 111.963 -44.6777 108.936 -47.7539 104.59 -47.7539 C 100.293 -47.7539 97.3145 -44.6289 97.3145 -40.2832 L 97.3145 -26.5137 L 83.1543 -26.5137 C 78.7598 -26.5137 75.6348 -23.5352 75.6348 -19.1895 C 75.6348 -14.8438 78.8574 -11.8652 83.1543 -11.8652 L 97.3145 -11.8652 L 97.3145 1.36719 C 97.3145 5.66406 100.293 8.78906 104.59 8.78906 Z"/>
  </g>
  <g id="Bold-L" transform="matrix(1 0 0 1 2254.06 1556)">
   <path d="M 37.5 3.27148 L 48.3887 3.27148 L 48.3887 12.4512 C 48.3887 26.2695 55.9082 33.7402 69.8242 33.7402 L 134.277 33.7402 C 148.193 33.7402 155.762 26.2695 155.762 12.4512 L 155.762 -52.2949 C 155.762 -66.1133 148.193 -73.6328 134.277 -73.6328 L 123.438 -73.6328 L 123.438 -82.8125 C 123.438 -96.582 115.918 -104.102 102.002 -104.102 L 37.5 -104.102 C 23.584 -104.102 16.0645 -96.6309 16.0645 -82.8125 L 16.0645 -18.0176 C 16.0645 -4.19922 23.584 3.27148 37.5 3.27148 Z M 38.9648 -11.1816 C 33.4473 -11.1816 30.5176 -13.916 30.5176 -19.6777 L 30.5176 -81.1523 C 30.5176 -86.9141 33.4473 -89.6484 38.9648 -89.6484 L 100.537 -89.6484 C 106.006 -89.6484 108.984 -86.9141 108.984 -81.1523 L 108.984 -73.6328 L 69.8242 -73.6328 C 55.9082 -73.6328 48.3887 -66.1621 48.3887 -52.2949 L 48.3887 -11.1816 Z M 71.2891 19.3359 C 65.7715 19.3359 62.8418 16.5527 62.8418 10.791 L 62.8418 -50.6348 C 62.8418 -56.4453 65.7715 -59.1797 71.2891 -59.1797 L 132.861 -59.1797 C 138.33 -59.1797 141.309 -56.4453 141.309 -50.6348 L 141.309 10.791 C 141.309 16.5527 138.33 19.3359 132.861 19.3359 Z M 102.051 8.25195 C 105.859 8.25195 108.447 5.56641 108.447 1.61133 L 108.447 -13.5254 L 124.463 -13.5254 C 128.32 -13.5254 131.104 -16.0156 131.104 -19.8242 C 131.104 -23.6328 128.418 -26.2207 124.463 -26.2207 L 108.447 -26.2207 L 108.447 -41.9922 C 108.447 -45.9473 105.859 -48.6328 102.051 -48.6328 C 98.2422 -48.6328 95.752 -45.8496 95.752 -41.9922 L 95.752 -26.2207 L 79.7363 -26.2207 C 75.7812 -26.2207 73.0469 -23.6328 73.0469 -19.8242 C 73.0469 -16.0156 75.8789 -13.5254 79.7363 -13.5254 L 95.752 -13.5254 L 95.752 1.61133 C 95.752 5.46875 98.2422 8.25195 102.051 8.25195 Z"/>
  </g>
  <g id="Semibold-L" transform="matrix(1 0 0 1 1958.79 1556)">
   <path d="M 36.6211 2.58789 L 47.7539 2.58789 L 47.7539 11.8164 C 47.7539 25.1465 54.834 32.2266 68.3105 32.2266 L 132.324 32.2266 C 145.752 32.2266 152.881 25.1465 152.881 11.8164 L 152.881 -52.5391 C 152.881 -65.8691 145.752 -72.9492 132.324 -72.9492 L 121.24 -72.9492 L 121.24 -82.1289 C 121.24 -95.459 114.111 -102.539 100.684 -102.539 L 36.6211 -102.539 C 23.1445 -102.539 16.0645 -95.5078 16.0645 -82.1289 L 16.0645 -17.7734 C 16.0645 -4.44336 23.1445 2.58789 36.6211 2.58789 Z M 37.5977 -9.7168 C 31.6406 -9.7168 28.418 -12.793 28.418 -18.9941 L 28.418 -80.9082 C 28.418 -87.1582 31.6406 -90.2344 37.5977 -90.2344 L 99.707 -90.2344 C 105.566 -90.2344 108.887 -87.1582 108.887 -80.9082 L 108.887 -72.9492 L 68.3105 -72.9492 C 54.834 -72.9492 47.7539 -65.8691 47.7539 -52.5391 L 47.7539 -9.7168 Z M 69.2871 19.873 C 63.2812 19.873 60.0586 16.7969 60.0586 10.5957 L 60.0586 -51.3184 C 60.0586 -57.5684 63.2812 -60.5957 69.2871 -60.5957 L 131.348 -60.5957 C 137.256 -60.5957 140.576 -57.5684 140.576 -51.3184 L 140.576 10.5957 C 140.576 16.7969 137.256 19.873 131.348 19.873 Z M 100.293 7.86133 C 103.76 7.86133 106.006 5.41992 106.006 1.80664 L 106.006 -14.6484 L 123.34 -14.6484 C 126.855 -14.6484 129.395 -16.8457 129.395 -20.2637 C 129.395 -23.7305 127.002 -25.9766 123.34 -25.9766 L 106.006 -25.9766 L 106.006 -43.1641 C 106.006 -46.8262 103.76 -49.2188 100.293 -49.2188 C 96.8262 -49.2188 94.6289 -46.7285 94.6289 -43.1641 L 94.6289 -25.9766 L 77.3438 -25.9766 C 73.7305 -25.9766 71.2402 -23.7305 71.2402 -20.2637 C 71.2402 -16.8457 73.8281 -14.6484 77.3438 -14.6484 L 94.6289 -14.6484 L 94.6289 1.80664 C 94.6289 5.32227 96.8262 7.86133 100.293 7.86133 Z"/>
  </g>
  <g id="Medium-L" transform="matrix(1 0 0 1 1663.16 1556)">
   <path d="M 35.9375 2.09961 L 47.2656 2.09961 L 47.2656 11.3281 C 47.2656 24.3164 54.0527 31.0547 67.1387 31.0547 L 130.859 31.0547 C 143.896 31.0547 150.732 24.2676 150.732 11.3281 L 150.732 -52.7344 C 150.732 -65.625 143.896 -72.4121 130.859 -72.4121 L 119.531 -72.4121 L 119.531 -81.6895 C 119.531 -94.5801 112.744 -101.367 99.6582 -101.367 L 35.9375 -101.367 C 22.8516 -101.367 16.0645 -94.6289 16.0645 -81.6895 L 16.0645 -17.627 C 16.0645 -4.63867 22.8516 2.09961 35.9375 2.09961 Z M 36.5723 -8.64258 C 30.2246 -8.64258 26.8066 -11.9141 26.8066 -18.5059 L 26.8066 -80.7617 C 26.8066 -87.3535 30.2246 -90.625 36.5723 -90.625 L 99.0234 -90.625 C 105.273 -90.625 108.789 -87.3535 108.789 -80.7617 L 108.789 -72.4121 L 67.1387 -72.4121 C 54.0527 -72.4121 47.2656 -65.7227 47.2656 -52.7344 L 47.2656 -8.64258 Z M 67.7734 20.3125 C 61.4258 20.3125 58.0078 16.9922 58.0078 10.4492 L 58.0078 -51.8066 C 58.0078 -58.3984 61.4258 -61.7188 67.7734 -61.7188 L 130.225 -61.7188 C 136.475 -61.7188 139.99 -58.3984 139.99 -51.8066 L 139.99 10.4492 C 139.99 16.9922 136.475 20.3125 130.225 20.3125 Z M 98.9258 7.56836 C 102.148 7.56836 104.15 5.32227 104.15 1.95312 L 104.15 -15.4785 L 122.51 -15.4785 C 125.781 -15.4785 128.125 -17.4316 128.125 -20.5566 C 128.125 -23.8281 125.879 -25.8301 122.51 -25.8301 L 104.15 -25.8301 L 104.15 -44.0918 C 104.15 -47.4609 102.148 -49.707 98.9258 -49.707 C 95.752 -49.707 93.8477 -47.3633 93.8477 -44.0918 L 93.8477 -25.8301 L 75.5371 -25.8301 C 72.168 -25.8301 69.9219 -23.8281 69.9219 -20.5566 C 69.9219 -17.4316 72.2656 -15.4785 75.5371 -15.4785 L 93.8477 -15.4785 L 93.8477 1.95312 C 93.8477 5.22461 95.752 7.56836 98.9258 7.56836 Z"/>
  </g>
  <g id="Regular-L" transform="matrix(1 0 0 1 1367.86 1556)">
   <path d="M 35.0586 1.46484 L 46.6309 1.46484 L 46.6309 10.6934 C 46.6309 23.1934 52.9785 29.541 65.625 29.541 L 128.906 29.541 C 141.504 29.541 147.9 23.1445 147.9 10.6934 L 147.9 -52.9297 C 147.9 -65.3809 141.504 -71.7773 128.906 -71.7773 L 117.383 -71.7773 L 117.383 -81.0547 C 117.383 -93.457 110.938 -99.8535 98.3398 -99.8535 L 35.0586 -99.8535 C 22.4121 -99.8535 16.0645 -93.5059 16.0645 -81.0547 L 16.0645 -17.3828 C 16.0645 -4.88281 22.4121 1.46484 35.0586 1.46484 Z M 35.2539 -7.17773 C 28.418 -7.17773 24.707 -10.791 24.707 -17.8223 L 24.707 -80.5664 C 24.707 -87.5977 28.418 -91.2109 35.2539 -91.2109 L 98.1934 -91.2109 C 104.883 -91.2109 108.691 -87.5977 108.691 -80.5664 L 108.691 -71.7773 L 65.625 -71.7773 C 52.9785 -71.7773 46.6309 -65.4297 46.6309 -52.9297 L 46.6309 -7.17773 Z M 65.8203 20.8984 C 58.9844 20.8984 55.2734 17.2852 55.2734 10.2539 L 55.2734 -52.4902 C 55.2734 -59.5215 58.9844 -63.1348 65.8203 -63.1348 L 128.76 -63.1348 C 135.449 -63.1348 139.258 -59.5215 139.258 -52.4902 L 139.258 10.2539 C 139.258 17.2852 135.449 20.8984 128.76 20.8984 Z M 97.168 7.17773 C 100.049 7.17773 101.758 5.22461 101.758 2.14844 L 101.758 -16.6016 L 121.387 -16.6016 C 124.316 -16.6016 126.416 -18.2129 126.416 -20.9961 C 126.416 -23.877 124.463 -25.5859 121.387 -25.5859 L 101.758 -25.5859 L 101.758 -45.2148 C 101.758 -48.3398 100.049 -50.293 97.168 -50.293 C 94.3848 -50.293 92.7734 -48.2422 92.7734 -45.2148 L 92.7734 -25.5859 L 73.2422 -25.5859 C 70.1172 -25.5859 68.1152 -23.877 68.1152 -20.9961 C 68.1152 -18.2129 70.2637 -16.6016 73.2422 -16.6016 L 92.7734 -16.6016 L 92.7734 2.14844 C 92.7734 5.12695 94.3848 7.17773 97.168 7.17773 Z"/>
  </g>
  <g id="Light-L" transform="matrix(1 0 0 1 1072.15 1556)">
   <path d="M 34.0332 1.17188 L 46.6309 1.17188 L 46.6309 9.96094 C 46.6309 21.7285 52.7344 27.7832 64.5996 27.7832 L 127.93 27.7832 C 139.746 27.7832 145.898 21.6309 145.898 9.96094 L 145.898 -53.6133 C 145.898 -65.332 139.746 -71.4844 127.93 -71.4844 L 115.332 -71.4844 L 115.332 -80.2246 C 115.332 -91.8945 109.18 -98.0469 97.3633 -98.0469 L 34.0332 -98.0469 C 22.168 -98.0469 16.0645 -91.9922 16.0645 -80.2246 L 16.0645 -16.6504 C 16.0645 -4.88281 22.168 1.17188 34.0332 1.17188 Z M 34.1797 -5.41992 C 26.709 -5.41992 22.7051 -9.375 22.7051 -16.9922 L 22.7051 -79.8828 C 22.7051 -87.5 26.709 -91.4551 34.1797 -91.4551 L 97.168 -91.4551 C 104.492 -91.4551 108.691 -87.5 108.691 -79.8828 L 108.691 -71.4844 L 64.5996 -71.4844 C 52.7344 -71.4844 46.6309 -65.4297 46.6309 -53.6133 L 46.6309 -5.41992 Z M 64.7461 21.1914 C 57.2266 21.1914 53.2227 17.2363 53.2227 9.57031 L 53.2227 -53.2715 C 53.2227 -60.8887 57.2266 -64.8438 64.7461 -64.8438 L 127.734 -64.8438 C 135.059 -64.8438 139.258 -60.8887 139.258 -53.2715 L 139.258 9.57031 C 139.258 17.2363 135.059 21.1914 127.734 21.1914 Z M 96.1914 6.49414 C 98.3887 6.49414 99.707 4.98047 99.707 2.73438 L 99.707 -18.3594 L 121.289 -18.3594 C 123.486 -18.3594 125.098 -19.6777 125.098 -21.7285 C 125.098 -23.877 123.584 -25.2441 121.289 -25.2441 L 99.707 -25.2441 L 99.707 -46.875 C 99.707 -49.1699 98.3887 -50.6348 96.1914 -50.6348 C 94.0918 -50.6348 92.8223 -49.0723 92.8223 -46.875 L 92.8223 -25.2441 L 71.2402 -25.2441 C 68.9453 -25.2441 67.4316 -23.877 67.4316 -21.7285 C 67.4316 -19.6777 69.0918 -18.3594 71.2402 -18.3594 L 92.8223 -18.3594 L 92.8223 2.73438 C 92.8223 4.93164 94.0918 6.49414 96.1914 6.49414 Z"/>
  </g>
  <g id="Thin-L" transform="matrix(1 0 0 1 776.784 1556)">
   <path d="M 32.666 0.830078 L 46.6309 0.830078 L 46.6309 8.93555 C 46.6309 19.7754 52.3438 25.4883 63.2324 25.4883 L 126.611 25.4883 C 137.451 25.4883 143.213 19.6289 143.213 8.93555 L 143.213 -54.4922 C 143.213 -65.2344 137.451 -71.0938 126.611 -71.0938 L 112.646 -71.0938 L 112.646 -79.1504 C 112.646 -89.8438 106.885 -95.7031 96.0449 -95.7031 L 32.666 -95.7031 C 21.7773 -95.7031 16.0645 -89.9902 16.0645 -79.1504 L 16.0645 -15.7227 C 16.0645 -4.88281 21.7773 0.830078 32.666 0.830078 Z M 32.8125 -3.07617 C 24.4141 -3.07617 19.9707 -7.4707 19.9707 -15.918 L 19.9707 -78.9551 C 19.9707 -87.4023 24.4141 -91.7969 32.8125 -91.7969 L 95.8496 -91.7969 C 104.004 -91.7969 108.691 -87.4023 108.691 -78.9551 L 108.691 -71.0938 L 63.2324 -71.0938 C 52.3438 -71.0938 46.6309 -65.3809 46.6309 -54.4922 L 46.6309 -3.07617 Z M 63.3789 21.582 C 54.9316 21.582 50.5371 17.1875 50.5371 8.69141 L 50.5371 -54.2969 C 50.5371 -62.7441 54.9316 -67.1387 63.3789 -67.1387 L 126.416 -67.1387 C 134.57 -67.1387 139.258 -62.7441 139.258 -54.2969 L 139.258 8.69141 C 139.258 17.1875 134.57 21.582 126.416 21.582 Z M 94.873 5.56641 C 96.1426 5.56641 96.9727 4.6875 96.9727 3.51562 L 96.9727 -20.6543 L 121.24 -20.6543 C 122.363 -20.6543 123.34 -21.582 123.34 -22.6562 C 123.34 -23.877 122.461 -24.7559 121.24 -24.7559 L 96.9727 -24.7559 L 96.9727 -49.0234 C 96.9727 -50.2441 96.1426 -51.123 94.873 -51.123 C 93.7012 -51.123 92.8711 -50.2441 92.8711 -49.0234 L 92.8711 -24.7559 L 68.6523 -24.7559 C 67.3828 -24.7559 66.5039 -23.877 66.5039 -22.6562 C 66.5039 -21.582 67.4805 -20.6543 68.6523 -20.6543 L 92.8711 -20.6543 L 92.8711 3.51562 C 92.8711 4.6875 93.7012 5.56641 94.873 5.56641 Z"/>
  </g>
  <g id="Ultralight-L" transform="matrix(1 0 0 1 480.78 1556)">
   <path d="M 31.9824 0.683594 L 46.6309 0.683594 L 46.6309 8.39844 C 46.6309 18.75 52.1484 24.3164 62.5488 24.3164 L 125.928 24.3164 C 136.279 24.3164 141.797 18.6035 141.797 8.39844 L 141.797 -54.9316 C 141.797 -65.1855 136.279 -70.8984 125.928 -70.8984 L 111.279 -70.8984 L 111.279 -78.6133 C 111.279 -88.8184 105.713 -94.5312 95.3613 -94.5312 L 31.9824 -94.5312 C 21.582 -94.5312 16.0645 -88.9648 16.0645 -78.6133 L 16.0645 -15.2344 C 16.0645 -4.88281 21.582 0.683594 31.9824 0.683594 Z M 32.1289 -1.85547 C 23.1934 -1.85547 18.6035 -6.49414 18.6035 -15.3809 L 18.6035 -78.4668 C 18.6035 -87.3535 23.1934 -91.9922 32.1289 -91.9922 L 95.2148 -91.9922 C 103.76 -91.9922 108.691 -87.3535 108.691 -78.4668 L 108.691 -70.8984 L 62.5488 -70.8984 C 52.1484 -70.8984 46.6309 -65.332 46.6309 -54.9316 L 46.6309 -1.85547 Z M 62.6953 21.7773 C 53.7598 21.7773 49.1699 17.1387 49.1699 8.25195 L 49.1699 -54.834 C 49.1699 -63.7207 53.7598 -68.3105 62.6953 -68.3105 L 125.732 -68.3105 C 134.326 -68.3105 139.258 -63.7207 139.258 -54.834 L 139.258 8.25195 C 139.258 17.1387 134.326 21.7773 125.732 21.7773 Z M 94.1895 5.12695 C 94.9707 5.12695 95.6055 4.54102 95.6055 3.90625 L 95.6055 -21.875 L 121.191 -21.875 C 121.826 -21.875 122.461 -22.5586 122.461 -23.0957 C 122.461 -23.8281 121.875 -24.5605 121.191 -24.5605 L 95.6055 -24.5605 L 95.6055 -50.0977 C 95.6055 -50.8301 94.9707 -51.416 94.1895 -51.416 C 93.5059 -51.416 92.9199 -50.8301 92.9199 -50.0977 L 92.9199 -24.5605 L 67.334 -24.5605 C 66.6016 -24.5605 66.0645 -23.8281 66.0645 -23.0957 C 66.0645 -22.5586 66.6992 -21.875 67.334 -21.875 L 92.9199 -21.875 L 92.9199 3.90625 C 92.9199 4.54102 93.5059 5.12695 94.1895 5.12695 Z"/>
  </g>
  <g id="Black-M" transform="matrix(1 0 0 1 2861.82 1126)">
   <path d="M 31.9824 -2.97852 L 39.9414 -2.97852 L 39.9414 3.75977 C 39.9414 16.0156 47.2656 23.291 59.4727 23.291 L 111.182 23.291 C 123.438 23.291 130.713 16.0156 130.713 3.75977 L 130.713 -47.9004 C 130.713 -60.1562 123.438 -67.4316 111.182 -67.4316 L 103.174 -67.4316 L 103.174 -74.1211 C 103.174 -86.377 95.8984 -93.7012 83.6426 -93.7012 L 31.9824 -93.7012 C 19.7266 -93.7012 12.4512 -86.377 12.4512 -74.1211 L 12.4512 -22.5098 C 12.4512 -10.2539 19.7266 -2.97852 31.9824 -2.97852 Z M 34.9121 -21.2402 C 32.0801 -21.2402 30.7617 -22.3145 30.7617 -25.3906 L 30.7617 -71.2402 C 30.7617 -74.3164 32.0801 -75.3906 34.9121 -75.3906 L 80.7129 -75.3906 C 83.5449 -75.3906 84.8633 -74.3164 84.8633 -71.2402 L 84.8633 -67.4316 L 59.4727 -67.4316 C 47.2656 -67.4316 39.9414 -60.1562 39.9414 -47.9004 L 39.9414 -21.2402 Z M 62.4512 4.98047 C 59.6191 4.98047 58.252 3.90625 58.252 0.830078 L 58.252 -44.9707 C 58.252 -48.0469 59.6191 -49.1699 62.4512 -49.1699 L 108.203 -49.1699 C 111.035 -49.1699 112.402 -48.0469 112.402 -44.9707 L 112.402 0.830078 C 112.402 3.90625 111.035 4.98047 108.203 4.98047 Z M 85.3516 -0.390625 C 89.3066 -0.390625 92.334 -3.27148 92.334 -7.08008 L 92.334 -14.9902 L 100.83 -14.9902 C 104.639 -14.9902 107.52 -18.0176 107.52 -21.9727 C 107.52 -25.8789 104.639 -28.9062 100.83 -28.9062 L 92.334 -28.9062 L 92.334 -36.7676 C 92.334 -40.5762 89.3066 -43.457 85.3516 -43.457 C 81.3965 -43.457 78.3691 -40.5762 78.3691 -36.7676 L 78.3691 -28.9062 L 69.873 -28.9062 C 66.0645 -28.9062 63.1836 -25.8789 63.1836 -21.9727 C 63.1836 -18.0176 66.0645 -14.9902 69.873 -14.9902 L 78.3691 -14.9902 L 78.3691 -7.08008 C 78.3691 -3.27148 81.3965 -0.390625 85.3516 -0.390625 Z"/>
  </g>
  <g id="Heavy-M" transform="matrix(1 0 0 1 2566.86 1126)">
   <path d="M 31.0059 -3.80859 L 39.0625 -3.80859 L 39.0625 3.07617 C 39.0625 14.7949 45.8008 21.5332 57.6172 21.5332 L 108.643 21.5332 C 120.41 21.5332 127.197 14.7949 127.197 3.07617 L 127.197 -48.0469 C 127.197 -59.8145 120.41 -66.5527 108.643 -66.5527 L 100.586 -66.5527 L 100.586 -73.4375 C 100.586 -85.2051 93.7988 -91.9434 82.0312 -91.9434 L 31.0059 -91.9434 C 19.1895 -91.9434 12.4512 -85.2051 12.4512 -73.4375 L 12.4512 -22.3145 C 12.4512 -10.5957 19.1895 -3.80859 31.0059 -3.80859 Z M 33.252 -19.6777 C 29.9316 -19.6777 28.2715 -21.0938 28.2715 -24.6582 L 28.2715 -71.0938 C 28.2715 -74.6582 29.9316 -76.123 33.252 -76.123 L 79.7363 -76.123 C 83.0566 -76.123 84.7168 -74.6582 84.7168 -71.0938 L 84.7168 -66.5527 L 57.6172 -66.5527 C 45.8008 -66.5527 39.0625 -59.8145 39.0625 -48.0469 L 39.0625 -19.6777 Z M 59.8633 5.71289 C 56.543 5.71289 54.8828 4.29688 54.8828 0.732422 L 54.8828 -45.752 C 54.8828 -49.2676 56.543 -50.7324 59.8633 -50.7324 L 106.348 -50.7324 C 109.668 -50.7324 111.328 -49.2676 111.328 -45.752 L 111.328 0.732422 C 111.328 4.29688 109.668 5.71289 106.348 5.71289 Z M 83.1055 -0.78125 C 86.7676 -0.78125 89.4531 -3.41797 89.4531 -6.98242 L 89.4531 -16.1133 L 99.2676 -16.1133 C 102.783 -16.1133 105.469 -18.75 105.469 -22.4121 C 105.469 -26.0254 102.832 -28.7109 99.2676 -28.7109 L 89.4531 -28.7109 L 89.4531 -38.0371 C 89.4531 -41.6016 86.7676 -44.2383 83.1055 -44.2383 C 79.4922 -44.2383 76.8555 -41.6016 76.8555 -38.0371 L 76.8555 -28.7109 L 67.041 -28.7109 C 63.4766 -28.7109 60.8398 -26.0254 60.8398 -22.4121 C 60.8398 -18.75 63.4766 -16.1133 67.041 -16.1133 L 76.8555 -16.1133 L 76.8555 -6.98242 C 76.8555 -3.41797 79.4922 -0.78125 83.1055 -0.78125 Z"/>
  </g>
  <g id="Bold-M" transform="matrix(1 0 0 1 2272.13 1126)">
   <path d="M 29.8828 -4.78516 L 38.0371 -4.78516 L 38.0371 2.29492 C 38.0371 13.4277 44.2383 19.6289 55.4688 19.6289 L 105.811 19.6289 C 117.041 19.6289 123.242 13.4277 123.242 2.29492 L 123.242 -48.2422 C 123.242 -59.4238 117.041 -65.5762 105.811 -65.5762 L 97.6562 -65.5762 L 97.6562 -72.6562 C 97.6562 -83.8379 91.4551 -89.9902 80.2246 -89.9902 L 29.8828 -89.9902 C 18.6523 -89.9902 12.4512 -83.8379 12.4512 -72.6562 L 12.4512 -22.1191 C 12.4512 -10.9863 18.6523 -4.78516 29.8828 -4.78516 Z M 31.3965 -17.8711 C 27.5391 -17.8711 25.5371 -19.7266 25.5371 -23.8281 L 25.5371 -70.9961 C 25.5371 -75.0488 27.5391 -76.9043 31.3965 -76.9043 L 78.7109 -76.9043 C 82.5195 -76.9043 84.5703 -75.0488 84.5703 -70.9961 L 84.5703 -65.5762 L 55.4688 -65.5762 C 44.2383 -65.5762 38.0371 -59.4238 38.0371 -48.2422 L 38.0371 -17.8711 Z M 56.9824 6.54297 C 53.1738 6.54297 51.123 4.6875 51.123 0.634766 L 51.123 -46.582 C 51.123 -50.6348 53.1738 -52.4902 56.9824 -52.4902 L 104.297 -52.4902 C 108.105 -52.4902 110.156 -50.6348 110.156 -46.582 L 110.156 0.634766 C 110.156 4.6875 108.105 6.54297 104.297 6.54297 Z M 80.6152 -1.17188 C 83.9355 -1.17188 86.1816 -3.51562 86.1816 -6.83594 L 86.1816 -17.3828 L 97.4609 -17.3828 C 100.732 -17.3828 103.125 -19.6289 103.125 -22.9004 C 103.125 -26.1719 100.781 -28.418 97.4609 -28.418 L 86.1816 -28.418 L 86.1816 -39.4043 C 86.1816 -42.7734 83.9355 -45.0684 80.6152 -45.0684 C 77.3438 -45.0684 75.1465 -42.7246 75.1465 -39.4043 L 75.1465 -28.418 L 63.8672 -28.418 C 60.5469 -28.418 58.2031 -26.1719 58.2031 -22.9004 C 58.2031 -19.6289 60.5957 -17.3828 63.8672 -17.3828 L 75.1465 -17.3828 L 75.1465 -6.83594 C 75.1465 -3.56445 77.3438 -1.17188 80.6152 -1.17188 Z"/>
  </g>
  <g id="Semibold-M" transform="matrix(1 0 0 1 1976.79 1126)">
   <path d="M 29.1016 -5.46875 L 37.3535 -5.46875 L 37.3535 1.75781 C 37.3535 12.5 43.1641 18.2617 54.0039 18.2617 L 103.857 18.2617 C 114.697 18.2617 120.508 12.5 120.508 1.75781 L 120.508 -48.3887 C 120.508 -59.1309 114.697 -64.8926 103.857 -64.8926 L 95.6055 -64.8926 L 95.6055 -72.1191 C 95.6055 -82.8613 89.7949 -88.6719 78.9551 -88.6719 L 29.1016 -88.6719 C 18.2617 -88.6719 12.4512 -82.9102 12.4512 -72.1191 L 12.4512 -22.0215 C 12.4512 -11.2305 18.2617 -5.46875 29.1016 -5.46875 Z M 30.127 -16.6504 C 25.8789 -16.6504 23.6328 -18.7988 23.6328 -23.2422 L 23.6328 -70.8984 C 23.6328 -75.3418 25.8789 -77.4902 30.127 -77.4902 L 77.9297 -77.4902 C 82.1289 -77.4902 84.4727 -75.3418 84.4727 -70.8984 L 84.4727 -64.8926 L 54.0039 -64.8926 C 43.1641 -64.8926 37.3535 -59.1309 37.3535 -48.3887 L 37.3535 -16.6504 Z M 55.0293 7.08008 C 50.7812 7.08008 48.5352 4.98047 48.5352 0.537109 L 48.5352 -47.168 C 48.5352 -51.6113 50.7812 -53.7109 55.0293 -53.7109 L 102.832 -53.7109 C 107.031 -53.7109 109.375 -51.6113 109.375 -47.168 L 109.375 0.537109 C 109.375 4.98047 107.031 7.08008 102.832 7.08008 Z M 78.9062 -1.46484 C 81.9336 -1.46484 83.9844 -3.61328 83.9844 -6.73828 L 83.9844 -18.2617 L 96.2402 -18.2617 C 99.3164 -18.2617 101.514 -20.2148 101.514 -23.2422 C 101.514 -26.2695 99.4141 -28.2715 96.2402 -28.2715 L 83.9844 -28.2715 L 83.9844 -40.3809 C 83.9844 -43.5547 81.9336 -45.6543 78.9062 -45.6543 C 75.8789 -45.6543 73.9258 -43.457 73.9258 -40.3809 L 73.9258 -28.2715 L 61.7188 -28.2715 C 58.5449 -28.2715 56.3965 -26.2695 56.3965 -23.2422 C 56.3965 -20.2148 58.5938 -18.2617 61.7188 -18.2617 L 73.9258 -18.2617 L 73.9258 -6.73828 C 73.9258 -3.66211 75.8789 -1.46484 78.9062 -1.46484 Z"/>
  </g>
  <g id="Medium-M" transform="matrix(1 0 0 1 1681.1 1126)">
   <path d="M 28.5156 -6.00586 L 36.8164 -6.00586 L 36.8164 1.36719 C 36.8164 11.8164 42.334 17.2852 52.8809 17.2852 L 102.393 17.2852 C 112.939 17.2852 118.457 11.8164 118.457 1.36719 L 118.457 -48.4863 C 118.457 -58.9355 112.939 -64.4043 102.393 -64.4043 L 94.0918 -64.4043 L 94.0918 -71.7285 C 94.0918 -82.1777 88.5742 -87.6465 78.0273 -87.6465 L 28.5156 -87.6465 C 17.9199 -87.6465 12.4512 -82.1777 12.4512 -71.7285 L 12.4512 -21.9238 C 12.4512 -11.4258 17.9199 -6.00586 28.5156 -6.00586 Z M 29.1504 -15.7227 C 24.6582 -15.7227 22.168 -18.0664 22.168 -22.8027 L 22.168 -70.8496 C 22.168 -75.5859 24.6582 -77.8809 29.1504 -77.8809 L 77.3926 -77.8809 C 81.8359 -77.8809 84.375 -75.5859 84.375 -70.8496 L 84.375 -64.4043 L 52.8809 -64.4043 C 42.334 -64.4043 36.8164 -58.9355 36.8164 -48.4863 L 36.8164 -15.7227 Z M 53.5156 7.51953 C 49.0234 7.51953 46.582 5.17578 46.582 0.488281 L 46.582 -47.6074 C 46.582 -52.2949 49.0234 -54.6387 53.5156 -54.6387 L 101.758 -54.6387 C 106.25 -54.6387 108.74 -52.2949 108.74 -47.6074 L 108.74 0.488281 C 108.74 5.17578 106.25 7.51953 101.758 7.51953 Z M 77.5879 -1.70898 C 80.4688 -1.70898 82.2754 -3.66211 82.2754 -6.68945 L 82.2754 -18.8965 L 95.3125 -18.8965 C 98.2422 -18.8965 100.342 -20.6543 100.342 -23.4863 C 100.342 -26.3672 98.3398 -28.125 95.3125 -28.125 L 82.2754 -28.125 L 82.2754 -41.1133 C 82.2754 -44.1406 80.4688 -46.0938 77.5879 -46.0938 C 74.7559 -46.0938 73.0469 -44.043 73.0469 -41.1133 L 73.0469 -28.125 L 60.0586 -28.125 C 57.0312 -28.125 54.9805 -26.3672 54.9805 -23.4863 C 54.9805 -20.6543 57.1289 -18.8965 60.0586 -18.8965 L 73.0469 -18.8965 L 73.0469 -6.68945 C 73.0469 -3.75977 74.7559 -1.70898 77.5879 -1.70898 Z"/>
  </g>
  <g id="Regular-M" transform="matrix(1 0 0 1 1385.73 1126)">
   <path d="M 27.7832 -6.64062 L 36.1328 -6.64062 L 36.1328 0.830078 C 36.1328 10.8887 41.2109 15.9668 51.4648 15.9668 L 100.488 15.9668 C 110.645 15.9668 115.771 10.8887 115.771 0.830078 L 115.771 -48.584 C 115.771 -58.6426 110.645 -63.7207 100.488 -63.7207 L 92.0898 -63.7207 L 92.0898 -71.1914 C 92.0898 -81.25 86.9629 -86.3281 76.8066 -86.3281 L 27.7832 -86.3281 C 17.5293 -86.3281 12.4512 -81.25 12.4512 -71.1914 L 12.4512 -21.7773 C 12.4512 -11.7188 17.5293 -6.64062 27.7832 -6.64062 Z M 27.8809 -14.502 C 22.998 -14.502 20.3125 -17.1387 20.3125 -22.2168 L 20.3125 -70.752 C 20.3125 -75.8301 22.998 -78.4668 27.8809 -78.4668 L 76.6602 -78.4668 C 81.4941 -78.4668 84.2285 -75.8301 84.2285 -70.752 L 84.2285 -63.7207 L 51.4648 -63.7207 C 41.2109 -63.7207 36.1328 -58.6914 36.1328 -48.584 L 36.1328 -14.502 Z M 51.5625 8.10547 C 46.7285 8.10547 43.9941 5.46875 43.9941 0.390625 L 43.9941 -48.1445 C 43.9941 -53.2227 46.7285 -55.8594 51.5625 -55.8594 L 100.342 -55.8594 C 105.176 -55.8594 107.91 -53.2227 107.91 -48.1445 L 107.91 0.390625 C 107.91 5.46875 105.176 8.10547 100.342 8.10547 Z M 75.9277 -2.00195 C 78.5156 -2.00195 80.0781 -3.75977 80.0781 -6.5918 L 80.0781 -19.7754 L 94.0918 -19.7754 C 96.8262 -19.7754 98.7305 -21.2402 98.7305 -23.8281 C 98.7305 -26.4648 96.9727 -27.9785 94.0918 -27.9785 L 80.0781 -27.9785 L 80.0781 -42.041 C 80.0781 -44.9219 78.5156 -46.6797 75.9277 -46.6797 C 73.3398 -46.6797 71.875 -44.8242 71.875 -42.041 L 71.875 -27.9785 L 57.8613 -27.9785 C 55.0293 -27.9785 53.2227 -26.4648 53.2227 -23.8281 C 53.2227 -21.2402 55.127 -19.7754 57.8613 -19.7754 L 71.875 -19.7754 L 71.875 -6.5918 C 71.875 -3.85742 73.3398 -2.00195 75.9277 -2.00195 Z"/>
  </g>
  <g id="Light-M" transform="matrix(1 0 0 1 1089.93 1126)">
   <path d="M 26.8555 -6.88477 L 36.1328 -6.88477 L 36.1328 0.0976562 C 36.1328 9.57031 40.9668 14.4043 50.5371 14.4043 L 99.5605 14.4043 C 109.082 14.4043 113.965 9.52148 113.965 0.0976562 L 113.965 -49.1699 C 113.965 -58.5938 109.082 -63.4277 99.5605 -63.4277 L 90.2832 -63.4277 L 90.2832 -70.459 C 90.2832 -79.834 85.4004 -84.7168 75.8789 -84.7168 L 26.8555 -84.7168 C 17.2852 -84.7168 12.4512 -79.9316 12.4512 -70.459 L 12.4512 -21.1426 C 12.4512 -11.7188 17.2852 -6.88477 26.8555 -6.88477 Z M 26.9531 -12.9395 C 21.4844 -12.9395 18.5059 -15.8203 18.5059 -21.4844 L 18.5059 -70.1172 C 18.5059 -75.7812 21.4844 -78.6621 26.9531 -78.6621 L 75.7812 -78.6621 C 81.1523 -78.6621 84.2285 -75.7812 84.2285 -70.1172 L 84.2285 -63.4277 L 50.5371 -63.4277 C 40.9668 -63.4277 36.1328 -58.6426 36.1328 -49.1699 L 36.1328 -12.9395 Z M 50.6348 8.34961 C 45.166 8.34961 42.1875 5.41992 42.1875 -0.195312 L 42.1875 -48.877 C 42.1875 -54.4922 45.166 -57.4219 50.6348 -57.4219 L 99.4629 -57.4219 C 104.834 -57.4219 107.91 -54.4922 107.91 -48.877 L 107.91 -0.195312 C 107.91 5.41992 104.834 8.34961 99.4629 8.34961 Z M 75 -2.58789 C 77.002 -2.58789 78.2227 -3.95508 78.2227 -6.05469 L 78.2227 -21.3379 L 94.043 -21.3379 C 96.0938 -21.3379 97.5586 -22.5098 97.5586 -24.4141 C 97.5586 -26.4648 96.1914 -27.6367 94.043 -27.6367 L 78.2227 -27.6367 L 78.2227 -43.5059 C 78.2227 -45.6543 77.002 -47.0215 75 -47.0215 C 73.0469 -47.0215 71.9238 -45.6055 71.9238 -43.5059 L 71.9238 -27.6367 L 56.1035 -27.6367 C 53.9551 -27.6367 52.5879 -26.4648 52.5879 -24.4141 C 52.5879 -22.5098 54.0527 -21.3379 56.1035 -21.3379 L 71.9238 -21.3379 L 71.9238 -6.05469 C 71.9238 -4.00391 73.0469 -2.58789 75 -2.58789 Z"/>
  </g>
  <g id="Thin-M" transform="matrix(1 0 0 1 794.411 1126)">
   <path d="M 25.6348 -7.17773 L 36.1328 -7.17773 L 36.1328 -0.78125 C 36.1328 7.8125 40.6738 12.3047 49.3164 12.3047 L 98.3887 12.3047 C 107.031 12.3047 111.572 7.71484 111.572 -0.78125 L 111.572 -49.9512 C 111.572 -58.4961 107.031 -63.0859 98.3887 -63.0859 L 87.8906 -63.0859 L 87.8906 -69.4824 C 87.8906 -78.0273 83.3496 -82.6172 74.707 -82.6172 L 25.6348 -82.6172 C 16.9922 -82.6172 12.4512 -78.125 12.4512 -69.4824 L 12.4512 -20.3125 C 12.4512 -11.7188 16.9922 -7.17773 25.6348 -7.17773 Z M 25.7324 -10.8398 C 19.3848 -10.8398 16.0645 -14.1113 16.0645 -20.5078 L 16.0645 -69.2871 C 16.0645 -75.6836 19.3848 -79.0039 25.7324 -79.0039 L 74.5605 -79.0039 C 80.7129 -79.0039 84.2285 -75.6836 84.2285 -69.2871 L 84.2285 -63.0859 L 49.3164 -63.0859 C 40.6738 -63.0859 36.1328 -58.5938 36.1328 -49.9512 L 36.1328 -10.8398 Z M 49.4141 8.69141 C 43.0664 8.69141 39.7461 5.37109 39.7461 -0.976562 L 39.7461 -49.8047 C 39.7461 -56.1523 43.0664 -59.4727 49.4141 -59.4727 L 98.291 -59.4727 C 104.395 -59.4727 107.91 -56.1523 107.91 -49.8047 L 107.91 -0.976562 C 107.91 5.37109 104.395 8.69141 98.291 8.69141 Z M 73.7793 -3.41797 C 75 -3.41797 75.7324 -4.24805 75.7324 -5.37109 L 75.7324 -23.4375 L 93.9453 -23.4375 C 95.0684 -23.4375 95.9473 -24.2188 95.9473 -25.293 C 95.9473 -26.416 95.166 -27.2461 93.9453 -27.2461 L 75.7324 -27.2461 L 75.7324 -45.459 C 75.7324 -46.6309 75 -47.4609 73.7793 -47.4609 C 72.7051 -47.4609 71.9727 -46.6309 71.9727 -45.459 L 71.9727 -27.2461 L 53.7598 -27.2461 C 52.5879 -27.2461 51.7578 -26.416 51.7578 -25.293 C 51.7578 -24.2188 52.6367 -23.4375 53.7598 -23.4375 L 71.9727 -23.4375 L 71.9727 -5.37109 C 71.9727 -4.24805 72.7051 -3.41797 73.7793 -3.41797 Z"/>
  </g>
  <g id="Ultralight-M" transform="matrix(1 0 0 1 498.334 1126)">
   <path d="M 25 -7.37305 L 36.1328 -7.37305 L 36.1328 -1.26953 C 36.1328 6.93359 40.4785 11.2793 48.6816 11.2793 L 97.8027 11.2793 C 105.957 11.2793 110.303 6.78711 110.303 -1.26953 L 110.303 -50.3906 C 110.303 -58.4473 105.957 -62.9395 97.8027 -62.9395 L 86.6211 -62.9395 L 86.6211 -68.9941 C 86.6211 -77.0508 82.2754 -81.543 74.1211 -81.543 L 25 -81.543 C 16.7969 -81.543 12.4512 -77.1973 12.4512 -68.9941 L 12.4512 -19.873 C 12.4512 -11.7188 16.7969 -7.37305 25 -7.37305 Z M 25.0977 -9.76562 C 18.3594 -9.76562 14.8438 -13.2324 14.8438 -20.0195 L 14.8438 -68.8965 C 14.8438 -75.6348 18.3594 -79.1504 25.0977 -79.1504 L 73.9746 -79.1504 C 80.4688 -79.1504 84.2285 -75.6348 84.2285 -68.8965 L 84.2285 -62.9395 L 48.6816 -62.9395 C 40.4785 -62.9395 36.1328 -58.5449 36.1328 -50.3906 L 36.1328 -9.76562 Z M 48.7793 8.88672 C 42.041 8.88672 38.5254 5.37109 38.5254 -1.36719 L 38.5254 -50.2441 C 38.5254 -57.0312 42.041 -60.5469 48.7793 -60.5469 L 97.6562 -60.5469 C 104.15 -60.5469 107.91 -57.0312 107.91 -50.2441 L 107.91 -1.36719 C 107.91 5.37109 104.15 8.88672 97.6562 8.88672 Z M 73.1934 -3.80859 C 73.9746 -3.80859 74.5117 -4.3457 74.5117 -4.98047 L 74.5117 -24.5117 L 93.8965 -24.5117 C 94.5801 -24.5117 95.166 -25.0977 95.166 -25.6836 C 95.166 -26.416 94.6289 -27.002 93.8965 -27.002 L 74.5117 -27.002 L 74.5117 -46.4355 C 74.5117 -47.1191 73.9746 -47.7051 73.1934 -47.7051 C 72.5098 -47.7051 71.9727 -47.168 71.9727 -46.4355 L 71.9727 -27.002 L 52.5391 -27.002 C 51.8555 -27.002 51.3184 -26.416 51.3184 -25.6836 C 51.3184 -25.0977 51.9043 -24.5117 52.5391 -24.5117 L 71.9727 -24.5117 L 71.9727 -4.98047 C 71.9727 -4.3457 72.5098 -3.80859 73.1934 -3.80859 Z"/>
  </g>
  <g id="Black-S" transform="matrix(1 0 0 1 2877.44 696)">
   <path d="M 25 -10.0098 L 31.25 -10.0098 L 31.25 -4.73633 C 31.25 4.83398 36.9141 10.498 46.4844 10.498 L 86.9141 10.498 C 96.4844 10.498 102.148 4.83398 102.148 -4.73633 L 102.148 -45.166 C 102.148 -54.7363 96.4844 -60.4004 86.9141 -60.4004 L 80.6641 -60.4004 L 80.6641 -65.6738 C 80.6641 -75.2441 75 -80.9082 65.4297 -80.9082 L 25 -80.9082 C 15.4297 -80.9082 9.76562 -75.2441 9.76562 -65.6738 L 9.76562 -25.2441 C 9.76562 -15.6738 15.4297 -10.0098 25 -10.0098 Z M 27.2461 -24.1699 C 25 -24.1699 23.9258 -25.0488 23.9258 -27.4902 L 23.9258 -63.4277 C 23.9258 -65.8691 25 -66.748 27.2461 -66.748 L 63.1836 -66.748 C 65.4297 -66.748 66.5039 -65.8691 66.5039 -63.4277 L 66.5039 -60.4004 L 46.4844 -60.4004 C 36.9141 -60.4004 31.25 -54.7363 31.25 -45.166 L 31.25 -24.1699 Z M 48.7305 -3.66211 C 46.4844 -3.66211 45.4102 -4.54102 45.4102 -6.98242 L 45.4102 -42.9199 C 45.4102 -45.3613 46.4844 -46.2402 48.7305 -46.2402 L 84.668 -46.2402 C 86.9141 -46.2402 87.9883 -45.3613 87.9883 -42.9199 L 87.9883 -6.98242 C 87.9883 -4.54102 86.9141 -3.66211 84.668 -3.66211 Z M 66.6992 -7.95898 C 69.7754 -7.95898 72.1191 -10.2051 72.1191 -13.1836 L 72.1191 -19.4336 L 78.8574 -19.4336 C 81.8359 -19.4336 84.082 -21.7773 84.082 -24.8535 C 84.082 -27.9297 81.8359 -30.2734 78.8574 -30.2734 L 72.1191 -30.2734 L 72.1191 -36.5234 C 72.1191 -39.502 69.7754 -41.748 66.6992 -41.748 C 63.623 -41.748 61.2793 -39.502 61.2793 -36.5234 L 61.2793 -30.2734 L 54.541 -30.2734 C 51.5625 -30.2734 49.3164 -27.9297 49.3164 -24.8535 C 49.3164 -21.7773 51.5625 -19.4336 54.541 -19.4336 L 61.2793 -19.4336 L 61.2793 -13.1836 C 61.2793 -10.2051 63.623 -7.95898 66.6992 -7.95898 Z"/>
  </g>
  <g id="Heavy-S" transform="matrix(1 0 0 1 2581.98 696)">
   <path d="M 24.3652 -10.6445 L 30.5664 -10.6445 L 30.5664 -5.17578 C 30.5664 4.05273 35.8398 9.32617 45.1172 9.32617 L 85.1074 9.32617 C 94.3359 9.32617 99.6582 4.05273 99.6582 -5.17578 L 99.6582 -45.2148 C 99.6582 -54.4922 94.3359 -59.7656 85.1074 -59.7656 L 78.8574 -59.7656 L 78.8574 -65.2344 C 78.8574 -74.4629 73.584 -79.7363 64.3066 -79.7363 L 24.3652 -79.7363 C 15.0391 -79.7363 9.76562 -74.4629 9.76562 -65.2344 L 9.76562 -25.1953 C 9.76562 -15.918 15.0391 -10.6445 24.3652 -10.6445 Z M 26.0742 -23.1445 C 23.5352 -23.1445 22.2656 -24.2676 22.2656 -27.002 L 22.2656 -63.4277 C 22.2656 -66.1621 23.5352 -67.2852 26.0742 -67.2852 L 62.5488 -67.2852 C 65.0879 -67.2852 66.4062 -66.1621 66.4062 -63.4277 L 66.4062 -59.7656 L 45.1172 -59.7656 C 35.8398 -59.7656 30.5664 -54.4922 30.5664 -45.2148 L 30.5664 -23.1445 Z M 46.875 -3.125 C 44.3359 -3.125 43.0176 -4.24805 43.0176 -6.98242 L 43.0176 -43.4082 C 43.0176 -46.1426 44.3359 -47.2656 46.875 -47.2656 L 83.3496 -47.2656 C 85.8887 -47.2656 87.1582 -46.1426 87.1582 -43.4082 L 87.1582 -6.98242 C 87.1582 -4.24805 85.8887 -3.125 83.3496 -3.125 Z M 65.0879 -8.1543 C 68.0176 -8.1543 70.1172 -10.2539 70.1172 -13.1348 L 70.1172 -20.1172 L 77.6367 -20.1172 C 80.5176 -20.1172 82.6172 -22.2168 82.6172 -25.0977 C 82.6172 -28.0273 80.5176 -30.127 77.6367 -30.127 L 70.1172 -30.127 L 70.1172 -37.3047 C 70.1172 -40.1855 68.0176 -42.2852 65.0879 -42.2852 C 62.207 -42.2852 60.1074 -40.1855 60.1074 -37.3047 L 60.1074 -30.127 L 52.5879 -30.127 C 49.707 -30.127 47.6074 -28.0273 47.6074 -25.0977 C 47.6074 -22.2168 49.707 -20.1172 52.5879 -20.1172 L 60.1074 -20.1172 L 60.1074 -13.1348 C 60.1074 -10.3027 62.207 -8.1543 65.0879 -8.1543 Z"/>
  </g>
  <g id="Bold-S" transform="matrix(1 0 0 1 2286.66 696)">
   <path d="M 23.6328 -11.377 L 29.7852 -11.377 L 29.7852 -5.71289 C 29.7852 3.17383 34.668 8.05664 43.6523 8.05664 L 83.0566 8.05664 C 91.9922 8.05664 96.875 3.17383 96.875 -5.71289 L 96.875 -45.2637 C 96.875 -54.1504 91.9922 -59.0332 83.0566 -59.0332 L 76.8555 -59.0332 L 76.8555 -64.6973 C 76.8555 -73.584 71.9727 -78.4668 63.0371 -78.4668 L 23.6328 -78.4668 C 14.6484 -78.4668 9.76562 -73.584 9.76562 -64.6973 L 9.76562 -25.1465 C 9.76562 -16.2598 14.6484 -11.377 23.6328 -11.377 Z M 24.8047 -21.9727 C 21.9238 -21.9727 20.3613 -23.3398 20.3613 -26.416 L 20.3613 -63.4277 C 20.3613 -66.4551 21.9238 -67.8711 24.8047 -67.8711 L 61.8652 -67.8711 C 64.6973 -67.8711 66.2598 -66.4551 66.2598 -63.4277 L 66.2598 -59.0332 L 43.6523 -59.0332 C 34.668 -59.0332 29.7852 -54.1504 29.7852 -45.2637 L 29.7852 -21.9727 Z M 44.8242 -2.53906 C 41.9434 -2.53906 40.3809 -3.95508 40.3809 -6.98242 L 40.3809 -43.9941 C 40.3809 -47.0703 41.9434 -48.4375 44.8242 -48.4375 L 81.8848 -48.4375 C 84.7168 -48.4375 86.2793 -47.0703 86.2793 -43.9941 L 86.2793 -6.98242 C 86.2793 -3.95508 84.7168 -2.53906 81.8848 -2.53906 Z M 63.3301 -8.39844 C 66.0156 -8.39844 67.8711 -10.3516 67.8711 -13.1348 L 67.8711 -20.8984 L 76.3184 -20.8984 C 79.0527 -20.8984 81.0059 -22.7051 81.0059 -25.4395 C 81.0059 -28.125 79.1016 -29.9805 76.3184 -29.9805 L 67.8711 -29.9805 L 67.8711 -38.1836 C 67.8711 -40.9668 66.0156 -42.9199 63.3301 -42.9199 C 60.5957 -42.9199 58.7891 -40.918 58.7891 -38.1836 L 58.7891 -29.9805 L 50.3906 -29.9805 C 47.6074 -29.9805 45.6543 -28.125 45.6543 -25.4395 C 45.6543 -22.7051 47.6562 -20.8984 50.3906 -20.8984 L 58.7891 -20.8984 L 58.7891 -13.1348 C 58.7891 -10.4004 60.5957 -8.39844 63.3301 -8.39844 Z"/>
  </g>
  <g id="Semibold-S" transform="matrix(1 0 0 1 1990.9 696)">
   <path d="M 23.0957 -11.8652 L 29.248 -11.8652 L 29.248 -6.05469 C 29.248 2.58789 33.8379 7.17773 42.5781 7.17773 L 81.6406 7.17773 C 90.332 7.17773 94.9707 2.58789 94.9707 -6.05469 L 94.9707 -45.3125 C 94.9707 -53.9551 90.332 -58.5449 81.6406 -58.5449 L 75.4883 -58.5449 L 75.4883 -64.3555 C 75.4883 -72.998 70.8496 -77.5879 62.1582 -77.5879 L 23.0957 -77.5879 C 14.3555 -77.5879 9.76562 -72.998 9.76562 -64.3555 L 9.76562 -25.0977 C 9.76562 -16.4551 14.3555 -11.8652 23.0957 -11.8652 Z M 23.877 -21.1914 C 20.752 -21.1914 19.0918 -22.7539 19.0918 -26.0254 L 19.0918 -63.3789 C 19.0918 -66.6992 20.752 -68.2617 23.877 -68.2617 L 61.377 -68.2617 C 64.4531 -68.2617 66.1621 -66.6992 66.1621 -63.3789 L 66.1621 -58.5449 L 42.5781 -58.5449 C 33.8379 -58.5449 29.248 -53.9551 29.248 -45.3125 L 29.248 -21.1914 Z M 43.3594 -2.14844 C 40.2832 -2.14844 38.5742 -3.71094 38.5742 -7.03125 L 38.5742 -44.3359 C 38.5742 -47.6562 40.2832 -49.2188 43.3594 -49.2188 L 80.8594 -49.2188 C 83.9355 -49.2188 85.6445 -47.6562 85.6445 -44.3359 L 85.6445 -7.03125 C 85.6445 -3.71094 83.9355 -2.14844 80.8594 -2.14844 Z M 62.0605 -8.59375 C 64.6484 -8.59375 66.3086 -10.4004 66.3086 -13.0859 L 66.3086 -21.4355 L 75.3906 -21.4355 C 78.0273 -21.4355 79.8828 -23.0469 79.8828 -25.6348 C 79.8828 -28.2227 78.0762 -29.8828 75.3906 -29.8828 L 66.3086 -29.8828 L 66.3086 -38.8184 C 66.3086 -41.5039 64.6484 -43.3105 62.0605 -43.3105 C 59.5215 -43.3105 57.8613 -41.4551 57.8613 -38.8184 L 57.8613 -29.8828 L 48.877 -29.8828 C 46.1426 -29.8828 44.3359 -28.2227 44.3359 -25.6348 C 44.3359 -23.0469 46.2402 -21.4355 48.877 -21.4355 L 57.8613 -21.4355 L 57.8613 -13.0859 C 57.8613 -10.4492 59.5215 -8.59375 62.0605 -8.59375 Z"/>
  </g>
  <g id="Medium-S" transform="matrix(1 0 0 1 1694.92 696)">
   <path d="M 22.7051 -12.2559 L 28.8574 -12.2559 L 28.8574 -6.29883 C 28.8574 2.14844 33.252 6.49414 41.7969 6.49414 L 80.5664 6.49414 C 89.0625 6.49414 93.5059 2.14844 93.5059 -6.29883 L 93.5059 -45.3613 C 93.5059 -53.8086 89.0625 -58.1543 80.5664 -58.1543 L 74.4141 -58.1543 L 74.4141 -64.1113 C 74.4141 -72.5586 70.0195 -76.9043 61.4746 -76.9043 L 22.7051 -76.9043 C 14.1602 -76.9043 9.76562 -72.5586 9.76562 -64.1113 L 9.76562 -25.0488 C 9.76562 -16.6016 14.1602 -12.2559 22.7051 -12.2559 Z M 23.1934 -20.5566 C 19.9219 -20.5566 18.0664 -22.2656 18.0664 -25.7324 L 18.0664 -63.3789 C 18.0664 -66.8457 19.9219 -68.6035 23.1934 -68.6035 L 60.9863 -68.6035 C 64.2578 -68.6035 66.1133 -66.8457 66.1133 -63.3789 L 66.1133 -58.1543 L 41.7969 -58.1543 C 33.252 -58.1543 28.8574 -53.8086 28.8574 -45.3613 L 28.8574 -20.5566 Z M 42.2852 -1.80664 C 39.0137 -1.80664 37.1582 -3.56445 37.1582 -7.03125 L 37.1582 -44.6289 C 37.1582 -48.1445 39.0137 -49.8535 42.2852 -49.8535 L 80.0781 -49.8535 C 83.3496 -49.8535 85.2051 -48.1445 85.2051 -44.6289 L 85.2051 -7.03125 C 85.2051 -3.56445 83.3496 -1.80664 80.0781 -1.80664 Z M 61.1328 -8.74023 C 63.623 -8.74023 65.1367 -10.4492 65.1367 -13.0859 L 65.1367 -21.8262 L 74.707 -21.8262 C 77.2461 -21.8262 79.0527 -23.291 79.0527 -25.7812 C 79.0527 -28.2715 77.3438 -29.7852 74.707 -29.7852 L 65.1367 -29.7852 L 65.1367 -39.2578 C 65.1367 -41.9434 63.623 -43.6523 61.1328 -43.6523 C 58.6426 -43.6523 57.1777 -41.8457 57.1777 -39.2578 L 57.1777 -29.7852 L 47.7051 -29.7852 C 45.0684 -29.7852 43.3105 -28.2715 43.3105 -25.7812 C 43.3105 -23.291 45.1172 -21.8262 47.7051 -21.8262 L 57.1777 -21.8262 L 57.1777 -13.0859 C 57.1777 -10.498 58.6426 -8.74023 61.1328 -8.74023 Z"/>
  </g>
  <g id="Regular-S" transform="matrix(1 0 0 1 1399.16 696)">
   <path d="M 22.2168 -12.7441 L 28.3203 -12.7441 L 28.3203 -6.64062 C 28.3203 1.5625 32.4219 5.61523 40.7715 5.61523 L 79.1504 5.61523 C 87.4512 5.61523 91.6016 1.5625 91.6016 -6.64062 L 91.6016 -45.4102 C 91.6016 -53.6133 87.4512 -57.666 79.1504 -57.666 L 73.0469 -57.666 L 73.0469 -63.7695 C 73.0469 -71.9727 68.8965 -76.0254 60.5957 -76.0254 L 22.2168 -76.0254 C 13.8672 -76.0254 9.76562 -71.9727 9.76562 -63.7695 L 9.76562 -25 C 9.76562 -16.7969 13.8672 -12.7441 22.2168 -12.7441 Z M 22.3145 -19.7754 C 18.7988 -19.7754 16.7969 -21.6797 16.7969 -25.3906 L 16.7969 -63.3789 C 16.7969 -67.0898 18.7988 -68.9941 22.3145 -68.9941 L 60.498 -68.9941 C 64.0137 -68.9941 66.0156 -67.0898 66.0156 -63.3789 L 66.0156 -57.666 L 40.7715 -57.666 C 32.4219 -57.666 28.3203 -53.6133 28.3203 -45.4102 L 28.3203 -19.7754 Z M 40.8691 -1.41602 C 37.3535 -1.41602 35.3516 -3.32031 35.3516 -7.03125 L 35.3516 -45.0195 C 35.3516 -48.7305 37.3535 -50.6348 40.8691 -50.6348 L 79.0527 -50.6348 C 82.5684 -50.6348 84.5703 -48.7305 84.5703 -45.0195 L 84.5703 -7.03125 C 84.5703 -3.32031 82.5684 -1.41602 79.0527 -1.41602 Z M 59.9121 -8.88672 C 62.2559 -8.88672 63.623 -10.498 63.623 -13.0371 L 63.623 -22.3633 L 73.7793 -22.3633 C 76.2695 -22.3633 77.9297 -23.6328 77.9297 -25.9766 C 77.9297 -28.3691 76.3184 -29.6875 73.7793 -29.6875 L 63.623 -29.6875 L 63.623 -39.8926 C 63.623 -42.4316 62.2559 -44.043 59.9121 -44.043 C 57.5684 -44.043 56.2988 -42.334 56.2988 -39.8926 L 56.2988 -29.6875 L 46.1914 -29.6875 C 43.6523 -29.6875 41.9922 -28.3691 41.9922 -25.9766 C 41.9922 -23.6328 43.75 -22.3633 46.1914 -22.3633 L 56.2988 -22.3633 L 56.2988 -13.0371 C 56.2988 -10.5957 57.5684 -8.88672 59.9121 -8.88672 Z"/>
  </g>
  <g id="Light-S" transform="matrix(1 0 0 1 1103.26 696)">
   <path d="M 21.3867 -12.9395 L 28.3203 -12.9395 L 28.3203 -7.27539 C 28.3203 0.390625 32.2266 4.24805 39.9414 4.24805 L 78.3691 4.24805 C 86.084 4.24805 89.9902 0.341797 89.9902 -7.27539 L 89.9902 -45.9473 C 89.9902 -53.5645 86.084 -57.4219 78.3691 -57.4219 L 71.4355 -57.4219 L 71.4355 -63.0859 C 71.4355 -70.7031 67.5293 -74.6094 59.8145 -74.6094 L 21.3867 -74.6094 C 13.6719 -74.6094 9.76562 -70.752 9.76562 -63.0859 L 9.76562 -24.4629 C 9.76562 -16.7969 13.6719 -12.9395 21.3867 -12.9395 Z M 21.4844 -18.3594 C 17.4316 -18.3594 15.1855 -20.5078 15.1855 -24.707 L 15.1855 -62.8418 C 15.1855 -67.041 17.4316 -69.1895 21.4844 -69.1895 L 59.7168 -69.1895 C 63.7207 -69.1895 66.0156 -67.041 66.0156 -62.8418 L 66.0156 -57.4219 L 39.9414 -57.4219 C 32.2266 -57.4219 28.3203 -53.5645 28.3203 -45.9473 L 28.3203 -18.3594 Z M 40.0391 -1.17188 C 35.9863 -1.17188 33.7402 -3.36914 33.7402 -7.56836 L 33.7402 -45.6543 C 33.7402 -49.8535 35.9863 -52.002 40.0391 -52.002 L 78.2715 -52.002 C 82.2754 -52.002 84.5703 -49.8535 84.5703 -45.6543 L 84.5703 -7.56836 C 84.5703 -3.36914 82.2754 -1.17188 78.2715 -1.17188 Z M 59.082 -9.42383 C 60.8887 -9.42383 61.9629 -10.6445 61.9629 -12.5977 L 61.9629 -23.7793 L 73.6816 -23.7793 C 75.5859 -23.7793 76.8555 -24.8047 76.8555 -26.5137 C 76.8555 -28.3691 75.6348 -29.3945 73.6816 -29.3945 L 61.9629 -29.3945 L 61.9629 -41.1621 C 61.9629 -43.1152 60.8887 -44.3359 59.082 -44.3359 C 57.3242 -44.3359 56.3477 -43.0664 56.3477 -41.1621 L 56.3477 -29.3945 L 44.6289 -29.3945 C 42.6758 -29.3945 41.4062 -28.3691 41.4062 -26.5137 C 41.4062 -24.8047 42.7734 -23.7793 44.6289 -23.7793 L 56.3477 -23.7793 L 56.3477 -12.5977 C 56.3477 -10.7422 57.3242 -9.42383 59.082 -9.42383 Z"/>
  </g>
  <g id="Thin-S" transform="matrix(1 0 0 1 807.594 696)">
   <path d="M 20.3125 -13.1836 L 28.3203 -13.1836 L 28.3203 -8.05664 C 28.3203 -1.17188 31.9336 2.44141 38.8672 2.44141 L 77.3438 2.44141 C 84.2773 2.44141 87.8906 -1.2207 87.8906 -8.05664 L 87.8906 -46.6309 C 87.8906 -53.4668 84.2773 -57.1289 77.3438 -57.1289 L 69.3359 -57.1289 L 69.3359 -62.2559 C 69.3359 -69.0918 65.7227 -72.7539 58.7891 -72.7539 L 20.3125 -72.7539 C 13.3789 -72.7539 9.76562 -69.1895 9.76562 -62.2559 L 9.76562 -23.7305 C 9.76562 -16.7969 13.3789 -13.1836 20.3125 -13.1836 Z M 20.4102 -16.5039 C 15.625 -16.5039 13.0859 -19.043 13.0859 -23.877 L 13.0859 -62.1094 C 13.0859 -66.9434 15.625 -69.4336 20.4102 -69.4336 L 58.6914 -69.4336 C 63.3301 -69.4336 66.0156 -66.9434 66.0156 -62.1094 L 66.0156 -57.1289 L 38.8672 -57.1289 C 31.9336 -57.1289 28.3203 -53.5645 28.3203 -46.6309 L 28.3203 -16.5039 Z M 38.9648 -0.878906 C 34.1797 -0.878906 31.6406 -3.36914 31.6406 -8.25195 L 31.6406 -46.4355 C 31.6406 -51.3184 34.1797 -53.8086 38.9648 -53.8086 L 77.2461 -53.8086 C 81.8848 -53.8086 84.5703 -51.3184 84.5703 -46.4355 L 84.5703 -8.25195 C 84.5703 -3.36914 81.8848 -0.878906 77.2461 -0.878906 Z M 58.0078 -10.1562 C 59.1309 -10.1562 59.8145 -10.8887 59.8145 -11.9629 L 59.8145 -25.5859 L 73.6328 -25.5859 C 74.6582 -25.5859 75.4883 -26.2695 75.4883 -27.2461 C 75.4883 -28.3203 74.707 -29.0527 73.6328 -29.0527 L 59.8145 -29.0527 L 59.8145 -42.8711 C 59.8145 -43.9941 59.1309 -44.7266 58.0078 -44.7266 C 57.0312 -44.7266 56.3477 -43.9453 56.3477 -42.8711 L 56.3477 -29.0527 L 42.5293 -29.0527 C 41.4551 -29.0527 40.6738 -28.3203 40.6738 -27.2461 C 40.6738 -26.2695 41.5039 -25.5859 42.5293 -25.5859 L 56.3477 -25.5859 L 56.3477 -11.9629 C 56.3477 -10.8887 57.0312 -10.1562 58.0078 -10.1562 Z"/>
  </g>
  <g id="Ultralight-S" transform="matrix(1 0 0 1 511.445 696)">
   <path d="M 19.7754 -13.3301 L 28.3203 -13.3301 L 28.3203 -8.49609 C 28.3203 -1.95312 31.7871 1.46484 38.3301 1.46484 L 76.8066 1.46484 C 83.3008 1.46484 86.7676 -2.05078 86.7676 -8.49609 L 86.7676 -46.9727 C 86.7676 -53.418 83.3008 -56.9824 76.8066 -56.9824 L 68.2129 -56.9824 L 68.2129 -61.8164 C 68.2129 -68.2617 64.7461 -71.7773 58.252 -71.7773 L 19.7754 -71.7773 C 13.2324 -71.7773 9.76562 -68.3594 9.76562 -61.8164 L 9.76562 -23.3398 C 9.76562 -16.7969 13.2324 -13.3301 19.7754 -13.3301 Z M 19.873 -15.5273 C 14.6484 -15.5273 11.9629 -18.2617 11.9629 -23.4375 L 11.9629 -61.7188 C 11.9629 -66.8945 14.6484 -69.5801 19.873 -69.5801 L 58.1543 -69.5801 C 63.1348 -69.5801 66.0156 -66.8945 66.0156 -61.7188 L 66.0156 -56.9824 L 38.3301 -56.9824 C 31.7871 -56.9824 28.3203 -53.5156 28.3203 -46.9727 L 28.3203 -15.5273 Z M 38.4277 -0.732422 C 33.2031 -0.732422 30.5176 -3.41797 30.5176 -8.59375 L 30.5176 -46.875 C 30.5176 -52.0508 33.2031 -54.7852 38.4277 -54.7852 L 76.709 -54.7852 C 81.6895 -54.7852 84.5703 -52.0508 84.5703 -46.875 L 84.5703 -8.59375 C 84.5703 -3.41797 81.6895 -0.732422 76.709 -0.732422 Z M 57.4707 -10.498 C 58.2031 -10.498 58.6914 -10.9863 58.6914 -11.6211 L 58.6914 -26.5625 L 73.584 -26.5625 C 74.2188 -26.5625 74.7559 -27.0508 74.7559 -27.6367 C 74.7559 -28.3203 74.2676 -28.8574 73.584 -28.8574 L 58.6914 -28.8574 L 58.6914 -43.75 C 58.6914 -44.4336 58.2031 -44.9219 57.4707 -44.9219 C 56.8359 -44.9219 56.3965 -44.4336 56.3965 -43.75 L 56.3965 -28.8574 L 41.5039 -28.8574 C 40.8203 -28.8574 40.2832 -28.3203 40.2832 -27.6367 C 40.2832 -27.0508 40.8691 -26.5625 41.5039 -26.5625 L 56.3965 -26.5625 L 56.3965 -11.6211 C 56.3965 -11.0352 56.8359 -10.498 57.4707 -10.498 Z"/>
  </g>
 </g>
</svg>
