<?xml version="1.0" encoding="UTF-8"?>
<!--Generator: Apple Native CoreSVG 129-->
<!DOCTYPE svg
PUBLIC "-//W3C//DTD SVG 1.1//EN"
       "http://www.w3.org/Graphics/SVG/1.1/DTD/svg11.dtd">
<svg version="1.1" xmlns="http://www.w3.org/2000/svg" xmlns:xlink="http://www.w3.org/1999/xlink" width="3300" height="2200">
 <!--glyph: "uni10020E.medium", point size: 100.000000, font version: "Version 16.0d9e1", template writer version: "8"-->
 <g id="Notes">
  <rect height="2200" id="artboard" style="fill:white;opacity:1" width="3300" x="0" y="0"/>
  <line id="" style="fill:none;stroke:black;opacity:1;stroke-width:0.5;" x1="263" x2="3036" y1="292" y2="292"/>
  <text style="stroke:none;fill:black;font-family:-apple-system,&quot;SF Pro Display&quot;,&quot;SF Pro Text&quot;,Helvetica,sans-serif;font-weight:bold;" transform="matrix(1 0 0 1 263 322)">Weight/Scale Variations</text>
  <text style="stroke:none;fill:black;font-family:-apple-system,&quot;SF Pro Display&quot;,&quot;SF Pro Text&quot;,Helvetica,sans-serif;text-anchor:middle;" transform="matrix(1 0 0 1 559.711 322)">Ultralight</text>
  <text style="stroke:none;fill:black;font-family:-apple-system,&quot;SF Pro Display&quot;,&quot;SF Pro Text&quot;,Helvetica,sans-serif;text-anchor:middle;" transform="matrix(1 0 0 1 856.422 322)">Thin</text>
  <text style="stroke:none;fill:black;font-family:-apple-system,&quot;SF Pro Display&quot;,&quot;SF Pro Text&quot;,Helvetica,sans-serif;text-anchor:middle;" transform="matrix(1 0 0 1 1153.13 322)">Light</text>
  <text style="stroke:none;fill:black;font-family:-apple-system,&quot;SF Pro Display&quot;,&quot;SF Pro Text&quot;,Helvetica,sans-serif;text-anchor:middle;" transform="matrix(1 0 0 1 1449.84 322)">Regular</text>
  <text style="stroke:none;fill:black;font-family:-apple-system,&quot;SF Pro Display&quot;,&quot;SF Pro Text&quot;,Helvetica,sans-serif;text-anchor:middle;" transform="matrix(1 0 0 1 1746.56 322)">Medium</text>
  <text style="stroke:none;fill:black;font-family:-apple-system,&quot;SF Pro Display&quot;,&quot;SF Pro Text&quot;,Helvetica,sans-serif;text-anchor:middle;" transform="matrix(1 0 0 1 2043.27 322)">Semibold</text>
  <text style="stroke:none;fill:black;font-family:-apple-system,&quot;SF Pro Display&quot;,&quot;SF Pro Text&quot;,Helvetica,sans-serif;text-anchor:middle;" transform="matrix(1 0 0 1 2339.98 322)">Bold</text>
  <text style="stroke:none;fill:black;font-family:-apple-system,&quot;SF Pro Display&quot;,&quot;SF Pro Text&quot;,Helvetica,sans-serif;text-anchor:middle;" transform="matrix(1 0 0 1 2636.69 322)">Heavy</text>
  <text style="stroke:none;fill:black;font-family:-apple-system,&quot;SF Pro Display&quot;,&quot;SF Pro Text&quot;,Helvetica,sans-serif;text-anchor:middle;" transform="matrix(1 0 0 1 2933.4 322)">Black</text>
  <line id="" style="fill:none;stroke:black;opacity:1;stroke-width:0.5;" x1="263" x2="3036" y1="1903" y2="1903"/>
  <g id="" transform="matrix(1 0 0 1 263 1933)">
   <path d="M 9.24805 0.830078 C 13.5547 0.830078 17.1387 -2.74414 17.1387 -7.05078 C 17.1387 -11.3574 13.5449 -14.9316 9.23828 -14.9316 C 4.94141 -14.9316 1.36719 -11.3574 1.36719 -7.05078 C 1.36719 -2.74414 4.95117 0.830078 9.24805 0.830078 Z M 9.24805 -0.654297 C 5.70312 -0.654297 2.87109 -3.49609 2.87109 -7.05078 C 2.87109 -10.6055 5.69336 -13.4473 9.23828 -13.4473 C 12.793 -13.4473 15.6348 -10.6055 15.6445 -7.05078 C 15.6543 -3.49609 12.8027 -0.654297 9.24805 -0.654297 Z M 9.22852 -3.62305 C 9.69727 -3.62305 9.9707 -3.93555 9.9707 -4.45312 L 9.9707 -6.31836 L 12.002 -6.31836 C 12.5 -6.31836 12.832 -6.57227 12.832 -7.04102 C 12.832 -7.51953 12.5195 -7.7832 12.002 -7.7832 L 9.9707 -7.7832 L 9.9707 -9.81445 C 9.9707 -10.332 9.69727 -10.6543 9.22852 -10.6543 C 8.75977 -10.6543 8.50586 -10.3125 8.50586 -9.81445 L 8.50586 -7.7832 L 6.49414 -7.7832 C 5.97656 -7.7832 5.64453 -7.51953 5.64453 -7.04102 C 5.64453 -6.57227 5.99609 -6.31836 6.49414 -6.31836 L 8.50586 -6.31836 L 8.50586 -4.45312 C 8.50586 -3.95508 8.75977 -3.62305 9.22852 -3.62305 Z"/>
  </g>
  <g id="" transform="matrix(1 0 0 1 281.506 1933)">
   <path d="M 11.709 2.91016 C 17.1582 2.91016 21.6699 -1.61133 21.6699 -7.05078 C 21.6699 -12.5 17.1484 -17.0117 11.6992 -17.0117 C 6.25977 -17.0117 1.74805 -12.5 1.74805 -7.05078 C 1.74805 -1.61133 6.26953 2.91016 11.709 2.91016 Z M 11.709 1.25 C 7.09961 1.25 3.41797 -2.44141 3.41797 -7.05078 C 3.41797 -11.6602 7.08984 -15.3516 11.6992 -15.3516 C 16.3086 -15.3516 20 -11.6602 20.0098 -7.05078 C 20.0195 -2.44141 16.3184 1.25 11.709 1.25 Z M 11.6797 -2.66602 C 12.207 -2.66602 12.5098 -3.01758 12.5098 -3.59375 L 12.5098 -6.23047 L 15.3223 -6.23047 C 15.8691 -6.23047 16.25 -6.51367 16.25 -7.03125 C 16.25 -7.55859 15.8887 -7.86133 15.3223 -7.86133 L 12.5098 -7.86133 L 12.5098 -10.6836 C 12.5098 -11.25 12.207 -11.6113 11.6797 -11.6113 C 11.1621 -11.6113 10.8789 -11.2305 10.8789 -10.6836 L 10.8789 -7.86133 L 8.07617 -7.86133 C 7.50977 -7.86133 7.13867 -7.55859 7.13867 -7.03125 C 7.13867 -6.51367 7.5293 -6.23047 8.07617 -6.23047 L 10.8789 -6.23047 L 10.8789 -3.59375 C 10.8789 -3.03711 11.1621 -2.66602 11.6797 -2.66602 Z"/>
  </g>
  <g id="" transform="matrix(1 0 0 1 304.924 1933)">
   <path d="M 14.9707 5.66406 C 21.9336 5.66406 27.6953 -0.0976562 27.6953 -7.05078 C 27.6953 -14.0137 21.9238 -19.7754 14.9609 -19.7754 C 8.00781 -19.7754 2.25586 -14.0137 2.25586 -7.05078 C 2.25586 -0.0976562 8.01758 5.66406 14.9707 5.66406 Z M 14.9707 3.84766 C 8.93555 3.84766 4.08203 -1.01562 4.08203 -7.05078 C 4.08203 -13.0957 8.92578 -17.9492 14.9609 -17.9492 C 21.0059 -17.9492 25.8594 -13.0957 25.8691 -7.05078 C 25.8789 -1.01562 21.0156 3.84766 14.9707 3.84766 Z M 14.9414 -1.38672 C 15.5176 -1.38672 15.8594 -1.77734 15.8594 -2.38281 L 15.8594 -6.13281 L 19.7754 -6.13281 C 20.3711 -6.13281 20.7812 -6.46484 20.7812 -7.02148 C 20.7812 -7.59766 20.3906 -7.93945 19.7754 -7.93945 L 15.8594 -7.93945 L 15.8594 -11.8652 C 15.8594 -12.4805 15.5176 -12.8711 14.9414 -12.8711 C 14.375 -12.8711 14.0527 -12.4609 14.0527 -11.8652 L 14.0527 -7.93945 L 10.1465 -7.93945 C 9.53125 -7.93945 9.13086 -7.59766 9.13086 -7.02148 C 9.13086 -6.46484 9.55078 -6.13281 10.1465 -6.13281 L 14.0527 -6.13281 L 14.0527 -2.38281 C 14.0527 -1.79688 14.375 -1.38672 14.9414 -1.38672 Z"/>
  </g>
  <text style="stroke:none;fill:black;font-family:-apple-system,&quot;SF Pro Display&quot;,&quot;SF Pro Text&quot;,Helvetica,sans-serif;font-weight:bold;" transform="matrix(1 0 0 1 263 1953)">Design Variations</text>
  <text style="stroke:none;fill:black;font-family:-apple-system,&quot;SF Pro Display&quot;,&quot;SF Pro Text&quot;,Helvetica,sans-serif;" transform="matrix(1 0 0 1 263 1971)">Symbols are supported in up to nine weights and three scales.</text>
  <text style="stroke:none;fill:black;font-family:-apple-system,&quot;SF Pro Display&quot;,&quot;SF Pro Text&quot;,Helvetica,sans-serif;" transform="matrix(1 0 0 1 263 1989)">For optimal layout with text and other symbols, vertically align</text>
  <text style="stroke:none;fill:black;font-family:-apple-system,&quot;SF Pro Display&quot;,&quot;SF Pro Text&quot;,Helvetica,sans-serif;" transform="matrix(1 0 0 1 263 2007)">symbols with the adjacent text.</text>
  <line id="" style="fill:none;stroke:#00AEEF;stroke-width:0.5;opacity:1.0;" x1="776" x2="776" y1="1919" y2="1933"/>
  <g id="" transform="matrix(1 0 0 1 776 1933)">
   <path d="M 3.31055 0.126953 C 3.82812 0.126953 4.08203 -0.0683594 4.26758 -0.605469 L 5.52734 -4.0625 L 11.2891 -4.0625 L 12.5488 -0.605469 C 12.7344 -0.0683594 12.9883 0.126953 13.4961 0.126953 C 14.0137 0.126953 14.3457 -0.185547 14.3457 -0.673828 C 14.3457 -0.839844 14.3164 -0.986328 14.2383 -1.20117 L 9.6582 -13.3887 C 9.43359 -13.9941 9.0332 -14.2871 8.4082 -14.2871 C 7.80273 -14.2871 7.39258 -13.9941 7.17773 -13.3984 L 2.59766 -1.19141 C 2.51953 -0.976562 2.49023 -0.830078 2.49023 -0.664062 C 2.49023 -0.175781 2.80273 0.126953 3.31055 0.126953 Z M 6.00586 -5.53711 L 8.37891 -12.1094 L 8.42773 -12.1094 L 10.8008 -5.53711 Z"/>
  </g>
  <line id="" style="fill:none;stroke:#00AEEF;stroke-width:0.5;opacity:1.0;" x1="792.836" x2="792.836" y1="1919" y2="1933"/>
  <text style="stroke:none;fill:black;font-family:-apple-system,&quot;SF Pro Display&quot;,&quot;SF Pro Text&quot;,Helvetica,sans-serif;font-weight:bold;" transform="matrix(1 0 0 1 776 1953)">Margins</text>
  <text style="stroke:none;fill:black;font-family:-apple-system,&quot;SF Pro Display&quot;,&quot;SF Pro Text&quot;,Helvetica,sans-serif;" transform="matrix(1 0 0 1 776 1971)">Leading and trailing margins on the left and right side of each symbol</text>
  <text style="stroke:none;fill:black;font-family:-apple-system,&quot;SF Pro Display&quot;,&quot;SF Pro Text&quot;,Helvetica,sans-serif;" transform="matrix(1 0 0 1 776 1989)">can be adjusted by modifying the x-location of the margin guidelines.</text>
  <text style="stroke:none;fill:black;font-family:-apple-system,&quot;SF Pro Display&quot;,&quot;SF Pro Text&quot;,Helvetica,sans-serif;" transform="matrix(1 0 0 1 776 2007)">Modifications are automatically applied proportionally to all</text>
  <text style="stroke:none;fill:black;font-family:-apple-system,&quot;SF Pro Display&quot;,&quot;SF Pro Text&quot;,Helvetica,sans-serif;" transform="matrix(1 0 0 1 776 2025)">scales and weights.</text>
  <g id="" transform="matrix(1 0 0 1 1289 1933)">
   <path d="M 2.8418 1.86523 L 4.54102 3.57422 C 5.40039 4.44336 6.38672 4.38477 7.31445 3.35938 L 17.4902 -7.85156 C 17.7539 -7.76367 18.0273 -7.7832 18.3398 -7.8418 L 19.4043 -8.03711 L 20.0684 -7.36328 L 20.0293 -6.80664 C 19.9902 -6.30859 20.1172 -5.92773 20.6055 -5.44922 L 21.3672 -4.70703 C 21.8457 -4.22852 22.4609 -4.19922 22.9297 -4.66797 L 25.8398 -7.58789 C 26.3086 -8.05664 26.2891 -8.65234 25.8105 -9.13086 L 25.0391 -9.89258 C 24.5605 -10.3711 24.1895 -10.5273 23.7109 -10.4883 L 23.1348 -10.4395 L 22.4902 -11.0742 L 22.7344 -12.1973 C 22.8613 -12.7637 22.7051 -13.2031 22.1191 -13.7891 L 19.9219 -15.9766 C 16.582 -19.2969 12.1484 -19.2188 9.25781 -16.3281 C 8.83789 -15.918 8.80859 -15.3418 9.04297 -14.9512 C 9.27734 -14.5898 9.73633 -14.3555 10.3809 -14.5215 C 11.8457 -14.8633 13.3691 -14.9219 14.7949 -13.9844 L 14.209 -12.5293 C 14.0137 -12.0508 13.9844 -11.6504 14.1113 -11.2891 L 3.04688 -0.898438 C 2.06055 0.0195312 1.98242 0.996094 2.8418 1.86523 Z M 10.752 -15.957 C 13.1836 -17.7344 16.4746 -17.4316 18.7012 -15.2051 L 21.1328 -12.793 C 21.3672 -12.5586 21.4062 -12.373 21.3379 -12.0312 L 21.0156 -10.5469 L 22.5195 -9.0625 L 23.5059 -9.12109 C 23.7598 -9.13086 23.8379 -9.11133 24.0332 -8.91602 L 24.6094 -8.33984 L 22.168 -5.89844 L 21.5918 -6.47461 C 21.3965 -6.66992 21.3672 -6.74805 21.377 -7.01172 L 21.4453 -7.98828 L 19.9512 -9.47266 L 18.4277 -9.21875 C 18.1055 -9.15039 17.959 -9.17969 17.7148 -9.41406 L 15.7129 -11.416 C 15.459 -11.6504 15.4297 -11.8164 15.5859 -12.1875 L 16.4648 -14.2773 C 14.9023 -15.7324 12.8711 -16.3574 10.8398 -15.7617 C 10.6836 -15.7227 10.625 -15.8496 10.752 -15.957 Z M 5.27344 2.30469 L 4.10156 1.14258 C 3.63281 0.683594 3.74023 0.341797 4.14062 -0.0195312 L 14.9512 -10.1953 L 16.416 -8.71094 L 6.42578 2.27539 C 6.07422 2.67578 5.74219 2.77344 5.27344 2.30469 Z"/>
  </g>
  <text style="stroke:none;fill:black;font-family:-apple-system,&quot;SF Pro Display&quot;,&quot;SF Pro Text&quot;,Helvetica,sans-serif;font-weight:bold;" transform="matrix(1 0 0 1 1289 1953)">Exporting</text>
  <text style="stroke:none;fill:black;font-family:-apple-system,&quot;SF Pro Display&quot;,&quot;SF Pro Text&quot;,Helvetica,sans-serif;" transform="matrix(1 0 0 1 1289 1971)">Symbols should be outlined when exporting to ensure the</text>
  <text style="stroke:none;fill:black;font-family:-apple-system,&quot;SF Pro Display&quot;,&quot;SF Pro Text&quot;,Helvetica,sans-serif;" transform="matrix(1 0 0 1 1289 1989)">design is preserved when submitting to Xcode.</text>
  <text id="template-version" style="stroke:none;fill:black;font-family:-apple-system,&quot;SF Pro Display&quot;,&quot;SF Pro Text&quot;,Helvetica,sans-serif;text-anchor:end;" transform="matrix(1 0 0 1 3036 1933)">Template v.2.0</text>
  <text style="stroke:none;fill:black;font-family:-apple-system,&quot;SF Pro Display&quot;,&quot;SF Pro Text&quot;,Helvetica,sans-serif;text-anchor:end;" transform="matrix(1 0 0 1 3036 1951)">Requires Xcode 12 or greater</text>
  <text style="stroke:none;fill:black;font-family:-apple-system,&quot;SF Pro Display&quot;,&quot;SF Pro Text&quot;,Helvetica,sans-serif;text-anchor:end;" transform="matrix(1 0 0 1 3036 1969)">Generated from square.and.pencil</text>
  <text style="stroke:none;fill:black;font-family:-apple-system,&quot;SF Pro Display&quot;,&quot;SF Pro Text&quot;,Helvetica,sans-serif;text-anchor:end;" transform="matrix(1 0 0 1 3036 1987)">Typeset at 100 points</text>
  <text style="stroke:none;fill:black;font-family:-apple-system,&quot;SF Pro Display&quot;,&quot;SF Pro Text&quot;,Helvetica,sans-serif;" transform="matrix(1 0 0 1 263 726)">Small</text>
  <text style="stroke:none;fill:black;font-family:-apple-system,&quot;SF Pro Display&quot;,&quot;SF Pro Text&quot;,Helvetica,sans-serif;" transform="matrix(1 0 0 1 263 1156)">Medium</text>
  <text style="stroke:none;fill:black;font-family:-apple-system,&quot;SF Pro Display&quot;,&quot;SF Pro Text&quot;,Helvetica,sans-serif;" transform="matrix(1 0 0 1 263 1586)">Large</text>
 </g>
 <g id="Guides">
  <g id="H-reference" style="fill:#27AAE1;stroke:none;" transform="matrix(1 0 0 1 339 696)">
   <path d="M 0.976562 0 L 3.66211 0 L 12.9883 -24.4629 L 45.7031 -24.4629 L 55.0781 0 L 57.7148 0 L 30.6152 -70.459 L 28.125 -70.459 Z M 29.2969 -67.1387 L 29.3945 -67.1387 L 44.873 -26.709 L 13.8672 -26.709 Z"/>
  </g>
  <line id="Baseline-S" style="fill:none;stroke:#27AAE1;opacity:1;stroke-width:0.5;" x1="263" x2="3036" y1="696" y2="696"/>
  <line id="Capline-S" style="fill:none;stroke:#27AAE1;opacity:1;stroke-width:0.5;" x1="263" x2="3036" y1="625.541" y2="625.541"/>
  <g id="H-reference" style="fill:#27AAE1;stroke:none;" transform="matrix(1 0 0 1 339 1126)">
   <path d="M 0.976562 0 L 3.66211 0 L 12.9883 -24.4629 L 45.7031 -24.4629 L 55.0781 0 L 57.7148 0 L 30.6152 -70.459 L 28.125 -70.459 Z M 29.2969 -67.1387 L 29.3945 -67.1387 L 44.873 -26.709 L 13.8672 -26.709 Z"/>
  </g>
  <line id="Baseline-M" style="fill:none;stroke:#27AAE1;opacity:1;stroke-width:0.5;" x1="263" x2="3036" y1="1126" y2="1126"/>
  <line id="Capline-M" style="fill:none;stroke:#27AAE1;opacity:1;stroke-width:0.5;" x1="263" x2="3036" y1="1055.54" y2="1055.54"/>
  <g id="H-reference" style="fill:#27AAE1;stroke:none;" transform="matrix(1 0 0 1 339 1556)">
   <path d="M 0.976562 0 L 3.66211 0 L 12.9883 -24.4629 L 45.7031 -24.4629 L 55.0781 0 L 57.7148 0 L 30.6152 -70.459 L 28.125 -70.459 Z M 29.2969 -67.1387 L 29.3945 -67.1387 L 44.873 -26.709 L 13.8672 -26.709 Z"/>
  </g>
  <line id="Baseline-L" style="fill:none;stroke:#27AAE1;opacity:1;stroke-width:0.5;" x1="263" x2="3036" y1="1556" y2="1556"/>
  <line id="Capline-L" style="fill:none;stroke:#27AAE1;opacity:1;stroke-width:0.5;" x1="263" x2="3036" y1="1485.54" y2="1485.54"/>
  <line id="left-margin" style="fill:none;stroke:#00AEEF;stroke-width:0.5;opacity:1.0;" x1="1389.1" x2="1389.1" y1="1030.79" y2="1150.12"/>
  <line id="right-margin" style="fill:none;stroke:#00AEEF;stroke-width:0.5;opacity:1.0;" x1="1510.59" x2="1510.59" y1="1030.79" y2="1150.12"/>
 </g>
 <g id="Symbols">
  <g id="Black-L" transform="matrix(1 0 0 1 2852.25 1556)">
   <path d="M 143.604 -81.9824 L 149.17 -87.8906 C 152.344 -91.2598 152.832 -96.2402 149.658 -99.5605 L 147.363 -101.953 C 144.629 -104.785 139.551 -103.955 136.279 -100.781 L 130.469 -95.166 Z M 45.6543 26.5137 L 117.285 26.5137 C 131.885 26.5137 140.527 17.8711 140.527 2.68555 L 140.527 -61.3281 L 120.312 -41.0645 L 120.312 -0.146484 C 120.312 4.39453 118.164 6.29883 114.551 6.29883 L 48.3887 6.29883 C 44.1406 6.29883 41.9922 4.39453 41.9922 -0.146484 L 41.9922 -65.625 C 41.9922 -70.166 44.1406 -72.0703 48.3887 -72.0703 L 89.7461 -72.0703 L 110.01 -92.2852 L 45.6543 -92.2852 C 30.4199 -92.2852 21.7285 -83.6914 21.7285 -68.457 L 21.7285 2.68555 C 21.7285 17.8711 30.4199 26.5137 45.6543 26.5137 Z M 72.1191 -19.6289 L 87.0117 -25.3906 L 139.209 -77.5879 L 126.025 -90.7227 L 73.877 -38.5254 L 68.0176 -23.7793 C 66.9922 -21.0938 69.7754 -18.75 72.1191 -19.6289 Z"/>
  </g>
  <g id="Heavy-L" transform="matrix(1 0 0 1 2556.34 1556)">
   <path d="M 142.822 -83.3496 L 148.047 -88.8672 C 150.977 -91.9434 151.367 -96.3867 148.438 -99.3652 L 146.436 -101.465 C 143.896 -104.102 139.355 -103.418 136.377 -100.537 L 130.957 -95.2637 Z M 44.7266 25.4395 L 116.846 25.4395 C 130.615 25.4395 138.721 17.334 138.721 2.7832 L 138.721 -62.0117 L 121.24 -44.4824 L 121.24 0.488281 C 121.24 5.61523 118.652 7.91016 114.697 7.91016 L 46.8262 7.91016 C 41.9922 7.91016 39.4531 5.61523 39.4531 0.488281 L 39.4531 -66.4062 C 39.4531 -71.5332 41.9922 -73.8281 46.8262 -73.8281 L 92.334 -73.8281 L 109.814 -91.3086 L 44.7266 -91.3086 C 30.0781 -91.3086 21.9727 -83.252 21.9727 -68.7012 L 21.9727 2.7832 C 21.9727 17.334 30.0781 25.4395 44.7266 25.4395 Z M 70.6055 -19.5801 L 84.668 -25.1953 L 138.428 -78.9551 L 126.514 -90.7715 L 72.8027 -37.0605 L 67.0898 -23.1934 C 66.1621 -20.8984 68.6035 -18.8477 70.6055 -19.5801 Z"/>
  </g>
  <g id="Bold-L" transform="matrix(1 0 0 1 2260.53 1556)">
   <path d="M 141.895 -84.8145 L 146.826 -89.9414 C 149.463 -92.6758 149.707 -96.5332 147.119 -99.1699 L 145.361 -100.977 C 143.066 -103.32 139.111 -102.783 136.523 -100.244 L 131.445 -95.3125 Z M 68.8965 -19.5312 L 82.0312 -24.9512 L 137.5 -80.4199 L 127.051 -90.8691 L 71.582 -35.3516 L 66.0156 -22.5098 C 65.2832 -20.7031 67.2363 -18.8965 68.8965 -19.5312 Z M 43.6523 24.2188 L 116.309 24.2188 C 129.199 24.2188 136.67 16.6992 136.67 2.92969 L 136.67 -62.7441 L 122.217 -48.291 L 122.217 1.26953 C 122.217 7.03125 119.238 9.76562 114.844 9.76562 L 45.1172 9.76562 C 39.5996 9.76562 36.6699 7.03125 36.6699 1.26953 L 36.6699 -67.2852 C 36.6699 -73.0469 39.5996 -75.8301 45.1172 -75.8301 L 95.166 -75.8301 L 109.619 -90.2344 L 43.6523 -90.2344 C 29.7363 -90.2344 22.2168 -82.7637 22.2168 -68.9453 L 22.2168 2.92969 C 22.2168 16.748 29.7363 24.2188 43.6523 24.2188 Z"/>
  </g>
  <g id="Semibold-L" transform="matrix(1 0 0 1 1964.43 1556)">
   <path d="M 141.309 -85.8398 L 145.947 -90.6738 C 148.389 -93.2129 148.535 -96.6309 146.191 -99.0234 L 144.629 -100.635 C 142.529 -102.783 138.965 -102.393 136.621 -100.049 L 131.836 -95.3613 Z M 67.7734 -19.5312 L 80.2246 -24.8047 L 136.914 -81.4453 L 127.393 -90.8691 L 70.8008 -34.2285 L 65.2832 -22.0703 C 64.6484 -20.5566 66.3086 -18.9453 67.7734 -19.5312 Z M 42.9688 23.3887 L 115.918 23.3887 C 128.174 23.3887 135.303 16.3086 135.303 2.97852 L 135.303 -63.2812 L 122.949 -50.9277 L 122.949 1.75781 C 122.949 7.95898 119.629 11.0352 114.941 11.0352 L 43.9453 11.0352 C 37.9395 11.0352 34.7168 7.95898 34.7168 1.75781 L 34.7168 -67.8711 C 34.7168 -74.1211 37.9395 -77.1973 43.9453 -77.1973 L 97.168 -77.1973 L 109.521 -89.502 L 42.9688 -89.502 C 29.541 -89.502 22.3633 -82.4707 22.3633 -69.0918 L 22.3633 2.97852 C 22.3633 16.3086 29.541 23.3887 42.9688 23.3887 Z"/>
  </g>
  <g id="Medium-L" transform="matrix(1 0 0 1 1668.19 1556)">
   <path d="M 140.82 -86.6211 L 145.312 -91.2109 C 147.559 -93.5547 147.705 -96.6797 145.459 -98.9258 L 144.092 -100.342 C 142.09 -102.393 138.867 -102.051 136.67 -99.8535 L 132.08 -95.3613 Z M 66.8945 -19.4824 L 78.8574 -24.6582 L 136.426 -82.2266 L 127.686 -90.918 L 70.166 -33.3496 L 64.7461 -21.7285 C 64.1602 -20.459 65.5762 -18.9941 66.8945 -19.4824 Z M 42.3828 22.7539 L 115.674 22.7539 C 127.441 22.7539 134.229 15.9668 134.229 3.02734 L 134.229 -63.6719 L 123.486 -52.9297 L 123.486 2.14844 C 123.486 8.69141 119.922 12.0117 115.039 12.0117 L 43.0176 12.0117 C 36.6699 12.0117 33.252 8.69141 33.252 2.14844 L 33.252 -68.3594 C 33.252 -74.9023 36.6699 -78.2227 43.0176 -78.2227 L 98.6816 -78.2227 L 109.375 -88.9648 L 42.3828 -88.9648 C 29.3457 -88.9648 22.5098 -82.2266 22.5098 -69.2383 L 22.5098 3.02734 C 22.5098 16.0156 29.3457 22.7539 42.3828 22.7539 Z"/>
  </g>
  <g id="Regular-L" transform="matrix(1 0 0 1 1372.09 1556)">
   <path d="M 140.234 -87.5977 L 144.482 -91.9922 C 146.533 -94.0918 146.582 -96.7773 144.58 -98.7793 L 143.359 -100 C 141.504 -101.855 138.721 -101.611 136.768 -99.6582 L 132.471 -95.4102 Z M 65.7227 -19.4824 L 77.0508 -24.5117 L 135.791 -83.252 L 128.027 -90.9668 L 69.3359 -32.2266 L 64.0137 -21.2402 C 63.5254 -20.3125 64.6973 -19.043 65.7227 -19.4824 Z M 41.6992 21.9238 L 115.283 21.9238 C 126.465 21.9238 132.812 15.5273 132.812 3.125 L 132.812 -64.1602 L 124.17 -55.5176 L 124.17 2.63672 C 124.17 9.66797 120.361 13.2812 115.137 13.2812 L 41.8457 13.2812 C 35.0586 13.2812 31.3477 9.66797 31.3477 2.63672 L 31.3477 -68.9453 C 31.3477 -75.9766 35.0586 -79.5898 41.8457 -79.5898 L 100.586 -79.5898 L 109.277 -88.2324 L 41.6992 -88.2324 C 29.1016 -88.2324 22.7051 -81.8848 22.7051 -69.3848 L 22.7051 3.125 C 22.7051 15.625 29.1016 21.9238 41.6992 21.9238 Z"/>
  </g>
  <g id="Light-L" transform="matrix(1 0 0 1 1076.25 1556)">
   <path d="M 139.062 -88.5254 L 142.969 -92.4316 C 144.922 -94.4336 144.971 -96.7285 143.115 -98.584 L 142.285 -99.3652 C 140.576 -101.074 138.184 -100.879 136.328 -99.0723 L 132.471 -95.166 Z M 66.3086 -21.2402 L 76.3672 -25.8789 L 135.059 -84.5215 L 128.418 -91.1133 L 69.7754 -32.4707 L 64.8926 -22.6562 C 64.502 -21.875 65.4297 -20.8496 66.3086 -21.2402 Z M 40.8203 20.9473 L 113.916 20.9473 C 124.854 20.9473 130.957 14.7461 130.957 3.07617 L 130.957 -64.1113 L 124.316 -57.4707 L 124.316 2.73438 C 124.316 10.3516 120.117 14.3066 113.721 14.3066 L 40.9668 14.3066 C 33.4473 14.3066 29.4434 10.3516 29.4434 2.73438 L 29.4434 -68.9941 C 29.4434 -76.6113 33.4473 -80.5664 40.9668 -80.5664 L 101.562 -80.5664 L 108.203 -87.207 L 40.8203 -87.207 C 28.9551 -87.207 22.8516 -81.1035 22.8516 -69.3359 L 22.8516 3.07617 C 22.8516 14.8438 28.9551 20.9473 40.8203 20.9473 Z"/>
  </g>
  <g id="Thin-L" transform="matrix(1 0 0 1 780.69 1556)">
   <path d="M 137.598 -89.6973 L 140.967 -93.0664 C 142.773 -94.9219 142.822 -96.582 141.162 -98.2422 L 140.869 -98.5352 C 139.355 -100.049 137.451 -99.8535 135.791 -98.1934 L 132.471 -94.873 Z M 67.0898 -23.5352 L 75.4395 -27.6367 L 134.033 -86.2305 L 128.955 -91.3574 L 70.3613 -32.7637 L 66.1133 -24.5605 C 65.7715 -23.9258 66.4551 -23.291 67.0898 -23.5352 Z M 39.6484 19.6289 L 112.012 19.6289 C 122.705 19.6289 128.467 13.7207 128.467 3.02734 L 128.467 -64.0137 L 124.512 -60.0586 L 124.512 2.83203 C 124.512 11.2793 119.824 15.6738 111.865 15.6738 L 39.7949 15.6738 C 31.3477 15.6738 26.9531 11.2793 26.9531 2.83203 L 26.9531 -69.043 C 26.9531 -77.4902 31.3477 -81.8848 39.7949 -81.8848 L 102.832 -81.8848 L 106.787 -85.791 L 39.6484 -85.791 C 28.7598 -85.791 23.0469 -80.0781 23.0469 -69.2383 L 23.0469 3.02734 C 23.0469 13.8672 28.7598 19.6289 39.6484 19.6289 Z"/>
  </g>
  <g id="Ultralight-L" transform="matrix(1 0 0 1 484.565 1556)">
   <path d="M 136.816 -90.332 L 139.941 -93.4082 C 141.65 -95.1172 141.748 -96.5332 140.186 -98.0957 L 140.137 -98.0957 C 138.721 -99.5117 137.109 -99.3652 135.547 -97.8027 L 132.471 -94.6777 Z M 67.5293 -24.7559 L 74.9512 -28.5645 L 133.496 -87.0605 L 129.199 -91.4551 L 70.6543 -32.959 L 66.6992 -25.5371 C 66.4062 -25 66.9922 -24.5117 67.5293 -24.7559 Z M 39.0137 18.9453 L 111.084 18.9453 C 121.631 18.9453 127.148 13.2324 127.148 2.97852 L 127.148 -63.9648 L 124.609 -61.4258 L 124.609 2.88086 C 124.609 11.7676 119.678 16.3574 110.938 16.3574 L 39.209 16.3574 C 30.2734 16.3574 25.6836 11.7676 25.6836 2.88086 L 25.6836 -69.043 C 25.6836 -77.9297 30.2734 -82.5684 39.209 -82.5684 L 103.516 -82.5684 L 106.055 -85.1074 L 39.0137 -85.1074 C 28.6621 -85.1074 23.1445 -79.5898 23.1445 -69.1895 L 23.1445 2.97852 C 23.1445 13.3789 28.6621 18.9453 39.0137 18.9453 Z"/>
  </g>
  <g id="Black-M" transform="matrix(1 0 0 1 2869.9 1126)">
   <path d="M 111.768 -70.166 L 116.309 -75 C 119.043 -77.9785 119.58 -82.2754 116.797 -85.2051 L 114.941 -87.207 C 112.598 -89.6484 108.154 -88.8184 105.225 -86.0352 L 100.488 -81.4941 Z M 36.1328 13.5742 L 90.8203 13.5742 C 103.076 13.5742 110.352 6.29883 110.352 -5.95703 L 110.352 -54.4922 L 92.0898 -36.2305 L 92.0898 -8.88672 C 92.0898 -5.81055 90.7227 -4.73633 87.8418 -4.73633 L 39.0625 -4.73633 C 36.2305 -4.73633 34.9121 -5.81055 34.9121 -8.88672 L 34.9121 -57.7148 C 34.9121 -60.8398 36.2305 -61.9141 39.0625 -61.9141 L 66.6504 -61.9141 L 84.9121 -80.1758 L 36.1328 -80.1758 C 23.877 -80.1758 16.6016 -72.9004 16.6016 -60.6445 L 16.6016 -5.95703 C 16.6016 6.29883 23.877 13.5742 36.1328 13.5742 Z M 58.2031 -24.1211 L 70.2148 -28.6133 L 108.545 -66.9434 L 97.2656 -78.2715 L 58.8867 -39.9414 L 54.4922 -27.9297 C 53.5645 -25.3906 56.1523 -23.3887 58.2031 -24.1211 Z"/>
  </g>
  <g id="Heavy-M" transform="matrix(1 0 0 1 2573.85 1126)">
   <path d="M 111.182 -71.3867 L 115.479 -75.9277 C 117.969 -78.6133 118.359 -82.4707 115.869 -85.0586 L 114.16 -86.8652 C 112.012 -89.1113 108.057 -88.4277 105.469 -85.9375 L 100.977 -81.5918 Z M 35.3516 12.6465 L 90.625 12.6465 C 102.1 12.6465 108.887 5.85938 108.887 -5.85938 L 108.887 -55.2734 L 93.0664 -39.4531 L 93.0664 -8.20312 C 93.0664 -4.63867 91.3574 -3.22266 88.3789 -3.22266 L 37.6465 -3.22266 C 34.3262 -3.22266 32.666 -4.63867 32.666 -8.20312 L 32.666 -58.5938 C 32.666 -62.1582 34.3262 -63.5742 37.6465 -63.5742 L 69.1895 -63.5742 L 85.0098 -79.3945 L 35.3516 -79.3945 C 23.584 -79.3945 16.8457 -72.6562 16.8457 -60.9375 L 16.8457 -5.85938 C 16.8457 5.85938 23.584 12.6465 35.3516 12.6465 Z M 56.3965 -23.6328 L 67.8223 -28.0273 L 107.861 -68.0664 L 97.6562 -78.2715 L 57.6172 -38.2324 L 53.2227 -26.9043 C 52.3926 -24.7559 54.5898 -22.9492 56.3965 -23.6328 Z"/>
  </g>
  <g id="Bold-M" transform="matrix(1 0 0 1 2277.84 1126)">
   <path d="M 110.547 -72.7539 L 114.551 -76.9531 C 116.748 -79.2969 117.041 -82.666 114.844 -84.9121 L 113.33 -86.4746 C 111.377 -88.4766 107.959 -87.9883 105.713 -85.791 L 101.562 -81.7383 Z M 34.4727 11.5723 L 90.4785 11.5723 C 101.025 11.5723 107.178 5.41992 107.178 -5.76172 L 107.178 -56.1035 L 94.1406 -43.0176 L 94.1406 -7.42188 C 94.1406 -3.32031 92.041 -1.46484 88.9648 -1.46484 L 36.0352 -1.46484 C 32.1777 -1.46484 30.127 -3.32031 30.127 -7.42188 L 30.127 -59.5215 C 30.127 -63.623 32.1777 -65.4785 36.0352 -65.4785 L 72.0215 -65.4785 L 85.1074 -78.5156 L 34.4727 -78.5156 C 23.291 -78.5156 17.041 -72.3633 17.041 -61.2305 L 17.041 -5.76172 C 17.041 5.41992 23.291 11.5723 34.4727 11.5723 Z M 54.3945 -23.0957 L 65.1855 -27.3926 L 107.129 -69.3359 L 98.1445 -78.2715 L 56.2012 -36.3281 L 51.8066 -25.7324 C 51.123 -24.0723 52.9297 -22.5098 54.3945 -23.0957 Z"/>
  </g>
  <g id="Semibold-M" transform="matrix(1 0 0 1 1981.65 1126)">
   <path d="M 110.107 -73.6816 L 113.916 -77.6855 C 115.918 -79.7852 116.113 -82.7637 114.111 -84.8145 L 112.744 -86.2305 C 110.938 -88.0371 107.91 -87.6465 105.908 -85.6934 L 101.953 -81.8359 Z M 53.0273 -22.7051 L 63.3301 -26.9531 L 106.592 -70.2148 L 98.4375 -78.3203 L 55.2246 -35.0586 L 50.8301 -24.9512 C 50.2441 -23.584 51.709 -22.168 53.0273 -22.7051 Z M 33.8867 10.8887 L 90.3809 10.8887 C 100.244 10.8887 106.055 5.12695 106.055 -5.66406 L 106.055 -56.6895 L 94.873 -45.5078 L 94.873 -6.88477 C 94.873 -2.44141 92.5293 -0.292969 89.3555 -0.292969 L 34.9121 -0.292969 C 30.6641 -0.292969 28.418 -2.44141 28.418 -6.88477 L 28.418 -60.2051 C 28.418 -64.6484 30.6641 -66.748 34.9121 -66.748 L 73.9746 -66.748 L 85.1562 -77.9297 L 33.8867 -77.9297 C 23.0469 -77.9297 17.2363 -72.168 17.2363 -61.4258 L 17.2363 -5.66406 C 17.2363 5.12695 23.0469 10.8887 33.8867 10.8887 Z"/>
  </g>
  <g id="Medium-M" transform="matrix(1 0 0 1 1685.3 1126)">
   <path d="M 109.766 -74.3652 L 113.428 -78.2227 C 115.283 -80.1758 115.43 -82.8613 113.574 -84.7168 L 112.305 -86.0352 C 110.645 -87.6953 107.861 -87.4512 106.055 -85.6445 L 102.246 -81.9336 Z M 51.9531 -22.4121 L 61.9629 -26.6113 L 106.201 -70.8496 L 98.6816 -78.3203 L 54.4434 -34.0332 L 50.0488 -24.3652 C 49.5605 -23.2422 50.8301 -21.9727 51.9531 -22.4121 Z M 33.3984 10.3516 L 90.2832 10.3516 C 99.6582 10.3516 105.176 4.88281 105.176 -5.56641 L 105.176 -57.1289 L 95.4102 -47.4121 L 95.4102 -6.44531 C 95.4102 -1.75781 92.9199 0.585938 89.6484 0.585938 L 34.0332 0.585938 C 29.541 0.585938 27.0996 -1.75781 27.0996 -6.44531 L 27.0996 -60.6934 C 27.0996 -65.3809 29.541 -67.7246 34.0332 -67.7246 L 75.4883 -67.7246 L 85.2051 -77.4902 L 33.3984 -77.4902 C 22.8516 -77.4902 17.334 -72.0215 17.334 -61.5723 L 17.334 -5.56641 C 17.334 4.88281 22.8516 10.3516 33.3984 10.3516 Z"/>
  </g>
  <g id="Regular-M" transform="matrix(1 0 0 1 1389.1 1126)">
   <path d="M 109.326 -75.293 L 112.842 -78.9062 C 114.502 -80.6641 114.502 -83.0078 112.842 -84.6191 L 111.719 -85.791 C 110.205 -87.3047 107.812 -87.1094 106.201 -85.5469 L 102.637 -82.0312 Z M 50.5859 -22.0215 L 60.1074 -26.1719 L 105.713 -71.7285 L 99.0234 -78.3203 L 53.4668 -32.7637 L 49.0723 -23.584 C 48.6816 -22.7539 49.6582 -21.6309 50.5859 -22.0215 Z M 32.8125 9.61914 L 90.1367 9.61914 C 98.9258 9.61914 104.004 4.54102 104.004 -5.51758 L 104.004 -57.7148 L 96.1426 -49.8535 L 96.1426 -5.9082 C 96.1426 -0.830078 93.4082 1.75781 90.0391 1.75781 L 32.959 1.75781 C 28.0762 1.75781 25.3418 -0.830078 25.3418 -5.9082 L 25.3418 -61.3281 C 25.3418 -66.4062 28.0762 -69.043 32.959 -69.043 L 77.4414 -69.043 L 85.3027 -76.9043 L 32.8125 -76.9043 C 22.6562 -76.9043 17.4805 -71.8262 17.4805 -61.7676 L 17.4805 -5.51758 C 17.4805 4.58984 22.6562 9.61914 32.8125 9.61914 Z"/>
  </g>
  <g id="Light-M" transform="matrix(1 0 0 1 1093.15 1126)">
   <path d="M 108.301 -76.123 L 111.475 -79.3457 C 113.037 -80.957 113.037 -82.9102 111.572 -84.4238 L 110.742 -85.2051 C 109.375 -86.6211 107.324 -86.4258 105.859 -84.9609 L 102.637 -81.7871 Z M 51.123 -23.584 L 59.5215 -27.3438 L 104.98 -72.8516 L 99.3652 -78.4668 L 53.9062 -32.959 L 49.9023 -24.8535 C 49.5605 -24.1699 50.3906 -23.291 51.123 -23.584 Z M 32.0312 8.74023 L 88.916 8.74023 C 97.4609 8.74023 102.344 3.85742 102.344 -5.51758 L 102.344 -57.6172 L 96.2891 -51.6113 L 96.2891 -5.85938 C 96.2891 -0.195312 93.1641 2.68555 88.7695 2.68555 L 32.1289 2.68555 C 26.6602 2.68555 23.6816 -0.195312 23.6816 -5.85938 L 23.6816 -61.377 C 23.6816 -66.9922 26.6602 -69.9219 32.1289 -69.9219 L 78.2715 -69.9219 L 84.3262 -75.9766 L 32.0312 -75.9766 C 22.5098 -75.9766 17.627 -71.1426 17.627 -61.6699 L 17.627 -5.51758 C 17.627 3.90625 22.5098 8.74023 32.0312 8.74023 Z"/>
  </g>
  <g id="Thin-M" transform="matrix(1 0 0 1 797.487 1126)">
   <path d="M 106.934 -77.1973 L 109.668 -79.9316 C 111.084 -81.3477 111.133 -82.8125 109.814 -84.1309 L 109.473 -84.4727 C 108.252 -85.6934 106.689 -85.5469 105.371 -84.2285 L 102.637 -81.4941 Z M 51.8555 -25.6836 L 58.6426 -28.9551 L 104.102 -74.3652 L 99.8047 -78.6621 L 54.3945 -33.252 L 50.9766 -26.5625 C 50.6836 -26.0254 51.3184 -25.4395 51.8555 -25.6836 Z M 30.957 7.56836 L 87.207 7.56836 C 95.5566 7.56836 100.098 2.92969 100.098 -5.56641 L 100.098 -57.5684 L 96.4355 -53.9062 L 96.4355 -5.76172 C 96.4355 0.634766 92.9199 3.90625 87.1094 3.90625 L 31.1035 3.90625 C 24.7559 3.90625 21.4355 0.634766 21.4355 -5.76172 L 21.4355 -61.4258 C 21.4355 -67.7734 24.7559 -71.0938 31.1035 -71.0938 L 79.4434 -71.0938 L 83.0566 -74.707 L 30.957 -74.707 C 22.3145 -74.707 17.8223 -70.2148 17.8223 -61.6211 L 17.8223 -5.56641 C 17.8223 3.02734 22.3145 7.56836 30.957 7.56836 Z"/>
  </g>
  <g id="Ultralight-M" transform="matrix(1 0 0 1 501.288 1126)">
   <path d="M 106.25 -77.7344 L 108.74 -80.2246 C 110.107 -81.5918 110.156 -82.7637 108.936 -83.9844 L 108.838 -84.082 C 107.715 -85.2051 106.348 -85.0586 105.127 -83.8379 L 102.637 -81.3477 Z M 52.1973 -26.7578 L 58.252 -29.7852 L 103.613 -75.1465 L 100.049 -78.7598 L 54.6875 -33.3984 L 51.5137 -27.3926 C 51.2695 -27.002 51.7578 -26.5625 52.1973 -26.7578 Z M 30.4199 6.93359 L 86.377 6.93359 C 94.5801 6.93359 98.9258 2.49023 98.9258 -5.61523 L 98.9258 -57.5195 L 96.5332 -55.127 L 96.5332 -5.71289 C 96.5332 1.02539 92.7734 4.54102 86.2305 4.54102 L 30.5664 4.54102 C 23.7793 4.54102 20.2637 1.02539 20.2637 -5.71289 L 20.2637 -61.4258 C 20.2637 -68.2129 23.7793 -71.7285 30.5664 -71.7285 L 80.0293 -71.7285 L 82.4219 -74.1211 L 30.4199 -74.1211 C 22.2656 -74.1211 17.8711 -69.7266 17.8711 -61.5723 L 17.8711 -5.61523 C 17.8711 2.58789 22.2656 6.93359 30.4199 6.93359 Z"/>
  </g>
  <g id="Black-S" transform="matrix(1 0 0 1 2883.69 696)">
   <path d="M 87.5488 -62.6953 L 91.0645 -66.4551 C 93.2129 -68.75 93.6035 -72.1191 91.4551 -74.3652 L 89.9902 -75.9277 C 88.1836 -77.832 84.7168 -77.1973 82.4707 -75.0488 L 78.7598 -71.4844 Z M 28.2715 2.92969 L 71.1426 2.92969 C 80.7129 2.92969 86.377 -2.73438 86.377 -12.3047 L 86.377 -50.3906 L 72.2168 -36.2305 L 72.2168 -14.5508 C 72.2168 -12.1094 71.1426 -11.2305 68.8965 -11.2305 L 30.5176 -11.2305 C 28.2715 -11.2305 27.1973 -12.1094 27.1973 -14.5508 L 27.1973 -52.9297 C 27.1973 -55.3711 28.2715 -56.25 30.5176 -56.25 L 52.3926 -56.25 L 66.5527 -70.4102 L 28.2715 -70.4102 C 18.7012 -70.4102 13.0371 -64.7461 13.0371 -55.1758 L 13.0371 -12.3047 C 13.0371 -2.73438 18.7012 2.92969 28.2715 2.92969 Z M 45.459 -26.4648 L 54.834 -29.9805 L 85.0098 -60.1562 L 76.2207 -68.9453 L 46.0449 -38.7695 L 42.5781 -29.3945 C 41.8457 -27.4414 43.8477 -25.8789 45.459 -26.4648 Z"/>
  </g>
  <g id="Heavy-S" transform="matrix(1 0 0 1 2587.4 696)">
   <path d="M 87.207 -63.5254 L 90.5762 -67.1387 C 92.5293 -69.1895 92.8711 -72.2656 90.8691 -74.2676 L 89.502 -75.7324 C 87.8418 -77.4902 84.7168 -76.9531 82.666 -75 L 79.1504 -71.582 Z M 27.7344 2.34375 L 71.1426 2.34375 C 80.127 2.34375 85.4004 -2.97852 85.4004 -12.207 L 85.4004 -50.9766 L 72.9492 -38.4766 L 72.9492 -14.0137 C 72.9492 -11.2793 71.6309 -10.1562 69.4336 -10.1562 L 29.4922 -10.1562 C 26.9531 -10.1562 25.6836 -11.2793 25.6836 -14.0137 L 25.6836 -53.5645 C 25.6836 -56.2988 26.9531 -57.4219 29.4922 -57.4219 L 54.248 -57.4219 L 66.748 -69.9219 L 27.7344 -69.9219 C 18.5059 -69.9219 13.1836 -64.6484 13.1836 -55.3711 L 13.1836 -12.207 C 13.1836 -2.97852 18.5059 2.34375 27.7344 2.34375 Z M 44.043 -25.9277 L 53.0762 -29.3945 L 84.5703 -60.8887 L 76.5137 -68.9453 L 45.0195 -37.4512 L 41.5039 -28.4668 C 40.8691 -26.8066 42.627 -25.3906 44.043 -25.9277 Z"/>
  </g>
  <g id="Bold-S" transform="matrix(1 0 0 1 2291.13 696)">
   <path d="M 86.8164 -64.4531 L 90.0391 -67.8711 C 91.7969 -69.7266 91.9922 -72.4121 90.2344 -74.2188 L 88.9648 -75.5371 C 87.4512 -77.0996 84.7168 -76.709 82.9102 -75 L 79.5898 -71.7285 Z M 27.1973 1.66016 L 71.1914 1.66016 C 79.4434 1.66016 84.3262 -3.22266 84.3262 -12.1094 L 84.3262 -51.6113 L 73.7305 -41.0156 L 73.7305 -13.4277 C 73.7305 -10.3516 72.2168 -8.98438 70.0195 -8.98438 L 28.3691 -8.98438 C 25.4883 -8.98438 23.9258 -10.3516 23.9258 -13.4277 L 23.9258 -54.2969 C 23.9258 -57.373 25.4883 -58.7402 28.3691 -58.7402 L 56.2988 -58.7402 L 66.8945 -69.3848 L 27.1973 -69.3848 C 18.2617 -69.3848 13.3301 -64.502 13.3301 -55.6152 L 13.3301 -12.1094 C 13.3301 -3.22266 18.2617 1.66016 27.1973 1.66016 Z M 42.4316 -25.293 L 51.123 -28.7598 L 84.082 -61.7188 L 76.8066 -68.9453 L 43.8965 -35.9863 L 40.332 -27.4414 C 39.7949 -26.123 41.2109 -24.8535 42.4316 -25.293 Z"/>
  </g>
  <g id="Semibold-S" transform="matrix(1 0 0 1 1994.73 696)">
   <path d="M 86.5723 -65.0879 L 89.6973 -68.3594 C 91.3086 -70.0684 91.4062 -72.5098 89.7949 -74.1211 L 88.623 -75.3906 C 87.207 -76.8066 84.7168 -76.5137 83.1055 -74.9512 L 79.8828 -71.8262 Z M 26.8066 1.17188 L 71.1914 1.17188 C 79.0039 1.17188 83.5938 -3.41797 83.5938 -12.0605 L 83.5938 -52.0996 L 74.3164 -42.7734 L 74.3164 -12.9883 C 74.3164 -9.7168 72.6074 -8.1543 70.4102 -8.1543 L 27.5879 -8.1543 C 24.4629 -8.1543 22.7539 -9.7168 22.7539 -12.9883 L 22.7539 -54.7852 C 22.7539 -58.1055 24.4629 -59.668 27.5879 -59.668 L 57.7637 -59.668 L 67.041 -68.9941 L 26.8066 -68.9941 C 18.0664 -68.9941 13.4277 -64.4043 13.4277 -55.7617 L 13.4277 -12.0605 C 13.4277 -3.41797 18.0664 1.17188 26.8066 1.17188 Z M 41.3086 -24.8535 L 49.7559 -28.3203 L 83.7402 -62.2559 L 77.002 -68.9453 L 43.0664 -34.9609 L 39.502 -26.709 C 39.0625 -25.6348 40.2344 -24.4629 41.3086 -24.8535 Z"/>
  </g>
  <g id="Medium-S" transform="matrix(1 0 0 1 1698.26 696)">
   <path d="M 86.377 -65.625 L 89.4043 -68.75 C 90.918 -70.3125 90.9668 -72.6074 89.502 -74.1211 L 88.3301 -75.2441 C 87.0117 -76.6113 84.7168 -76.3672 83.2031 -74.9512 L 80.127 -71.875 Z M 40.4785 -24.5605 L 48.7305 -27.9785 L 83.4961 -62.6953 L 77.1973 -68.9453 L 42.4805 -34.1797 L 38.8672 -26.1719 C 38.4766 -25.2441 39.5508 -24.1699 40.4785 -24.5605 Z M 26.4648 0.830078 L 71.2402 0.830078 C 78.6621 0.830078 83.0566 -3.56445 83.0566 -12.0117 L 83.0566 -52.4414 L 74.707 -44.0918 L 74.707 -12.6953 C 74.707 -9.22852 72.9004 -7.51953 70.752 -7.51953 L 26.9531 -7.51953 C 23.6816 -7.51953 21.875 -9.22852 21.875 -12.6953 L 21.875 -55.1758 C 21.875 -58.6426 23.6816 -60.3516 26.9531 -60.3516 L 58.8379 -60.3516 L 67.1387 -68.7012 L 26.4648 -68.7012 C 17.9688 -68.7012 13.5254 -64.3555 13.5254 -55.9082 L 13.5254 -12.0117 C 13.5254 -3.51562 17.9688 0.830078 26.4648 0.830078 Z"/>
  </g>
  <g id="Regular-S" transform="matrix(1 0 0 1 1401.87 696)">
   <path d="M 86.1328 -66.2598 L 89.0625 -69.2383 C 90.3809 -70.6543 90.3809 -72.7051 89.0625 -74.0234 L 87.9883 -75.0977 C 86.7188 -76.3672 84.668 -76.2207 83.3984 -74.9023 L 80.4199 -71.9727 Z M 39.4043 -24.1211 L 47.4121 -27.5391 L 83.1543 -63.2812 L 77.3926 -68.8965 L 41.6992 -33.2031 L 38.0859 -25.4883 C 37.7441 -24.7559 38.5742 -23.7793 39.4043 -24.1211 Z M 26.0742 0.341797 L 71.2402 0.341797 C 78.1738 0.341797 82.3242 -3.71094 82.3242 -11.9141 L 82.3242 -52.8809 L 75.2441 -45.8496 L 75.2441 -12.3047 C 75.2441 -8.59375 73.2422 -6.68945 71.1426 -6.68945 L 26.1719 -6.68945 C 22.6562 -6.68945 20.7031 -8.59375 20.7031 -12.3047 L 20.7031 -55.6641 C 20.7031 -59.375 22.6562 -61.2793 26.1719 -61.2793 L 60.2539 -61.2793 L 67.2852 -68.3105 L 26.0742 -68.3105 C 17.8223 -68.3105 13.623 -64.2578 13.623 -56.0547 L 13.623 -11.9141 C 13.623 -3.71094 17.8223 0.341797 26.0742 0.341797 Z"/>
  </g>
  <g id="Light-S" transform="matrix(1 0 0 1 1105.84 696)">
   <path d="M 85.2051 -66.9434 L 87.8418 -69.6289 C 89.1113 -70.9473 89.1113 -72.6074 87.8906 -73.8281 L 87.1582 -74.6094 C 85.9863 -75.7324 84.2773 -75.6348 83.0566 -74.4141 L 80.4199 -71.7773 Z M 39.8438 -25.5371 L 46.875 -28.6133 L 82.5195 -64.2578 L 77.6855 -69.043 L 42.041 -33.3984 L 38.7695 -26.6113 C 38.4766 -26.0254 39.209 -25.2441 39.8438 -25.5371 Z M 25.3906 -0.439453 L 70.1172 -0.439453 C 76.9043 -0.439453 80.8105 -4.3457 80.8105 -11.9629 L 80.8105 -52.832 L 75.3906 -47.3633 L 75.3906 -12.2559 C 75.3906 -8.05664 73.0957 -5.85938 70.0195 -5.85938 L 25.4883 -5.85938 C 21.4355 -5.85938 19.1895 -8.05664 19.1895 -12.2559 L 19.1895 -55.7129 C 19.1895 -59.9121 21.4355 -62.0605 25.4883 -62.0605 L 60.9863 -62.0605 L 66.4551 -67.4805 L 25.3906 -67.4805 C 17.6758 -67.4805 13.7695 -63.623 13.7695 -56.0059 L 13.7695 -11.9629 C 13.7695 -4.29688 17.6758 -0.439453 25.3906 -0.439453 Z"/>
  </g>
  <g id="Thin-S" transform="matrix(1 0 0 1 810.036 696)">
   <path d="M 84.0332 -67.9199 L 86.2793 -70.1172 C 87.4023 -71.2891 87.4512 -72.5098 86.377 -73.584 L 86.0352 -73.9746 C 85.0586 -74.9512 83.6914 -74.8047 82.666 -73.7793 L 80.4199 -71.5332 Z M 40.4785 -27.3438 L 46.1426 -30.0293 L 81.7383 -65.625 L 78.125 -69.2383 L 42.5293 -33.6426 L 39.7461 -28.125 C 39.502 -27.6855 39.9902 -27.1484 40.4785 -27.3438 Z M 24.4629 -1.46484 L 68.6523 -1.46484 C 75.2441 -1.46484 78.8574 -5.12695 78.8574 -11.9629 L 78.8574 -52.7344 L 75.5371 -49.4141 L 75.5371 -12.1582 C 75.5371 -7.32422 72.8516 -4.78516 68.5547 -4.78516 L 24.5605 -4.78516 C 19.7754 -4.78516 17.2363 -7.32422 17.2363 -12.1582 L 17.2363 -55.7129 C 17.2363 -60.5957 19.7754 -63.0859 24.5605 -63.0859 L 62.0117 -63.0859 L 65.332 -66.4062 L 24.4629 -66.4062 C 17.5293 -66.4062 13.916 -62.8418 13.916 -55.9082 L 13.916 -11.9629 C 13.916 -5.07812 17.5293 -1.46484 24.4629 -1.46484 Z"/>
  </g>
  <g id="Ultralight-S" transform="matrix(1 0 0 1 513.813 696)">
   <path d="M 83.4473 -68.4082 L 85.4492 -70.4102 C 86.5234 -71.4844 86.5723 -72.4609 85.5957 -73.4863 L 85.4492 -73.6328 C 84.5215 -74.5117 83.3984 -74.4141 82.4219 -73.4375 L 80.4199 -71.4355 Z M 40.8203 -28.3203 L 45.752 -30.7617 L 81.2988 -66.3086 L 78.3203 -69.3359 L 42.7734 -33.7402 L 40.2344 -28.8574 C 40.0391 -28.5156 40.4297 -28.125 40.8203 -28.3203 Z M 23.9746 -2.00195 L 67.9199 -2.00195 C 74.3652 -2.00195 77.832 -5.56641 77.832 -12.0117 L 77.832 -52.6855 L 75.6348 -50.4883 L 75.6348 -12.1094 C 75.6348 -6.93359 72.7539 -4.24805 67.8223 -4.24805 L 24.0723 -4.24805 C 18.8965 -4.24805 16.2109 -6.93359 16.2109 -12.1094 L 16.2109 -55.7617 C 16.2109 -60.9375 18.8965 -63.623 24.0723 -63.623 L 62.5488 -63.623 L 64.7461 -65.8691 L 23.9746 -65.8691 C 17.4316 -65.8691 14.0137 -62.4023 14.0137 -55.8594 L 14.0137 -12.0117 C 14.0137 -5.46875 17.4316 -2.00195 23.9746 -2.00195 Z"/>
  </g>
 </g>
</svg>
