<?xml version="1.0" encoding="UTF-8"?>
<!--Generator: Apple Native CoreSVG 123-->
<!DOCTYPE svg
PUBLIC "-//W3C//DTD SVG 1.1//EN"
       "http://www.w3.org/Graphics/SVG/1.1/DTD/svg11.dtd">
<svg version="1.1" xmlns="http://www.w3.org/2000/svg" xmlns:xlink="http://www.w3.org/1999/xlink" width="3300" height="2200">
 <!--glyph: "uni10071F.medium", point size: 100.000000, font version: "Version 15.0d7e11", template writer version: "5"-->
 <g id="Notes">
  <rect height="2200" id="artboard" style="fill:white;opacity:1" width="3300" x="0" y="0"/>
  <line id="" style="fill:none;stroke:black;opacity:1;stroke-width:0.5;" x1="263" x2="3036" y1="292" y2="292"/>
  <text style="stroke:none;fill:black;font-family:-apple-system,&quot;SF Pro Display&quot;,&quot;SF Pro Text&quot;,Helvetica,sans-serif;font-weight:bold;" transform="matrix(1 0 0 1 263 322)">Weight/Scale Variations</text>
  <text style="stroke:none;fill:black;font-family:-apple-system,&quot;SF Pro Display&quot;,&quot;SF Pro Text&quot;,Helvetica,sans-serif;text-anchor:middle;" transform="matrix(1 0 0 1 559.711 322)">Ultralight</text>
  <text style="stroke:none;fill:black;font-family:-apple-system,&quot;SF Pro Display&quot;,&quot;SF Pro Text&quot;,Helvetica,sans-serif;text-anchor:middle;" transform="matrix(1 0 0 1 856.422 322)">Thin</text>
  <text style="stroke:none;fill:black;font-family:-apple-system,&quot;SF Pro Display&quot;,&quot;SF Pro Text&quot;,Helvetica,sans-serif;text-anchor:middle;" transform="matrix(1 0 0 1 1153.13 322)">Light</text>
  <text style="stroke:none;fill:black;font-family:-apple-system,&quot;SF Pro Display&quot;,&quot;SF Pro Text&quot;,Helvetica,sans-serif;text-anchor:middle;" transform="matrix(1 0 0 1 1449.84 322)">Regular</text>
  <text style="stroke:none;fill:black;font-family:-apple-system,&quot;SF Pro Display&quot;,&quot;SF Pro Text&quot;,Helvetica,sans-serif;text-anchor:middle;" transform="matrix(1 0 0 1 1746.56 322)">Medium</text>
  <text style="stroke:none;fill:black;font-family:-apple-system,&quot;SF Pro Display&quot;,&quot;SF Pro Text&quot;,Helvetica,sans-serif;text-anchor:middle;" transform="matrix(1 0 0 1 2043.27 322)">Semibold</text>
  <text style="stroke:none;fill:black;font-family:-apple-system,&quot;SF Pro Display&quot;,&quot;SF Pro Text&quot;,Helvetica,sans-serif;text-anchor:middle;" transform="matrix(1 0 0 1 2339.98 322)">Bold</text>
  <text style="stroke:none;fill:black;font-family:-apple-system,&quot;SF Pro Display&quot;,&quot;SF Pro Text&quot;,Helvetica,sans-serif;text-anchor:middle;" transform="matrix(1 0 0 1 2636.69 322)">Heavy</text>
  <text style="stroke:none;fill:black;font-family:-apple-system,&quot;SF Pro Display&quot;,&quot;SF Pro Text&quot;,Helvetica,sans-serif;text-anchor:middle;" transform="matrix(1 0 0 1 2933.4 322)">Black</text>
  <line id="" style="fill:none;stroke:black;opacity:1;stroke-width:0.5;" x1="263" x2="3036" y1="1903" y2="1903"/>
  <g id="" transform="matrix(1 0 0 1 263 1933)">
   <path d="M 9.24805 0.830078 C 13.5547 0.830078 17.1387 -2.74414 17.1387 -7.05078 C 17.1387 -11.3574 13.5449 -14.9316 9.23828 -14.9316 C 4.94141 -14.9316 1.36719 -11.3574 1.36719 -7.05078 C 1.36719 -2.74414 4.95117 0.830078 9.24805 0.830078 Z M 9.24805 -0.654297 C 5.70312 -0.654297 2.87109 -3.49609 2.87109 -7.05078 C 2.87109 -10.6055 5.69336 -13.4473 9.23828 -13.4473 C 12.793 -13.4473 15.6348 -10.6055 15.6445 -7.05078 C 15.6543 -3.49609 12.8027 -0.654297 9.24805 -0.654297 Z M 9.22852 -3.42773 C 9.69727 -3.42773 9.9707 -3.74023 9.9707 -4.25781 L 9.9707 -6.31836 L 12.1973 -6.31836 C 12.6953 -6.31836 13.0371 -6.57227 13.0371 -7.04102 C 13.0371 -7.51953 12.7148 -7.7832 12.1973 -7.7832 L 9.9707 -7.7832 L 9.9707 -10.0098 C 9.9707 -10.5273 9.69727 -10.8496 9.22852 -10.8496 C 8.75977 -10.8496 8.50586 -10.5078 8.50586 -10.0098 L 8.50586 -7.7832 L 6.29883 -7.7832 C 5.78125 -7.7832 5.44922 -7.51953 5.44922 -7.04102 C 5.44922 -6.57227 5.80078 -6.31836 6.29883 -6.31836 L 8.50586 -6.31836 L 8.50586 -4.25781 C 8.50586 -3.75977 8.75977 -3.42773 9.22852 -3.42773 Z"/>
  </g>
  <g id="" transform="matrix(1 0 0 1 281.506 1933)">
   <path d="M 11.709 2.91016 C 17.1582 2.91016 21.6699 -1.60156 21.6699 -7.05078 C 21.6699 -12.4902 17.1484 -17.0117 11.6992 -17.0117 C 6.25977 -17.0117 1.74805 -12.4902 1.74805 -7.05078 C 1.74805 -1.60156 6.26953 2.91016 11.709 2.91016 Z M 11.709 1.25 C 7.09961 1.25 3.41797 -2.44141 3.41797 -7.05078 C 3.41797 -11.6504 7.08984 -15.3516 11.6992 -15.3516 C 16.3086 -15.3516 20 -11.6504 20.0098 -7.05078 C 20.0195 -2.44141 16.3184 1.25 11.709 1.25 Z M 11.6895 -2.41211 C 12.207 -2.41211 12.5195 -2.77344 12.5195 -3.33984 L 12.5195 -6.23047 L 15.5762 -6.23047 C 16.123 -6.23047 16.5039 -6.51367 16.5039 -7.03125 C 16.5039 -7.55859 16.1426 -7.86133 15.5762 -7.86133 L 12.5195 -7.86133 L 12.5195 -10.9277 C 12.5195 -11.5039 12.207 -11.8555 11.6895 -11.8555 C 11.1719 -11.8555 10.8789 -11.4844 10.8789 -10.9277 L 10.8789 -7.86133 L 7.83203 -7.86133 C 7.26562 -7.86133 6.89453 -7.55859 6.89453 -7.03125 C 6.89453 -6.51367 7.28516 -6.23047 7.83203 -6.23047 L 10.8789 -6.23047 L 10.8789 -3.33984 C 10.8789 -2.79297 11.1719 -2.41211 11.6895 -2.41211 Z"/>
  </g>
  <g id="" transform="matrix(1 0 0 1 304.924 1933)">
   <path d="M 14.9707 5.67383 C 21.9336 5.67383 27.6953 -0.078125 27.6953 -7.04102 C 27.6953 -14.0039 21.9238 -19.7559 14.9609 -19.7559 C 8.00781 -19.7559 2.25586 -14.0039 2.25586 -7.04102 C 2.25586 -0.078125 8.01758 5.67383 14.9707 5.67383 Z M 14.9707 3.85742 C 8.93555 3.85742 4.08203 -1.00586 4.08203 -7.04102 C 4.08203 -13.0762 8.92578 -17.9395 14.9609 -17.9395 C 21.0059 -17.9395 25.8594 -13.0762 25.8691 -7.04102 C 25.8789 -1.00586 21.0156 3.85742 14.9707 3.85742 Z M 14.9512 -1.06445 C 15.5176 -1.06445 15.8691 -1.45508 15.8691 -2.06055 L 15.8691 -6.13281 L 20.1074 -6.13281 C 20.6934 -6.13281 21.1133 -6.46484 21.1133 -7.02148 C 21.1133 -7.59766 20.7227 -7.93945 20.1074 -7.93945 L 15.8691 -7.93945 L 15.8691 -12.1875 C 15.8691 -12.8027 15.5176 -13.1934 14.9512 -13.1934 C 14.3848 -13.1934 14.0625 -12.7832 14.0625 -12.1875 L 14.0625 -7.93945 L 9.83398 -7.93945 C 9.21875 -7.93945 8.80859 -7.59766 8.80859 -7.02148 C 8.80859 -6.46484 9.23828 -6.13281 9.83398 -6.13281 L 14.0625 -6.13281 L 14.0625 -2.06055 C 14.0625 -1.47461 14.3848 -1.06445 14.9512 -1.06445 Z"/>
  </g>
  <text style="stroke:none;fill:black;font-family:-apple-system,&quot;SF Pro Display&quot;,&quot;SF Pro Text&quot;,Helvetica,sans-serif;font-weight:bold;" transform="matrix(1 0 0 1 263 1953)">Design Variations</text>
  <text style="stroke:none;fill:black;font-family:-apple-system,&quot;SF Pro Display&quot;,&quot;SF Pro Text&quot;,Helvetica,sans-serif;" transform="matrix(1 0 0 1 263 1971)">Symbols are supported in up to nine weights and three scales.</text>
  <text style="stroke:none;fill:black;font-family:-apple-system,&quot;SF Pro Display&quot;,&quot;SF Pro Text&quot;,Helvetica,sans-serif;" transform="matrix(1 0 0 1 263 1989)">For optimal layout with text and other symbols, vertically align</text>
  <text style="stroke:none;fill:black;font-family:-apple-system,&quot;SF Pro Display&quot;,&quot;SF Pro Text&quot;,Helvetica,sans-serif;" transform="matrix(1 0 0 1 263 2007)">symbols with the adjacent text.</text>
  <rect height="14" id="" style="fill:#00AEEF;stroke:none;opacity:0.4;" width="3" x="776" y="1919"/>
  <g id="" transform="matrix(1 0 0 1 779 1933)">
   <path d="M 10.5273 0 L 12.373 0 L 7.17773 -14.0918 L 5.43945 -14.0918 L 0.244141 0 L 2.08984 0 L 3.50586 -4.0332 L 9.11133 -4.0332 Z M 6.2793 -11.9531 L 6.33789 -11.9531 L 8.59375 -5.52734 L 4.02344 -5.52734 Z"/>
  </g>
  <rect height="14" id="" style="fill:#00AEEF;stroke:none;opacity:0.4;" width="3" x="791.617" y="1919"/>
  <text style="stroke:none;fill:black;font-family:-apple-system,&quot;SF Pro Display&quot;,&quot;SF Pro Text&quot;,Helvetica,sans-serif;font-weight:bold;" transform="matrix(1 0 0 1 776 1953)">Margins</text>
  <text style="stroke:none;fill:black;font-family:-apple-system,&quot;SF Pro Display&quot;,&quot;SF Pro Text&quot;,Helvetica,sans-serif;" transform="matrix(1 0 0 1 776 1971)">Leading and trailing margins on the left and right side of each symbol</text>
  <text style="stroke:none;fill:black;font-family:-apple-system,&quot;SF Pro Display&quot;,&quot;SF Pro Text&quot;,Helvetica,sans-serif;" transform="matrix(1 0 0 1 776 1989)">can be adjusted by modifying the width of the blue rectangles.</text>
  <text style="stroke:none;fill:black;font-family:-apple-system,&quot;SF Pro Display&quot;,&quot;SF Pro Text&quot;,Helvetica,sans-serif;" transform="matrix(1 0 0 1 776 2007)">Modifications are automatically applied proportionally to all</text>
  <text style="stroke:none;fill:black;font-family:-apple-system,&quot;SF Pro Display&quot;,&quot;SF Pro Text&quot;,Helvetica,sans-serif;" transform="matrix(1 0 0 1 776 2025)">scales and weights.</text>
  <g id="" transform="matrix(1 0 0 1 1289 1933)">
   <path d="M 2.83203 3.11523 L 4.375 4.6582 C 5.22461 5.48828 6.19141 5.41992 7.06055 4.46289 L 17.2754 -6.66016 C 17.7051 -6.36719 18.0957 -6.37695 18.5645 -6.47461 L 19.6094 -6.68945 L 20.3027 -5.99609 L 20.2539 -5.47852 C 20.1855 -4.95117 20.3516 -4.53125 20.8496 -4.0332 L 21.6602 -3.22266 C 22.168 -2.71484 22.8223 -2.68555 23.3008 -3.16406 L 26.5527 -6.41602 C 27.0312 -6.89453 27.0117 -7.54883 26.5039 -8.05664 L 25.6836 -8.87695 C 25.1855 -9.375 24.7754 -9.55078 24.2383 -9.47266 L 23.7109 -9.41406 L 23.0566 -10.0781 L 23.3398 -11.2207 C 23.4863 -11.7871 23.3398 -12.2559 22.7148 -12.8613 L 20.3027 -15.2539 C 16.7578 -18.7793 12.2266 -18.6719 9.11133 -15.5371 C 8.69141 -15.1074 8.64258 -14.5215 8.91602 -14.0918 C 9.15039 -13.7207 9.62891 -13.4961 10.2734 -13.6621 C 11.7871 -14.043 13.3008 -13.9258 14.7852 -12.9199 L 14.1602 -11.3379 C 13.9258 -10.752 13.9453 -10.2734 14.1797 -9.83398 L 3.01758 0.439453 C 2.08008 1.30859 1.97266 2.25586 2.83203 3.11523 Z M 10.6738 -15.1465 C 13.3398 -17.1387 16.6504 -16.8262 19.0527 -14.4141 L 21.6797 -11.8066 C 21.9141 -11.5723 21.9434 -11.3867 21.8848 -11.0938 L 21.5039 -9.53125 L 23.0762 -7.95898 L 24.043 -8.04688 C 24.3262 -8.07617 24.4141 -8.05664 24.6387 -7.83203 L 25.2637 -7.20703 L 22.5098 -4.46289 L 21.8848 -5.07812 C 21.6602 -5.30273 21.6406 -5.40039 21.6699 -5.68359 L 21.7578 -6.64062 L 20.1953 -8.20312 L 18.5742 -7.89062 C 18.291 -7.83203 18.1445 -7.83203 17.9102 -8.07617 L 15.7324 -10.2539 C 15.5078 -10.4883 15.4785 -10.625 15.6055 -10.9473 L 16.5527 -13.2227 C 14.9512 -14.7559 12.8418 -15.6055 10.8008 -14.9512 C 10.7129 -14.9219 10.6445 -14.9414 10.6152 -14.9805 C 10.5859 -15.0293 10.5859 -15.0781 10.6738 -15.1465 Z M 4.10156 2.41211 C 3.61328 1.91406 3.78906 1.61133 4.12109 1.30859 L 15.0781 -8.80859 L 16.3086 -7.57812 L 6.15234 3.34961 C 5.84961 3.68164 5.46875 3.7793 5.06836 3.37891 Z"/>
  </g>
  <text style="stroke:none;fill:black;font-family:-apple-system,&quot;SF Pro Display&quot;,&quot;SF Pro Text&quot;,Helvetica,sans-serif;font-weight:bold;" transform="matrix(1 0 0 1 1289 1953)">Exporting</text>
  <text style="stroke:none;fill:black;font-family:-apple-system,&quot;SF Pro Display&quot;,&quot;SF Pro Text&quot;,Helvetica,sans-serif;" transform="matrix(1 0 0 1 1289 1971)">Symbols should be outlined when exporting to ensure the</text>
  <text style="stroke:none;fill:black;font-family:-apple-system,&quot;SF Pro Display&quot;,&quot;SF Pro Text&quot;,Helvetica,sans-serif;" transform="matrix(1 0 0 1 1289 1989)">design is preserved when submitting to Xcode.</text>
  <text id="template-version" style="stroke:none;fill:black;font-family:-apple-system,&quot;SF Pro Display&quot;,&quot;SF Pro Text&quot;,Helvetica,sans-serif;text-anchor:end;" transform="matrix(1 0 0 1 3036 1933)">Template v.1.0</text>
  <text style="stroke:none;fill:black;font-family:-apple-system,&quot;SF Pro Display&quot;,&quot;SF Pro Text&quot;,Helvetica,sans-serif;text-anchor:end;" transform="matrix(1 0 0 1 3036 1951)">Generated from waveform.path.ecg</text>
  <text style="stroke:none;fill:black;font-family:-apple-system,&quot;SF Pro Display&quot;,&quot;SF Pro Text&quot;,Helvetica,sans-serif;text-anchor:end;" transform="matrix(1 0 0 1 3036 1969)">Typeset at 100 points</text>
  <text style="stroke:none;fill:black;font-family:-apple-system,&quot;SF Pro Display&quot;,&quot;SF Pro Text&quot;,Helvetica,sans-serif;" transform="matrix(1 0 0 1 263 726)">Small</text>
  <text style="stroke:none;fill:black;font-family:-apple-system,&quot;SF Pro Display&quot;,&quot;SF Pro Text&quot;,Helvetica,sans-serif;" transform="matrix(1 0 0 1 263 1156)">Medium</text>
  <text style="stroke:none;fill:black;font-family:-apple-system,&quot;SF Pro Display&quot;,&quot;SF Pro Text&quot;,Helvetica,sans-serif;" transform="matrix(1 0 0 1 263 1586)">Large</text>
 </g>
 <g id="Guides">
  <g id="H-reference" style="fill:#27AAE1;stroke:none;" transform="matrix(1 0 0 1 339 696)">
   <path d="M 54.9316 0 L 57.666 0 L 30.5664 -70.459 L 28.0762 -70.459 L 0.976562 0 L 3.66211 0 L 12.9395 -24.4629 L 45.7031 -24.4629 Z M 29.1992 -67.0898 L 29.4434 -67.0898 L 44.8242 -26.709 L 13.8184 -26.709 Z"/>
  </g>
  <line id="Baseline-S" style="fill:none;stroke:#27AAE1;opacity:1;stroke-width:0.577;" x1="263" x2="3036" y1="696" y2="696"/>
  <line id="Capline-S" style="fill:none;stroke:#27AAE1;opacity:1;stroke-width:0.577;" x1="263" x2="3036" y1="625.541" y2="625.541"/>
  <g id="H-reference" style="fill:#27AAE1;stroke:none;" transform="matrix(1 0 0 1 339 1126)">
   <path d="M 54.9316 0 L 57.666 0 L 30.5664 -70.459 L 28.0762 -70.459 L 0.976562 0 L 3.66211 0 L 12.9395 -24.4629 L 45.7031 -24.4629 Z M 29.1992 -67.0898 L 29.4434 -67.0898 L 44.8242 -26.709 L 13.8184 -26.709 Z"/>
  </g>
  <line id="Baseline-M" style="fill:none;stroke:#27AAE1;opacity:1;stroke-width:0.577;" x1="263" x2="3036" y1="1126" y2="1126"/>
  <line id="Capline-M" style="fill:none;stroke:#27AAE1;opacity:1;stroke-width:0.577;" x1="263" x2="3036" y1="1055.54" y2="1055.54"/>
  <g id="H-reference" style="fill:#27AAE1;stroke:none;" transform="matrix(1 0 0 1 339 1556)">
   <path d="M 54.9316 0 L 57.666 0 L 30.5664 -70.459 L 28.0762 -70.459 L 0.976562 0 L 3.66211 0 L 12.9395 -24.4629 L 45.7031 -24.4629 Z M 29.1992 -67.0898 L 29.4434 -67.0898 L 44.8242 -26.709 L 13.8184 -26.709 Z"/>
  </g>
  <line id="Baseline-L" style="fill:none;stroke:#27AAE1;opacity:1;stroke-width:0.577;" x1="263" x2="3036" y1="1556" y2="1556"/>
  <line id="Capline-L" style="fill:none;stroke:#27AAE1;opacity:1;stroke-width:0.577;" x1="263" x2="3036" y1="1485.54" y2="1485.54"/>
  <rect height="119.336" id="left-margin" style="fill:#00AEEF;stroke:none;opacity:0.4;" width="9.96094" x="1390.98" y="1030.79"/>
  <rect height="119.336" id="right-margin" style="fill:#00AEEF;stroke:none;opacity:0.4;" width="9.96094" x="1498.75" y="1030.79"/>
 </g>
 <g id="Symbols">
  <g id="Black-L" transform="matrix(1 0 0 1 2853.96 1556)">
   <path d="M 20.6543 -19.7754 L 48.7793 -19.7754 C 53.125 -19.7754 56.0547 -21.9238 56.9824 -25.8789 L 62.9395 -53.5645 L 76.709 30.2734 C 78.0273 38.1836 90.0879 38.1836 91.6504 30.3223 L 104.346 -30.6641 L 105.127 -26.6113 C 106.006 -22.1191 108.838 -19.7754 113.379 -19.7754 L 138.232 -19.7754 C 142.529 -19.7754 145.996 -23.1445 145.996 -27.3926 C 145.996 -31.8359 142.627 -35.1562 138.232 -35.1562 L 117.969 -35.1562 L 111.426 -64.8926 C 109.717 -72.4609 98.2422 -72.3633 96.582 -64.6484 L 84.3262 -9.52148 L 70.5078 -94.7266 C 69.2871 -102.441 57.9102 -102.637 56.2012 -94.8242 L 43.4082 -35.1562 L 20.6543 -35.1562 C 16.3086 -35.1562 12.8906 -31.6895 12.8906 -27.3926 C 12.8906 -23.1445 16.3086 -19.7754 20.6543 -19.7754 Z"/>
  </g>
  <g id="Heavy-L" transform="matrix(1 0 0 1 2558.25 1556)">
   <path d="M 19.7266 -20.7031 L 47.8027 -20.7031 C 51.709 -20.7031 54.2969 -22.6074 55.127 -26.1719 L 62.1094 -58.252 L 76.6602 29.9316 C 77.7832 36.9141 88.4277 36.8652 89.7949 29.9805 L 103.467 -35.0098 L 105.029 -26.8066 C 105.859 -22.8027 108.35 -20.7031 112.451 -20.7031 L 137.158 -20.7031 C 140.967 -20.7031 143.994 -23.6816 143.994 -27.3926 C 143.994 -31.3477 141.016 -34.2285 137.158 -34.2285 L 116.357 -34.2285 L 109.619 -64.5996 C 108.105 -71.2891 98.0469 -71.1914 96.582 -64.4043 L 83.3008 -4.93164 L 68.7012 -94.2871 C 67.627 -101.123 57.6172 -101.27 56.1523 -94.3848 L 43.1641 -34.2285 L 19.7266 -34.2285 C 15.918 -34.2285 12.8906 -31.2012 12.8906 -27.3926 C 12.8906 -23.6816 15.918 -20.7031 19.7266 -20.7031 Z"/>
  </g>
  <g id="Bold-L" transform="matrix(1 0 0 1 2262.66 1556)">
   <path d="M 18.7012 -21.7285 L 46.6797 -21.7285 C 50.1465 -21.7285 52.3438 -23.3398 53.0762 -26.4648 L 61.1328 -63.3789 L 76.5625 29.541 C 77.5391 35.4492 86.5723 35.4492 87.7441 29.541 L 102.441 -39.6973 L 104.98 -27.0508 C 105.664 -23.4863 107.812 -21.7285 111.426 -21.7285 L 135.938 -21.7285 C 139.16 -21.7285 141.748 -24.2676 141.748 -27.4414 C 141.748 -30.7617 139.258 -33.252 135.938 -33.252 L 114.6 -33.252 L 107.617 -64.3066 C 106.348 -69.9707 97.8027 -69.9219 96.5332 -64.1113 L 82.1777 0.0976562 L 66.748 -93.8477 C 65.8203 -99.6582 57.3242 -99.8047 56.0547 -93.8965 L 42.9199 -33.252 L 18.7012 -33.252 C 15.4785 -33.252 12.8906 -30.6641 12.8906 -27.4414 C 12.8906 -24.2676 15.4785 -21.7285 18.7012 -21.7285 Z"/>
  </g>
  <g id="Semibold-L" transform="matrix(1 0 0 1 1966.73 1556)">
   <path d="M 18.0176 -22.4121 L 45.9473 -22.4121 C 49.0234 -22.4121 51.0254 -23.877 51.6602 -26.709 L 60.4492 -66.8945 L 76.5137 29.248 C 77.3438 34.4727 85.3027 34.4238 86.3281 29.2969 L 101.758 -42.8223 L 104.932 -27.1973 C 105.566 -24.0234 107.471 -22.4121 110.693 -22.4121 L 135.107 -22.4121 C 137.939 -22.4121 140.186 -24.6582 140.186 -27.4414 C 140.186 -30.3223 137.988 -32.5684 135.107 -32.5684 L 113.379 -32.5684 L 106.201 -64.0625 C 105.078 -69.043 97.6562 -68.9941 96.5332 -63.8672 L 81.3965 3.51562 L 65.3809 -93.5547 C 64.5508 -98.6328 57.1289 -98.7305 56.0059 -93.5547 L 42.7246 -32.5684 L 18.0176 -32.5684 C 15.1367 -32.5684 12.8906 -30.2734 12.8906 -27.4414 C 12.8906 -24.6582 15.1367 -22.4121 18.0176 -22.4121 Z"/>
  </g>
  <g id="Medium-L" transform="matrix(1 0 0 1 1670.58 1556)">
   <path d="M 17.4805 -22.9492 L 45.3613 -22.9492 C 48.2422 -22.9492 50 -24.2676 50.5859 -26.8555 L 59.9609 -69.5801 L 76.4648 29.0527 C 77.2461 33.7402 84.3262 33.6914 85.3027 29.0527 L 101.221 -45.1172 L 104.883 -27.2949 C 105.469 -24.4141 107.178 -22.9492 110.156 -22.9492 L 134.473 -22.9492 C 137.012 -22.9492 139.062 -24.9512 139.062 -27.4414 C 139.062 -30.0293 137.061 -32.0312 134.473 -32.0312 L 112.451 -32.0312 L 105.176 -63.8672 C 104.15 -68.3594 97.5586 -68.3105 96.5332 -63.7207 L 80.8594 6.10352 L 64.3555 -93.3105 C 63.623 -97.8516 56.9336 -97.9492 55.957 -93.3105 L 42.5781 -32.0312 L 17.4805 -32.0312 C 14.8926 -32.0312 12.8906 -29.9805 12.8906 -27.4414 C 12.8906 -24.9512 14.8926 -22.9492 17.4805 -22.9492 Z"/>
  </g>
  <g id="Regular-L" transform="matrix(1 0 0 1 1374.65 1556)">
   <path d="M 16.748 -23.6816 L 44.6289 -23.6816 C 47.1191 -23.6816 48.6816 -24.8047 49.1699 -27.0508 L 59.2773 -72.998 L 76.3672 28.8086 C 77.0508 32.7637 83.1055 32.7148 83.8867 28.8086 L 100.488 -48.0957 L 104.834 -27.4902 C 105.371 -24.9023 106.836 -23.6816 109.473 -23.6816 L 133.643 -23.6816 C 135.791 -23.6816 137.5 -25.3418 137.5 -27.4414 C 137.5 -29.6387 135.84 -31.3477 133.643 -31.3477 L 111.23 -31.3477 L 103.809 -63.6719 C 102.93 -67.4316 97.4121 -67.4316 96.4844 -63.5254 L 80.0781 9.47266 L 62.9883 -93.0176 C 62.3535 -96.875 56.7383 -96.9727 55.8594 -93.0176 L 42.3828 -31.3477 L 16.748 -31.3477 C 14.5996 -31.3477 12.8906 -29.5898 12.8906 -27.4414 C 12.8906 -25.3418 14.5996 -23.6816 16.748 -23.6816 Z"/>
  </g>
  <g id="Light-L" transform="matrix(1 0 0 1 1078.99 1556)">
   <path d="M 15.918 -24.5117 L 43.5547 -24.5117 C 45.7031 -24.5117 46.9727 -25.4883 47.4121 -27.4414 L 58.3496 -76.6602 L 76.2207 28.125 C 76.7578 31.3477 81.4941 31.2988 82.1289 28.125 L 99.5605 -50.6836 L 104.688 -27.7344 C 105.127 -25.5371 106.396 -24.5117 108.594 -24.5117 L 132.373 -24.5117 C 134.033 -24.5117 135.4 -25.8789 135.4 -27.4902 C 135.4 -29.1504 134.082 -30.5176 132.373 -30.5176 L 109.863 -30.5176 L 102.148 -63.2324 C 101.465 -66.2109 97.168 -66.2109 96.4844 -63.1348 L 79.248 13.0371 L 61.377 -92.2363 C 60.8887 -95.3613 56.3965 -95.4102 55.7129 -92.2363 L 42.041 -30.5176 L 15.918 -30.5176 C 14.209 -30.5176 12.8906 -29.1504 12.8906 -27.4902 C 12.8906 -25.8789 14.209 -24.5117 15.918 -24.5117 Z"/>
  </g>
  <g id="Thin-L" transform="matrix(1 0 0 1 783.693 1556)">
   <path d="M 14.7949 -25.6348 L 42.1875 -25.6348 C 43.7988 -25.6348 44.7754 -26.416 45.1172 -27.9785 L 57.1289 -81.4453 L 75.9766 27.2949 C 76.3672 29.4922 79.3945 29.4922 79.834 27.2949 L 98.291 -53.8574 L 104.541 -28.0273 C 104.883 -26.416 105.859 -25.6348 107.471 -25.6348 L 130.664 -25.6348 C 131.738 -25.6348 132.568 -26.5625 132.568 -27.5391 C 132.568 -28.5156 131.738 -29.4434 130.664 -29.4434 L 108.105 -29.4434 L 99.9023 -62.6953 C 99.4629 -64.6484 96.9238 -64.6484 96.4355 -62.6465 L 78.1738 17.627 L 59.2773 -91.2109 C 58.9355 -93.3594 55.957 -93.4082 55.4688 -91.2109 L 41.6016 -29.4434 L 14.7949 -29.4434 C 13.7207 -29.4434 12.8906 -28.5156 12.8906 -27.5391 C 12.8906 -26.5625 13.7207 -25.6348 14.7949 -25.6348 Z"/>
  </g>
  <g id="Ultralight-L" transform="matrix(1 0 0 1 487.69 1556)">
   <path d="M 14.209 -26.2207 L 41.5039 -26.2207 C 42.8223 -26.2207 43.6035 -26.9043 43.9453 -28.2227 L 56.4941 -83.8379 L 75.8789 26.8555 C 76.1719 28.5156 78.3203 28.5156 78.6621 26.8555 L 97.6074 -55.3711 L 104.443 -28.1738 C 104.736 -26.9043 105.566 -26.2207 106.836 -26.2207 L 129.785 -26.2207 C 130.518 -26.2207 131.152 -26.9043 131.152 -27.5391 C 131.152 -28.1738 130.518 -28.9062 129.785 -28.9062 L 107.227 -28.9062 L 98.7793 -62.4023 C 98.4375 -63.8184 96.7773 -63.8184 96.4355 -62.4023 L 77.5879 19.9219 L 58.2031 -90.6738 C 57.9102 -92.3828 55.7129 -92.334 55.3711 -90.6738 L 41.3574 -28.9062 L 14.209 -28.9062 C 13.4766 -28.9062 12.8906 -28.2227 12.8906 -27.5391 C 12.8906 -26.9043 13.4766 -26.2207 14.209 -26.2207 Z"/>
  </g>
  <g id="Black-M" transform="matrix(1 0 0 1 2871.1 1126)">
   <path d="M 16.748 -22.4609 L 38.5742 -22.4609 C 42.2852 -22.4609 44.873 -24.3652 45.6543 -27.832 L 49.4629 -45.3125 L 59.4238 15.6738 C 60.5957 22.6562 71.1426 22.6562 72.5586 15.7227 L 81.5918 -27.7344 C 82.4707 -24.3164 84.9609 -22.4609 88.623 -22.4609 L 107.861 -22.4609 C 111.67 -22.4609 114.648 -25.4395 114.648 -29.1504 C 114.648 -33.0566 111.719 -35.9375 107.861 -35.9375 L 92.8223 -35.9375 L 87.8906 -58.3984 C 86.377 -65.0879 76.2695 -64.9414 74.8535 -58.2031 L 66.2109 -19.3848 L 56.1523 -81.4453 C 55.0781 -88.3301 45.0684 -88.4277 43.5547 -81.5918 L 33.7402 -35.9375 L 16.748 -35.9375 C 12.9883 -35.9375 9.96094 -32.9102 9.96094 -29.1504 C 9.96094 -25.4395 12.9883 -22.4609 16.748 -22.4609 Z"/>
  </g>
  <g id="Heavy-M" transform="matrix(1 0 0 1 2575.19 1126)">
   <path d="M 15.9668 -23.2422 L 37.7441 -23.2422 C 41.1133 -23.2422 43.4082 -24.9512 44.1406 -28.0273 L 48.7305 -49.3652 L 59.4238 15.4297 C 60.4004 21.6309 69.7754 21.582 70.9961 15.4785 L 80.8594 -31.543 L 81.3965 -28.5645 C 82.0801 -25.0977 84.3262 -23.2422 87.8418 -23.2422 L 107.031 -23.2422 C 110.352 -23.2422 113.037 -25.8789 113.037 -29.1504 C 113.037 -32.6172 110.449 -35.1562 107.031 -35.1562 L 91.4062 -35.1562 L 86.3281 -58.2031 C 85.0098 -64.0625 76.123 -63.9648 74.8047 -58.0078 L 65.332 -15.3809 L 54.6387 -81.2012 C 53.6621 -87.2559 44.8242 -87.4023 43.5059 -81.2988 L 33.5938 -35.1562 L 15.9668 -35.1562 C 12.6465 -35.1562 9.96094 -32.5195 9.96094 -29.1504 C 9.96094 -25.8789 12.6465 -23.2422 15.9668 -23.2422 Z"/>
  </g>
  <g id="Bold-M" transform="matrix(1 0 0 1 2279.38 1126)">
   <path d="M 15.0879 -24.1211 L 36.8652 -24.1211 C 39.7949 -24.1211 41.748 -25.5371 42.3828 -28.2715 L 47.9492 -53.9062 L 59.375 15.1855 C 60.2051 20.459 68.2129 20.4102 69.2383 15.2344 L 79.9805 -35.791 L 81.3477 -28.7598 C 81.9824 -25.6836 83.8867 -24.1211 86.9629 -24.1211 L 106.055 -24.1211 C 108.936 -24.1211 111.23 -26.3672 111.23 -29.1504 C 111.23 -32.1289 108.984 -34.3262 106.055 -34.3262 L 89.8926 -34.3262 L 84.6191 -57.959 C 83.4961 -62.9883 75.9277 -62.8906 74.8047 -57.7637 L 64.3555 -10.9863 L 52.9297 -80.957 C 52.0996 -86.084 44.5801 -86.1816 43.457 -81.0059 L 33.3984 -34.3262 L 15.0879 -34.3262 C 12.2559 -34.3262 9.96094 -32.0312 9.96094 -29.1504 C 9.96094 -26.3672 12.2559 -24.1211 15.0879 -24.1211 Z"/>
  </g>
  <g id="Semibold-M" transform="matrix(1 0 0 1 1983.31 1126)">
   <path d="M 14.502 -24.7559 L 36.2305 -24.7559 C 38.916 -24.7559 40.625 -25.9766 41.1621 -28.418 L 47.4121 -56.9824 L 59.3262 15.0391 C 60.1074 19.6289 67.1387 19.6289 68.0664 15.0391 L 79.3945 -38.6719 L 81.3477 -28.8574 C 81.8848 -26.123 83.5449 -24.7559 86.377 -24.7559 L 105.42 -24.7559 C 107.959 -24.7559 109.961 -26.709 109.961 -29.1504 C 109.961 -31.7871 108.008 -33.6914 105.42 -33.6914 L 88.8184 -33.6914 L 83.4473 -57.8125 C 82.4219 -62.207 75.7812 -62.1582 74.8047 -57.6172 L 63.6719 -7.91016 L 51.7578 -80.7617 C 51.0254 -85.2539 44.4336 -85.3516 43.4082 -80.8105 L 33.252 -33.6914 L 14.502 -33.6914 C 11.9629 -33.6914 9.96094 -31.6895 9.96094 -29.1504 C 9.96094 -26.709 11.9629 -24.7559 14.502 -24.7559 Z"/>
  </g>
  <g id="Medium-M" transform="matrix(1 0 0 1 1687.08 1126)">
   <path d="M 14.0625 -25.1953 L 35.7422 -25.1953 C 38.2324 -25.1953 39.7461 -26.3184 40.2832 -28.5156 L 46.9727 -59.3262 L 59.2773 14.8926 C 59.9609 19.043 66.3086 18.9941 67.1387 14.9414 L 78.9551 -40.8203 L 81.2988 -28.9551 C 81.8359 -26.416 83.3008 -25.1953 85.8887 -25.1953 L 104.932 -25.1953 C 107.178 -25.1953 108.984 -26.9531 108.984 -29.1992 C 108.984 -31.4941 107.227 -33.252 104.932 -33.252 L 87.9883 -33.252 L 82.5195 -57.666 C 81.6406 -61.6211 75.6836 -61.6211 74.7559 -57.5195 L 63.1836 -5.61523 L 50.8301 -80.6152 C 50.1953 -84.668 44.2871 -84.7656 43.4082 -80.6641 L 33.1543 -33.252 L 14.0625 -33.252 C 11.7676 -33.252 9.96094 -31.4453 9.96094 -29.1992 C 9.96094 -26.9531 11.7676 -25.1953 14.0625 -25.1953 Z"/>
  </g>
  <g id="Regular-M" transform="matrix(1 0 0 1 1390.98 1126)">
   <path d="M 13.4766 -25.7812 L 35.1074 -25.7812 C 37.3047 -25.7812 38.623 -26.7578 39.1113 -28.7109 L 46.4355 -62.3535 L 59.2773 14.7461 C 59.8633 18.2617 65.2832 18.2129 65.9668 14.7461 L 78.3691 -43.6035 L 81.2988 -29.1016 C 81.7383 -26.8555 83.0078 -25.7812 85.3027 -25.7812 L 104.248 -25.7812 C 106.201 -25.7812 107.764 -27.2949 107.764 -29.1992 C 107.764 -31.1523 106.25 -32.666 104.248 -32.666 L 86.9629 -32.666 L 81.3477 -57.5195 C 80.6152 -60.8887 75.5859 -60.8887 74.7559 -57.373 L 62.5 -2.63672 L 49.6582 -80.4199 C 49.1211 -83.8379 44.1406 -83.9355 43.3594 -80.4199 L 33.0078 -32.666 L 13.4766 -32.666 C 11.4746 -32.666 9.96094 -31.1035 9.96094 -29.1992 C 9.96094 -27.2949 11.4746 -25.7812 13.4766 -25.7812 Z"/>
  </g>
  <g id="Light-M" transform="matrix(1 0 0 1 1095.22 1126)">
   <path d="M 12.6953 -26.5625 L 34.1797 -26.5625 C 36.0352 -26.5625 37.1582 -27.3438 37.5 -29.0527 L 45.6055 -65.7227 L 59.1309 14.1602 C 59.5703 16.9922 63.8184 16.9434 64.4043 14.1602 L 77.5391 -46.0449 L 81.1523 -29.2969 C 81.543 -27.4414 82.6172 -26.5625 84.5215 -26.5625 L 103.125 -26.5625 C 104.639 -26.5625 105.859 -27.7344 105.859 -29.1992 C 105.859 -30.7617 104.688 -31.9336 103.125 -31.9336 L 85.7422 -31.9336 L 79.8828 -57.1289 C 79.248 -59.8145 75.3906 -59.8145 74.7559 -57.0312 L 61.7676 0.585938 L 48.2422 -79.7363 C 47.8027 -82.5195 43.7988 -82.5684 43.2129 -79.7363 L 32.7148 -31.9336 L 12.6953 -31.9336 C 11.1816 -31.9336 9.96094 -30.7129 9.96094 -29.1992 C 9.96094 -27.7344 11.1816 -26.5625 12.6953 -26.5625 Z"/>
  </g>
  <g id="Thin-M" transform="matrix(1 0 0 1 799.782 1126)">
   <path d="M 11.6699 -27.5391 L 32.959 -27.5391 C 34.3262 -27.5391 35.1562 -28.2227 35.4492 -29.4922 L 44.4824 -70.0195 L 58.9355 13.3789 C 59.2285 15.332 61.9629 15.332 62.3535 13.3789 L 76.416 -48.9746 L 81.0059 -29.5898 C 81.2988 -28.2227 82.1289 -27.5391 83.4961 -27.5391 L 101.611 -27.5391 C 102.539 -27.5391 103.32 -28.3691 103.32 -29.248 C 103.32 -30.1758 102.588 -30.957 101.611 -30.957 L 84.1309 -30.957 L 77.8809 -56.6406 C 77.4902 -58.3496 75.1465 -58.3496 74.707 -56.5918 L 60.791 4.73633 L 46.3867 -78.8086 C 46.0449 -80.7129 43.4082 -80.7617 43.0176 -78.8086 L 32.2754 -30.957 L 11.6699 -30.957 C 10.7422 -30.957 9.96094 -30.1758 9.96094 -29.248 C 9.96094 -28.3691 10.7422 -27.5391 11.6699 -27.5391 Z"/>
  </g>
  <g id="Ultralight-M" transform="matrix(1 0 0 1 503.705 1126)">
   <path d="M 11.1816 -28.0762 L 32.3242 -28.0762 C 33.4473 -28.0762 34.1309 -28.6133 34.375 -29.7363 L 43.9453 -72.168 L 58.8379 12.9883 C 59.082 14.4531 60.9863 14.4531 61.2793 12.9883 L 75.8301 -50.3906 L 80.957 -29.7363 C 81.2012 -28.6133 81.8848 -28.0762 82.959 -28.0762 L 100.83 -28.0762 C 101.514 -28.0762 102.051 -28.6621 102.051 -29.2969 C 102.051 -29.8828 101.514 -30.4688 100.83 -30.4688 L 83.3496 -30.4688 L 76.8555 -56.3477 C 76.5625 -57.6172 75 -57.6172 74.707 -56.3477 L 60.3027 6.83594 L 45.4102 -78.3691 C 45.166 -79.834 43.2129 -79.7852 42.9199 -78.3691 L 32.0801 -30.4688 L 11.1816 -30.4688 C 10.498 -30.4688 9.96094 -29.8828 9.96094 -29.2969 C 9.96094 -28.6621 10.498 -28.0762 11.1816 -28.0762 Z"/>
  </g>
  <g id="Black-S" transform="matrix(1 0 0 1 2884.62 696)">
   <path d="M 13.0859 -25.293 L 30.1758 -25.293 C 33.0566 -25.293 35.0586 -26.7578 35.6934 -29.4434 L 38.7207 -43.3594 L 46.582 4.63867 C 47.4609 10.0586 55.6641 10.0586 56.7383 4.6875 L 63.8672 -29.5898 C 64.4043 -26.9043 66.3574 -25.293 69.3848 -25.293 L 84.4727 -25.293 C 87.4023 -25.293 89.7461 -27.5879 89.7461 -30.4688 C 89.7461 -33.4961 87.4512 -35.7422 84.4727 -35.7422 L 72.6562 -35.7422 L 68.75 -53.3691 C 67.5781 -58.5449 59.7656 -58.4473 58.6426 -53.2227 L 51.8066 -22.5586 L 43.8965 -71.4355 C 43.0664 -76.7578 35.3027 -76.8555 34.1309 -71.5332 L 26.4648 -35.7422 L 13.0859 -35.7422 C 10.1562 -35.7422 7.8125 -33.3984 7.8125 -30.4688 C 7.8125 -27.5879 10.1562 -25.293 13.0859 -25.293 Z"/>
  </g>
  <g id="Heavy-S" transform="matrix(1 0 0 1 2588.42 696)">
   <path d="M 12.5977 -25.7812 L 29.6387 -25.7812 C 32.3242 -25.7812 34.082 -27.0996 34.668 -29.541 L 38.2324 -46.0938 L 46.582 4.54102 C 47.3633 9.42383 54.7363 9.375 55.7129 4.58984 L 63.3789 -32.1777 L 63.8184 -29.9805 C 64.3555 -27.2461 66.1133 -25.7812 68.8965 -25.7812 L 83.9355 -25.7812 C 86.5723 -25.7812 88.7207 -27.8809 88.7207 -30.4688 C 88.7207 -33.2031 86.6211 -35.2539 83.9355 -35.2539 L 71.7285 -35.2539 L 67.7246 -53.2715 C 66.6992 -57.9102 59.668 -57.8125 58.6426 -53.125 L 51.2207 -19.873 L 42.8711 -71.3379 C 42.1387 -76.0742 35.1562 -76.1719 34.1309 -71.3867 L 26.3672 -35.2539 L 12.5977 -35.2539 C 9.91211 -35.2539 7.8125 -33.1055 7.8125 -30.4688 C 7.8125 -27.8809 9.91211 -25.7812 12.5977 -25.7812 Z"/>
  </g>
  <g id="Bold-S" transform="matrix(1 0 0 1 2292.3 696)">
   <path d="M 12.0117 -26.3672 L 29.1016 -26.3672 C 31.4453 -26.3672 33.0566 -27.5391 33.5449 -29.6875 L 37.7441 -49.1211 L 46.5332 4.44336 C 47.2656 8.64258 53.7598 8.64258 54.5898 4.44336 L 62.8418 -35.0586 L 63.7695 -30.0781 C 64.2578 -27.6367 65.7715 -26.3672 68.3105 -26.3672 L 83.3496 -26.3672 C 85.6934 -26.3672 87.5488 -28.1738 87.5488 -30.4688 C 87.5488 -32.8613 85.7422 -34.668 83.3496 -34.668 L 70.7031 -34.668 L 66.6016 -53.125 C 65.6738 -57.1777 59.5215 -57.1289 58.5938 -52.9785 L 50.5859 -16.8945 L 41.748 -71.1914 C 41.1133 -75.3418 35.0098 -75.4395 34.082 -71.2402 L 26.2207 -34.668 L 12.0117 -34.668 C 9.66797 -34.668 7.8125 -32.8125 7.8125 -30.4688 C 7.8125 -28.1738 9.66797 -26.3672 12.0117 -26.3672 Z"/>
  </g>
  <g id="Semibold-S" transform="matrix(1 0 0 1 1995.98 696)">
   <path d="M 11.6211 -26.7578 L 28.6621 -26.7578 C 30.9082 -26.7578 32.3242 -27.7832 32.7637 -29.7852 L 37.4023 -51.2207 L 46.5332 4.3457 C 47.168 8.1543 53.0273 8.10547 53.8086 4.3457 L 62.4512 -37.0605 L 63.7695 -30.1758 C 64.209 -27.8809 65.5762 -26.7578 67.9199 -26.7578 L 82.959 -26.7578 C 85.0586 -26.7578 86.7676 -28.418 86.7676 -30.4688 C 86.7676 -32.666 85.1074 -34.2773 82.959 -34.2773 L 69.9707 -34.2773 L 65.8203 -53.0273 C 64.9902 -56.6895 59.4238 -56.6895 58.5938 -52.8809 L 50.1465 -14.8438 L 40.9668 -71.1426 C 40.3809 -74.8535 34.9121 -74.9512 34.082 -71.1426 L 26.1719 -34.2773 L 11.6211 -34.2773 C 9.47266 -34.2773 7.8125 -32.5684 7.8125 -30.4688 C 7.8125 -28.418 9.47266 -26.7578 11.6211 -26.7578 Z"/>
  </g>
  <g id="Medium-S" transform="matrix(1 0 0 1 1699.58 696)">
   <path d="M 11.3281 -27.0508 L 28.3691 -27.0508 C 30.4688 -27.0508 31.7383 -27.9785 32.1777 -29.834 L 37.1094 -52.7832 L 46.5332 4.29688 C 47.1191 7.76367 52.5391 7.71484 53.2227 4.29688 L 62.207 -38.5742 L 63.7695 -30.2246 C 64.1602 -28.125 65.4297 -27.0508 67.627 -27.0508 L 82.666 -27.0508 C 84.6191 -27.0508 86.1328 -28.5645 86.1328 -30.4688 C 86.1328 -32.4707 84.668 -33.9844 82.666 -33.9844 L 69.4336 -33.9844 L 65.2344 -52.9785 C 64.502 -56.3477 59.375 -56.2988 58.5938 -52.832 L 49.8047 -13.2812 L 40.3809 -71.0449 C 39.8438 -74.4629 34.8145 -74.5605 34.082 -71.0938 L 26.0742 -33.9844 L 11.3281 -33.9844 C 9.375 -33.9844 7.8125 -32.4219 7.8125 -30.4688 C 7.8125 -28.5645 9.375 -27.0508 11.3281 -27.0508 Z"/>
  </g>
  <g id="Regular-S" transform="matrix(1 0 0 1 1403.26 696)">
   <path d="M 10.9375 -27.4414 L 27.9785 -27.4414 C 29.8828 -27.4414 31.0059 -28.2715 31.3965 -29.9316 L 36.7676 -54.834 L 46.5332 4.19922 C 47.0215 7.27539 51.8066 7.22656 52.4414 4.19922 L 61.8164 -40.5273 L 63.7695 -30.3223 C 64.1113 -28.3691 65.2344 -27.4414 67.2363 -27.4414 L 82.2266 -27.4414 C 83.9844 -27.4414 85.3516 -28.7598 85.3516 -30.4688 C 85.3516 -32.2754 84.0332 -33.5938 82.2266 -33.5938 L 68.75 -33.5938 L 64.4531 -52.8809 C 63.8184 -55.8594 59.2773 -55.8594 58.5938 -52.7344 L 49.3652 -11.2793 L 39.5996 -70.9961 C 39.1602 -73.9746 34.7168 -74.0723 34.082 -70.9961 L 26.0254 -33.5938 L 10.9375 -33.5938 C 9.17969 -33.5938 7.8125 -32.2266 7.8125 -30.4688 C 7.8125 -28.7598 9.17969 -27.4414 10.9375 -27.4414 Z"/>
  </g>
  <g id="Light-S" transform="matrix(1 0 0 1 1107.41 696)">
   <path d="M 10.2539 -28.125 L 27.1484 -28.125 C 28.7109 -28.125 29.6875 -28.8086 29.9805 -30.2246 L 36.0352 -57.8613 L 46.3867 3.71094 C 46.7773 6.15234 50.5859 6.15234 51.0742 3.71094 L 61.084 -42.7734 L 63.6719 -30.5176 C 63.9648 -28.9062 64.8926 -28.125 66.5039 -28.125 L 81.25 -28.125 C 82.5684 -28.125 83.6426 -29.1992 83.6426 -30.5176 C 83.6426 -31.8848 82.6172 -32.9102 81.25 -32.9102 L 67.627 -32.9102 L 63.1348 -52.5391 C 62.5977 -54.8828 59.1309 -54.8828 58.5938 -52.4414 L 48.6816 -8.39844 L 38.3789 -70.3613 C 37.9883 -72.7539 34.4727 -72.8516 33.9355 -70.3613 L 25.7324 -32.9102 L 10.2539 -32.9102 C 8.88672 -32.9102 7.8125 -31.8359 7.8125 -30.5176 C 7.8125 -29.1992 8.88672 -28.125 10.2539 -28.125 Z"/>
  </g>
  <g id="Thin-S" transform="matrix(1 0 0 1 811.793 696)">
   <path d="M 9.375 -29.0039 L 26.0742 -29.0039 C 27.2461 -29.0039 27.9297 -29.541 28.1738 -30.6641 L 35.0586 -61.6699 L 46.1914 3.02734 C 46.4844 4.6875 48.9258 4.6875 49.2676 3.02734 L 60.1074 -45.5078 L 63.5254 -30.7617 C 63.7695 -29.5898 64.4531 -29.0039 65.625 -29.0039 L 79.8828 -29.0039 C 80.7617 -29.0039 81.4453 -29.7363 81.4453 -30.5176 C 81.4453 -31.3965 80.7617 -32.0801 79.8828 -32.0801 L 66.2109 -32.0801 L 61.4258 -52.0996 C 61.0352 -53.6133 58.9355 -53.6133 58.5449 -52.0508 L 47.8027 -4.6875 L 36.7188 -69.5801 C 36.4258 -71.1914 34.1309 -71.2402 33.7402 -69.5801 L 25.3906 -32.0801 L 9.375 -32.0801 C 8.49609 -32.0801 7.8125 -31.3477 7.8125 -30.5176 C 7.8125 -29.7363 8.49609 -29.0039 9.375 -29.0039 Z"/>
  </g>
  <g id="Ultralight-S" transform="matrix(1 0 0 1 515.668 696)">
   <path d="M 8.88672 -29.4922 L 25.5371 -29.4922 C 26.4648 -29.4922 27.002 -29.9316 27.1973 -30.8594 L 34.5703 -63.623 L 46.0938 2.68555 C 46.3379 3.95508 48.0469 3.95508 48.291 2.68555 L 59.5703 -46.7285 L 63.4277 -30.8594 C 63.6719 -29.9316 64.209 -29.4922 65.1367 -29.4922 L 79.1992 -29.4922 C 79.7852 -29.4922 80.2734 -30.0293 80.2734 -30.5664 C 80.2734 -31.1035 79.7852 -31.6406 79.1992 -31.6406 L 65.5273 -31.6406 L 60.498 -51.8555 C 60.2539 -52.9785 58.8379 -52.9785 58.5449 -51.8555 L 47.3633 -2.83203 L 35.8398 -69.1406 C 35.6445 -70.4102 33.9355 -70.4102 33.6426 -69.1406 L 25.1953 -31.6406 L 8.88672 -31.6406 C 8.30078 -31.6406 7.8125 -31.1035 7.8125 -30.5664 C 7.8125 -30.0293 8.30078 -29.4922 8.88672 -29.4922 Z"/>
  </g>
 </g>
</svg>
