<?xml version="1.0" encoding="UTF-8"?>
<!--Generator: Apple Native CoreSVG 129-->
<!DOCTYPE svg
PUBLIC "-//W3C//DTD SVG 1.1//EN"
       "http://www.w3.org/Graphics/SVG/1.1/DTD/svg11.dtd">
<svg version="1.1" xmlns="http://www.w3.org/2000/svg" xmlns:xlink="http://www.w3.org/1999/xlink" width="3300" height="2200">
 <!--glyph: "uni100359.medium", point size: 100.000000, font version: "Version 16.0d9e1", template writer version: "8"-->
 <g id="Notes">
  <rect height="2200" id="artboard" style="fill:white;opacity:1" width="3300" x="0" y="0"/>
  <line id="" style="fill:none;stroke:black;opacity:1;stroke-width:0.5;" x1="263" x2="3036" y1="292" y2="292"/>
  <text style="stroke:none;fill:black;font-family:-apple-system,&quot;SF Pro Display&quot;,&quot;SF Pro Text&quot;,Helvetica,sans-serif;font-weight:bold;" transform="matrix(1 0 0 1 263 322)">Weight/Scale Variations</text>
  <text style="stroke:none;fill:black;font-family:-apple-system,&quot;SF Pro Display&quot;,&quot;SF Pro Text&quot;,Helvetica,sans-serif;text-anchor:middle;" transform="matrix(1 0 0 1 559.711 322)">Ultralight</text>
  <text style="stroke:none;fill:black;font-family:-apple-system,&quot;SF Pro Display&quot;,&quot;SF Pro Text&quot;,Helvetica,sans-serif;text-anchor:middle;" transform="matrix(1 0 0 1 856.422 322)">Thin</text>
  <text style="stroke:none;fill:black;font-family:-apple-system,&quot;SF Pro Display&quot;,&quot;SF Pro Text&quot;,Helvetica,sans-serif;text-anchor:middle;" transform="matrix(1 0 0 1 1153.13 322)">Light</text>
  <text style="stroke:none;fill:black;font-family:-apple-system,&quot;SF Pro Display&quot;,&quot;SF Pro Text&quot;,Helvetica,sans-serif;text-anchor:middle;" transform="matrix(1 0 0 1 1449.84 322)">Regular</text>
  <text style="stroke:none;fill:black;font-family:-apple-system,&quot;SF Pro Display&quot;,&quot;SF Pro Text&quot;,Helvetica,sans-serif;text-anchor:middle;" transform="matrix(1 0 0 1 1746.56 322)">Medium</text>
  <text style="stroke:none;fill:black;font-family:-apple-system,&quot;SF Pro Display&quot;,&quot;SF Pro Text&quot;,Helvetica,sans-serif;text-anchor:middle;" transform="matrix(1 0 0 1 2043.27 322)">Semibold</text>
  <text style="stroke:none;fill:black;font-family:-apple-system,&quot;SF Pro Display&quot;,&quot;SF Pro Text&quot;,Helvetica,sans-serif;text-anchor:middle;" transform="matrix(1 0 0 1 2339.98 322)">Bold</text>
  <text style="stroke:none;fill:black;font-family:-apple-system,&quot;SF Pro Display&quot;,&quot;SF Pro Text&quot;,Helvetica,sans-serif;text-anchor:middle;" transform="matrix(1 0 0 1 2636.69 322)">Heavy</text>
  <text style="stroke:none;fill:black;font-family:-apple-system,&quot;SF Pro Display&quot;,&quot;SF Pro Text&quot;,Helvetica,sans-serif;text-anchor:middle;" transform="matrix(1 0 0 1 2933.4 322)">Black</text>
  <line id="" style="fill:none;stroke:black;opacity:1;stroke-width:0.5;" x1="263" x2="3036" y1="1903" y2="1903"/>
  <g id="" transform="matrix(1 0 0 1 263 1933)">
   <path d="M 9.24805 0.830078 C 13.5547 0.830078 17.1387 -2.74414 17.1387 -7.05078 C 17.1387 -11.3574 13.5449 -14.9316 9.23828 -14.9316 C 4.94141 -14.9316 1.36719 -11.3574 1.36719 -7.05078 C 1.36719 -2.74414 4.95117 0.830078 9.24805 0.830078 Z M 9.24805 -0.654297 C 5.70312 -0.654297 2.87109 -3.49609 2.87109 -7.05078 C 2.87109 -10.6055 5.69336 -13.4473 9.23828 -13.4473 C 12.793 -13.4473 15.6348 -10.6055 15.6445 -7.05078 C 15.6543 -3.49609 12.8027 -0.654297 9.24805 -0.654297 Z M 9.22852 -3.62305 C 9.69727 -3.62305 9.9707 -3.93555 9.9707 -4.45312 L 9.9707 -6.31836 L 12.002 -6.31836 C 12.5 -6.31836 12.832 -6.57227 12.832 -7.04102 C 12.832 -7.51953 12.5195 -7.7832 12.002 -7.7832 L 9.9707 -7.7832 L 9.9707 -9.81445 C 9.9707 -10.332 9.69727 -10.6543 9.22852 -10.6543 C 8.75977 -10.6543 8.50586 -10.3125 8.50586 -9.81445 L 8.50586 -7.7832 L 6.49414 -7.7832 C 5.97656 -7.7832 5.64453 -7.51953 5.64453 -7.04102 C 5.64453 -6.57227 5.99609 -6.31836 6.49414 -6.31836 L 8.50586 -6.31836 L 8.50586 -4.45312 C 8.50586 -3.95508 8.75977 -3.62305 9.22852 -3.62305 Z"/>
  </g>
  <g id="" transform="matrix(1 0 0 1 281.506 1933)">
   <path d="M 11.709 2.91016 C 17.1582 2.91016 21.6699 -1.61133 21.6699 -7.05078 C 21.6699 -12.5 17.1484 -17.0117 11.6992 -17.0117 C 6.25977 -17.0117 1.74805 -12.5 1.74805 -7.05078 C 1.74805 -1.61133 6.26953 2.91016 11.709 2.91016 Z M 11.709 1.25 C 7.09961 1.25 3.41797 -2.44141 3.41797 -7.05078 C 3.41797 -11.6602 7.08984 -15.3516 11.6992 -15.3516 C 16.3086 -15.3516 20 -11.6602 20.0098 -7.05078 C 20.0195 -2.44141 16.3184 1.25 11.709 1.25 Z M 11.6797 -2.66602 C 12.207 -2.66602 12.5098 -3.01758 12.5098 -3.59375 L 12.5098 -6.23047 L 15.3223 -6.23047 C 15.8691 -6.23047 16.25 -6.51367 16.25 -7.03125 C 16.25 -7.55859 15.8887 -7.86133 15.3223 -7.86133 L 12.5098 -7.86133 L 12.5098 -10.6836 C 12.5098 -11.25 12.207 -11.6113 11.6797 -11.6113 C 11.1621 -11.6113 10.8789 -11.2305 10.8789 -10.6836 L 10.8789 -7.86133 L 8.07617 -7.86133 C 7.50977 -7.86133 7.13867 -7.55859 7.13867 -7.03125 C 7.13867 -6.51367 7.5293 -6.23047 8.07617 -6.23047 L 10.8789 -6.23047 L 10.8789 -3.59375 C 10.8789 -3.03711 11.1621 -2.66602 11.6797 -2.66602 Z"/>
  </g>
  <g id="" transform="matrix(1 0 0 1 304.924 1933)">
   <path d="M 14.9707 5.66406 C 21.9336 5.66406 27.6953 -0.0976562 27.6953 -7.05078 C 27.6953 -14.0137 21.9238 -19.7754 14.9609 -19.7754 C 8.00781 -19.7754 2.25586 -14.0137 2.25586 -7.05078 C 2.25586 -0.0976562 8.01758 5.66406 14.9707 5.66406 Z M 14.9707 3.84766 C 8.93555 3.84766 4.08203 -1.01562 4.08203 -7.05078 C 4.08203 -13.0957 8.92578 -17.9492 14.9609 -17.9492 C 21.0059 -17.9492 25.8594 -13.0957 25.8691 -7.05078 C 25.8789 -1.01562 21.0156 3.84766 14.9707 3.84766 Z M 14.9414 -1.38672 C 15.5176 -1.38672 15.8594 -1.77734 15.8594 -2.38281 L 15.8594 -6.13281 L 19.7754 -6.13281 C 20.3711 -6.13281 20.7812 -6.46484 20.7812 -7.02148 C 20.7812 -7.59766 20.3906 -7.93945 19.7754 -7.93945 L 15.8594 -7.93945 L 15.8594 -11.8652 C 15.8594 -12.4805 15.5176 -12.8711 14.9414 -12.8711 C 14.375 -12.8711 14.0527 -12.4609 14.0527 -11.8652 L 14.0527 -7.93945 L 10.1465 -7.93945 C 9.53125 -7.93945 9.13086 -7.59766 9.13086 -7.02148 C 9.13086 -6.46484 9.55078 -6.13281 10.1465 -6.13281 L 14.0527 -6.13281 L 14.0527 -2.38281 C 14.0527 -1.79688 14.375 -1.38672 14.9414 -1.38672 Z"/>
  </g>
  <text style="stroke:none;fill:black;font-family:-apple-system,&quot;SF Pro Display&quot;,&quot;SF Pro Text&quot;,Helvetica,sans-serif;font-weight:bold;" transform="matrix(1 0 0 1 263 1953)">Design Variations</text>
  <text style="stroke:none;fill:black;font-family:-apple-system,&quot;SF Pro Display&quot;,&quot;SF Pro Text&quot;,Helvetica,sans-serif;" transform="matrix(1 0 0 1 263 1971)">Symbols are supported in up to nine weights and three scales.</text>
  <text style="stroke:none;fill:black;font-family:-apple-system,&quot;SF Pro Display&quot;,&quot;SF Pro Text&quot;,Helvetica,sans-serif;" transform="matrix(1 0 0 1 263 1989)">For optimal layout with text and other symbols, vertically align</text>
  <text style="stroke:none;fill:black;font-family:-apple-system,&quot;SF Pro Display&quot;,&quot;SF Pro Text&quot;,Helvetica,sans-serif;" transform="matrix(1 0 0 1 263 2007)">symbols with the adjacent text.</text>
  <line id="" style="fill:none;stroke:#00AEEF;stroke-width:0.5;opacity:1.0;" x1="776" x2="776" y1="1919" y2="1933"/>
  <g id="" transform="matrix(1 0 0 1 776 1933)">
   <path d="M 3.31055 0.126953 C 3.82812 0.126953 4.08203 -0.0683594 4.26758 -0.605469 L 5.52734 -4.0625 L 11.2891 -4.0625 L 12.5488 -0.605469 C 12.7344 -0.0683594 12.9883 0.126953 13.4961 0.126953 C 14.0137 0.126953 14.3457 -0.185547 14.3457 -0.673828 C 14.3457 -0.839844 14.3164 -0.986328 14.2383 -1.20117 L 9.6582 -13.3887 C 9.43359 -13.9941 9.0332 -14.2871 8.4082 -14.2871 C 7.80273 -14.2871 7.39258 -13.9941 7.17773 -13.3984 L 2.59766 -1.19141 C 2.51953 -0.976562 2.49023 -0.830078 2.49023 -0.664062 C 2.49023 -0.175781 2.80273 0.126953 3.31055 0.126953 Z M 6.00586 -5.53711 L 8.37891 -12.1094 L 8.42773 -12.1094 L 10.8008 -5.53711 Z"/>
  </g>
  <line id="" style="fill:none;stroke:#00AEEF;stroke-width:0.5;opacity:1.0;" x1="792.836" x2="792.836" y1="1919" y2="1933"/>
  <text style="stroke:none;fill:black;font-family:-apple-system,&quot;SF Pro Display&quot;,&quot;SF Pro Text&quot;,Helvetica,sans-serif;font-weight:bold;" transform="matrix(1 0 0 1 776 1953)">Margins</text>
  <text style="stroke:none;fill:black;font-family:-apple-system,&quot;SF Pro Display&quot;,&quot;SF Pro Text&quot;,Helvetica,sans-serif;" transform="matrix(1 0 0 1 776 1971)">Leading and trailing margins on the left and right side of each symbol</text>
  <text style="stroke:none;fill:black;font-family:-apple-system,&quot;SF Pro Display&quot;,&quot;SF Pro Text&quot;,Helvetica,sans-serif;" transform="matrix(1 0 0 1 776 1989)">can be adjusted by modifying the x-location of the margin guidelines.</text>
  <text style="stroke:none;fill:black;font-family:-apple-system,&quot;SF Pro Display&quot;,&quot;SF Pro Text&quot;,Helvetica,sans-serif;" transform="matrix(1 0 0 1 776 2007)">Modifications are automatically applied proportionally to all</text>
  <text style="stroke:none;fill:black;font-family:-apple-system,&quot;SF Pro Display&quot;,&quot;SF Pro Text&quot;,Helvetica,sans-serif;" transform="matrix(1 0 0 1 776 2025)">scales and weights.</text>
  <g id="" transform="matrix(1 0 0 1 1289 1933)">
   <path d="M 2.8418 1.86523 L 4.54102 3.57422 C 5.40039 4.44336 6.38672 4.38477 7.31445 3.35938 L 17.4902 -7.85156 C 17.7539 -7.76367 18.0273 -7.7832 18.3398 -7.8418 L 19.4043 -8.03711 L 20.0684 -7.36328 L 20.0293 -6.80664 C 19.9902 -6.30859 20.1172 -5.92773 20.6055 -5.44922 L 21.3672 -4.70703 C 21.8457 -4.22852 22.4609 -4.19922 22.9297 -4.66797 L 25.8398 -7.58789 C 26.3086 -8.05664 26.2891 -8.65234 25.8105 -9.13086 L 25.0391 -9.89258 C 24.5605 -10.3711 24.1895 -10.5273 23.7109 -10.4883 L 23.1348 -10.4395 L 22.4902 -11.0742 L 22.7344 -12.1973 C 22.8613 -12.7637 22.7051 -13.2031 22.1191 -13.7891 L 19.9219 -15.9766 C 16.582 -19.2969 12.1484 -19.2188 9.25781 -16.3281 C 8.83789 -15.918 8.80859 -15.3418 9.04297 -14.9512 C 9.27734 -14.5898 9.73633 -14.3555 10.3809 -14.5215 C 11.8457 -14.8633 13.3691 -14.9219 14.7949 -13.9844 L 14.209 -12.5293 C 14.0137 -12.0508 13.9844 -11.6504 14.1113 -11.2891 L 3.04688 -0.898438 C 2.06055 0.0195312 1.98242 0.996094 2.8418 1.86523 Z M 10.752 -15.957 C 13.1836 -17.7344 16.4746 -17.4316 18.7012 -15.2051 L 21.1328 -12.793 C 21.3672 -12.5586 21.4062 -12.373 21.3379 -12.0312 L 21.0156 -10.5469 L 22.5195 -9.0625 L 23.5059 -9.12109 C 23.7598 -9.13086 23.8379 -9.11133 24.0332 -8.91602 L 24.6094 -8.33984 L 22.168 -5.89844 L 21.5918 -6.47461 C 21.3965 -6.66992 21.3672 -6.74805 21.377 -7.01172 L 21.4453 -7.98828 L 19.9512 -9.47266 L 18.4277 -9.21875 C 18.1055 -9.15039 17.959 -9.17969 17.7148 -9.41406 L 15.7129 -11.416 C 15.459 -11.6504 15.4297 -11.8164 15.5859 -12.1875 L 16.4648 -14.2773 C 14.9023 -15.7324 12.8711 -16.3574 10.8398 -15.7617 C 10.6836 -15.7227 10.625 -15.8496 10.752 -15.957 Z M 5.27344 2.30469 L 4.10156 1.14258 C 3.63281 0.683594 3.74023 0.341797 4.14062 -0.0195312 L 14.9512 -10.1953 L 16.416 -8.71094 L 6.42578 2.27539 C 6.07422 2.67578 5.74219 2.77344 5.27344 2.30469 Z"/>
  </g>
  <text style="stroke:none;fill:black;font-family:-apple-system,&quot;SF Pro Display&quot;,&quot;SF Pro Text&quot;,Helvetica,sans-serif;font-weight:bold;" transform="matrix(1 0 0 1 1289 1953)">Exporting</text>
  <text style="stroke:none;fill:black;font-family:-apple-system,&quot;SF Pro Display&quot;,&quot;SF Pro Text&quot;,Helvetica,sans-serif;" transform="matrix(1 0 0 1 1289 1971)">Symbols should be outlined when exporting to ensure the</text>
  <text style="stroke:none;fill:black;font-family:-apple-system,&quot;SF Pro Display&quot;,&quot;SF Pro Text&quot;,Helvetica,sans-serif;" transform="matrix(1 0 0 1 1289 1989)">design is preserved when submitting to Xcode.</text>
  <text id="template-version" style="stroke:none;fill:black;font-family:-apple-system,&quot;SF Pro Display&quot;,&quot;SF Pro Text&quot;,Helvetica,sans-serif;text-anchor:end;" transform="matrix(1 0 0 1 3036 1933)">Template v.2.0</text>
  <text style="stroke:none;fill:black;font-family:-apple-system,&quot;SF Pro Display&quot;,&quot;SF Pro Text&quot;,Helvetica,sans-serif;text-anchor:end;" transform="matrix(1 0 0 1 3036 1951)">Requires Xcode 12 or greater</text>
  <text style="stroke:none;fill:black;font-family:-apple-system,&quot;SF Pro Display&quot;,&quot;SF Pro Text&quot;,Helvetica,sans-serif;text-anchor:end;" transform="matrix(1 0 0 1 3036 1969)">Generated from envelope.open</text>
  <text style="stroke:none;fill:black;font-family:-apple-system,&quot;SF Pro Display&quot;,&quot;SF Pro Text&quot;,Helvetica,sans-serif;text-anchor:end;" transform="matrix(1 0 0 1 3036 1987)">Typeset at 100 points</text>
  <text style="stroke:none;fill:black;font-family:-apple-system,&quot;SF Pro Display&quot;,&quot;SF Pro Text&quot;,Helvetica,sans-serif;" transform="matrix(1 0 0 1 263 726)">Small</text>
  <text style="stroke:none;fill:black;font-family:-apple-system,&quot;SF Pro Display&quot;,&quot;SF Pro Text&quot;,Helvetica,sans-serif;" transform="matrix(1 0 0 1 263 1156)">Medium</text>
  <text style="stroke:none;fill:black;font-family:-apple-system,&quot;SF Pro Display&quot;,&quot;SF Pro Text&quot;,Helvetica,sans-serif;" transform="matrix(1 0 0 1 263 1586)">Large</text>
 </g>
 <g id="Guides">
  <g id="H-reference" style="fill:#27AAE1;stroke:none;" transform="matrix(1 0 0 1 339 696)">
   <path d="M 0.976562 0 L 3.66211 0 L 12.9883 -24.4629 L 45.7031 -24.4629 L 55.0781 0 L 57.7148 0 L 30.6152 -70.459 L 28.125 -70.459 Z M 29.2969 -67.1387 L 29.3945 -67.1387 L 44.873 -26.709 L 13.8672 -26.709 Z"/>
  </g>
  <line id="Baseline-S" style="fill:none;stroke:#27AAE1;opacity:1;stroke-width:0.5;" x1="263" x2="3036" y1="696" y2="696"/>
  <line id="Capline-S" style="fill:none;stroke:#27AAE1;opacity:1;stroke-width:0.5;" x1="263" x2="3036" y1="625.541" y2="625.541"/>
  <g id="H-reference" style="fill:#27AAE1;stroke:none;" transform="matrix(1 0 0 1 339 1126)">
   <path d="M 0.976562 0 L 3.66211 0 L 12.9883 -24.4629 L 45.7031 -24.4629 L 55.0781 0 L 57.7148 0 L 30.6152 -70.459 L 28.125 -70.459 Z M 29.2969 -67.1387 L 29.3945 -67.1387 L 44.873 -26.709 L 13.8672 -26.709 Z"/>
  </g>
  <line id="Baseline-M" style="fill:none;stroke:#27AAE1;opacity:1;stroke-width:0.5;" x1="263" x2="3036" y1="1126" y2="1126"/>
  <line id="Capline-M" style="fill:none;stroke:#27AAE1;opacity:1;stroke-width:0.5;" x1="263" x2="3036" y1="1055.54" y2="1055.54"/>
  <g id="H-reference" style="fill:#27AAE1;stroke:none;" transform="matrix(1 0 0 1 339 1556)">
   <path d="M 0.976562 0 L 3.66211 0 L 12.9883 -24.4629 L 45.7031 -24.4629 L 55.0781 0 L 57.7148 0 L 30.6152 -70.459 L 28.125 -70.459 Z M 29.2969 -67.1387 L 29.3945 -67.1387 L 44.873 -26.709 L 13.8672 -26.709 Z"/>
  </g>
  <line id="Baseline-L" style="fill:none;stroke:#27AAE1;opacity:1;stroke-width:0.5;" x1="263" x2="3036" y1="1556" y2="1556"/>
  <line id="Capline-L" style="fill:none;stroke:#27AAE1;opacity:1;stroke-width:0.5;" x1="263" x2="3036" y1="1485.54" y2="1485.54"/>
  <line id="left-margin" style="fill:none;stroke:#00AEEF;stroke-width:0.5;opacity:1.0;" x1="1383.49" x2="1383.49" y1="1030.79" y2="1150.12"/>
  <line id="right-margin" style="fill:none;stroke:#00AEEF;stroke-width:0.5;opacity:1.0;" x1="1516.2" x2="1516.2" y1="1030.79" y2="1150.12"/>
 </g>
 <g id="Symbols">
  <g id="Black-L" transform="matrix(1 0 0 1 2842.68 1556)">
   <path d="M 39.9902 28.7598 L 141.455 28.7598 C 156.689 28.7598 165.381 20.166 165.381 4.98047 L 165.381 -54.3945 C 165.381 -70.6543 162.5 -72.6562 151.611 -80.0781 L 108.691 -110.352 C 101.367 -115.381 97.3145 -117.773 90.7227 -117.773 C 84.1309 -117.773 80.127 -115.381 72.7539 -110.352 L 29.834 -80.0781 C 19.0918 -72.7051 16.0645 -70.6543 16.0645 -54.3945 L 16.0645 4.98047 C 16.0645 20.166 24.7559 28.7598 39.9902 28.7598 Z M 105.615 -39.5996 C 100.684 -44.5312 95.6055 -46.9238 90.0391 -46.9238 C 84.4238 -46.9238 79.3457 -44.5801 74.3652 -39.5996 L 72.5098 -37.793 L 42.9199 -67.3828 L 83.5449 -96.7773 C 86.1816 -98.6816 87.9883 -99.5605 90.7227 -99.5605 C 93.457 -99.5605 95.3125 -98.6328 97.9004 -96.7773 L 137.695 -67.9199 L 107.52 -37.7441 Z M 118.799 -26.6113 L 146.826 -54.6387 L 146.826 0.976562 Z M 34.6191 -53.2227 L 61.1816 -26.6602 L 34.6191 -0.390625 Z M 84.2285 -27.2461 C 86.5723 -29.5898 88.1348 -30.5176 90.0391 -30.5176 C 91.8945 -30.5176 93.457 -29.5898 95.8008 -27.2461 L 133.203 9.76562 L 46.8262 9.76562 Z"/>
  </g>
  <g id="Heavy-L" transform="matrix(1 0 0 1 2547.33 1556)">
   <path d="M 38.8184 28.5156 L 139.893 28.5156 C 154.492 28.5156 162.646 20.4102 162.646 5.85938 L 162.646 -54.4922 C 162.646 -69.0918 160.059 -71.4844 150.195 -78.3203 L 106.006 -110.303 C 99.4629 -114.941 95.459 -117.236 89.3555 -117.236 C 83.252 -117.236 79.2969 -114.941 72.7051 -110.303 L 28.5156 -78.3203 C 18.7988 -71.5332 16.0645 -69.0918 16.0645 -54.4922 L 16.0645 5.85938 C 16.0645 20.4102 24.2188 28.5156 38.8184 28.5156 Z M 103.711 -37.9883 C 98.9258 -42.6758 94.0918 -44.9219 88.8672 -44.9219 C 83.5938 -44.9219 78.7598 -42.7246 73.9258 -37.9883 L 71.4844 -35.5469 L 39.6484 -67.1875 L 82.0312 -98.3398 C 84.7168 -100.342 86.5723 -101.318 89.3555 -101.318 C 92.1387 -101.318 93.9941 -100.293 96.6797 -98.3398 L 138.428 -67.5781 L 106.201 -35.498 Z M 146.533 -55.0781 L 146.533 4.15039 L 116.211 -25.6836 L 146.533 -55.8594 C 146.533 -55.6152 146.533 -55.3711 146.533 -55.0781 Z M 32.1777 -54.8828 L 61.4746 -25.7324 L 32.1777 3.17383 Z M 82.6172 -27.0508 C 85.0586 -29.4434 86.8652 -30.4199 88.8672 -30.4199 C 90.8691 -30.4199 92.627 -29.4434 95.1172 -27.0508 L 134.668 12.0605 L 43.0664 12.0605 Z"/>
  </g>
  <g id="Bold-L" transform="matrix(1 0 0 1 2252.16 1556)">
   <path d="M 37.5 28.2227 L 138.135 28.2227 C 152.051 28.2227 159.57 20.7031 159.57 6.93359 L 159.57 -54.6387 C 159.57 -67.3828 157.275 -70.2148 148.633 -76.3672 L 102.979 -110.254 C 97.2656 -114.404 93.3594 -116.699 87.8418 -116.699 C 82.2754 -116.699 78.3691 -114.404 72.6562 -110.254 L 27.002 -76.3672 C 18.457 -70.2148 16.0645 -67.3828 16.0645 -54.6387 L 16.0645 6.93359 C 16.0645 20.752 23.6328 28.2227 37.5 28.2227 Z M 101.611 -36.1328 C 97.0215 -40.6738 92.4316 -42.6758 87.5488 -42.6758 C 82.7148 -42.6758 78.125 -40.6738 73.4863 -36.1328 L 70.3613 -33.0566 L 36.0352 -66.9922 L 80.3223 -100.098 C 83.1543 -102.197 84.9609 -103.32 87.8418 -103.32 C 90.6738 -103.32 92.5293 -102.197 95.3125 -100.098 L 139.307 -67.1875 L 104.785 -33.0078 Z M 146.191 -55.4688 L 146.191 6.00586 C 146.191 6.54297 146.143 7.08008 146.094 7.56836 L 113.281 -24.6582 L 146.143 -57.1289 C 146.143 -56.6406 146.191 -56.0547 146.191 -55.4688 Z M 29.4434 6.00586 L 29.4434 -55.4688 C 29.4434 -55.9082 29.4922 -56.2988 29.4922 -56.6895 L 61.8164 -24.6582 L 29.4922 7.12891 C 29.4922 6.73828 29.4434 6.39648 29.4434 6.00586 Z M 80.8105 -26.8066 C 83.3496 -29.2969 85.4004 -30.3223 87.5488 -30.3223 C 89.7461 -30.3223 91.748 -29.3457 94.3359 -26.8066 L 136.23 14.5996 L 38.8672 14.5996 Z"/>
  </g>
  <g id="Semibold-L" transform="matrix(1 0 0 1 1956.5 1556)">
   <path d="M 36.6211 28.0273 L 136.914 28.0273 C 150.342 28.0273 157.471 20.9473 157.471 7.61719 L 157.471 -54.7363 C 157.471 -66.2109 155.371 -69.2871 147.559 -75 L 100.928 -110.254 C 95.8008 -114.062 91.9434 -116.309 86.7676 -116.309 C 81.6406 -116.309 77.7832 -114.062 72.6562 -110.254 L 25.9766 -75 C 18.2617 -69.3359 16.0645 -66.2109 16.0645 -54.7363 L 16.0645 7.61719 C 16.0645 20.9961 23.1934 28.0273 36.6211 28.0273 Z M 100.146 -34.8633 C 95.7031 -39.2578 91.2598 -41.1621 86.6699 -41.1621 C 82.0801 -41.1621 77.6367 -39.3066 73.1934 -34.8633 L 69.5312 -31.2988 L 33.5449 -66.8457 L 79.1504 -101.318 C 82.0312 -103.467 83.8867 -104.639 86.7676 -104.639 C 89.6484 -104.639 91.5039 -103.467 94.3848 -101.318 L 139.844 -66.8945 L 103.809 -31.2988 Z M 145.947 -55.7617 L 145.947 7.03125 C 145.947 8.05664 145.85 8.98438 145.703 9.81445 L 111.279 -23.9746 L 145.85 -58.0078 C 145.898 -57.3242 145.947 -56.5918 145.947 -55.7617 Z M 27.5879 7.03125 L 27.5879 -55.7617 C 27.5879 -56.4941 27.6367 -57.2266 27.6855 -57.8613 L 62.0605 -23.9746 L 27.832 9.66797 C 27.6855 8.88672 27.5879 7.95898 27.5879 7.03125 Z M 36.8164 16.3574 C 36.5723 16.3574 36.2793 16.3574 36.0352 16.3086 L 79.5898 -26.6602 C 82.1777 -29.1992 84.4238 -30.2734 86.6699 -30.2734 C 88.9648 -30.2734 91.1621 -29.248 93.75 -26.6602 L 137.354 16.3574 C 137.158 16.3574 136.914 16.3574 136.719 16.3574 Z"/>
  </g>
  <g id="Medium-L" transform="matrix(1 0 0 1 1660.59 1556)">
   <path d="M 35.9375 27.8809 L 135.986 27.8809 C 149.072 27.8809 155.859 21.0938 155.859 8.1543 L 155.859 -54.7852 C 155.859 -65.2832 153.906 -68.6523 146.777 -73.9746 L 99.3164 -110.205 C 94.6777 -113.77 90.8203 -116.016 85.9863 -116.016 C 81.1035 -116.016 77.2949 -113.77 72.6074 -110.205 L 25.1953 -73.9746 C 18.0664 -68.6523 16.0645 -65.2832 16.0645 -54.7852 L 16.0645 8.1543 C 16.0645 21.1426 22.9004 27.8809 35.9375 27.8809 Z M 99.0234 -33.9355 C 94.6777 -38.2324 90.3809 -39.9902 85.9863 -39.9902 C 81.5918 -39.9902 77.2949 -38.2324 72.9492 -33.9355 L 68.9453 -30.0293 L 31.6895 -66.6992 L 78.2715 -102.246 C 81.2012 -104.443 83.0566 -105.713 85.9863 -105.713 C 88.8672 -105.713 90.7715 -104.443 93.6523 -102.246 L 140.283 -66.6992 L 103.027 -29.9805 Z M 26.1719 7.8125 L 26.1719 -55.957 C 26.1719 -56.9824 26.2207 -57.9102 26.3184 -58.7402 L 62.2559 -23.4375 L 26.6113 11.5234 C 26.3184 10.4492 26.1719 9.17969 26.1719 7.8125 Z M 145.752 -55.957 L 145.752 7.8125 C 145.752 9.17969 145.605 10.4004 145.312 11.4746 L 109.766 -23.4375 L 145.605 -58.6914 C 145.703 -57.8613 145.752 -56.9824 145.752 -55.957 Z M 35.9863 17.6758 C 35.2539 17.6758 34.5703 17.627 33.9355 17.5781 L 78.6621 -26.5137 C 81.25 -29.1504 83.6426 -30.2246 85.9863 -30.2246 C 88.3301 -30.2246 90.7227 -29.1504 93.3594 -26.5137 L 138.037 17.5293 C 137.402 17.627 136.719 17.6758 135.986 17.6758 Z"/>
  </g>
  <g id="Regular-L" transform="matrix(1 0 0 1 1364.91 1556)">
   <path d="M 35.0586 27.6855 L 134.766 27.6855 C 147.363 27.6855 153.809 21.2891 153.809 8.88672 L 153.809 -54.8828 C 153.809 -64.1113 152.002 -67.7734 145.703 -72.6562 L 97.2656 -110.205 C 93.1641 -113.428 89.4043 -115.625 84.9121 -115.625 C 80.4688 -115.625 76.6602 -113.428 72.6074 -110.205 L 24.1699 -72.6562 C 17.8223 -67.7734 16.0645 -64.1113 16.0645 -54.8828 L 16.0645 8.88672 C 16.0645 21.3379 22.4609 27.6855 35.0586 27.6855 Z M 97.6074 -32.666 C 93.3594 -36.8164 89.2578 -38.4766 85.1074 -38.4766 C 80.957 -38.4766 76.8555 -36.8164 72.6074 -32.666 L 68.1641 -28.3203 L 29.1992 -66.5527 L 77.1484 -103.418 C 80.127 -105.713 81.9824 -107.031 84.9121 -107.031 C 87.8418 -107.031 89.7461 -105.713 92.7246 -103.418 L 140.674 -66.5039 L 140.869 -66.3574 L 102.051 -28.3203 Z M 24.3164 8.78906 L 24.3164 -56.2012 C 24.3164 -57.6172 24.4141 -58.7891 24.6094 -59.8145 L 62.5 -22.7051 L 25.1465 13.8672 C 24.6094 12.4512 24.3164 10.7422 24.3164 8.78906 Z M 145.557 -56.2012 L 145.557 8.78906 C 145.557 10.6445 145.264 12.207 144.775 13.5742 L 107.764 -22.7051 L 145.312 -59.5215 C 145.459 -58.5449 145.557 -57.4707 145.557 -56.2012 Z M 34.8633 19.4336 C 33.5449 19.4336 32.373 19.2871 31.3477 19.043 L 77.4414 -26.3672 C 80.127 -29.0527 82.666 -30.1758 85.1074 -30.1758 C 87.5488 -30.1758 90.0879 -29.0527 92.8223 -26.3672 L 138.818 18.9453 C 137.695 19.2871 136.426 19.4336 135.01 19.4336 Z"/>
  </g>
  <g id="Light-L" transform="matrix(1 0 0 1 1069.15 1556)">
   <path d="M 34.0332 27.2461 L 133.936 27.2461 C 145.801 27.2461 151.904 21.0938 151.904 9.375 L 151.904 -55.7129 C 151.904 -65.2344 150.293 -68.3105 143.506 -73.4863 L 95.459 -109.912 C 91.9922 -112.646 88.2812 -114.648 83.9844 -114.648 C 79.6875 -114.648 75.9766 -112.646 72.5098 -109.912 L 24.4629 -73.4863 C 17.6758 -68.3105 16.0645 -65.2344 16.0645 -55.7129 L 16.0645 9.375 C 16.0645 21.1914 22.168 27.2461 34.0332 27.2461 Z M 28.1738 -68.6035 L 75.8789 -104.639 C 78.6621 -106.787 80.7617 -108.105 83.9844 -108.105 C 87.1582 -108.105 89.3066 -106.787 92.1387 -104.639 L 139.795 -68.6035 C 140.332 -68.2129 140.82 -67.8223 141.309 -67.4316 L 100.83 -28.1738 L 95.8984 -32.959 C 91.9434 -36.8652 88.0371 -38.3301 84.2773 -38.3301 C 80.5664 -38.3301 76.6113 -36.8652 72.6562 -32.959 L 67.7246 -28.1738 L 27.002 -67.6758 C 27.3926 -67.9688 27.7832 -68.3105 28.1738 -68.6035 Z M 22.4121 9.27734 L 22.4121 -56.543 C 22.4121 -59.1797 22.6074 -61.084 23.1445 -62.6465 L 63.2812 -23.8281 L 23.4863 15.0879 C 22.8027 13.4766 22.4121 11.5234 22.4121 9.27734 Z M 145.557 -56.543 L 145.557 9.27734 C 145.557 11.3281 145.215 13.1348 144.629 14.6484 L 105.322 -23.8281 L 144.971 -62.207 C 145.41 -60.7422 145.557 -58.9355 145.557 -56.543 Z M 33.9355 20.8496 C 31.543 20.8496 29.4922 20.459 27.7832 19.6289 L 76.5137 -28.1738 C 79.1504 -30.8105 81.9336 -31.9336 84.2773 -31.9336 C 86.6699 -31.9336 89.3555 -30.8594 92.041 -28.1738 L 140.527 19.4336 C 138.77 20.3613 136.572 20.8496 134.033 20.8496 Z"/>
  </g>
  <g id="Thin-L" transform="matrix(1 0 0 1 773.683 1556)">
   <path d="M 32.666 26.6602 L 132.812 26.6602 C 143.701 26.6602 149.414 20.8008 149.414 10.0586 L 149.414 -56.8359 C 149.414 -66.6504 148.047 -69.0918 140.674 -74.5605 L 93.0176 -109.57 C 90.3809 -111.572 86.7676 -113.281 82.7637 -113.281 C 78.7109 -113.281 75.0977 -111.572 72.4609 -109.57 L 24.8047 -74.5605 C 17.4316 -69.0918 16.0645 -66.6504 16.0645 -56.8359 L 16.0645 10.0586 C 16.0645 20.9473 21.7773 26.6602 32.666 26.6602 Z M 93.7012 -33.3984 C 90.0879 -36.8652 86.377 -38.1348 83.2031 -38.1348 C 79.9805 -38.1348 76.3184 -36.8652 72.6562 -33.3984 L 67.1387 -27.9785 L 24.1211 -69.1895 C 24.9023 -69.873 25.7812 -70.6055 26.8555 -71.3867 L 74.1699 -106.25 C 76.8066 -108.154 79.1504 -109.521 82.7637 -109.521 C 86.2793 -109.521 88.6719 -108.154 91.3086 -106.25 L 138.623 -71.3867 C 139.893 -70.4102 140.967 -69.5801 141.797 -68.75 L 99.2676 -27.9785 Z M 19.9219 9.91211 L 19.9219 -57.0312 C 19.9219 -61.377 20.2148 -63.9648 21.4844 -66.1133 L 64.3066 -25.2441 L 21.2402 16.6992 C 20.3613 14.8438 19.9219 12.5977 19.9219 9.91211 Z M 145.557 -57.0312 L 145.557 9.91211 C 145.557 12.3047 145.166 14.3066 144.482 16.0645 L 102.051 -25.2441 L 144.287 -65.5762 C 145.312 -63.4766 145.557 -60.9863 145.557 -57.0312 Z M 32.7637 22.7539 C 28.8574 22.7539 25.7812 21.8262 23.6328 19.9219 L 75.3418 -30.6152 C 77.9297 -33.2031 80.9082 -34.2285 83.2031 -34.2285 C 85.4492 -34.2285 88.3789 -33.252 91.0645 -30.6152 L 142.236 19.4824 C 140.039 21.6309 136.816 22.7539 132.715 22.7539 Z"/>
  </g>
  <g id="Ultralight-L" transform="matrix(1 0 0 1 477.607 1556)">
   <path d="M 31.9824 26.3672 L 132.227 26.3672 C 142.627 26.3672 148.145 20.6543 148.145 10.4004 L 148.145 -57.4219 C 148.145 -67.3828 146.924 -69.4824 139.209 -75.0977 L 91.7969 -109.424 C 89.5996 -110.986 85.9863 -112.646 82.0801 -112.646 C 78.2227 -112.646 74.6094 -110.986 72.4121 -109.424 L 25 -75.0977 C 17.2852 -69.4824 16.0645 -67.3828 16.0645 -57.4219 L 16.0645 10.4004 C 16.0645 20.8008 21.582 26.3672 31.9824 26.3672 Z M 92.5781 -33.5938 C 89.1113 -36.8652 85.5469 -38.0371 82.6172 -38.0371 C 79.6875 -38.0371 76.123 -36.8652 72.7051 -33.5938 L 66.7969 -27.8809 L 22.6562 -69.9219 C 23.584 -70.8008 24.7559 -71.7285 26.1719 -72.8027 L 73.291 -107.08 C 75.8301 -108.887 78.3203 -110.254 82.0801 -110.254 C 85.791 -110.254 88.3789 -108.887 90.918 -107.08 L 137.988 -72.8027 C 139.697 -71.5332 141.016 -70.459 142.09 -69.4336 L 98.4375 -27.8809 Z M 18.6523 10.2539 L 18.6523 -57.2754 C 18.6523 -62.5 18.9941 -65.2832 20.752 -67.8223 L 64.8438 -25.9766 L 20.1172 17.5293 C 19.1406 15.5273 18.6523 13.1348 18.6523 10.2539 Z M 145.557 -57.2754 L 145.557 10.2539 C 145.557 12.7441 145.166 14.9414 144.385 16.748 L 100.391 -25.9766 L 143.848 -67.1875 C 145.264 -64.8438 145.557 -62.0605 145.557 -57.2754 Z M 32.1777 23.7305 C 27.4414 23.7305 23.9746 22.4609 21.6797 19.9219 L 74.707 -31.8359 C 77.2949 -34.4238 80.3711 -35.4492 82.6172 -35.4492 C 84.8633 -35.4492 87.8906 -34.4727 90.5273 -31.8359 L 142.92 19.2871 C 140.625 22.2656 136.914 23.7305 132.031 23.7305 Z"/>
  </g>
  <g id="Black-M" transform="matrix(1 0 0 1 2861.74 1126)">
   <path d="M 31.9824 14.502 L 111.328 14.502 C 123.584 14.502 130.859 7.22656 130.859 -5.0293 L 130.859 -50.3906 C 130.859 -65.332 128.369 -66.0645 118.213 -72.7539 L 86.9141 -93.3594 C 80.5664 -97.5586 77.2949 -99.3652 71.6309 -99.3652 C 65.9668 -99.3652 62.793 -97.5586 56.3965 -93.3594 L 25.0977 -72.7539 C 15.0879 -66.1621 12.4512 -65.332 12.4512 -50.3906 L 12.4512 -5.0293 C 12.4512 7.22656 19.7266 14.502 31.9824 14.502 Z M 83.4961 -41.0156 C 79.5898 -44.873 75.4395 -46.875 70.8984 -46.875 C 66.3086 -46.875 62.1582 -44.9219 58.2031 -41.0156 L 57.3242 -40.1367 L 36.4746 -60.9863 L 66.1133 -81.4453 C 67.9688 -82.7148 69.4336 -83.3008 71.6309 -83.3008 C 73.8281 -83.3008 75.3906 -82.666 77.1973 -81.4453 L 105.908 -61.6211 L 84.4238 -40.1367 Z M 114.209 -50.0488 L 114.209 -10.791 L 94.2871 -30.3711 L 114.209 -50.293 C 114.209 -50.0488 114.209 -50.0488 114.209 -50.0488 Z M 29.1016 -48.7305 L 47.4609 -30.4199 L 29.1016 -12.3047 Z M 66.9434 -30.3223 C 68.6523 -31.9824 69.6289 -32.6172 70.8984 -32.6172 C 72.1191 -32.6172 73.0957 -31.9824 74.8047 -30.3223 L 102.734 -2.68555 L 39.0137 -2.68555 Z"/>
  </g>
  <g id="Heavy-M" transform="matrix(1 0 0 1 2566.3 1126)">
   <path d="M 31.0059 14.3066 L 109.814 14.3066 C 121.582 14.3066 128.32 7.56836 128.32 -4.19922 L 128.32 -50.293 C 128.32 -63.3789 126.123 -64.6484 117.236 -70.6543 L 84.4238 -93.3594 C 78.7598 -97.2656 75.5859 -99.0723 70.4102 -99.0723 C 65.2344 -99.0723 62.1094 -97.2656 56.3477 -93.3594 L 23.5352 -70.6543 C 14.8438 -64.6973 12.4512 -63.3789 12.4512 -50.293 L 12.4512 -4.19922 C 12.4512 7.56836 19.2383 14.3066 31.0059 14.3066 Z M 81.8848 -39.1113 C 78.0762 -42.8711 74.1211 -44.7266 69.8242 -44.7266 C 65.5273 -44.7266 61.5723 -42.9199 57.7148 -39.1113 L 56.2988 -37.7441 L 33.4961 -60.498 L 64.7949 -82.8613 C 66.748 -84.2773 68.2129 -84.9121 70.4102 -84.9121 C 72.5586 -84.9121 74.0723 -84.2285 76.0254 -82.8613 L 106.641 -60.9863 L 83.3008 -37.6953 Z M 113.867 -50.3418 L 113.867 -7.66602 L 92.0898 -29.1016 L 113.867 -50.7812 C 113.867 -50.3418 113.867 -50.3418 113.867 -50.3418 Z M 26.9043 -49.6582 L 47.5586 -29.1016 L 26.9043 -8.78906 Z M 65.4297 -29.5898 C 67.2363 -31.3965 68.457 -32.0801 69.8242 -32.0801 C 71.2402 -32.0801 72.4121 -31.3965 74.2188 -29.5898 L 103.613 -0.537109 L 36.0352 -0.537109 Z"/>
  </g>
  <g id="Bold-M" transform="matrix(1 0 0 1 2270.98 1126)">
   <path d="M 29.8828 14.1113 L 108.105 14.1113 C 119.336 14.1113 125.537 7.95898 125.537 -3.22266 L 125.537 -50.1465 C 125.537 -61.1816 123.584 -63.0859 116.162 -68.2617 L 81.6406 -93.4082 C 76.709 -96.9238 73.6328 -98.7305 68.9941 -98.7305 C 64.3555 -98.7305 61.3281 -96.9238 56.3477 -93.4082 L 21.8262 -68.2617 C 14.502 -63.1348 12.4512 -61.1816 12.4512 -50.1465 L 12.4512 -3.22266 C 12.4512 7.95898 18.6523 14.1113 29.8828 14.1113 Z M 80.0781 -37.0117 C 76.3672 -40.6738 72.6562 -42.334 68.6523 -42.334 C 64.6484 -42.334 60.9375 -40.6738 57.2266 -37.0117 L 55.2246 -35.0586 L 30.1758 -59.9609 L 63.2812 -84.4238 C 65.4297 -85.9863 66.8457 -86.7676 68.9941 -86.7676 C 71.1426 -86.7676 72.6074 -85.9863 74.707 -84.4238 L 107.422 -60.2051 L 82.0801 -35.0098 Z M 113.477 -50.6836 L 113.477 -4.15039 L 89.5996 -27.6367 L 113.477 -51.3672 C 113.477 -51.1719 113.477 -50.9277 113.477 -50.6836 Z M 24.5117 -50.6836 L 24.5117 -50.7324 L 47.7051 -27.6367 L 24.5117 -4.83398 Z M 63.7207 -28.8086 C 65.625 -30.7129 67.0898 -31.4453 68.6523 -31.4453 C 70.2637 -31.4453 71.6797 -30.7129 73.584 -28.8086 L 104.59 1.80664 L 32.7148 1.80664 Z"/>
  </g>
  <g id="Semibold-M" transform="matrix(1 0 0 1 1975.22 1126)">
   <path d="M 29.1016 14.0137 L 106.982 14.0137 C 117.822 14.0137 123.633 8.20312 123.633 -2.53906 L 123.633 -50.0977 C 123.633 -59.668 121.826 -62.0117 115.43 -66.6504 L 79.7363 -93.4082 C 75.3418 -96.6797 72.2656 -98.4863 68.0176 -98.4863 C 63.7695 -98.4863 60.791 -96.6797 56.2988 -93.4082 L 20.6543 -66.6504 C 14.3066 -62.0117 12.4512 -59.668 12.4512 -50.0977 L 12.4512 -2.53906 C 12.4512 8.25195 18.2617 14.0137 29.1016 14.0137 Z M 78.8086 -35.5957 C 75.1953 -39.1113 71.6309 -40.7227 67.8711 -40.7227 C 64.0625 -40.7227 60.498 -39.1602 56.8848 -35.5957 L 54.4434 -33.2031 L 27.8809 -59.5703 L 62.3047 -85.498 C 64.502 -87.207 65.8691 -88.0371 68.0176 -88.0371 C 70.166 -88.0371 71.582 -87.1582 73.7793 -85.498 L 107.959 -59.7168 L 81.25 -33.1543 Z M 113.232 -50.8789 L 113.232 -3.17383 C 113.232 -2.68555 113.232 -2.24609 113.184 -1.80664 L 87.8906 -26.6602 L 113.232 -51.7578 C 113.232 -51.5137 113.232 -51.2207 113.232 -50.8789 Z M 22.8516 -3.17383 L 22.8516 -50.8789 C 22.8516 -51.2695 22.8516 -51.0742 22.8516 -51.416 L 47.8027 -26.6602 L 22.9004 -2.14844 C 22.8516 -2.44141 22.8516 -2.7832 22.8516 -3.17383 Z M 62.5488 -28.2715 C 64.5508 -30.2246 66.1133 -31.0547 67.8711 -31.0547 C 69.5801 -31.0547 71.1426 -30.2246 73.1445 -28.2715 L 105.273 3.4668 L 30.4688 3.4668 Z"/>
  </g>
  <g id="Medium-M" transform="matrix(1 0 0 1 1679.25 1126)">
   <path d="M 28.5156 13.916 L 106.104 13.916 C 116.65 13.916 122.168 8.44727 122.168 -2.00195 L 122.168 -50.0488 C 122.168 -58.4961 120.508 -61.1816 114.893 -65.3809 L 78.3203 -93.457 C 74.2676 -96.5332 71.2891 -98.3398 67.2852 -98.3398 C 63.3301 -98.3398 60.3516 -96.5332 56.2988 -93.457 L 19.7266 -65.3809 C 14.1602 -61.1816 12.4512 -58.4961 12.4512 -50.0488 L 12.4512 -2.00195 C 12.4512 8.44727 17.9688 13.916 28.5156 13.916 Z M 77.832 -34.4727 C 74.3164 -37.9883 70.8984 -39.4531 67.2363 -39.4531 C 63.5742 -39.4531 60.1562 -37.9883 56.6406 -34.4727 L 53.8574 -31.7871 L 26.123 -59.2285 L 61.5234 -86.3281 C 63.8184 -88.0859 65.1855 -89.0137 67.2852 -89.0137 C 69.4336 -89.0137 70.8496 -88.0859 73.0957 -86.3281 L 108.398 -59.2773 L 80.6152 -31.7871 Z M 113.037 -51.0742 L 113.037 -2.39258 C 113.037 -1.5625 112.988 -0.78125 112.793 -0.0976562 L 86.5723 -25.8789 L 113.037 -52.0508 C 113.037 -51.7578 113.037 -51.416 113.037 -51.0742 Z M 21.582 -2.39258 L 21.582 -51.0742 C 21.582 -51.3672 21.582 -51.6602 21.582 -51.9043 L 47.9004 -25.8789 L 21.7773 -0.244141 C 21.6309 -0.878906 21.582 -1.61133 21.582 -2.39258 Z M 61.6699 -27.832 C 63.7207 -29.8828 65.4297 -30.7129 67.2363 -30.7129 C 69.043 -30.7129 70.752 -29.8828 72.8027 -27.832 L 105.762 4.6875 L 28.7109 4.6875 Z"/>
  </g>
  <g id="Regular-M" transform="matrix(1 0 0 1 1383.49 1126)">
   <path d="M 27.7832 13.7695 L 104.932 13.7695 C 115.137 13.7695 120.264 8.69141 120.264 -1.36719 L 120.264 -49.9512 C 120.264 -56.9824 118.799 -60.1074 114.16 -63.7695 L 76.416 -93.457 C 72.9004 -96.2891 69.9707 -98.0957 66.3574 -98.0957 C 62.7441 -98.0957 59.8145 -96.2891 56.2988 -93.457 L 18.5547 -63.7695 C 13.916 -60.1074 12.4512 -56.9824 12.4512 -49.9512 L 12.4512 -1.36719 C 12.4512 8.74023 17.5781 13.7695 27.7832 13.7695 Z M 76.6113 -33.0566 C 73.1934 -36.4746 69.873 -37.8418 66.4551 -37.8418 C 62.9883 -37.8418 59.7168 -36.4746 56.2988 -33.0566 L 53.125 -29.9316 L 23.877 -58.8379 L 60.498 -87.4023 C 62.8906 -89.2578 64.209 -90.2832 66.3574 -90.2832 C 68.457 -90.2832 69.8242 -89.2578 72.2168 -87.4023 L 108.936 -58.7402 L 79.7852 -29.9316 Z M 19.9219 -1.36719 L 19.9219 -51.2695 C 19.9219 -51.7578 19.9219 -52.1973 19.9707 -52.5879 L 47.998 -24.9023 L 20.459 2.09961 C 20.1172 1.12305 19.9219 -0.0488281 19.9219 -1.36719 Z M 112.793 -51.2695 L 112.793 -1.36719 C 112.793 -0.0976562 112.598 1.02539 112.256 2.00195 L 84.9121 -24.9023 L 112.744 -52.4414 C 112.793 -52.0996 112.793 -51.709 112.793 -51.2695 Z M 27.4902 6.29883 C 27.1484 6.29883 26.8066 6.29883 26.5137 6.25 L 60.5469 -27.2949 C 62.5977 -29.3945 64.502 -30.3223 66.4551 -30.3223 C 68.3594 -30.3223 70.2637 -29.3945 72.3633 -27.2949 L 106.348 6.25 C 106.006 6.29883 105.615 6.29883 105.225 6.29883 Z"/>
  </g>
  <g id="Light-M" transform="matrix(1 0 0 1 1087.63 1126)">
   <path d="M 26.8555 13.3789 L 104.199 13.3789 C 113.672 13.3789 118.555 8.49609 118.555 -0.878906 L 118.555 -50.7324 C 118.555 -57.959 117.236 -60.6445 112.207 -64.502 L 74.8047 -93.2129 C 71.8262 -95.5566 68.8965 -97.2168 65.5273 -97.2168 C 62.1094 -97.2168 59.1797 -95.5566 56.25 -93.2129 L 18.8477 -64.502 C 13.7695 -60.6445 12.4512 -57.959 12.4512 -50.7324 L 12.4512 -0.878906 C 12.4512 8.54492 17.334 13.3789 26.8555 13.3789 Z M 75.0977 -33.3496 C 71.875 -36.4746 68.75 -37.6953 65.6738 -37.6953 C 62.5977 -37.6953 59.4727 -36.4746 56.2988 -33.3496 L 52.6855 -29.834 L 21.9238 -59.8633 C 22.0215 -59.9609 22.168 -60.0586 22.3145 -60.1562 L 59.375 -88.4766 C 61.6211 -90.1855 63.1348 -91.2109 65.5273 -91.2109 C 67.8711 -91.2109 69.4336 -90.1855 71.6797 -88.4766 L 108.74 -60.1562 C 108.936 -60.0098 109.131 -59.8633 109.326 -59.7168 L 78.7109 -29.834 Z M 18.2129 -0.927734 L 18.2129 -51.6113 C 18.2129 -53.0762 18.3105 -54.248 18.5547 -55.2246 L 48.6816 -25.8789 L 18.9453 3.22266 C 18.457 2.05078 18.2129 0.683594 18.2129 -0.927734 Z M 112.793 -51.6113 L 112.793 -0.927734 C 112.793 0.537109 112.598 1.85547 112.158 2.92969 L 82.7148 -25.8789 L 112.5 -54.9316 C 112.695 -54.0039 112.793 -52.9297 112.793 -51.6113 Z M 26.709 7.61719 C 25.3418 7.61719 24.1211 7.42188 23.0957 7.08008 L 59.7168 -28.9551 C 61.7676 -31.0059 63.8184 -31.8848 65.6738 -31.8848 C 67.5781 -31.8848 69.5801 -31.0547 71.6797 -28.9551 L 108.203 6.93359 C 107.08 7.37305 105.762 7.61719 104.297 7.61719 Z"/>
  </g>
  <g id="Thin-M" transform="matrix(1 0 0 1 792.018 1126)">
   <path d="M 25.6348 12.8418 L 103.174 12.8418 C 111.816 12.8418 116.357 8.25195 116.357 -0.292969 L 116.357 -51.7578 C 116.357 -59.2773 115.234 -61.3281 109.619 -65.4785 L 72.6074 -92.9199 C 70.4102 -94.6289 67.5781 -96.0449 64.4043 -96.0449 C 61.2305 -96.0449 58.3984 -94.6289 56.1523 -92.9199 L 19.1406 -65.4785 C 13.5742 -61.3281 12.4512 -59.2773 12.4512 -51.7578 L 12.4512 -0.292969 C 12.4512 8.34961 16.9922 12.8418 25.6348 12.8418 Z M 73.0957 -33.6914 C 70.2148 -36.4746 67.2852 -37.5488 64.6973 -37.5488 C 62.1094 -37.5488 59.1797 -36.4746 56.2988 -33.6914 L 52.1484 -29.6387 L 19.3359 -61.2305 C 19.8242 -61.6699 20.4102 -62.1582 21.0938 -62.6465 L 57.8613 -89.9414 C 59.9121 -91.4551 61.6699 -92.4805 64.4043 -92.4805 C 67.041 -92.4805 68.8477 -91.4551 70.9473 -89.9414 L 107.666 -62.6465 C 108.496 -62.0117 109.229 -61.4746 109.814 -60.9375 L 77.2461 -29.6387 Z M 16.0156 -0.390625 L 16.0156 -52.002 C 16.0156 -54.9805 16.2109 -56.8848 16.9922 -58.4473 L 49.6094 -27.1973 L 16.9434 4.63867 C 16.3086 3.27148 16.0156 1.61133 16.0156 -0.390625 Z M 112.793 -52.002 L 112.793 -0.390625 C 112.793 1.36719 112.5 2.92969 112.012 4.19922 L 79.7852 -27.1973 L 111.963 -58.0566 C 112.646 -56.543 112.793 -54.7363 112.793 -52.002 Z M 25.6836 9.32617 C 22.9492 9.32617 20.8008 8.69141 19.1895 7.51953 L 58.6426 -31.1035 C 60.6445 -33.1543 62.9395 -33.9844 64.6973 -33.9844 C 66.5039 -33.9844 68.7012 -33.2031 70.752 -31.1035 L 109.912 7.17773 C 108.252 8.59375 105.957 9.32617 103.125 9.32617 Z"/>
  </g>
  <g id="Ultralight-M" transform="matrix(1 0 0 1 495.893 1126)">
   <path d="M 25 12.5977 L 102.637 12.5977 C 110.84 12.5977 115.186 8.10547 115.186 0.0488281 L 115.186 -52.2461 C 115.186 -59.9121 114.209 -61.6699 108.301 -65.9668 L 71.4844 -92.7734 C 69.6777 -94.1406 66.8457 -95.4102 63.8184 -95.4102 C 60.791 -95.4102 57.959 -94.1406 56.1523 -92.7734 L 19.3359 -65.9668 C 13.4277 -61.6699 12.4512 -59.9121 12.4512 -52.2461 L 12.4512 0.0488281 C 12.4512 8.25195 16.7969 12.5977 25 12.5977 Z M 72.0703 -33.8867 C 69.3359 -36.5234 66.5527 -37.4512 64.209 -37.4512 C 61.8652 -37.4512 59.082 -36.5234 56.3477 -33.8867 L 51.8555 -29.5898 L 18.0176 -61.9141 C 18.7012 -62.5488 19.4824 -63.1836 20.5078 -63.916 L 57.0801 -90.6738 C 59.082 -92.0898 60.9375 -93.1641 63.8184 -93.1641 C 66.6504 -93.1641 68.6035 -92.0898 70.5566 -90.6738 L 107.129 -63.916 C 108.35 -63.0371 109.277 -62.2559 110.01 -61.5234 L 76.5137 -29.5898 Z M 14.8438 -0.0976562 L 14.8438 -52.2461 C 14.8438 -56.0059 15.0879 -58.1543 16.3086 -59.9609 L 50.0977 -27.832 L 15.918 5.37109 C 15.1855 3.90625 14.8438 2.09961 14.8438 -0.0976562 Z M 112.793 -52.2461 L 112.793 -0.0976562 C 112.793 1.80664 112.5 3.4668 111.914 4.83398 L 78.3203 -27.832 L 111.621 -59.5215 C 112.598 -57.7637 112.793 -55.7129 112.793 -52.2461 Z M 25.0977 10.2051 C 21.6797 10.2051 19.0918 9.27734 17.3828 7.51953 L 58.1055 -32.2266 C 60.0586 -34.2285 62.4512 -35.0586 64.209 -35.0586 C 65.9668 -35.0586 68.2617 -34.2773 70.3125 -32.2266 L 110.547 7.08008 C 108.789 9.13086 106.055 10.2051 102.539 10.2051 Z"/>
  </g>
  <g id="Black-S" transform="matrix(1 0 0 1 2877.35 696)">
   <path d="M 25 3.71094 L 87.1094 3.71094 C 96.6797 3.71094 102.344 -1.95312 102.344 -11.5234 L 102.344 -47.0703 C 102.344 -58.6426 100.439 -59.2773 92.5781 -64.4531 L 67.9199 -80.7617 C 62.9883 -84.0332 60.4492 -85.4492 56.0547 -85.4492 C 51.6602 -85.4492 49.1699 -84.0332 44.1895 -80.7617 L 19.5312 -64.4531 C 11.8164 -59.3262 9.76562 -58.6426 9.76562 -47.0703 L 9.76562 -11.5234 C 9.76562 -1.95312 15.4297 3.71094 25 3.71094 Z M 65.332 -39.5996 C 62.2559 -42.627 59.0332 -44.1895 55.4688 -44.1895 C 51.9043 -44.1895 48.6816 -42.6758 45.5566 -39.5996 L 44.8242 -38.916 L 28.3691 -55.3711 L 51.709 -71.5332 C 53.1738 -72.5586 54.3457 -72.998 56.0547 -72.998 C 57.7637 -72.998 58.9844 -72.5098 60.4004 -71.5332 L 83.0078 -55.8105 L 66.0645 -38.8672 Z M 89.4531 -46.875 L 89.4531 -15.8203 L 73.7305 -31.2988 L 89.4531 -47.0215 Z M 22.6562 -45.8496 L 37.1582 -31.3477 L 22.6562 -16.9922 Z M 52.3438 -31.2988 C 53.7109 -32.6172 54.4922 -33.1055 55.4688 -33.1055 C 56.4453 -33.1055 57.2266 -32.6172 58.5938 -31.2988 L 80.5664 -9.57031 L 30.3711 -9.57031 Z"/>
  </g>
  <g id="Heavy-S" transform="matrix(1 0 0 1 2581.49 696)">
   <path d="M 24.3652 3.61328 L 86.0352 3.61328 C 95.3125 3.61328 100.635 -1.66016 100.635 -10.8887 L 100.635 -46.9238 C 100.635 -57.0312 98.877 -58.1543 92.041 -62.7441 L 66.2109 -80.8105 C 61.7188 -83.8867 59.2285 -85.3027 55.1758 -85.3027 C 51.1719 -85.3027 48.6816 -83.8867 44.1895 -80.8105 L 18.3105 -62.7441 C 11.6211 -58.2031 9.76562 -57.0312 9.76562 -46.9238 L 9.76562 -10.8887 C 9.76562 -1.66016 15.0879 3.61328 24.3652 3.61328 Z M 64.2578 -38.1348 C 61.2305 -41.1133 58.1543 -42.5781 54.7363 -42.5781 C 51.3672 -42.5781 48.2422 -41.1621 45.2148 -38.1348 L 44.1406 -37.0605 L 26.3184 -54.8828 L 50.8301 -72.4609 C 52.3926 -73.6328 53.5156 -74.1699 55.1758 -74.1699 C 56.8848 -74.1699 58.0078 -73.584 59.5703 -72.4609 L 83.5449 -55.2246 L 65.332 -37.0605 Z M 89.209 -47.0703 L 89.209 -13.5742 L 72.3145 -30.2246 L 89.209 -47.1191 C 89.209 -47.0703 89.209 -47.0703 89.209 -47.0703 Z M 21.1914 -46.2402 L 37.207 -30.2246 L 21.1914 -14.4531 Z M 51.2695 -30.5664 C 52.7344 -31.9824 53.6133 -32.5195 54.7363 -32.5195 C 55.8594 -32.5195 56.7871 -31.9824 58.2031 -30.5664 L 80.957 -8.10547 L 28.5645 -8.10547 Z"/>
  </g>
  <g id="Bold-S" transform="matrix(1 0 0 1 2285.75 696)">
   <path d="M 23.6328 3.51562 L 84.8633 3.51562 C 93.7988 3.51562 98.6816 -1.31836 98.6816 -10.2051 L 98.6816 -46.7285 C 98.6816 -55.2246 97.1191 -56.8848 91.4551 -60.8398 L 64.3066 -80.8594 C 60.3027 -83.7402 57.8613 -85.2051 54.248 -85.2051 C 50.5859 -85.2051 48.1934 -83.7402 44.1406 -80.8594 L 16.9922 -60.8398 C 11.4258 -56.8848 9.76562 -55.2246 9.76562 -46.7285 L 9.76562 -10.2051 C 9.76562 -1.31836 14.6973 3.51562 23.6328 3.51562 Z M 63.0371 -36.4746 C 60.1074 -39.4043 57.1777 -40.7715 53.9551 -40.7715 C 50.7324 -40.7715 47.8027 -39.4531 44.8242 -36.4746 L 43.3105 -35.0098 L 24.0234 -54.2969 L 49.8535 -73.5352 C 51.5137 -74.8535 52.5879 -75.4395 54.248 -75.4395 C 55.8594 -75.4395 56.9336 -74.8047 58.6426 -73.5352 L 84.1309 -54.541 L 64.5508 -35.0098 Z M 70.6543 -29.0039 L 88.916 -47.2168 L 88.916 -11.0352 Z M 19.5312 -46.6309 L 37.207 -29.0039 L 19.5312 -11.5723 Z M 50.0977 -29.7852 C 51.6113 -31.25 52.6855 -31.8848 53.9551 -31.8848 C 55.2246 -31.8848 56.2988 -31.25 57.8125 -29.7852 L 81.3965 -6.44531 L 26.5137 -6.44531 Z"/>
  </g>
  <g id="Semibold-S" transform="matrix(1 0 0 1 1989.7 696)">
   <path d="M 23.0957 3.4668 L 84.0332 3.4668 C 92.7246 3.4668 97.3633 -1.12305 97.3633 -9.76562 L 97.3633 -46.6309 C 97.3633 -54.0039 95.8984 -56.0059 91.0645 -59.5215 L 62.9883 -80.9082 C 59.3262 -83.6426 56.9336 -85.1074 53.5645 -85.1074 C 50.1953 -85.1074 47.8027 -83.6426 44.1406 -80.9082 L 16.0645 -59.5215 C 11.2793 -56.0059 9.76562 -54.0039 9.76562 -46.6309 L 9.76562 -9.76562 C 9.76562 -1.12305 14.4043 3.4668 23.0957 3.4668 Z M 62.207 -35.3516 C 59.3262 -38.2324 56.4941 -39.502 53.3691 -39.502 C 50.293 -39.502 47.4609 -38.2324 44.5801 -35.3516 L 42.7734 -33.5938 L 22.4121 -53.9062 L 49.1699 -74.2676 C 50.9277 -75.6348 51.9531 -76.3184 53.5645 -76.3184 C 55.1758 -76.3184 56.2012 -75.6348 57.959 -74.2676 L 84.5215 -54.0527 L 64.0137 -33.5938 Z M 88.7207 -10.2051 C 88.7207 -9.91211 88.7207 -9.57031 88.6719 -9.32617 L 69.5312 -28.125 L 88.7207 -47.2656 Z M 18.4082 -10.2051 L 18.4082 -46.9238 L 37.2559 -28.1738 L 18.457 -9.61914 C 18.4082 -9.81445 18.4082 -10.0098 18.4082 -10.2051 Z M 49.2676 -29.1992 C 50.8301 -30.7617 52.002 -31.3965 53.3691 -31.3965 C 54.7852 -31.3965 55.957 -30.7617 57.5195 -29.1992 L 81.6895 -5.32227 L 25.0977 -5.32227 Z"/>
  </g>
  <g id="Medium-S" transform="matrix(1 0 0 1 1693.48 696)">
   <path d="M 22.7051 3.41797 L 83.3984 3.41797 C 91.9434 3.41797 96.3867 -0.927734 96.3867 -9.375 L 96.3867 -46.5332 C 96.3867 -53.0273 95.0195 -55.3223 90.7715 -58.5449 L 61.9629 -80.9082 C 58.5938 -83.5449 56.25 -85.0098 53.0762 -85.0098 C 49.9023 -85.0098 47.5098 -83.5449 44.1406 -80.9082 L 15.3809 -58.5449 C 11.1328 -55.3711 9.76562 -53.0273 9.76562 -46.5332 L 9.76562 -9.375 C 9.76562 -0.927734 14.209 3.41797 22.7051 3.41797 Z M 61.5723 -34.5215 C 58.7402 -37.3535 55.957 -38.5742 52.9785 -38.5742 C 49.9512 -38.5742 47.2168 -37.3535 44.3359 -34.5215 L 42.3828 -32.5195 L 21.2402 -53.6133 L 48.6328 -74.8535 C 50.4883 -76.2695 51.4648 -77.002 53.0762 -77.002 C 54.6387 -77.002 55.6641 -76.2695 57.4707 -74.8535 L 84.7656 -53.7109 L 63.5742 -32.5195 Z M 88.5742 -9.66797 C 88.5742 -9.08203 88.5254 -8.54492 88.4277 -8.05664 L 68.7012 -27.4902 L 88.5742 -47.3145 Z M 17.5781 -9.66797 L 17.5781 -47.168 L 37.2559 -27.4902 L 17.6758 -8.25195 C 17.5781 -8.64258 17.5781 -9.13086 17.5781 -9.66797 Z M 48.6328 -28.8086 C 50.2441 -30.3711 51.5137 -31.0547 52.9785 -31.0547 C 54.4434 -31.0547 55.7129 -30.3711 57.3242 -28.8086 L 81.9336 -4.44336 L 24.0234 -4.44336 Z"/>
  </g>
  <g id="Regular-S" transform="matrix(1 0 0 1 1397.43 696)">
   <path d="M 22.2168 3.36914 L 82.6172 3.36914 C 90.8691 3.36914 95.0684 -0.732422 95.0684 -8.93555 L 95.0684 -46.3867 C 95.0684 -51.8066 93.7988 -54.4922 90.3809 -57.2266 L 60.6934 -80.957 C 57.666 -83.4473 55.3223 -84.9121 52.3926 -84.9121 C 49.5117 -84.9121 47.168 -83.4473 44.1406 -80.957 L 14.4531 -57.2266 C 10.9863 -54.4922 9.76562 -51.8066 9.76562 -46.3867 L 9.76562 -8.93555 C 9.76562 -0.732422 13.916 3.36914 22.2168 3.36914 Z M 47.9492 -75.5371 C 49.9023 -77.0996 50.8789 -77.8809 52.3926 -77.8809 C 53.9551 -77.8809 54.9316 -77.0996 56.8359 -75.5371 L 85.1562 -53.2227 L 63.0371 -31.1523 L 60.7422 -33.3984 C 57.959 -36.1816 55.2734 -37.3535 52.4414 -37.3535 C 49.5605 -37.3535 46.875 -36.1816 44.0918 -33.3984 L 41.7969 -31.1523 L 19.6777 -53.2227 Z M 16.4551 -8.93555 L 16.4551 -47.4121 L 37.2559 -26.6602 L 16.7969 -6.49414 C 16.5527 -7.22656 16.4551 -8.00781 16.4551 -8.93555 Z M 88.3789 -8.93555 C 88.3789 -8.00781 88.2812 -7.22656 88.0371 -6.54297 L 67.5781 -26.6602 L 88.3789 -47.4121 Z M 47.8027 -28.2227 C 49.4629 -29.8828 50.8789 -30.6152 52.4414 -30.6152 C 53.9551 -30.6152 55.3711 -29.8828 57.0312 -28.2227 L 82.2266 -3.32031 L 22.6074 -3.32031 Z"/>
  </g>
  <g id="Light-S" transform="matrix(1 0 0 1 1101.47 696)">
   <path d="M 21.3867 3.02734 L 81.9336 3.02734 C 89.6484 3.02734 93.5547 -0.878906 93.5547 -8.49609 L 93.5547 -47.0703 C 93.5547 -52.6855 92.4805 -54.9316 88.6719 -57.9102 L 59.2285 -80.7617 C 56.6895 -82.7637 54.3945 -84.1309 51.6602 -84.1309 C 48.9258 -84.1309 46.6309 -82.7637 44.0918 -80.7617 L 14.6484 -57.9102 C 10.8398 -54.9316 9.76562 -52.6855 9.76562 -47.0703 L 9.76562 -8.49609 C 9.76562 -0.878906 13.6719 3.02734 21.3867 3.02734 Z M 59.4238 -33.6426 C 56.8359 -36.1816 54.2969 -37.207 51.7578 -37.207 C 49.2188 -37.207 46.6797 -36.1816 44.0918 -33.6426 L 41.4551 -31.0547 L 17.9199 -54.1504 L 46.9727 -76.5137 C 48.7793 -77.9297 49.9023 -78.7109 51.6602 -78.7109 C 53.418 -78.7109 54.541 -77.9297 56.3477 -76.5137 L 85.498 -54.0527 L 62.0605 -31.0547 Z M 14.9414 -8.54492 L 14.9414 -47.9492 C 14.9414 -48.6816 14.9902 -49.3164 15.0879 -49.9023 L 37.8906 -27.5391 L 15.4297 -5.51758 C 15.0879 -6.39648 14.9414 -7.37305 14.9414 -8.54492 Z M 88.3789 -47.9492 L 88.3789 -8.54492 C 88.3789 -7.4707 88.2324 -6.49414 87.9395 -5.71289 L 65.625 -27.5391 L 88.2812 -49.7559 C 88.3301 -49.2188 88.3789 -48.6328 88.3789 -47.9492 Z M 21.2402 -2.14844 C 20.5566 -2.14844 19.9219 -2.24609 19.3359 -2.34375 L 47.1191 -29.6875 C 48.7305 -31.2988 50.293 -32.0312 51.7578 -32.0312 C 53.2715 -32.0312 54.7852 -31.3477 56.4453 -29.6875 L 84.1309 -2.39258 C 83.4961 -2.24609 82.8125 -2.14844 82.0801 -2.14844 Z"/>
  </g>
  <g id="Thin-S" transform="matrix(1 0 0 1 805.739 696)">
   <path d="M 20.3125 2.53906 L 81.0547 2.53906 C 87.9883 2.53906 91.6016 -1.12305 91.6016 -7.95898 L 91.6016 -47.9492 C 91.6016 -53.8086 90.6738 -55.5176 86.377 -58.7402 L 57.3242 -80.5176 C 55.4199 -81.9336 53.2227 -83.1055 50.6836 -83.1055 C 48.1445 -83.1055 45.8984 -81.9336 44.043 -80.5176 L 14.9414 -58.7402 C 10.6934 -55.5176 9.76562 -53.8086 9.76562 -47.9492 L 9.76562 -7.95898 C 9.76562 -1.02539 13.3789 2.53906 20.3125 2.53906 Z M 57.666 -33.9844 C 55.3223 -36.2305 53.0273 -37.0605 50.8789 -37.0605 C 48.7793 -37.0605 46.4355 -36.2305 44.1406 -33.9844 L 40.9668 -30.9082 L 15.625 -55.3223 C 15.9668 -55.6152 16.3574 -55.9082 16.7969 -56.25 L 45.6055 -77.7832 C 47.2656 -79.0527 48.6328 -79.834 50.6836 -79.834 C 52.6855 -79.834 54.0527 -79.0527 55.7129 -77.7832 L 84.5703 -56.25 C 85.1074 -55.8594 85.5469 -55.4688 85.9375 -55.127 L 60.791 -30.9082 Z M 12.9883 -8.05664 L 12.9883 -48.291 C 12.9883 -50.3418 13.0859 -51.709 13.623 -52.832 L 38.7207 -28.6621 L 13.6719 -4.24805 C 13.1836 -5.27344 12.9883 -6.54297 12.9883 -8.05664 Z M 88.3789 -48.291 L 88.3789 -8.05664 C 88.3789 -6.68945 88.1836 -5.56641 87.793 -4.58984 L 63.0859 -28.6621 L 87.8418 -52.5391 C 88.2812 -51.4648 88.3789 -50.1465 88.3789 -48.291 Z M 20.3125 -0.683594 C 18.457 -0.683594 16.8945 -1.02539 15.7227 -1.80664 L 46.1426 -31.5918 C 47.7539 -33.2031 49.4629 -33.8379 50.8789 -33.8379 C 52.2949 -33.8379 54.0039 -33.2031 55.6152 -31.5918 L 85.8398 -2.00195 C 84.6191 -1.12305 83.0078 -0.683594 81.0547 -0.683594 Z"/>
  </g>
  <g id="Ultralight-S" transform="matrix(1 0 0 1 509.54 696)">
   <path d="M 19.7754 2.29492 L 80.5664 2.29492 C 87.1094 2.29492 90.5762 -1.2207 90.5762 -7.66602 L 90.5762 -48.4375 C 90.5762 -54.3945 89.7461 -55.8594 85.2051 -59.1797 L 56.3477 -80.3711 C 54.7852 -81.4941 52.5879 -82.5684 50.1465 -82.5684 C 47.7539 -82.5684 45.5566 -81.4941 43.9941 -80.3711 L 15.0879 -59.1797 C 10.5469 -55.8594 9.76562 -54.3945 9.76562 -48.4375 L 9.76562 -7.66602 C 9.76562 -1.17188 13.2324 2.29492 19.7754 2.29492 Z M 56.7383 -34.1309 C 54.5898 -36.2305 52.3438 -36.9629 50.4395 -36.9629 C 48.5352 -36.9629 46.3379 -36.2305 44.1406 -34.1309 L 40.7227 -30.8105 L 14.4531 -55.957 C 14.9414 -56.3965 15.5273 -56.8359 16.2598 -57.373 L 44.9219 -78.4668 C 46.5332 -79.5898 47.9492 -80.4199 50.1465 -80.4199 C 52.3438 -80.4199 53.8086 -79.5898 55.4199 -78.4668 L 84.082 -57.373 C 84.9121 -56.7383 85.5957 -56.2012 86.1328 -55.6641 L 60.1562 -30.8105 Z M 11.9629 -7.76367 L 11.9629 -48.4863 C 11.9629 -51.2207 12.1094 -52.832 12.9883 -54.1992 L 39.1113 -29.248 L 12.7441 -3.61328 C 12.207 -4.73633 11.9629 -6.15234 11.9629 -7.76367 Z M 88.3789 -48.4863 L 88.3789 -7.76367 C 88.3789 -6.29883 88.1348 -5.07812 87.6953 -4.00391 L 61.7676 -29.248 L 87.5488 -53.8574 C 88.2324 -52.5879 88.3789 -51.0254 88.3789 -48.4863 Z M 19.8242 0.0976562 C 17.334 0.0976562 15.4297 -0.488281 14.1113 -1.70898 L 45.6543 -32.5684 C 47.2168 -34.1309 49.0723 -34.8145 50.4395 -34.8145 C 51.8066 -34.8145 53.6133 -34.1797 55.2246 -32.5684 L 86.4746 -2.05078 C 85.1074 -0.634766 83.1055 0.0976562 80.5176 0.0976562 Z"/>
  </g>
 </g>
</svg>
