<?xml version="1.0" encoding="UTF-8"?>
<!--Generator: Apple Native CoreSVG 129-->
<!DOCTYPE svg
PUBLIC "-//W3C//DTD SVG 1.1//EN"
       "http://www.w3.org/Graphics/SVG/1.1/DTD/svg11.dtd">
<svg version="1.1" xmlns="http://www.w3.org/2000/svg" xmlns:xlink="http://www.w3.org/1999/xlink" width="3300" height="2200">
 <!--glyph: "uni1008F5.medium", point size: 100.000000, font version: "Version 16.0d9e1", template writer version: "8"-->
 <g id="Notes">
  <rect height="2200" id="artboard" style="fill:white;opacity:1" width="3300" x="0" y="0"/>
  <line id="" style="fill:none;stroke:black;opacity:1;stroke-width:0.5;" x1="263" x2="3036" y1="292" y2="292"/>
  <text style="stroke:none;fill:black;font-family:-apple-system,&quot;SF Pro Display&quot;,&quot;SF Pro Text&quot;,Helvetica,sans-serif;font-weight:bold;" transform="matrix(1 0 0 1 263 322)">Weight/Scale Variations</text>
  <text style="stroke:none;fill:black;font-family:-apple-system,&quot;SF Pro Display&quot;,&quot;SF Pro Text&quot;,Helvetica,sans-serif;text-anchor:middle;" transform="matrix(1 0 0 1 559.711 322)">Ultralight</text>
  <text style="stroke:none;fill:black;font-family:-apple-system,&quot;SF Pro Display&quot;,&quot;SF Pro Text&quot;,Helvetica,sans-serif;text-anchor:middle;" transform="matrix(1 0 0 1 856.422 322)">Thin</text>
  <text style="stroke:none;fill:black;font-family:-apple-system,&quot;SF Pro Display&quot;,&quot;SF Pro Text&quot;,Helvetica,sans-serif;text-anchor:middle;" transform="matrix(1 0 0 1 1153.13 322)">Light</text>
  <text style="stroke:none;fill:black;font-family:-apple-system,&quot;SF Pro Display&quot;,&quot;SF Pro Text&quot;,Helvetica,sans-serif;text-anchor:middle;" transform="matrix(1 0 0 1 1449.84 322)">Regular</text>
  <text style="stroke:none;fill:black;font-family:-apple-system,&quot;SF Pro Display&quot;,&quot;SF Pro Text&quot;,Helvetica,sans-serif;text-anchor:middle;" transform="matrix(1 0 0 1 1746.56 322)">Medium</text>
  <text style="stroke:none;fill:black;font-family:-apple-system,&quot;SF Pro Display&quot;,&quot;SF Pro Text&quot;,Helvetica,sans-serif;text-anchor:middle;" transform="matrix(1 0 0 1 2043.27 322)">Semibold</text>
  <text style="stroke:none;fill:black;font-family:-apple-system,&quot;SF Pro Display&quot;,&quot;SF Pro Text&quot;,Helvetica,sans-serif;text-anchor:middle;" transform="matrix(1 0 0 1 2339.98 322)">Bold</text>
  <text style="stroke:none;fill:black;font-family:-apple-system,&quot;SF Pro Display&quot;,&quot;SF Pro Text&quot;,Helvetica,sans-serif;text-anchor:middle;" transform="matrix(1 0 0 1 2636.69 322)">Heavy</text>
  <text style="stroke:none;fill:black;font-family:-apple-system,&quot;SF Pro Display&quot;,&quot;SF Pro Text&quot;,Helvetica,sans-serif;text-anchor:middle;" transform="matrix(1 0 0 1 2933.4 322)">Black</text>
  <line id="" style="fill:none;stroke:black;opacity:1;stroke-width:0.5;" x1="263" x2="3036" y1="1903" y2="1903"/>
  <g id="" transform="matrix(1 0 0 1 263 1933)">
   <path d="M 9.24805 0.830078 C 13.5547 0.830078 17.1387 -2.74414 17.1387 -7.05078 C 17.1387 -11.3574 13.5449 -14.9316 9.23828 -14.9316 C 4.94141 -14.9316 1.36719 -11.3574 1.36719 -7.05078 C 1.36719 -2.74414 4.95117 0.830078 9.24805 0.830078 Z M 9.24805 -0.654297 C 5.70312 -0.654297 2.87109 -3.49609 2.87109 -7.05078 C 2.87109 -10.6055 5.69336 -13.4473 9.23828 -13.4473 C 12.793 -13.4473 15.6348 -10.6055 15.6445 -7.05078 C 15.6543 -3.49609 12.8027 -0.654297 9.24805 -0.654297 Z M 9.22852 -3.62305 C 9.69727 -3.62305 9.9707 -3.93555 9.9707 -4.45312 L 9.9707 -6.31836 L 12.002 -6.31836 C 12.5 -6.31836 12.832 -6.57227 12.832 -7.04102 C 12.832 -7.51953 12.5195 -7.7832 12.002 -7.7832 L 9.9707 -7.7832 L 9.9707 -9.81445 C 9.9707 -10.332 9.69727 -10.6543 9.22852 -10.6543 C 8.75977 -10.6543 8.50586 -10.3125 8.50586 -9.81445 L 8.50586 -7.7832 L 6.49414 -7.7832 C 5.97656 -7.7832 5.64453 -7.51953 5.64453 -7.04102 C 5.64453 -6.57227 5.99609 -6.31836 6.49414 -6.31836 L 8.50586 -6.31836 L 8.50586 -4.45312 C 8.50586 -3.95508 8.75977 -3.62305 9.22852 -3.62305 Z"/>
  </g>
  <g id="" transform="matrix(1 0 0 1 281.506 1933)">
   <path d="M 11.709 2.91016 C 17.1582 2.91016 21.6699 -1.61133 21.6699 -7.05078 C 21.6699 -12.5 17.1484 -17.0117 11.6992 -17.0117 C 6.25977 -17.0117 1.74805 -12.5 1.74805 -7.05078 C 1.74805 -1.61133 6.26953 2.91016 11.709 2.91016 Z M 11.709 1.25 C 7.09961 1.25 3.41797 -2.44141 3.41797 -7.05078 C 3.41797 -11.6602 7.08984 -15.3516 11.6992 -15.3516 C 16.3086 -15.3516 20 -11.6602 20.0098 -7.05078 C 20.0195 -2.44141 16.3184 1.25 11.709 1.25 Z M 11.6797 -2.66602 C 12.207 -2.66602 12.5098 -3.01758 12.5098 -3.59375 L 12.5098 -6.23047 L 15.3223 -6.23047 C 15.8691 -6.23047 16.25 -6.51367 16.25 -7.03125 C 16.25 -7.55859 15.8887 -7.86133 15.3223 -7.86133 L 12.5098 -7.86133 L 12.5098 -10.6836 C 12.5098 -11.25 12.207 -11.6113 11.6797 -11.6113 C 11.1621 -11.6113 10.8789 -11.2305 10.8789 -10.6836 L 10.8789 -7.86133 L 8.07617 -7.86133 C 7.50977 -7.86133 7.13867 -7.55859 7.13867 -7.03125 C 7.13867 -6.51367 7.5293 -6.23047 8.07617 -6.23047 L 10.8789 -6.23047 L 10.8789 -3.59375 C 10.8789 -3.03711 11.1621 -2.66602 11.6797 -2.66602 Z"/>
  </g>
  <g id="" transform="matrix(1 0 0 1 304.924 1933)">
   <path d="M 14.9707 5.66406 C 21.9336 5.66406 27.6953 -0.0976562 27.6953 -7.05078 C 27.6953 -14.0137 21.9238 -19.7754 14.9609 -19.7754 C 8.00781 -19.7754 2.25586 -14.0137 2.25586 -7.05078 C 2.25586 -0.0976562 8.01758 5.66406 14.9707 5.66406 Z M 14.9707 3.84766 C 8.93555 3.84766 4.08203 -1.01562 4.08203 -7.05078 C 4.08203 -13.0957 8.92578 -17.9492 14.9609 -17.9492 C 21.0059 -17.9492 25.8594 -13.0957 25.8691 -7.05078 C 25.8789 -1.01562 21.0156 3.84766 14.9707 3.84766 Z M 14.9414 -1.38672 C 15.5176 -1.38672 15.8594 -1.77734 15.8594 -2.38281 L 15.8594 -6.13281 L 19.7754 -6.13281 C 20.3711 -6.13281 20.7812 -6.46484 20.7812 -7.02148 C 20.7812 -7.59766 20.3906 -7.93945 19.7754 -7.93945 L 15.8594 -7.93945 L 15.8594 -11.8652 C 15.8594 -12.4805 15.5176 -12.8711 14.9414 -12.8711 C 14.375 -12.8711 14.0527 -12.4609 14.0527 -11.8652 L 14.0527 -7.93945 L 10.1465 -7.93945 C 9.53125 -7.93945 9.13086 -7.59766 9.13086 -7.02148 C 9.13086 -6.46484 9.55078 -6.13281 10.1465 -6.13281 L 14.0527 -6.13281 L 14.0527 -2.38281 C 14.0527 -1.79688 14.375 -1.38672 14.9414 -1.38672 Z"/>
  </g>
  <text style="stroke:none;fill:black;font-family:-apple-system,&quot;SF Pro Display&quot;,&quot;SF Pro Text&quot;,Helvetica,sans-serif;font-weight:bold;" transform="matrix(1 0 0 1 263 1953)">Design Variations</text>
  <text style="stroke:none;fill:black;font-family:-apple-system,&quot;SF Pro Display&quot;,&quot;SF Pro Text&quot;,Helvetica,sans-serif;" transform="matrix(1 0 0 1 263 1971)">Symbols are supported in up to nine weights and three scales.</text>
  <text style="stroke:none;fill:black;font-family:-apple-system,&quot;SF Pro Display&quot;,&quot;SF Pro Text&quot;,Helvetica,sans-serif;" transform="matrix(1 0 0 1 263 1989)">For optimal layout with text and other symbols, vertically align</text>
  <text style="stroke:none;fill:black;font-family:-apple-system,&quot;SF Pro Display&quot;,&quot;SF Pro Text&quot;,Helvetica,sans-serif;" transform="matrix(1 0 0 1 263 2007)">symbols with the adjacent text.</text>
  <line id="" style="fill:none;stroke:#00AEEF;stroke-width:0.5;opacity:1.0;" x1="776" x2="776" y1="1919" y2="1933"/>
  <g id="" transform="matrix(1 0 0 1 776 1933)">
   <path d="M 3.31055 0.126953 C 3.82812 0.126953 4.08203 -0.0683594 4.26758 -0.605469 L 5.52734 -4.0625 L 11.2891 -4.0625 L 12.5488 -0.605469 C 12.7344 -0.0683594 12.9883 0.126953 13.4961 0.126953 C 14.0137 0.126953 14.3457 -0.185547 14.3457 -0.673828 C 14.3457 -0.839844 14.3164 -0.986328 14.2383 -1.20117 L 9.6582 -13.3887 C 9.43359 -13.9941 9.0332 -14.2871 8.4082 -14.2871 C 7.80273 -14.2871 7.39258 -13.9941 7.17773 -13.3984 L 2.59766 -1.19141 C 2.51953 -0.976562 2.49023 -0.830078 2.49023 -0.664062 C 2.49023 -0.175781 2.80273 0.126953 3.31055 0.126953 Z M 6.00586 -5.53711 L 8.37891 -12.1094 L 8.42773 -12.1094 L 10.8008 -5.53711 Z"/>
  </g>
  <line id="" style="fill:none;stroke:#00AEEF;stroke-width:0.5;opacity:1.0;" x1="792.836" x2="792.836" y1="1919" y2="1933"/>
  <text style="stroke:none;fill:black;font-family:-apple-system,&quot;SF Pro Display&quot;,&quot;SF Pro Text&quot;,Helvetica,sans-serif;font-weight:bold;" transform="matrix(1 0 0 1 776 1953)">Margins</text>
  <text style="stroke:none;fill:black;font-family:-apple-system,&quot;SF Pro Display&quot;,&quot;SF Pro Text&quot;,Helvetica,sans-serif;" transform="matrix(1 0 0 1 776 1971)">Leading and trailing margins on the left and right side of each symbol</text>
  <text style="stroke:none;fill:black;font-family:-apple-system,&quot;SF Pro Display&quot;,&quot;SF Pro Text&quot;,Helvetica,sans-serif;" transform="matrix(1 0 0 1 776 1989)">can be adjusted by modifying the x-location of the margin guidelines.</text>
  <text style="stroke:none;fill:black;font-family:-apple-system,&quot;SF Pro Display&quot;,&quot;SF Pro Text&quot;,Helvetica,sans-serif;" transform="matrix(1 0 0 1 776 2007)">Modifications are automatically applied proportionally to all</text>
  <text style="stroke:none;fill:black;font-family:-apple-system,&quot;SF Pro Display&quot;,&quot;SF Pro Text&quot;,Helvetica,sans-serif;" transform="matrix(1 0 0 1 776 2025)">scales and weights.</text>
  <g id="" transform="matrix(1 0 0 1 1289 1933)">
   <path d="M 2.8418 1.86523 L 4.54102 3.57422 C 5.40039 4.44336 6.38672 4.38477 7.31445 3.35938 L 17.4902 -7.85156 C 17.7539 -7.76367 18.0273 -7.7832 18.3398 -7.8418 L 19.4043 -8.03711 L 20.0684 -7.36328 L 20.0293 -6.80664 C 19.9902 -6.30859 20.1172 -5.92773 20.6055 -5.44922 L 21.3672 -4.70703 C 21.8457 -4.22852 22.4609 -4.19922 22.9297 -4.66797 L 25.8398 -7.58789 C 26.3086 -8.05664 26.2891 -8.65234 25.8105 -9.13086 L 25.0391 -9.89258 C 24.5605 -10.3711 24.1895 -10.5273 23.7109 -10.4883 L 23.1348 -10.4395 L 22.4902 -11.0742 L 22.7344 -12.1973 C 22.8613 -12.7637 22.7051 -13.2031 22.1191 -13.7891 L 19.9219 -15.9766 C 16.582 -19.2969 12.1484 -19.2188 9.25781 -16.3281 C 8.83789 -15.918 8.80859 -15.3418 9.04297 -14.9512 C 9.27734 -14.5898 9.73633 -14.3555 10.3809 -14.5215 C 11.8457 -14.8633 13.3691 -14.9219 14.7949 -13.9844 L 14.209 -12.5293 C 14.0137 -12.0508 13.9844 -11.6504 14.1113 -11.2891 L 3.04688 -0.898438 C 2.06055 0.0195312 1.98242 0.996094 2.8418 1.86523 Z M 10.752 -15.957 C 13.1836 -17.7344 16.4746 -17.4316 18.7012 -15.2051 L 21.1328 -12.793 C 21.3672 -12.5586 21.4062 -12.373 21.3379 -12.0312 L 21.0156 -10.5469 L 22.5195 -9.0625 L 23.5059 -9.12109 C 23.7598 -9.13086 23.8379 -9.11133 24.0332 -8.91602 L 24.6094 -8.33984 L 22.168 -5.89844 L 21.5918 -6.47461 C 21.3965 -6.66992 21.3672 -6.74805 21.377 -7.01172 L 21.4453 -7.98828 L 19.9512 -9.47266 L 18.4277 -9.21875 C 18.1055 -9.15039 17.959 -9.17969 17.7148 -9.41406 L 15.7129 -11.416 C 15.459 -11.6504 15.4297 -11.8164 15.5859 -12.1875 L 16.4648 -14.2773 C 14.9023 -15.7324 12.8711 -16.3574 10.8398 -15.7617 C 10.6836 -15.7227 10.625 -15.8496 10.752 -15.957 Z M 5.27344 2.30469 L 4.10156 1.14258 C 3.63281 0.683594 3.74023 0.341797 4.14062 -0.0195312 L 14.9512 -10.1953 L 16.416 -8.71094 L 6.42578 2.27539 C 6.07422 2.67578 5.74219 2.77344 5.27344 2.30469 Z"/>
  </g>
  <text style="stroke:none;fill:black;font-family:-apple-system,&quot;SF Pro Display&quot;,&quot;SF Pro Text&quot;,Helvetica,sans-serif;font-weight:bold;" transform="matrix(1 0 0 1 1289 1953)">Exporting</text>
  <text style="stroke:none;fill:black;font-family:-apple-system,&quot;SF Pro Display&quot;,&quot;SF Pro Text&quot;,Helvetica,sans-serif;" transform="matrix(1 0 0 1 1289 1971)">Symbols should be outlined when exporting to ensure the</text>
  <text style="stroke:none;fill:black;font-family:-apple-system,&quot;SF Pro Display&quot;,&quot;SF Pro Text&quot;,Helvetica,sans-serif;" transform="matrix(1 0 0 1 1289 1989)">design is preserved when submitting to Xcode.</text>
  <text id="template-version" style="stroke:none;fill:black;font-family:-apple-system,&quot;SF Pro Display&quot;,&quot;SF Pro Text&quot;,Helvetica,sans-serif;text-anchor:end;" transform="matrix(1 0 0 1 3036 1933)">Template v.2.0</text>
  <text style="stroke:none;fill:black;font-family:-apple-system,&quot;SF Pro Display&quot;,&quot;SF Pro Text&quot;,Helvetica,sans-serif;text-anchor:end;" transform="matrix(1 0 0 1 3036 1951)">Requires Xcode 12 or greater</text>
  <text style="stroke:none;fill:black;font-family:-apple-system,&quot;SF Pro Display&quot;,&quot;SF Pro Text&quot;,Helvetica,sans-serif;text-anchor:end;" transform="matrix(1 0 0 1 3036 1969)">Generated from photo.on.rectangle.angled</text>
  <text style="stroke:none;fill:black;font-family:-apple-system,&quot;SF Pro Display&quot;,&quot;SF Pro Text&quot;,Helvetica,sans-serif;text-anchor:end;" transform="matrix(1 0 0 1 3036 1987)">Typeset at 100 points</text>
  <text style="stroke:none;fill:black;font-family:-apple-system,&quot;SF Pro Display&quot;,&quot;SF Pro Text&quot;,Helvetica,sans-serif;" transform="matrix(1 0 0 1 263 726)">Small</text>
  <text style="stroke:none;fill:black;font-family:-apple-system,&quot;SF Pro Display&quot;,&quot;SF Pro Text&quot;,Helvetica,sans-serif;" transform="matrix(1 0 0 1 263 1156)">Medium</text>
  <text style="stroke:none;fill:black;font-family:-apple-system,&quot;SF Pro Display&quot;,&quot;SF Pro Text&quot;,Helvetica,sans-serif;" transform="matrix(1 0 0 1 263 1586)">Large</text>
 </g>
 <g id="Guides">
  <g id="H-reference" style="fill:#27AAE1;stroke:none;" transform="matrix(1 0 0 1 339 696)">
   <path d="M 0.976562 0 L 3.66211 0 L 12.9883 -24.4629 L 45.7031 -24.4629 L 55.0781 0 L 57.7148 0 L 30.6152 -70.459 L 28.125 -70.459 Z M 29.2969 -67.1387 L 29.3945 -67.1387 L 44.873 -26.709 L 13.8672 -26.709 Z"/>
  </g>
  <line id="Baseline-S" style="fill:none;stroke:#27AAE1;opacity:1;stroke-width:0.5;" x1="263" x2="3036" y1="696" y2="696"/>
  <line id="Capline-S" style="fill:none;stroke:#27AAE1;opacity:1;stroke-width:0.5;" x1="263" x2="3036" y1="625.541" y2="625.541"/>
  <g id="H-reference" style="fill:#27AAE1;stroke:none;" transform="matrix(1 0 0 1 339 1126)">
   <path d="M 0.976562 0 L 3.66211 0 L 12.9883 -24.4629 L 45.7031 -24.4629 L 55.0781 0 L 57.7148 0 L 30.6152 -70.459 L 28.125 -70.459 Z M 29.2969 -67.1387 L 29.3945 -67.1387 L 44.873 -26.709 L 13.8672 -26.709 Z"/>
  </g>
  <line id="Baseline-M" style="fill:none;stroke:#27AAE1;opacity:1;stroke-width:0.5;" x1="263" x2="3036" y1="1126" y2="1126"/>
  <line id="Capline-M" style="fill:none;stroke:#27AAE1;opacity:1;stroke-width:0.5;" x1="263" x2="3036" y1="1055.54" y2="1055.54"/>
  <g id="H-reference" style="fill:#27AAE1;stroke:none;" transform="matrix(1 0 0 1 339 1556)">
   <path d="M 0.976562 0 L 3.66211 0 L 12.9883 -24.4629 L 45.7031 -24.4629 L 55.0781 0 L 57.7148 0 L 30.6152 -70.459 L 28.125 -70.459 Z M 29.2969 -67.1387 L 29.3945 -67.1387 L 44.873 -26.709 L 13.8672 -26.709 Z"/>
  </g>
  <line id="Baseline-L" style="fill:none;stroke:#27AAE1;opacity:1;stroke-width:0.5;" x1="263" x2="3036" y1="1556" y2="1556"/>
  <line id="Capline-L" style="fill:none;stroke:#27AAE1;opacity:1;stroke-width:0.5;" x1="263" x2="3036" y1="1485.54" y2="1485.54"/>
  <line id="left-margin" style="fill:none;stroke:#00AEEF;stroke-width:0.5;opacity:1.0;" x1="1372.65" x2="1372.65" y1="1030.79" y2="1150.12"/>
  <line id="right-margin" style="fill:none;stroke:#00AEEF;stroke-width:0.5;opacity:1.0;" x1="1527.04" x2="1527.04" y1="1030.79" y2="1150.12"/>
 </g>
 <g id="Symbols">
  <g id="Black-L" transform="matrix(1 0 0 1 2826.81 1556)">
   <path d="M 27.9785 -7.12891 C 30.6152 7.8125 40.6738 14.7949 55.7129 12.1582 L 55.7129 14.1602 C 55.7129 29.3457 64.3555 37.9883 79.6387 37.9883 L 173.242 37.9883 C 188.477 37.9883 197.119 29.3457 197.119 14.1602 L 197.119 -51.6602 C 197.119 -66.8457 188.477 -75.4883 173.242 -75.4883 L 159.473 -75.4883 L 155.811 -96.5332 C 153.125 -111.426 143.164 -118.457 128.174 -115.82 L 35.9863 -99.6094 C 20.9473 -96.9238 13.9648 -86.9141 16.6016 -71.9727 Z M 47.4609 -13.4277 L 37.0117 -72.6562 C 36.1816 -77.1484 38.0371 -79.3945 42.1875 -80.127 L 128.955 -95.459 C 133.105 -96.1914 135.596 -94.6777 136.426 -90.1367 L 138.965 -75.4883 L 79.6387 -75.4883 C 64.3555 -75.4883 55.7129 -66.8457 55.7129 -51.6602 L 55.7129 -8.34961 L 54.8828 -8.20312 C 50.7324 -7.4707 48.2422 -8.98438 47.4609 -13.4277 Z M 75.9766 -48.7793 C 75.9766 -53.3691 78.125 -55.2246 82.373 -55.2246 L 170.508 -55.2246 C 174.707 -55.2246 176.904 -53.3691 176.904 -48.7793 L 176.904 -0.878906 L 155.371 -20.8496 C 153.027 -22.998 150.244 -24.0723 147.217 -24.0723 C 144.287 -24.0723 141.406 -22.998 138.916 -20.8496 L 113.574 1.61133 L 103.369 -7.61719 C 101.123 -9.61914 98.4863 -10.6445 95.8984 -10.6445 C 93.3594 -10.6445 90.6738 -9.66797 88.5742 -7.71484 L 75.9766 3.66211 Z M 107.91 -17.7246 C 115.625 -17.7246 122.266 -24.4141 122.266 -31.9336 C 122.266 -39.6973 115.625 -46.3379 107.91 -46.3379 C 100.439 -46.3379 93.75 -39.6973 93.75 -31.9336 C 93.75 -24.4141 100.439 -17.7246 107.91 -17.7246 Z"/>
  </g>
  <g id="Heavy-L" transform="matrix(1 0 0 1 2532.05 1556)">
   <path d="M 27.8809 -7.03125 C 30.3711 7.27539 39.8438 13.8184 54.248 11.2793 L 54.4922 11.2305 L 54.4922 13.3789 C 54.4922 27.9297 62.5977 35.9863 77.2461 35.9863 L 170.459 35.9863 C 185.059 35.9863 193.213 27.8809 193.213 13.3789 L 193.213 -51.9531 C 193.213 -66.5039 185.059 -74.6094 170.459 -74.6094 L 156.836 -74.6094 L 153.125 -95.459 C 150.586 -109.717 141.211 -116.357 126.807 -113.818 L 35.0586 -97.6074 C 20.6055 -95.0684 14.0625 -85.6934 16.6016 -71.3379 Z M 44.7754 -12.3047 L 34.1797 -72.168 C 33.3008 -77.1973 35.4004 -79.9316 40.1855 -80.7617 L 127.783 -96.2402 C 132.471 -97.0703 135.4 -95.2148 136.328 -90.1367 L 139.062 -74.6094 L 77.2461 -74.6094 C 62.5977 -74.6094 54.4922 -66.5039 54.4922 -51.9531 L 54.4922 -6.49414 L 53.3203 -6.29883 C 48.584 -5.46875 45.6543 -7.32422 44.7754 -12.3047 Z M 72.0215 -49.6582 C 72.0215 -54.7852 74.5117 -57.0801 79.3945 -57.0801 L 168.311 -57.0801 C 173.145 -57.0801 175.684 -54.7852 175.684 -49.6582 L 175.684 -0.927734 L 153.662 -21.4355 C 151.221 -23.6816 148.291 -24.8047 145.166 -24.8047 C 142.139 -24.8047 139.209 -23.7305 136.621 -21.4844 L 110.742 1.46484 L 100.391 -7.95898 C 98.0469 -10.0098 95.3613 -11.084 92.6758 -11.084 C 90.0879 -11.084 87.4512 -10.1074 85.2051 -8.00781 L 72.0215 3.80859 Z M 104.102 -18.75 C 111.865 -18.75 118.457 -25.3906 118.457 -33.0078 C 118.457 -40.8203 111.865 -47.4609 104.102 -47.4609 C 96.4355 -47.4609 89.7949 -40.8203 89.7949 -33.0078 C 89.7949 -25.3906 96.4355 -18.75 104.102 -18.75 Z"/>
  </g>
  <g id="Bold-L" transform="matrix(1 0 0 1 2237.54 1556)">
   <path d="M 27.7832 -6.93359 C 30.127 6.68945 38.8672 12.7441 52.6367 10.3027 L 53.125 10.2539 L 53.125 12.4512 C 53.125 26.2695 60.6445 33.7402 74.5605 33.7402 L 167.334 33.7402 C 181.25 33.7402 188.818 26.2695 188.818 12.4512 L 188.818 -52.2949 C 188.818 -66.1133 181.25 -73.6328 167.334 -73.6328 L 153.809 -73.6328 L 150.146 -94.2871 C 147.754 -107.812 139.062 -113.965 125.342 -111.572 L 33.9844 -95.4102 C 20.2637 -93.0176 14.209 -84.3262 16.5527 -70.7031 Z M 41.748 -11.084 L 31.0547 -71.582 C 30.0293 -77.2949 32.4707 -80.5176 37.9395 -81.4453 L 126.416 -97.0703 C 131.787 -98.0469 135.254 -95.8496 136.23 -90.0879 L 139.16 -73.6328 L 74.5605 -73.6328 C 60.6445 -73.6328 53.125 -66.1621 53.125 -52.2949 L 53.125 -4.44336 L 51.5625 -4.15039 C 46.1426 -3.17383 42.7734 -5.41992 41.748 -11.084 Z M 67.5781 -50.6348 C 67.5781 -56.4453 70.5078 -59.1797 76.0254 -59.1797 L 165.918 -59.1797 C 171.387 -59.1797 174.365 -56.4453 174.365 -50.6348 L 174.365 -0.976562 L 151.758 -22.1191 C 149.17 -24.4629 146.143 -25.6836 142.92 -25.6836 C 139.697 -25.6836 136.768 -24.5117 134.082 -22.168 L 107.568 1.26953 L 97.0215 -8.30078 C 94.5801 -10.4492 91.8945 -11.5723 89.0625 -11.5723 C 86.4258 -11.5723 83.8379 -10.5469 81.4453 -8.34961 L 67.5781 4.00391 Z M 99.8047 -19.8242 C 107.617 -19.8242 114.16 -26.4648 114.16 -34.2285 C 114.16 -42.0898 107.617 -48.7305 99.8047 -48.7305 C 91.9922 -48.7305 85.4004 -42.0898 85.4004 -34.2285 C 85.4004 -26.4648 91.9922 -19.8242 99.8047 -19.8242 Z"/>
  </g>
  <g id="Semibold-L" transform="matrix(1 0 0 1 1942.34 1556)">
   <path d="M 27.6855 -6.88477 C 29.9805 6.25 38.2324 12.0117 51.5137 9.66797 L 52.1484 9.52148 L 52.1484 11.8164 C 52.1484 25.1465 59.2773 32.2266 72.7539 32.2266 L 165.234 32.2266 C 178.662 32.2266 185.791 25.1465 185.791 11.8164 L 185.791 -52.5391 C 185.791 -65.8691 178.662 -72.9492 165.234 -72.9492 L 151.758 -72.9492 L 148.096 -93.457 C 145.752 -106.494 137.598 -112.354 124.316 -110.01 L 33.252 -93.8965 C 19.9707 -91.6016 14.2578 -83.3984 16.5527 -70.2148 Z M 39.6484 -10.2051 L 28.9062 -71.1914 C 27.832 -77.2949 30.4688 -80.9082 36.377 -81.9336 L 125.488 -97.7051 C 131.299 -98.6816 135.107 -96.2402 136.182 -90.0879 L 139.209 -72.9492 L 72.7539 -72.9492 C 59.2773 -72.9492 52.1484 -65.8691 52.1484 -52.5391 L 52.1484 -2.97852 L 50.3418 -2.68555 C 44.4824 -1.61133 40.7715 -4.10156 39.6484 -10.2051 Z M 64.502 -51.3184 C 64.502 -57.5684 67.7246 -60.5957 73.7305 -60.5957 L 164.258 -60.5957 C 170.166 -60.5957 173.438 -57.5684 173.438 -51.3184 L 173.438 -1.02539 L 150.391 -22.5586 C 147.803 -25 144.678 -26.2695 141.357 -26.2695 C 138.037 -26.2695 135.107 -25.0488 132.324 -22.6562 L 105.42 1.17188 L 94.6777 -8.54492 C 92.1875 -10.791 89.502 -11.9629 86.6211 -11.9629 C 83.8867 -11.9629 81.3477 -10.8398 78.8574 -8.59375 L 64.502 4.10156 Z M 96.8262 -20.6055 C 104.688 -20.6055 111.23 -27.1973 111.23 -35.0586 C 111.23 -42.9688 104.688 -49.6094 96.8262 -49.6094 C 88.9648 -49.6094 82.373 -42.9688 82.373 -35.0586 C 82.373 -27.1973 88.9648 -20.6055 96.8262 -20.6055 Z"/>
  </g>
  <g id="Medium-L" transform="matrix(1 0 0 1 1646.78 1556)">
   <path d="M 27.6367 -6.78711 C 29.8828 5.95703 37.7441 11.4746 50.6836 9.13086 L 51.4648 8.98438 L 51.4648 11.3281 C 51.4648 24.3164 58.252 31.0547 71.3379 31.0547 L 163.623 31.0547 C 176.66 31.0547 183.496 24.2676 183.496 11.3281 L 183.496 -52.7344 C 183.496 -65.625 176.66 -72.4121 163.623 -72.4121 L 150.195 -72.4121 L 146.533 -92.8223 C 144.287 -105.518 136.475 -111.084 123.535 -108.838 L 32.7148 -92.7734 C 19.7754 -90.4785 14.3066 -82.7148 16.5527 -69.873 Z M 38.0859 -9.57031 L 27.2949 -70.8984 C 26.123 -77.3438 28.9551 -81.2012 35.2051 -82.3242 L 124.805 -98.1445 C 130.957 -99.2188 135.01 -96.582 136.182 -90.0879 L 139.258 -72.4121 L 71.3379 -72.4121 C 58.252 -72.4121 51.4648 -65.7227 51.4648 -52.7344 L 51.4648 -1.9043 L 49.4629 -1.5625 C 43.2129 -0.390625 39.2578 -3.125 38.0859 -9.57031 Z M 62.207 -51.8066 C 62.207 -58.3984 65.625 -61.7188 71.9727 -61.7188 L 162.988 -61.7188 C 169.238 -61.7188 172.754 -58.3984 172.754 -51.8066 L 172.754 -1.07422 L 149.414 -22.9004 C 146.729 -25.3906 143.555 -26.709 140.186 -26.709 C 136.816 -26.709 133.838 -25.4883 131.006 -22.998 L 103.76 1.07422 L 92.9199 -8.69141 C 90.3809 -10.9863 87.6465 -12.207 84.7168 -12.207 C 81.9824 -12.207 79.4434 -11.084 76.9043 -8.78906 L 62.207 4.19922 Z M 94.5801 -21.1914 C 102.49 -21.1914 109.033 -27.7344 109.033 -35.6934 C 109.033 -43.6035 102.49 -50.2441 94.5801 -50.2441 C 86.6211 -50.2441 80.0781 -43.6035 80.0781 -35.6934 C 80.0781 -27.7344 86.6211 -21.1914 94.5801 -21.1914 Z"/>
  </g>
  <g id="Regular-L" transform="matrix(1 0 0 1 1351.55 1556)">
   <path d="M 27.5391 -6.73828 C 29.6875 5.56641 37.1094 10.7422 49.6094 8.49609 L 50.4883 8.30078 L 50.4883 10.6934 C 50.4883 23.1934 56.8848 29.541 69.5312 29.541 L 161.475 29.541 C 174.072 29.541 180.518 23.1445 180.518 10.6934 L 180.518 -52.9297 C 180.518 -65.3809 174.072 -71.7773 161.475 -71.7773 L 148.145 -71.7773 L 144.531 -91.9922 C 142.334 -104.248 134.961 -109.473 122.559 -107.275 L 31.9824 -91.2598 C 19.5312 -89.0625 14.4043 -81.7871 16.5527 -69.4336 Z M 36.0352 -8.69141 L 25.1465 -70.5566 C 23.9258 -77.3926 26.9531 -81.6406 33.6426 -82.8125 L 123.877 -98.7305 C 130.469 -99.8535 134.863 -96.9727 136.084 -90.0391 L 139.307 -71.7773 L 69.5312 -71.7773 C 56.8848 -71.7773 50.4883 -65.4297 50.4883 -52.9297 L 50.4883 -0.488281 L 48.2422 -0.0976562 C 41.5527 1.12305 37.2559 -1.85547 36.0352 -8.69141 Z M 59.1797 -52.4902 C 59.1797 -59.5215 62.8906 -63.1348 69.6777 -63.1348 L 161.328 -63.1348 C 168.018 -63.1348 171.826 -59.5215 171.826 -52.4902 L 171.826 -1.12305 L 148.096 -23.3887 C 145.361 -25.9277 142.09 -27.2461 138.672 -27.2461 C 135.156 -27.2461 132.178 -26.0254 129.248 -23.4375 L 101.562 0.927734 L 90.625 -8.93555 C 88.0371 -11.3281 85.3027 -12.5488 82.2754 -12.5488 C 79.4434 -12.5488 76.9531 -11.377 74.3652 -9.0332 L 59.1797 4.3457 Z M 91.6504 -21.9238 C 99.6094 -21.9238 106.104 -28.4668 106.104 -36.5234 C 106.104 -44.4824 99.6094 -51.123 91.6504 -51.123 C 83.5938 -51.123 77.0996 -44.4824 77.0996 -36.5234 C 77.0996 -28.4668 83.5938 -21.9238 91.6504 -21.9238 Z"/>
  </g>
  <g id="Light-L" transform="matrix(1 0 0 1 1056.67 1556)">
   <path d="M 27.5391 -6.20117 C 29.541 5.37109 36.6211 10.4004 48.3398 8.25195 L 48.877 8.1543 L 48.877 9.96094 C 48.877 21.7285 54.9805 27.7832 66.8457 27.7832 L 158.887 27.7832 C 170.752 27.7832 176.855 21.6309 176.855 9.96094 L 176.855 -53.6133 C 176.855 -65.332 170.752 -71.4844 158.887 -71.4844 L 146.045 -71.4844 L 142.578 -91.0156 C 140.479 -102.539 133.447 -107.568 121.777 -105.518 L 31.1035 -89.502 C 19.3848 -87.4512 14.4531 -80.4199 16.5039 -68.7988 Z M 33.9844 -7.71484 L 23.0957 -69.6289 C 21.7773 -77.0996 25.0488 -81.7383 32.4219 -83.0566 L 122.754 -98.9746 C 129.932 -100.244 134.766 -97.0703 136.133 -89.5508 L 139.307 -71.4844 L 66.8457 -71.4844 C 54.9805 -71.4844 48.877 -65.4297 48.877 -53.6133 L 48.877 1.41602 L 47.3633 1.66016 C 39.9902 3.02734 35.3516 -0.244141 33.9844 -7.71484 Z M 55.5176 -53.2715 C 55.5176 -60.8887 59.5215 -64.8438 66.9922 -64.8438 L 158.74 -64.8438 C 166.064 -64.8438 170.264 -60.8887 170.264 -53.2715 L 170.264 -0.195312 L 145.166 -23.4375 C 142.383 -26.0254 139.209 -27.4414 135.645 -27.4414 C 132.08 -27.4414 129.15 -26.123 126.221 -23.5352 L 98.877 0.341797 L 88.2812 -9.32617 C 85.6934 -11.7188 83.1055 -12.9395 79.9805 -12.9395 C 77.0996 -12.9395 74.7559 -11.7188 72.168 -9.42383 L 55.5176 5.51758 Z M 89.2578 -22.1191 C 97.1191 -22.1191 103.516 -28.6133 103.516 -36.5723 C 103.516 -44.3848 97.1191 -50.9766 89.2578 -50.9766 C 81.2988 -50.9766 74.9023 -44.3848 74.9023 -36.5723 C 74.9023 -28.6133 81.2988 -22.1191 89.2578 -22.1191 Z"/>
  </g>
  <g id="Thin-L" transform="matrix(1 0 0 1 762.355 1556)">
   <path d="M 27.4902 -5.51758 C 29.3945 5.17578 35.9863 9.96094 46.7285 7.91016 L 46.7285 8.93555 C 46.7285 19.7754 52.4414 25.4883 63.3301 25.4883 L 155.469 25.4883 C 166.309 25.4883 172.07 19.6289 172.07 8.93555 L 172.07 -54.4922 C 172.07 -65.2344 166.309 -71.0938 155.469 -71.0938 L 143.262 -71.0938 L 139.941 -89.7461 C 138.037 -100.293 131.445 -105.078 120.703 -103.174 L 29.9805 -87.207 C 19.2383 -85.3027 14.5996 -78.6621 16.4551 -67.9688 Z M 31.3477 -6.39648 L 20.4102 -68.457 C 18.8965 -76.7578 22.5098 -81.8848 30.8105 -83.3496 L 121.24 -99.2676 C 129.248 -100.684 134.619 -97.2168 136.133 -88.8672 L 139.209 -71.0938 L 63.3301 -71.0938 C 52.4414 -71.0938 46.7285 -65.3809 46.7285 -54.4922 L 46.7285 3.90625 L 46.1914 4.00391 C 37.9395 5.56641 32.8125 1.9043 31.3477 -6.39648 Z M 50.6348 -54.2969 C 50.6348 -62.7441 55.0293 -67.1387 63.4766 -67.1387 L 155.273 -67.1387 C 163.428 -67.1387 168.115 -62.7441 168.115 -54.2969 L 168.115 0.976562 L 141.309 -23.4863 C 138.477 -26.1719 135.352 -27.6367 131.641 -27.6367 C 127.979 -27.6367 125.195 -26.2207 122.168 -23.584 L 95.3125 -0.488281 L 85.1562 -9.81445 C 82.5684 -12.207 80.2246 -13.4766 77.002 -13.4766 C 73.9746 -13.4766 71.8262 -12.207 69.2871 -9.91211 L 50.6348 7.17773 Z M 86.1328 -22.4121 C 93.7988 -22.4121 100.098 -28.8086 100.098 -36.6211 C 100.098 -44.2871 93.7988 -50.7812 86.1328 -50.7812 C 78.3203 -50.7812 72.0215 -44.2871 72.0215 -36.6211 C 72.0215 -28.8086 78.3203 -22.4121 86.1328 -22.4121 Z"/>
  </g>
  <g id="Ultralight-L" transform="matrix(1 0 0 1 466.889 1556)">
   <path d="M 27.4902 -5.17578 C 29.248 4.93164 35.5469 9.66797 45.6055 7.8125 L 45.6055 8.39844 C 45.6055 18.75 51.123 24.3164 61.5234 24.3164 L 153.711 24.3164 C 164.062 24.3164 169.58 18.6035 169.58 8.39844 L 169.58 -54.9316 C 169.58 -65.1855 164.062 -70.8984 153.711 -70.8984 L 141.846 -70.8984 L 138.623 -89.0625 C 136.816 -99.1211 130.42 -103.809 120.215 -102.002 L 29.3457 -85.9863 C 19.1406 -84.1797 14.6484 -77.7832 16.4551 -67.5781 Z M 29.9805 -5.76172 L 18.9941 -67.8711 C 17.4316 -76.6113 21.2402 -81.9336 29.9805 -83.4961 L 120.459 -99.4629 C 128.857 -100.928 134.57 -97.3145 136.133 -88.4766 L 139.16 -70.8984 L 61.5234 -70.8984 C 51.123 -70.8984 45.6055 -65.332 45.6055 -54.9316 L 45.6055 5.17578 C 36.8652 6.83594 31.543 2.97852 29.9805 -5.76172 Z M 48.1445 -54.834 C 48.1445 -63.7207 52.7344 -68.3105 61.6699 -68.3105 L 153.516 -68.3105 C 162.109 -68.3105 167.041 -63.7207 167.041 -54.834 L 167.041 1.51367 L 139.355 -23.5352 C 136.426 -26.2207 133.398 -27.7832 129.59 -27.7832 C 125.879 -27.7832 123.145 -26.2695 120.068 -23.6328 L 93.5059 -0.878906 L 83.5449 -10.0586 C 81.0059 -12.5 78.7109 -13.7695 75.4883 -13.7695 C 72.4121 -13.7695 70.3613 -12.4512 67.7734 -10.1562 L 48.1445 8.05664 Z M 84.5215 -22.5586 C 92.1387 -22.5586 98.3887 -28.8574 98.3887 -36.6699 C 98.3887 -44.2383 92.1387 -50.6836 84.5215 -50.6836 C 76.7578 -50.6836 70.5078 -44.2383 70.5078 -36.6699 C 70.5078 -28.8574 76.7578 -22.5586 84.5215 -22.5586 Z"/>
  </g>
  <g id="Black-M" transform="matrix(1 0 0 1 2849.12 1126)">
   <path d="M 21.7773 -13.3301 C 23.877 -1.41602 32.1777 4.49219 43.9941 2.58789 L 43.9941 3.75977 C 43.9941 16.0156 51.2695 23.291 63.5254 23.291 L 136.621 23.291 C 148.828 23.291 156.104 16.0156 156.104 3.75977 L 156.104 -47.9004 C 156.104 -60.1562 148.828 -67.4316 136.621 -67.4316 L 126.123 -67.4316 L 123.291 -83.6426 C 121.143 -95.6543 112.744 -101.611 100.684 -99.4629 L 28.7109 -86.8164 C 16.6504 -84.7168 10.7422 -76.2207 12.8906 -64.1602 Z M 39.3066 -19.3359 L 31.3477 -64.4531 C 30.8105 -67.5293 31.9824 -68.7988 34.7168 -69.2871 L 100.977 -81.0059 C 103.711 -81.4941 105.273 -80.6641 105.811 -77.5391 L 107.568 -67.4316 L 63.5254 -67.4316 C 51.2695 -67.4316 43.9941 -60.1562 43.9941 -47.9004 L 43.9941 -15.918 C 41.4062 -15.4785 39.8926 -16.3086 39.3066 -19.3359 Z M 62.2559 -44.9707 C 62.2559 -48.0469 63.623 -49.1699 66.4551 -49.1699 L 133.643 -49.1699 C 136.475 -49.1699 137.842 -48.0469 137.842 -44.9707 L 137.842 -8.00781 L 121.191 -23.291 C 119.482 -24.8535 117.48 -25.6348 115.186 -25.6348 C 113.086 -25.6348 110.889 -24.8535 109.082 -23.291 L 90.4297 -6.78711 L 82.9102 -13.623 C 81.2988 -15.0391 79.3945 -15.7715 77.4414 -15.7715 C 75.5371 -15.7715 73.4863 -15.0879 71.9727 -13.6719 L 62.2559 -4.63867 Z M 87.5488 -20.459 C 93.4082 -20.459 98.4863 -25.6348 98.4863 -31.2012 C 98.4863 -37.1094 93.4082 -42.2363 87.5488 -42.2363 C 81.9824 -42.2363 76.8066 -37.1094 76.8066 -31.2012 C 76.8066 -25.6348 81.9824 -20.459 87.5488 -20.459 Z"/>
  </g>
  <g id="Heavy-M" transform="matrix(1 0 0 1 2554.07 1126)">
   <path d="M 21.6797 -13.3301 C 23.7305 -1.80664 31.543 3.66211 43.0664 1.66016 L 43.0664 3.07617 C 43.0664 14.7949 49.8047 21.5332 61.5723 21.5332 L 134.229 21.5332 C 145.996 21.5332 152.783 14.7949 152.783 3.07617 L 152.783 -48.0469 C 152.783 -59.8145 145.996 -66.5527 134.229 -66.5527 L 123.73 -66.5527 L 120.898 -82.7148 C 118.848 -94.2383 111.035 -99.7559 99.4629 -97.7051 L 27.9297 -85.1074 C 16.3086 -83.1055 10.8398 -75.2441 12.8906 -63.6719 Z M 36.9141 -18.3594 L 28.8086 -64.1113 C 28.1738 -67.627 29.5898 -69.3359 32.8613 -69.9219 L 99.9512 -81.7871 C 103.174 -82.3242 105.078 -81.2012 105.713 -77.6855 L 107.666 -66.5527 L 61.5723 -66.5527 C 49.8047 -66.5527 43.0664 -59.8145 43.0664 -48.0469 L 43.0664 -14.3555 L 42.6758 -14.3066 C 39.4531 -13.7207 37.5488 -14.8926 36.9141 -18.3594 Z M 58.8867 -45.752 C 58.8867 -49.2676 60.5469 -50.7324 63.8672 -50.7324 L 131.982 -50.7324 C 135.254 -50.7324 136.963 -49.2676 136.963 -45.752 L 136.963 -8.34961 L 120.068 -23.9258 C 118.262 -25.5859 116.113 -26.416 113.77 -26.416 C 111.523 -26.416 109.326 -25.5859 107.422 -23.9258 L 88.0371 -6.78711 L 80.2246 -13.8672 C 78.5156 -15.3809 76.5137 -16.1621 74.5117 -16.1621 C 72.5586 -16.1621 70.5078 -15.4297 68.8965 -13.916 L 58.8867 -4.78516 Z M 83.9844 -21.4844 C 89.8926 -21.4844 95.0195 -26.6602 95.0195 -32.373 C 95.0195 -38.3789 89.8926 -43.5059 83.9844 -43.5059 C 78.2227 -43.5059 73.0469 -38.3789 73.0469 -32.373 C 73.0469 -26.6602 78.2227 -21.4844 83.9844 -21.4844 Z"/>
  </g>
  <g id="Bold-M" transform="matrix(1 0 0 1 2259.24 1126)">
   <path d="M 21.582 -13.3789 C 23.5352 -2.39258 30.7129 2.63672 41.7969 0.634766 L 42.041 0.634766 L 42.041 2.29492 C 42.041 13.4277 48.1934 19.6289 59.4727 19.6289 L 131.592 19.6289 C 142.822 19.6289 149.023 13.4277 149.023 2.29492 L 149.023 -48.2422 C 149.023 -59.4238 142.822 -65.5762 131.592 -65.5762 L 121.045 -65.5762 L 118.213 -81.7383 C 116.26 -92.6758 109.131 -97.7051 98.0469 -95.752 L 27.002 -83.252 C 15.918 -81.2988 10.9375 -74.1211 12.8418 -63.1348 Z M 34.1797 -17.2852 L 26.0254 -63.7695 C 25.293 -67.7734 26.9531 -69.9707 30.7617 -70.6055 L 98.8281 -82.666 C 102.588 -83.3008 104.932 -81.8359 105.664 -77.7832 L 107.812 -65.5762 L 59.4727 -65.5762 C 48.1934 -65.5762 42.041 -59.4238 42.041 -48.2422 L 42.041 -12.6465 L 41.0156 -12.4512 C 37.2559 -11.8164 34.9121 -13.2812 34.1797 -17.2852 Z M 55.127 -46.582 C 55.127 -50.6348 57.1289 -52.4902 60.9863 -52.4902 L 130.078 -52.4902 C 133.887 -52.4902 135.986 -50.6348 135.986 -46.582 L 135.986 -8.69141 L 118.799 -24.6582 C 116.895 -26.416 114.6 -27.2949 112.158 -27.2949 C 109.766 -27.2949 107.52 -26.416 105.518 -24.707 L 85.3516 -6.83594 L 77.2461 -14.1113 C 75.4395 -15.7715 73.3398 -16.6016 71.2402 -16.6016 C 69.2383 -16.6016 67.1875 -15.8203 65.4297 -14.209 L 55.127 -4.93164 Z M 79.9805 -22.6562 C 85.9863 -22.6562 91.1133 -27.7832 91.1133 -33.7402 C 91.1133 -39.7949 85.9863 -44.9219 79.9805 -44.9219 C 74.0234 -44.9219 68.8965 -39.7949 68.8965 -33.7402 C 68.8965 -27.7832 74.0234 -22.6562 79.9805 -22.6562 Z"/>
  </g>
  <g id="Semibold-M" transform="matrix(1 0 0 1 1963.82 1126)">
   <path d="M 21.5332 -13.3789 C 23.3398 -2.7832 30.0781 1.85547 40.8203 -0.0488281 L 41.3086 -0.0976562 L 41.3086 1.75781 C 41.3086 12.5 47.1191 18.2617 57.959 18.2617 L 129.785 18.2617 C 140.625 18.2617 146.436 12.5 146.436 1.75781 L 146.436 -48.3887 C 146.436 -59.1309 140.625 -64.8926 129.785 -64.8926 L 119.189 -64.8926 L 116.357 -81.0059 C 114.453 -91.5527 107.764 -96.2891 97.0703 -94.4336 L 26.3672 -81.9336 C 15.6738 -80.0293 10.9863 -73.3887 12.8418 -62.7441 Z M 32.3242 -16.5039 L 24.0723 -63.5254 C 23.291 -67.8711 25.1465 -70.3613 29.2969 -71.0938 L 98.0469 -83.252 C 102.148 -83.9844 104.785 -82.2754 105.566 -77.8809 L 107.861 -64.8926 L 57.959 -64.8926 C 47.1191 -64.8926 41.3086 -59.1309 41.3086 -48.3887 L 41.3086 -11.4746 L 39.8926 -11.1816 C 35.7422 -10.4492 33.1055 -12.207 32.3242 -16.5039 Z M 52.4902 -47.168 C 52.4902 -51.6113 54.7852 -53.7109 58.9844 -53.7109 L 128.76 -53.7109 C 132.959 -53.7109 135.303 -51.6113 135.303 -47.168 L 135.303 -8.93555 L 117.92 -25.1465 C 115.967 -27.002 113.574 -27.9297 111.084 -27.9297 C 108.594 -27.9297 106.299 -27.002 104.199 -25.1953 L 83.4961 -6.83594 L 75.1953 -14.3066 C 73.291 -16.0156 71.1914 -16.8945 68.9941 -16.8945 C 66.9434 -16.8945 64.8926 -16.0645 63.0371 -14.4043 L 52.4902 -5.0293 Z M 77.1973 -23.4375 C 83.3008 -23.4375 88.4277 -28.5645 88.4277 -34.6191 C 88.4277 -40.7715 83.3008 -45.8984 77.1973 -45.8984 C 71.1426 -45.8984 66.0156 -40.7715 66.0156 -34.6191 C 66.0156 -28.5645 71.1426 -23.4375 77.1973 -23.4375 Z"/>
  </g>
  <g id="Medium-M" transform="matrix(1 0 0 1 1668.09 1126)">
   <path d="M 21.4355 -13.4277 C 23.2422 -3.125 29.6387 1.31836 40.0879 -0.537109 L 40.7715 -0.683594 L 40.7715 1.36719 C 40.7715 11.8164 46.2891 17.2852 56.8359 17.2852 L 128.418 17.2852 C 138.965 17.2852 144.482 11.8164 144.482 1.36719 L 144.482 -48.4863 C 144.482 -58.9355 138.965 -64.4043 128.418 -64.4043 L 117.822 -64.4043 L 114.941 -80.4688 C 113.135 -90.7227 106.787 -95.2148 96.3867 -93.4082 L 25.9277 -80.957 C 15.4785 -79.1016 11.0352 -72.8027 12.8418 -62.4512 Z M 30.9082 -15.9668 L 22.5586 -63.3301 C 21.7285 -67.9688 23.7793 -70.7031 28.2227 -71.4844 L 97.4121 -83.6914 C 101.807 -84.4727 104.688 -82.5684 105.518 -77.9297 L 107.91 -64.4043 L 56.8359 -64.4043 C 46.2891 -64.4043 40.7715 -58.9355 40.7715 -48.4863 L 40.7715 -10.5469 L 39.0137 -10.2539 C 34.5703 -9.42383 31.7383 -11.377 30.9082 -15.9668 Z M 50.5371 -47.6074 C 50.5371 -52.2949 52.9785 -54.6387 57.4707 -54.6387 L 127.783 -54.6387 C 132.275 -54.6387 134.766 -52.2949 134.766 -47.6074 L 134.766 -9.08203 L 117.285 -25.5371 C 115.234 -27.3926 112.793 -28.3691 110.254 -28.3691 C 107.666 -28.3691 105.371 -27.4414 103.223 -25.5859 L 82.0801 -6.83594 L 73.6328 -14.4531 C 71.6797 -16.2109 69.5312 -17.1387 67.2852 -17.1387 C 65.1855 -17.1387 63.1836 -16.2598 61.2305 -14.5508 L 50.5371 -5.12695 Z M 75.0977 -24.0234 C 81.25 -24.0234 86.377 -29.1504 86.377 -35.3027 C 86.377 -41.5039 81.25 -46.6309 75.0977 -46.6309 C 68.9453 -46.6309 63.8184 -41.5039 63.8184 -35.3027 C 63.8184 -29.1504 68.9453 -24.0234 75.0977 -24.0234 Z"/>
  </g>
  <g id="Regular-M" transform="matrix(1 0 0 1 1372.65 1126)">
   <path d="M 21.3867 -13.4277 C 23.0957 -3.51562 29.0039 0.585938 39.1113 -1.2207 L 40.0879 -1.36719 L 40.0879 0.830078 C 40.0879 10.8887 45.166 15.9668 55.4199 15.9668 L 126.611 15.9668 C 136.816 15.9668 141.943 10.8887 141.943 0.830078 L 141.943 -48.584 C 141.943 -58.6426 136.816 -63.7207 126.611 -63.7207 L 116.016 -63.7207 L 113.135 -79.7852 C 111.377 -89.6484 105.469 -93.8477 95.4102 -92.041 L 25.293 -79.6387 C 15.1855 -77.8809 11.1328 -72.0703 12.8418 -62.1094 Z M 29.0527 -15.2344 L 20.6543 -63.0859 C 19.7754 -68.0176 21.9727 -71.0938 26.8066 -71.9727 L 96.6797 -84.2773 C 101.416 -85.1074 104.59 -83.0078 105.469 -78.0273 L 108.008 -63.7207 L 55.4199 -63.7207 C 45.166 -63.7207 40.0879 -58.6914 40.0879 -48.584 L 40.0879 -9.375 L 37.8906 -8.98438 C 33.1055 -8.10547 29.9805 -10.2539 29.0527 -15.2344 Z M 47.9492 -48.1445 C 47.9492 -53.2227 50.6348 -55.8594 55.5176 -55.8594 L 126.514 -55.8594 C 131.348 -55.8594 134.082 -53.2227 134.082 -48.1445 L 134.082 -9.32617 L 116.406 -26.0254 C 114.307 -27.9785 111.768 -28.9551 109.18 -28.9551 C 106.494 -28.9551 104.15 -28.0273 101.904 -26.0742 L 80.2734 -6.83594 L 71.582 -14.6484 C 69.5312 -16.4551 67.334 -17.4316 65.0391 -17.4316 C 62.9395 -17.4316 60.8887 -16.5039 58.8867 -14.6973 L 47.9492 -5.22461 Z M 72.3633 -24.8047 C 78.6133 -24.8047 83.6914 -29.9316 83.6914 -36.2305 C 83.6914 -42.4316 78.6133 -47.6074 72.3633 -47.6074 C 66.1133 -47.6074 60.9863 -42.4316 60.9863 -36.2305 C 60.9863 -29.9316 66.1133 -24.8047 72.3633 -24.8047 Z"/>
  </g>
  <g id="Light-M" transform="matrix(1 0 0 1 1077.57 1126)">
   <path d="M 21.3379 -12.9883 C 22.998 -3.66211 28.6133 0.292969 38.0371 -1.41602 L 38.623 -1.5625 L 38.623 0.0976562 C 38.623 9.57031 43.457 14.4043 53.0273 14.4043 L 124.316 14.4043 C 133.838 14.4043 138.672 9.52148 138.672 0.0976562 L 138.672 -49.1699 C 138.672 -58.5938 133.838 -63.4277 124.316 -63.4277 L 114.111 -63.4277 L 111.377 -78.9062 C 109.717 -88.1348 104.102 -92.1387 94.7266 -90.4785 L 24.5117 -78.0762 C 15.0879 -76.416 11.1816 -70.8496 12.793 -61.5234 Z M 27.2461 -14.3555 L 18.7988 -62.3047 C 17.8223 -67.8223 20.2637 -71.1914 25.6836 -72.168 L 95.6543 -84.5215 C 100.928 -85.4492 104.492 -83.1055 105.469 -77.5391 L 107.959 -63.4277 L 53.0273 -63.4277 C 43.457 -63.4277 38.623 -58.6426 38.623 -49.1699 L 38.623 -7.66602 L 37.1094 -7.42188 C 31.6895 -6.44531 28.2715 -8.83789 27.2461 -14.3555 Z M 44.6289 -48.877 C 44.6289 -54.4922 47.6074 -57.4219 53.125 -57.4219 L 124.17 -57.4219 C 129.541 -57.4219 132.666 -54.4922 132.666 -48.877 L 132.666 -8.49609 L 113.818 -26.0742 C 111.67 -28.0762 109.18 -29.1016 106.445 -29.1016 C 103.711 -29.1016 101.465 -28.125 99.1699 -26.123 L 77.832 -7.42188 L 69.4824 -14.9902 C 67.4316 -16.8457 65.3809 -17.7734 63.0371 -17.7734 C 60.791 -17.7734 58.9355 -16.8457 56.8848 -15.0391 L 44.6289 -4.19922 Z M 70.2637 -25 C 76.3672 -25 81.3965 -30.0293 81.3965 -36.2793 C 81.3965 -42.3828 76.3672 -47.4609 70.2637 -47.4609 C 64.0625 -47.4609 59.0332 -42.3828 59.0332 -36.2793 C 59.0332 -30.0293 64.0625 -25 70.2637 -25 Z"/>
  </g>
  <g id="Thin-M" transform="matrix(1 0 0 1 783.009 1126)">
   <path d="M 21.3379 -12.3535 C 22.8027 -3.85742 28.0273 -0.0976562 36.5723 -1.70898 L 36.6699 -1.75781 L 36.6699 -0.78125 C 36.6699 7.8125 41.2109 12.3047 49.8535 12.3047 L 121.24 12.3047 C 129.883 12.3047 134.375 7.71484 134.375 -0.78125 L 134.375 -49.9512 C 134.375 -58.4961 129.883 -63.0859 121.24 -63.0859 L 111.621 -63.0859 L 109.033 -77.7344 C 107.52 -86.1328 102.295 -89.8926 93.7988 -88.4277 L 23.4863 -76.0254 C 14.9414 -74.5117 11.2793 -69.2871 12.793 -60.791 Z M 24.8535 -13.1836 L 16.4062 -61.2305 C 15.2832 -67.4805 18.0176 -71.3379 24.2188 -72.4609 L 94.2871 -84.8145 C 100.293 -85.8398 104.395 -83.252 105.518 -76.9531 L 107.91 -63.0859 L 49.8535 -63.0859 C 41.2109 -63.0859 36.6699 -58.5938 36.6699 -49.9512 L 36.6699 -5.41992 L 36.084 -5.32227 C 29.834 -4.15039 25.9766 -6.93359 24.8535 -13.1836 Z M 40.2832 -49.8047 C 40.2832 -56.1523 43.6035 -59.4727 49.9512 -59.4727 L 121.094 -59.4727 C 127.246 -59.4727 130.762 -56.1523 130.762 -49.8047 L 130.762 -7.42188 L 110.352 -26.123 C 108.154 -28.1738 105.762 -29.2969 102.881 -29.2969 C 100.049 -29.2969 97.9004 -28.2227 95.5566 -26.1719 L 74.6582 -8.10547 L 66.6992 -15.4297 C 64.6973 -17.2852 62.793 -18.2617 60.3516 -18.2617 C 58.0078 -18.2617 56.2988 -17.2852 54.2969 -15.4785 L 40.2832 -2.73438 Z M 67.4316 -25.2441 C 73.4375 -25.2441 78.3203 -30.2246 78.3203 -36.2793 C 78.3203 -42.2852 73.4375 -47.3145 67.4316 -47.3145 C 61.3281 -47.3145 56.4453 -42.2852 56.4453 -36.2793 C 56.4453 -30.2246 61.3281 -25.2441 67.4316 -25.2441 Z"/>
  </g>
  <g id="Ultralight-M" transform="matrix(1 0 0 1 487.397 1126)">
   <path d="M 21.2891 -12.0605 C 22.7051 -4.05273 27.6855 -0.341797 35.6934 -1.85547 L 35.6934 -1.26953 C 35.6934 6.93359 40.0391 11.2793 48.1934 11.2793 L 119.629 11.2793 C 127.832 11.2793 132.178 6.78711 132.178 -1.26953 L 132.178 -50.3906 C 132.178 -58.4473 127.832 -62.9395 119.629 -62.9395 L 110.352 -62.9395 L 107.812 -77.1484 C 106.396 -85.1074 101.367 -88.7695 93.3105 -87.3535 L 22.9492 -74.9512 C 14.8926 -73.4863 11.3281 -68.457 12.7441 -60.4004 Z M 23.6328 -12.5977 L 15.1367 -60.6934 C 13.9648 -67.334 16.8457 -71.4355 23.4863 -72.6074 L 93.6035 -84.9609 C 100 -86.084 104.297 -83.3008 105.518 -76.6113 L 107.861 -62.9395 L 48.1934 -62.9395 C 40.0391 -62.9395 35.6934 -58.5449 35.6934 -50.3906 L 35.6934 -4.29688 L 35.5469 -4.24805 C 28.9062 -3.02734 24.8047 -5.95703 23.6328 -12.5977 Z M 38.0859 -50.2441 C 38.0859 -57.0312 41.5527 -60.5469 48.3398 -60.5469 L 119.531 -60.5469 C 126.025 -60.5469 129.785 -57.0312 129.785 -50.2441 L 129.785 -6.88477 L 108.594 -26.1719 C 106.348 -28.2227 104.004 -29.3945 101.074 -29.3945 C 98.1934 -29.3945 96.0449 -28.2715 93.7012 -26.2207 L 72.998 -8.49609 L 65.2344 -15.625 C 63.2324 -17.5293 61.4746 -18.5059 58.9355 -18.5059 C 56.5918 -18.5059 54.9805 -17.5293 52.9785 -15.7227 L 38.0859 -1.95312 Z M 66.0156 -25.3418 C 71.9238 -25.3418 76.7578 -30.2734 76.7578 -36.3281 C 76.7578 -42.2363 71.9238 -47.2168 66.0156 -47.2168 C 59.9609 -47.2168 55.0781 -42.2363 55.0781 -36.3281 C 55.0781 -30.2734 59.9609 -25.3418 66.0156 -25.3418 Z"/>
  </g>
  <g id="Black-S" transform="matrix(1 0 0 1 2867.46 696)">
   <path d="M 17.0898 -18.0664 C 18.7012 -8.74023 25.1953 -4.15039 34.4238 -5.66406 L 34.4238 -4.73633 C 34.4238 4.83398 40.0879 10.498 49.6582 10.498 L 106.885 10.498 C 116.455 10.498 122.119 4.83398 122.119 -4.73633 L 122.119 -45.166 C 122.119 -54.7363 116.455 -60.4004 106.885 -60.4004 L 98.6328 -60.4004 L 96.4355 -73.0957 C 94.7754 -82.4707 88.2324 -87.1094 78.8086 -85.4492 L 22.4609 -75.5371 C 13.0371 -73.877 8.44727 -67.2852 10.1074 -57.8613 Z M 30.6641 -22.7051 L 24.4141 -58.1055 C 23.9746 -60.5469 24.9023 -61.5723 27.0996 -61.9629 L 79.0527 -71.1426 C 81.25 -71.5332 82.4707 -70.8496 82.9102 -68.4082 L 84.3262 -60.4004 L 49.6582 -60.4004 C 40.0879 -60.4004 34.4238 -54.7363 34.4238 -45.166 L 34.4238 -20.0195 C 32.3242 -19.6289 31.1035 -20.3125 30.6641 -22.7051 Z M 48.584 -42.9199 C 48.584 -45.3613 49.6582 -46.2402 51.9043 -46.2402 L 104.639 -46.2402 C 106.885 -46.2402 107.959 -45.3613 107.959 -42.9199 L 107.959 -13.9648 L 94.9219 -25.9277 C 93.5547 -27.1484 91.9922 -27.7832 90.1855 -27.7832 C 88.5254 -27.7832 86.8164 -27.1484 85.4004 -25.9277 L 70.7031 -12.9395 L 64.7949 -18.3105 C 63.5254 -19.4336 62.0117 -20.0195 60.498 -20.0195 C 58.9844 -20.0195 57.373 -19.4824 56.2012 -18.3594 L 48.584 -11.2793 Z M 68.3594 -23.7305 C 72.9492 -23.7305 76.9531 -27.7832 76.9531 -32.1777 C 76.9531 -36.8164 72.9492 -40.8203 68.3594 -40.8203 C 63.9648 -40.8203 59.9121 -36.8164 59.9121 -32.1777 C 59.9121 -27.7832 63.9648 -23.7305 68.3594 -23.7305 Z"/>
  </g>
  <g id="Heavy-S" transform="matrix(1 0 0 1 2571.85 696)">
   <path d="M 16.9922 -18.1641 C 18.6035 -9.0332 24.7559 -4.78516 33.8867 -6.34766 L 33.8867 -5.17578 C 33.8867 4.05273 39.1602 9.32617 48.4375 9.32617 L 105.322 9.32617 C 114.6 9.32617 119.922 4.05273 119.922 -5.17578 L 119.922 -45.2148 C 119.922 -54.4922 114.6 -59.7656 105.322 -59.7656 L 97.0215 -59.7656 L 94.7754 -72.5098 C 93.1641 -81.543 87.0605 -85.8887 77.9297 -84.2773 L 21.9238 -74.4141 C 12.793 -72.8027 8.49609 -66.6504 10.1074 -57.5684 Z M 29.0039 -22.0703 L 22.6562 -57.959 C 22.168 -60.6445 23.291 -61.9629 25.7812 -62.4023 L 78.3691 -71.7285 C 80.8594 -72.168 82.373 -71.2891 82.8613 -68.5547 L 84.375 -59.7656 L 48.4375 -59.7656 C 39.1602 -59.7656 33.8867 -54.4922 33.8867 -45.2148 L 33.8867 -18.9941 L 33.4473 -18.9453 C 30.957 -18.5059 29.4922 -19.3848 29.0039 -22.0703 Z M 46.3379 -43.4082 C 46.3379 -46.1426 47.6562 -47.2656 50.1953 -47.2656 L 103.613 -47.2656 C 106.152 -47.2656 107.422 -46.1426 107.422 -43.4082 L 107.422 -14.2578 L 94.3359 -26.416 C 92.9199 -27.6855 91.2598 -28.3691 89.4043 -28.3691 C 87.6465 -28.3691 85.8887 -27.7344 84.4238 -26.416 L 69.1406 -12.8906 L 62.9883 -18.457 C 61.6211 -19.6777 60.0586 -20.2637 58.4961 -20.2637 C 56.9336 -20.2637 55.3223 -19.6777 54.0527 -18.5059 L 46.3379 -11.5234 Z M 65.8691 -24.5117 C 70.5078 -24.5117 74.5117 -28.5645 74.5117 -33.0566 C 74.5117 -37.793 70.5078 -41.7969 65.8691 -41.7969 C 61.3281 -41.7969 57.2754 -37.793 57.2754 -33.0566 C 57.2754 -28.5645 61.3281 -24.5117 65.8691 -24.5117 Z"/>
  </g>
  <g id="Bold-S" transform="matrix(1 0 0 1 2276.38 696)">
   <path d="M 16.9434 -18.2129 C 18.457 -9.47266 24.1211 -5.51758 32.959 -7.08008 L 33.252 -7.12891 L 33.252 -5.71289 C 33.252 3.17383 38.1348 8.05664 47.1191 8.05664 L 103.613 8.05664 C 112.549 8.05664 117.432 3.17383 117.432 -5.71289 L 117.432 -45.2637 C 117.432 -54.1504 112.549 -59.0332 103.613 -59.0332 L 95.2148 -59.0332 L 92.9688 -71.8262 C 91.4062 -80.5664 85.7422 -84.5215 76.9531 -83.0078 L 21.3379 -73.1934 C 12.5 -71.6309 8.54492 -65.9668 10.1074 -57.2266 Z M 27.1484 -21.3379 L 20.752 -57.7637 C 20.2148 -60.791 21.4844 -62.4512 24.3164 -62.9395 L 77.6367 -72.3633 C 80.4688 -72.8516 82.2266 -71.7285 82.7637 -68.7012 L 84.4727 -59.0332 L 47.1191 -59.0332 C 38.1348 -59.0332 33.252 -54.1504 33.252 -45.2637 L 33.252 -17.9199 L 32.2754 -17.7246 C 29.4434 -17.2363 27.6855 -18.3594 27.1484 -21.3379 Z M 43.8477 -43.9941 C 43.8477 -47.0703 45.4102 -48.4375 48.291 -48.4375 L 102.441 -48.4375 C 105.322 -48.4375 106.836 -47.0703 106.836 -43.9941 L 106.836 -14.6484 L 93.7012 -26.9531 C 92.1875 -28.3203 90.4297 -29.0039 88.5254 -29.0039 C 86.6699 -29.0039 84.8633 -28.3691 83.3008 -27.002 L 67.3828 -12.8418 L 60.9375 -18.6523 C 59.5215 -19.9219 57.8613 -20.5566 56.2012 -20.5566 C 54.6387 -20.5566 53.0273 -19.9707 51.6602 -18.7012 L 43.8477 -11.7676 Z M 63.0371 -25.3418 C 67.8223 -25.3418 71.8262 -29.3945 71.8262 -34.082 C 71.8262 -38.8672 67.8223 -42.9199 63.0371 -42.9199 C 58.3496 -42.9199 54.3457 -38.8672 54.3457 -34.082 C 54.3457 -29.3945 58.3496 -25.3418 63.0371 -25.3418 Z"/>
  </g>
  <g id="Semibold-S" transform="matrix(1 0 0 1 1980.5 696)">
   <path d="M 16.8457 -18.2617 C 18.3594 -9.81445 23.7305 -6.10352 32.3242 -7.61719 L 32.8613 -7.71484 L 32.8613 -6.05469 C 32.8613 2.58789 37.4512 7.17773 46.1914 7.17773 L 102.441 7.17773 C 111.133 7.17773 115.771 2.58789 115.771 -6.05469 L 115.771 -45.3125 C 115.771 -53.9551 111.133 -58.5449 102.441 -58.5449 L 93.9941 -58.5449 L 91.6992 -71.3867 C 90.1855 -79.834 84.8633 -83.5938 76.2695 -82.0801 L 20.9473 -72.3145 C 12.3047 -70.8008 8.59375 -65.4785 10.1074 -56.9824 Z M 25.8789 -20.8496 L 19.3848 -57.666 C 18.7988 -60.8887 20.2148 -62.7441 23.291 -63.2812 L 77.1484 -72.8027 C 80.1758 -73.3398 82.1289 -72.0703 82.7148 -68.7988 L 84.5215 -58.5449 L 46.1914 -58.5449 C 37.4512 -58.5449 32.8613 -53.9551 32.8613 -45.3125 L 32.8613 -17.1387 L 31.4941 -16.8945 C 28.418 -16.3574 26.4648 -17.627 25.8789 -20.8496 Z M 42.1387 -44.3359 C 42.1387 -47.6562 43.8477 -49.2188 46.9727 -49.2188 L 101.66 -49.2188 C 104.736 -49.2188 106.445 -47.6562 106.445 -44.3359 L 106.445 -14.8926 L 93.2617 -27.3438 C 91.6992 -28.7598 89.8438 -29.4434 87.8906 -29.4434 C 85.9863 -29.4434 84.1309 -28.8086 82.5195 -27.3438 L 66.1621 -12.793 L 59.5703 -18.75 C 58.0566 -20.0684 56.3477 -20.752 54.6875 -20.752 C 53.0762 -20.752 51.4648 -20.1172 50 -18.7988 L 42.1387 -11.9141 Z M 61.1328 -25.9277 C 65.918 -25.9277 69.9707 -29.9805 69.9707 -34.7656 C 69.9707 -39.5996 65.918 -43.6523 61.1328 -43.6523 C 56.3477 -43.6523 52.2949 -39.5996 52.2949 -34.7656 C 52.2949 -29.9805 56.3477 -25.9277 61.1328 -25.9277 Z"/>
  </g>
  <g id="Medium-S" transform="matrix(1 0 0 1 1684.45 696)">
   <path d="M 16.8457 -18.3105 C 18.2617 -10.0098 23.3887 -6.49414 31.8359 -7.95898 L 32.5195 -8.10547 L 32.5195 -6.29883 C 32.5195 2.14844 36.9141 6.49414 45.5078 6.49414 L 101.514 6.49414 C 110.059 6.49414 114.453 2.14844 114.453 -6.29883 L 114.453 -45.3613 C 114.453 -53.8086 110.059 -58.1543 101.514 -58.1543 L 93.0176 -58.1543 L 90.7227 -71.0449 C 89.2578 -79.2969 84.1797 -82.9102 75.7812 -81.3965 L 20.6055 -71.6309 C 12.1582 -70.166 8.64258 -65.1367 10.0586 -56.7871 Z M 24.9023 -20.459 L 18.4082 -57.5684 C 17.7734 -60.9375 19.2871 -62.9883 22.5098 -63.5742 L 76.7578 -73.1445 C 79.9805 -73.6816 82.0801 -72.3145 82.666 -68.8477 L 84.5703 -58.1543 L 45.5078 -58.1543 C 36.9141 -58.1543 32.5195 -53.8086 32.5195 -45.3613 L 32.5195 -16.5527 L 30.8594 -16.2598 C 27.6367 -15.6738 25.5371 -17.0898 24.9023 -20.459 Z M 40.8691 -44.6289 C 40.8691 -48.1445 42.6758 -49.8535 45.9961 -49.8535 L 101.025 -49.8535 C 104.297 -49.8535 106.152 -48.1445 106.152 -44.6289 L 106.152 -15.0879 L 92.9199 -27.6367 C 91.3574 -29.1016 89.4043 -29.7852 87.4512 -29.7852 C 85.4492 -29.7852 83.5938 -29.1016 81.9336 -27.6367 L 65.2344 -12.793 L 58.4961 -18.8477 C 56.9336 -20.2148 55.2246 -20.8984 53.5156 -20.8984 C 51.9043 -20.8984 50.2441 -20.2637 48.7305 -18.8965 L 40.8691 -12.0605 Z M 59.668 -26.416 C 64.502 -26.416 68.5547 -30.4199 68.5547 -35.3027 C 68.5547 -40.1855 64.502 -44.2383 59.668 -44.2383 C 54.7852 -44.2383 50.7324 -40.1855 50.7324 -35.3027 C 50.7324 -30.4199 54.7852 -26.416 59.668 -26.416 Z"/>
  </g>
  <g id="Regular-S" transform="matrix(1 0 0 1 1388.57 696)">
   <path d="M 16.748 -18.4082 C 18.1641 -10.3027 22.9492 -7.03125 31.2012 -8.49609 L 32.1289 -8.64258 L 32.1289 -6.64062 C 32.1289 1.5625 36.2305 5.61523 44.5801 5.61523 L 100.342 5.61523 C 108.643 5.61523 112.793 1.5625 112.793 -6.64062 L 112.793 -45.4102 C 112.793 -53.6133 108.643 -57.666 100.342 -57.666 L 91.7969 -57.666 L 89.502 -70.5566 C 88.0371 -78.6133 83.3008 -81.9824 75.0977 -80.5176 L 20.2148 -70.8008 C 11.9629 -69.3359 8.69141 -64.6484 10.0586 -56.543 Z M 23.6816 -19.9707 L 17.0898 -57.4219 C 16.4062 -61.0352 18.0664 -63.2812 21.5332 -63.916 L 76.2207 -73.584 C 79.6875 -74.1699 81.9824 -72.6074 82.666 -68.9941 L 84.668 -57.666 L 44.5801 -57.666 C 36.2305 -57.666 32.1289 -53.6133 32.1289 -45.4102 L 32.1289 -15.7715 L 30.0781 -15.4297 C 26.6113 -14.8438 24.3164 -16.3574 23.6816 -19.9707 Z M 39.1602 -45.0195 C 39.1602 -48.7305 41.1621 -50.6348 44.6777 -50.6348 L 100.244 -50.6348 C 103.76 -50.6348 105.762 -48.7305 105.762 -45.0195 L 105.762 -15.3809 L 92.4805 -27.9785 C 90.8691 -29.4922 88.8184 -30.2246 86.8652 -30.2246 C 84.8145 -30.2246 82.9102 -29.541 81.2012 -28.0273 L 64.0625 -12.7441 L 57.1289 -18.9453 C 55.5176 -20.3613 53.7109 -21.0938 51.9531 -21.0938 C 50.3418 -21.0938 48.6816 -20.4102 47.0703 -18.9941 L 39.1602 -12.207 Z M 57.7637 -27.002 C 62.6465 -27.002 66.6992 -31.0059 66.6992 -35.9863 C 66.6992 -40.918 62.6465 -45.0195 57.7637 -45.0195 C 52.7832 -45.0195 48.7305 -40.918 48.7305 -35.9863 C 48.7305 -31.0059 52.7832 -27.002 57.7637 -27.002 Z"/>
  </g>
  <g id="Light-S" transform="matrix(1 0 0 1 1093.29 696)">
   <path d="M 16.748 -17.9688 C 18.0664 -10.4492 22.5586 -7.27539 30.2246 -8.69141 L 30.8105 -8.78906 L 30.8105 -7.27539 C 30.8105 0.390625 34.7168 4.24805 42.4316 4.24805 L 98.291 4.24805 C 106.006 4.24805 109.912 0.341797 109.912 -7.27539 L 109.912 -45.9473 C 109.912 -53.5645 106.006 -57.4219 98.291 -57.4219 L 90.1367 -57.4219 L 87.9395 -69.7754 C 86.5723 -77.2949 82.0801 -80.4688 74.4629 -79.1016 L 19.5312 -69.3848 C 11.8652 -68.0664 8.74023 -63.623 10.0586 -56.0547 Z M 22.0703 -19.1895 L 15.4297 -56.7383 C 14.6973 -60.8398 16.5527 -63.3789 20.5566 -64.1113 L 75.3418 -73.7793 C 79.248 -74.4629 81.9336 -72.7051 82.666 -68.5547 L 84.6191 -57.4219 L 42.4316 -57.4219 C 34.7168 -57.4219 30.8105 -53.5645 30.8105 -45.9473 L 30.8105 -14.3066 L 29.3945 -14.0137 C 25.3906 -13.3301 22.8027 -15.0879 22.0703 -19.1895 Z M 36.2305 -45.6543 C 36.2305 -49.8535 38.4766 -52.002 42.5293 -52.002 L 98.1934 -52.002 C 102.197 -52.002 104.492 -49.8535 104.492 -45.6543 L 104.492 -14.5996 L 90.1855 -28.0273 C 88.5254 -29.5898 86.5234 -30.3711 84.4727 -30.3711 C 82.3242 -30.3711 80.5176 -29.6387 78.7598 -28.0762 L 61.9141 -13.2324 L 55.2246 -19.2383 C 53.6621 -20.6543 52.002 -21.4355 50.1465 -21.4355 C 48.4375 -21.4355 46.9238 -20.7031 45.3613 -19.2871 L 36.2305 -11.3281 Z M 55.8594 -27.1484 C 60.6934 -27.1484 64.6484 -31.1035 64.6484 -36.0352 C 64.6484 -40.8691 60.6934 -44.873 55.8594 -44.873 C 50.9766 -44.873 47.0215 -40.8691 47.0215 -36.0352 C 47.0215 -31.1035 50.9766 -27.1484 55.8594 -27.1484 Z"/>
  </g>
  <g id="Thin-S" transform="matrix(1 0 0 1 798.488 696)">
   <path d="M 16.6992 -17.4316 C 17.9199 -10.6445 22.0703 -7.61719 28.9551 -8.93555 L 29.1016 -8.93555 L 29.1016 -8.05664 C 29.1016 -1.17188 32.7148 2.44141 39.6484 2.44141 L 95.5566 2.44141 C 102.49 2.44141 106.104 -1.2207 106.104 -8.05664 L 106.104 -46.6309 C 106.104 -53.4668 102.49 -57.1289 95.5566 -57.1289 L 87.9395 -57.1289 L 85.8887 -68.75 C 84.668 -75.4883 80.5176 -78.5156 73.6816 -77.2949 L 18.6035 -67.5781 C 11.7676 -66.3574 8.83789 -62.207 10.0098 -55.4199 Z M 19.9219 -18.1641 L 13.3301 -55.8105 C 12.4512 -60.5957 14.5508 -63.4766 19.2871 -64.3555 L 74.1211 -74.0234 C 78.7109 -74.8047 81.7871 -72.8027 82.666 -68.0176 L 84.5703 -57.1289 L 39.6484 -57.1289 C 32.7148 -57.1289 29.1016 -53.5645 29.1016 -46.6309 L 29.1016 -12.3047 L 28.4668 -12.207 C 23.7305 -11.3281 20.8008 -13.4277 19.9219 -18.1641 Z M 32.4219 -46.4355 C 32.4219 -51.3184 34.9609 -53.8086 39.7461 -53.8086 L 95.459 -53.8086 C 100.146 -53.8086 102.832 -51.3184 102.832 -46.4355 L 102.832 -13.623 L 87.1094 -28.0762 C 85.4004 -29.6875 83.4961 -30.5664 81.2988 -30.5664 C 79.1016 -30.5664 77.3926 -29.7363 75.5371 -28.125 L 59.082 -13.8672 L 52.7832 -19.6289 C 51.2207 -21.0938 49.707 -21.8262 47.8027 -21.8262 C 45.9961 -21.8262 44.6289 -21.0938 43.0664 -19.6777 L 32.4219 -10.0586 Z M 53.3691 -27.3438 C 58.1055 -27.3438 61.9629 -31.25 61.9629 -36.0352 C 61.9629 -40.7715 58.1055 -44.7266 53.3691 -44.7266 C 48.584 -44.7266 44.7266 -40.7715 44.7266 -36.0352 C 44.7266 -31.25 48.584 -27.3438 53.3691 -27.3438 Z"/>
  </g>
  <g id="Ultralight-S" transform="matrix(1 0 0 1 502.753 696)">
   <path d="M 16.6992 -17.1387 C 17.8223 -10.7422 21.8262 -7.8125 28.2227 -9.0332 L 28.2227 -8.49609 C 28.2227 -1.95312 31.6895 1.46484 38.2324 1.46484 L 94.1895 1.46484 C 100.684 1.46484 104.15 -2.05078 104.15 -8.49609 L 104.15 -46.9727 C 104.15 -53.418 100.684 -56.9824 94.1895 -56.9824 L 86.8164 -56.9824 L 84.8145 -68.2129 C 83.6914 -74.5605 79.6875 -77.4902 73.2422 -76.3184 L 18.1152 -66.6016 C 11.6699 -65.4785 8.88672 -61.4746 10.0098 -55.0781 Z M 18.8477 -17.627 L 12.207 -55.3223 C 11.2793 -60.4492 13.5254 -63.5742 18.6035 -64.4531 L 73.5352 -74.1211 C 78.418 -75 81.7383 -72.9004 82.666 -67.7246 L 84.5215 -56.9824 L 38.2324 -56.9824 C 31.6895 -56.9824 28.2227 -53.5156 28.2227 -46.9727 L 28.2227 -11.2793 L 27.9785 -11.2305 C 22.9004 -10.3027 19.7754 -12.5488 18.8477 -17.627 Z M 30.4199 -46.875 C 30.4199 -52.0508 33.1543 -54.7852 38.3301 -54.7852 L 94.0918 -54.7852 C 99.0723 -54.7852 101.953 -52.0508 101.953 -46.875 L 101.953 -13.1836 L 85.5469 -28.125 C 83.7891 -29.7363 81.9336 -30.6641 79.6875 -30.6641 C 77.4414 -30.6641 75.7812 -29.7852 73.9258 -28.1738 L 57.666 -14.1602 L 51.5137 -19.8242 C 49.9512 -21.2891 48.5352 -22.0703 46.582 -22.0703 C 44.7266 -22.0703 43.457 -21.2891 41.8945 -19.873 L 30.4199 -9.375 Z M 52.0996 -27.4414 C 56.7383 -27.4414 60.5957 -31.3477 60.5957 -36.084 C 60.5957 -40.7227 56.7383 -44.6289 52.0996 -44.6289 C 47.3633 -44.6289 43.5547 -40.7227 43.5547 -36.084 C 43.5547 -31.3477 47.3633 -27.4414 52.0996 -27.4414 Z"/>
  </g>
 </g>
</svg>
